<?xml version="1.0" encoding="UTF-8"?>
<svg xmlns="http://www.w3.org/2000/svg" version="1.1" viewBox="0 0 512 512">
  <defs>
    <style>
      .cls-1 {
        fill: #ded0e6;
      }

      .cls-2 {
        fill: #77509f;
      }
    </style>
  </defs>
  <!-- Generator: Adobe Illustrator 28.7.1, SVG Export Plug-In . SVG Version: 1.2.0 Build 142)  -->
  <g>
    <g id="Layer_1">
      <g>
        <g>
          <path class="cls-1" d="M444.6,422.8c-4.5-8.1-16.3-33.5-2.1-59.1,18-32.5,41.2-30.7,49.5-32.7,15.7-3.9,23.5-17.9,18.4-33.1-2.2-6.6-6.4-12-11.2-16.9-5.4-5.5-11.5-10.1-17.7-14.5-3.9-2.7-7.9-5.4-11.8-8.1-5.9-4.1-12.5-7.3-17.9-12.1-1.8-1.6-3.1-3.4-4-5.2-1.8-3.9-1.4-8.1,1.3-12,1.5-2.2,3.5-4,5.5-5.7,4.8-4,9.7-7.7,14.1-12.1,9-8.9,8.8-22.4-.3-30.6-5.5-5-12.2-6.2-19.4-5.9-10.5.5-32.1,7.9-43.7-13.8-7.7-14.3,3.8-32.7,7.3-36.9,6-7.4,11.7-15.1,13.7-24.6,2.7-12.3-1.9-21.3-10.6-27-9.7-6.3-20-6-30-.4-8,4.5-14.3,10.9-20.5,17.4-5.6,6-26.1,20.5-43.6,7.2-27.8-21.4-12.3-41.6-13.9-54.2-1.6-12.9-9.5-22.4-22.5-26.3-10.9-3.2-24.6,1.4-31.8,10.7-8.4,10.7-3.7,26.6-12.3,36.6-16.5,19.1-22.7,15.8-34.1,17.7-11.9,2-30.9-12-35-18.7-5.7-9.2-14.2-13.4-24.3-11.5-11.7,2.2-17.2,12.6-18,25.3-.9,14.1-2.1,21.6-18.6,40.6-10.5,12.1-44.9,9.3-53.8,7.5-16.2-3.1-31.5,8.8-31.5,25,0,11.7,6.4,20.4,14.8,27.9,7.9,7,17.6,11.3,26.7,16.4,8.3,4.6,14,11.2,16.4,20.4,2.3,8.8,2,17.6.6,26.5-1.2,7.9-3.7,15.5-8,22.3-6,9.4-15,14.7-25.1,18.7-8.9,3.5-18.2,6.4-26.3,11.8-15.3,10.1-18.2,27.9-7,42.4,4.9,6.3,11.3,10.5,18.3,13.9,12.7,6.3,26.4,9.4,39.9,13.2,7.9,2.2,16,3.2,23.6,6.3,1,.4,1.9.9,2.8,1.4,5.9,3.5,8.3,9.3,6.6,16.1-.7,2.9-2.2,5.6-3.7,8.2-1.5,2.5-3,5-4.5,7.5-2.1,3.5-4.2,7-5.9,10.7-6.2,12.9-.8,27.3,11.9,32.7,7.8,3.3,15.4,2.1,22.9-.9,11-4.4,20.8-11.1,31.5-16.1,6.8-3.2,13.7-5.4,21.4-4.6,4.7.5,8.8,2.9,11.2,6.4,1.3,1.9,2.2,4.1,2.4,6.4.3,4.5-.4,8.8-1.1,13.2-1.2,7.6-1.8,15.2,0,22.8,1.8,7.3,5.5,13.1,10.5,17.1,5.1,4,11.6,6.1,19.1,5.9,7.8-.3,16.6-.8,22-6.3,24.2-24.4,14.2-46,29.5-47.7,21.7-2.3,24.3,13,24,17.9-.4,6.7-1.4,13.4,0,20.2,2,9.3,7.9,15.2,16.9,16.6,10.4,1.6,20.9-4.7,22.5-15.8.9-6.3-.2-12.4-1.6-18.5-1-4.4-2.4-8.7-3.2-13.1-1.9-9.9,2.1-17.6,10-23.3,11.5-8.3,26.7-6.6,37.7,3.9,5.3,5,9.7,10.8,14.4,16.3,5.1,6,10.5,11.7,17.5,15.7,12.6,7.3,28.9,1.9,33.7-11.7,3.5-9.7.7-18.8-4.1-27.5Z"/>
          <path class="cls-1" d="M495.7,382.5c-8.7-3.3-18.1.8-21.3,9.3-3.3,8.6,1.1,18.2,9.7,21.4,8.8,3.3,18.2-.8,21.4-9.4,3.2-8.6-1.1-18.1-9.8-21.3Z"/>
          <path class="cls-1" d="M340.1,74.8c7.9,2.6,16.2-1.2,18.9-8.9,2.9-8.1-1.5-16.3-8.9-19.1-8.7-3.3-17,1.8-19.3,8.9-3.2,8.5,2.1,16.7,9.3,19.1Z"/>
          <path class="cls-1" d="M90,378.9c-5-1.9-10.3.5-12.2,5.4-2.2,5.7,1.6,10.8,5.7,12.4,4.8,1.9,10.4-.7,12.2-5.5,1.9-5.1-.5-10.4-5.7-12.3Z"/>
        </g>
        <g id="Layer_1-2" data-name="Layer_1">
          <g>
            <path class="cls-2" d="M478.3,357.1c-17.8-7.7-36.8-10.7-55.9-13.2-18-2.3-36-4-54.3-6.1,1.9-4.8,4.5-3.8,7.7-3.2,5.4,1.2,11.2,2.7,16.4,1.9,35.9-5.1,61-24.6,73.9-58.5,9.4-24.9-3.4-43.7-29.9-45.3-8-.5-16.1,0-24.5,0,.2-3,.4-5.1.6-7.2,1.3-19.5-.2-21.6-18.7-27.5-3.6-1.1-7.1-2-10.7-2.8-42.2-9.5-85-10.2-127.9-8.2-24,1.1-48.1,3.5-71.4,10.3.4-.9.9-1.6,1.3-2.5,1-1.9,1.6-3.8,4.2-4,.9,0,1.6-1,1.9-1.8.8-2.4,2.8-3.6,4.6-4.8,11.9-8.3,24.2-15.7,38-20.6,5.3-1.8,10.7-3.4,16.3-3.2,3.8.2,4.4,1.2,2.6,4.5-2.4,4.5-6.1,7-11.3,6.8-1.8,0-3.7,0-5.4.7-1.3.6-2.4,1.4-2.2,3.1.2,1.5,1.3,2.1,2.6,2.4,4.6,1.1,8.8,0,12.4-3,4.3-3.5,6.9-8.2,8.9-13.3.5-1.3,0-1.9-1-2.6-3-2.6-6.5-3-10.3-2.6-7,.8-13.4,3.5-19.6,6.6-11.6,5.8-22.4,13-33,20.6-1,.7-1.8,1.9-3.3,1.3-.3-.4-.2-.8,0-1.1,10-15.4,21-30,35.4-41.5,3.5-2.8,7.1-5.4,11.5-6.6,3.1-.9,3.6-.4,3.3,2.9-.6,5.7-3.5,9.5-8.8,11.4-1.9.7-3.8,1.5-5,3.2-.7,1-1.1,1.9-.6,3.1.6,1.3,1.6,1.3,2.8,1.3,3.1-.2,5.7-1.5,7.8-3.6,5.8-5.5,7-12.6,7.3-20,0-1.3-1.1-1.6-2-1.9-3.1-1-6-.3-8.8,1-5.5,2.5-9.9,6.4-14.1,10.8-10.9,11.1-19.8,23.7-28.2,36.7-1.9,3.1-4,5.8-7.4,7.3-2.1,1-4,2.4-6,4.2-.6-1.5.6-2.3,1.2-3.2,11.5-17.4,21-35.8,27-55.8,5.9-19.2,8.2-38.8,4.3-58.8-2.8-14.6-8.8-27.8-17.8-39.6-2.1-2.7-3.7-2.8-6-.2-2.9,3.2-4.6,7-6.3,10.9-6.3,14.3-11.1,29.2-16.3,43.9-3.2,8.9-6.3,17.9-11,26.3-2.3,4.2-4.9,8.4-9.3,11.4-.9-3.6-1.6-6.7-2.5-9.9-8.6-30.9-25-56.8-49.3-77.7-2.6-2.2-5.3-4.2-8.3-6-3.9-2.3-7.3-1.4-9.7,2.5-1.3,2.1-1.8,4.5-2.1,7-1,7.8,1.1,15,3.8,22.2,2.2,6,4.4,12,6.5,18.1,1.1,3.1,1.8,6.3,2,9.6.4,6.3-1.3,11.7-6.3,16-5.5,4.6-11,9-16.4,13.7-3.8,3.2-7,6.6-9.5,11-5.1,8.9-4.9,17.8.8,26.3,6.4,9.7,15.6,16.3,25.3,22.3,3.6,2.2,7.2,4.1,11.3,6.4-3,.6-5.7.4-8.2,1.2-7.4,2.2-12.3,7.3-16.3,13.5-3.2,4.8-5.5,10.1-7.7,15.4-4.6,11-12,19.3-23.6,23.5-4.8,1.7-9.7,2.3-15.5,1.5,3.2,3.5,6.4,5.7,9.8,7.6,3.9,2.3,8.2,4,12.7,4.9,2.3.5,2.7,1.6,2.2,3.7-1.3,5.3-4.2,9.7-7.6,13.8-5.7,7.1-13,12.2-21.3,16.1-3.8,1.7-7.5,3.8-10.8,6.5-1.6,1.4-3.8,3.1-2.7,5.5,1.1,2.2,3.7,2.1,5.9,2.1,4.8-.2,8.8-2.4,11.4-6.2,8-11.5,18.5-20.8,28.1-30.7,2.3-2.4,4.3-5,6.1-7.7.5-.8,1-1.5,2.1-1.5,7.7,0,15-1.8,22.3-4,0,0,.3,0,1.1.2-8.5,7.4-18.1,11.6-29.3,13.3,1.8,6,6,9.3,11,11.9,5.1,2.6,10.7,3,16.3,2.7.8,3.1,0,5.8-1.2,8.4-4,9.4-10.7,16.9-18.5,23.5-5.8,4.8-12.5,7.8-19.1,11.2-3.4,1.6-6.6,3.5-9.7,5.7-1.2.8-2.2,1.6-3.2,2.6-1.5,1.5-3,3.2-2.2,5.5.8,2.1,3,2.2,4.8,2.6,4.1.9,8-.3,11.4-2.5,3.5-2.1,6.4-4.9,8.7-8.3,6.3-9.5,14.5-17.4,22.9-25.1,5.5-5.1,10.9-10.3,15.5-16.3,1.8-2.3,3.8-4.6,4.6-7.4,1-3.1,3.1-4,5.8-5,13.4-4.6,25.7-11,35.3-21.7,2.8-3.2,5.4-6.5,6.9-10.5,3.8-9.8,10.2-17.4,17.8-24.3,1.4-1.3,2.6-3,4.6-3.8,0,1.4-1,2.1-1.5,3-9,12.2-17.6,24.7-23.6,38.8-2.5,5.9-4.4,11.8-4.4,18.3s.7,6.9,2.8,9.8c2.2,3,2.9,3.1,5.4.4,3.4-3.6,5-8,4.8-12.8-.2-5.9.7-11.4,2.2-17,3.5-12.7,8.2-24.8,14.8-36.2.5-.9,1-1.6,1.5-2.3,0,2.8.5,6,1,9.7,5.2,39.9,18.2,76.5,44.5,109.8-14.8,1.3-27.6,2.3-40.4,3.8-24.1,2.9-48.5,5.5-71.4,14.5-5.7,2.2-13.4,4.1-13.1,11.6.3,7.2,7.9,9.3,13.7,11.3,16.7,5.9,33.7,9.8,51.5,12,65.9,8.1,131.8,9.2,198,7,17.4-.6,33.9-5.9,51.3-5.7,27.9.3,54.8-5.1,81.1-14.4,5.1-1.8,11.3-4.1,11.5-10.6.2-6.6-6.3-8.6-11.3-10.7h.2ZM404.2,265.3c1.7-7.2,5.8-10.6,12.7-11.3,10.6-1,23.2-4,29.8,5.9,6.8,10.3-.9,20.6-7.7,28.9-10.9,13.5-24.3,23.6-41.6,27.4-4.3,1-8.7,1.6-13.7-1.3,9-16.2,16.3-32.3,20.5-49.6ZM76.7,170.5c-7-7.5-8.7-16.1-4.9-25.6,1.6-4.1,4-7.8,7-11.1,4.1-4.4,7.5-9.4,9.7-15.2,5-12.8,4.4-25.8,1.3-38.8-.8-3.2-1.6-6.4-2.5-9.6,17.1,16.9,30.1,36.3,37.8,59.5-3.3.6-6.1,1.9-8.8,2.9-.7-.6-.7-1.3-.8-1.9-1.5-6.8-2.9-13.8-5.1-20.5-1.7-5.2-3.4-10.5-6.8-14.8-1.4-1.7-3.3-2.8-5.6-1.8-2.3,1-3.1,3-3,5.4.2,4,1.8,7.5,5,10,7.6,5.9,11.5,13.9,14,23,.4,1.3.3,2.1-.9,3.1-7.8,6.2-10.5,14.5-9.2,24.1,1.3,10.9,6.9,19.4,14.3,27.1,1.2,1.2,2.3,2.3,3.5,3.6-11.4-1.9-22.3-4.9-32.4-10.2-4.6-2.4-8.9-5.3-12.6-9.1h0ZM67.5,245.2c-5.6.2-11.1,0-16.5-1.3,10.4-1.3,18.7-6.4,25.8-13.8,3.2-3.3,6.1-6.8,8.8-10.5,3.1-3.8,5.9-8,9.6-11.3,2.1-1.9,4.4-3.4,8.3-2.9-3.6,3.1-6,6.3-7.9,9.8-1.9,3.7-3.5,7.5-4.8,11.3-1.3,4-2.8,8.1-4,12.2-.7,2.2-1.9,3.2-4.1,3.8-4.9,1.4-10,2.2-15.1,2.5h0ZM139.4,225.2c-2.6,6.3-6,12.1-10.4,17.3-9.8,11.5-21.5,19.7-37.2,20.7-3.9.3-7.9.6-12.5-1,1.3-.4,1.9-.6,2.5-.7,9.5-2.2,16.4-8,21.4-16.3,3.8-6.3,5.9-13.2,7.2-20.3.6-2.9,1.3-5.7,2.8-8.3,4.6-8.1,15-10.3,22.5-4.8,4.6,3.4,6,7.9,3.7,13.3h0ZM159.8,216.3c.2-.6.3-1.3,1.1-.9,0,.5-.2.9-1.1.9ZM150.4,191.4c-2.6,3.5-4.1,3.8-8,1.8-1.2-.6-2.3-1.3-3.2-2.2-5.1-5.3-9.8-10.9-12.7-17.7-4-9.5-2.3-18.4,5-25.7,5.5-5.6,12.2-9.4,19.5-11.8,6.2-2,10.1-6.1,13-11.4,7.6-14.1,12.6-29.1,15.4-44.9.3-1.4.4-2.9,2-3.8.3.3.6.5.6.8.2.7.4,1.4.6,2.1,3.5,12.9,3.7,26.1,1.4,39.1-4.7,27.6-17.2,51.6-33.8,73.9h0ZM182.1,226.2c-1.2-8.1,5.2-10,10.7-11.8,20.5-7,41.9-8,63.2-9.4,10.3-.7,20.7,0,31,0,32-1.2,63.5,3.1,94.7,10.1,9,2,12.2,6.5,10.7,15.6-5.5,30.7-14.3,59.4-34.3,84.8-33,41.8-88.2,48.5-128.3,12.8-30.3-27-41.9-63.2-47.6-101.8h0ZM439.7,373.2c-25.9,8.6-52.9,10.5-79.7,12.3-67.2,4.4-134.4,3.9-201.3-6-11-1.6-21.8-3.9-32-8.3-3.3-1.3-7.5-2.9-7.4-7.3,0-4.3,4.1-5.8,7.6-7.1,23.4-9,48.2-10.2,72.7-13.5,11-1.4,17.1,2.8,23.5,10.8-13.8,3.4-27.9,2-40.8,8.8,3.9,6.8,11,6.5,16.4,7.2,58.2,7.1,116.4,7,174.6,0,5.5-.7,11.7-1.1,16.7-6.5-11.5-8.2-25.3-5.1-37.6-9.6,5.3-7.5,11.1-11.8,21.5-10.6,22,2.7,44.1,4.3,65.4,11.2,5.4,1.7,13.3,2.6,13.1,9.6-.2,6.2-7.5,7.1-12.7,8.8h0Z"/>
            <path class="cls-2" d="M151.7,397.7c8.4,7.6,18.6,7,28.2,8.6,61.6,9.9,123.6,9.5,185.5,3.6,18.5-1.7,38.2-.8,57.6-13.8-92.4,10.4-181.8,10.3-271.3,1.7h0Z"/>
            <path class="cls-2" d="M296.2,130.7c6.3,5.1,12.3,10.5,17.1,17.1,6.5,9,5.2,17.9-.3,26.8,17.6-.6,26.9-16.6,18-31-7-11.1-17.8-18.5-27.3-27.2-10.1-9.3-20.8-18.1-26.3-31.4-1.9-4.6-2.2-8.7-.4-14.6-15.7,13.1-16.9,24.7-5.5,38.2,7.2,8.5,16.2,15.1,24.7,22h0Z"/>
            <path class="cls-2" d="M279.4,151.3c8.8,7,16.8,14.3,12,27.3l-.3.2c15.3-6.6,14.7-21.6-.3-30.8-10.6-6.4-20.6-13.5-23-27.3-7.5,7.2-6.3,13.9,0,20.4,3.6,3.7,7.6,7,11.5,10.2h0Z"/>
            <path class="cls-2" d="M321.7,175.6l-.6.3.3.2.3-.5h0Z"/>
            <path class="cls-2" d="M212,233c17.4,3.8,35.1,4.8,52.7,5.7,32.5,1.5,64.9.5,96.9-5.6,6.6-1.3,14.8-1.2,18.6-9.1-25.1-18.7-162.1-18.8-186,.2,4.5,7.1,11.4,7.5,17.7,8.8h0Z"/>
            <path class="cls-2" d="M317.3,276.9c14.3,12.1,16.5,28.7,7.6,42.4-3.6,5.5-9.5,8.3-12.9,13.6,38.1-16.2,50.4-51.2,63.3-88.3-31,6.1-60.8,6.3-90.9,7.2,14.2,4.5,22.5,16.3,32.9,25.1Z"/>
            <path class="cls-2" d="M234.9,323.9c2.1-1.7-.2-3.4-1.7-4.5-11.5-22.7-21.7-45.8-20.5-71.9-6.2-1.7-11.5-3.3-18.4-5.2,9.6,28.9,17.8,56.5,37.1,79,1,1.3,1.8,3.8,3.5,2.5h0Z"/>
            <path class="cls-2" d="M101.1,164.2c.6.6,1.5,1.3,2.4.5.7-.6.8-1.5.4-2.3-3.9-7.8-5.5-16.4-9.3-24.2-.7-1.4-1.3-3.5-3.3-3.2-1.9.4-1.8,2.5-2,4-.3,2.1,0,4.2.2,6.4,1.9,7.3,6.3,13.3,11.7,18.7h0Z"/>
            <path class="cls-2" d="M102.6,170.4c-1-1.8-2.3-2.5-3.7-3-5.5-2.1-9.8-5.5-13.2-10.3-1.1-1.4-2.4-3.8-4.5-2.6-2.3,1.3-1.1,3.8-.4,5.7,1.6,4.5,5,7.4,9.3,8.9,3.8,1.4,7.9,2,12.4,1.2h0Z"/>
            <path class="cls-2" d="M181.5,99.5c-1.4-.7-2.4.5-3.3,1.3-3.7,3.8-5.4,8.5-5.1,13.5,1.2,18.1-4,34.6-10.9,51-.6,1.3-1.1,2.7-1.6,4,.2,0,.4.3.6.4,6.5-11.1,11.3-22.9,15.2-35.1,3-9.7,5-19.6,6-29.7,0-.8.2-1.4.2-2.2,0-1.2.2-2.6-1.1-3.2Z"/>
            <path class="cls-2" d="M148,151.8c-.2-1.9-.5-3.8-1.3-5.6-.4-.9-.8-1.7-1.8-1.9-1.3,0-1.7.9-2.2,1.7-1.9,3.9-2.3,8.1-1.5,12.3,1.1,5.9,3.5,11.2,6.5,16.2.5.8,1,1.8,2.4,1.7,0-.4.2-.7,0-1.1-2.1-7.7-1.3-15.7-2.2-23.5h0Z"/>
            <path class="cls-2" d="M135.3,164.1c-1-1.6-2-4.2-4.3-3.4-2.5.9-1.7,3.6-1.4,5.6,1.1,7.6,10.1,15.4,18.3,15-6.3-4.7-9-11.2-12.5-17.1h0Z"/>
            <path class="cls-2" d="M167.3,164.1c.2-.5.4-.9.6-1.3-.2-.2-.4-.3-.5-.5-.6.5-.6,1,0,1.7h0Z"/>
          </g>
        </g>
      </g>
    </g>
  </g>
</svg>