<?xml version="1.0" encoding="UTF-8"?>
<svg xmlns="http://www.w3.org/2000/svg" version="1.1" viewBox="0 0 512 512">
  <defs>
    <style>
      .cls-1 {
        fill: #77509f;
      }
    </style>
  </defs>
  <!-- Generator: Adobe Illustrator 28.7.1, SVG Export Plug-In . SVG Version: 1.2.0 Build 142)  -->
  <g>
    <g id="Layer_1">
      <path class="cls-1" d="M35.6,437.9c8.2,4.4,16.4,8.2,25.3,10.1,4.4,1.3,24.6,3.2,27.2,3.2,15.2,0,30.3-3.8,44.9-8.2h1.9c-17.1,15.2-36,23.4-58.8,26.5,3.8,12,12,19,22.1,24,10.1,5.1,21.5,5.7,32.9,5.7s34.1-8.2,39.8-10.7c27.2-9.5,51.8-22.1,70.8-43.6,5.7-6.3,10.7-13.3,13.9-20.8,7.6-19.6,20.2-34.7,36-48.6,3.2-2.5,5.1-5.7,9.5-7.6,0,3.2-1.9,4.4-3.2,5.7-18.3,24.6-35.4,49.9-47.4,78.3-5.1,12-8.8,24-8.8,36.6s1.3,13.9,5.7,19.6c4.4,5.7,5.7,6.3,10.7.6,6.9-6.9,10.1-15.8,9.5-25.9,0-12,1.3-22.7,4.4-34.1,6.9-25.3,16.4-49.9,29.7-72.7,1.3-1.9,1.9-3.2,3.2-4.4,0,0,8.8-3.2,20.2-8.8,10.7-5.7,24-32.9,24-32.9.6-1.9,1.9-3.2,2.5-5.1,1.9-3.8,3.2-7.6,8.2-8.2,1.9,0,3.2-1.9,3.8-3.8,1.3-5.1,5.7-6.9,9.5-9.5,24-16.4,48.6-31.6,76.4-41.1,10.7-3.8,21.5-6.9,32.9-6.3,7.6,0,8.8,2.5,5.1,8.8-5.1,8.8-12,13.9-22.7,13.9s-7.6,0-10.7,1.3c-2.5,1.3-5.1,3.2-4.4,6.3,0,3.2,2.5,4.4,5.1,5.1,9.5,1.9,17.7,0,24.6-5.7,8.8-6.9,13.9-16.4,17.7-26.5,1.3-2.5,0-3.8-1.9-5.1-5.7-5.1-13.3-5.7-20.8-5.1-13.9,1.3-27.2,6.9-39.2,13.3-23.4,11.4-44.9,25.9-66.3,41.1-1.9,1.3-3.8,3.8-6.3,2.5v-1.9c20.2-31,42.3-60,71.4-83.4,6.9-5.7,14.5-10.7,23.4-13.3,6.3-1.9,6.9-.6,6.3,5.7-1.3,11.4-6.9,19-17.7,22.7-3.8,1.3-7.6,3.2-10.1,6.3-1.3,1.9-1.9,3.8-1.3,6.3,1.3,2.5,3.2,2.5,5.7,2.5,6.3,0,11.4-3.2,15.8-6.9,11.4-10.7,13.9-25.3,14.5-40.4,0-2.5-1.9-3.2-3.8-3.8-6.3-1.9-12,0-17.7,1.9-10.7,5.1-19.6,12.6-28.4,21.5-22.1,22.1-39.8,47.4-56.9,73.9-3.8,6.3-8.2,11.4-15.2,14.5-4.4,1.9-8.2,5.1-12,8.2-1.3-3.2,1.3-4.4,2.5-6.3,23.4-34.7,42.3-72,54.3-111.8,12-38.5,16.4-77.7,8.8-118.1-5.7-29.1-17.7-55.6-36-79.6-4.4-5.7-7.6-5.7-12,0-5.7,6.3-9.5,13.9-12.6,22.1-12.6,29.1-22.1,58.8-32.9,88.5-6.3,17.7-12.6,36-22.1,52.4-4.4,8.2-10.1,17.1-19,22.7-1.9-6.9-3.2-13.3-5.1-19.6-17.1-61.9-50.5-114.4-99.2-156.1-5.1-4.4-10.7-8.2-16.4-12-8.2-4.4-14.5-3.2-19.6,5.1-2.5,4.4-3.8,8.8-4.4,13.9-1.9,15.8,1.9,30.3,7.6,44.9,4.4,12,8.8,24,13.3,36,1.9,6.3,3.8,12.6,3.8,19.6.6,12.6-2.5,23.4-12.6,32.2-10.7,9.5-22.1,18.3-32.9,27.2-7.6,6.3-13.9,13.3-19,22.1-10.1,17.7-10.1,36,1.3,53.1,12.6,19.6,31.6,32.9,50.5,44.9,6.9,4.4,14.5,8.2,22.7,12.6-5.7,1.3-11.4.6-16.4,2.5-15.2,4.4-24.6,14.5-32.9,27.2-6.3,9.5-10.7,20.2-15.2,31-9.5,22.1-24,38.5-47.4,47.4-9.5,3.8-19.6,4.4-31,3.2,6.3,6.9,12.6,11.4,19.6,15.2l1.3-1.9ZM259.9,384.8c-5.1,12.6-12,24.6-20.8,34.7-19.6,23.4-43.6,39.8-74.6,41.7-8.2,0-15.8,1.3-25.3-1.9,2.5-.6,3.8-1.3,5.1-1.3,19-4.4,32.9-15.8,43-32.9,7.6-12.6,12-26.5,14.5-41.1,1.3-5.7,2.5-11.4,5.7-16.4,9.5-16.4,30.3-20.8,45.5-9.5,9.5,6.9,12,15.8,7.6,26.5h-.6ZM300.9,367.1c0-1.3,0-2.5,1.9-1.9,0,1.3,0,1.9-1.9,1.9ZM283.9,205.4c12.6-3.8,20.2-12,25.9-22.7,15.2-28.4,25.3-58.8,31-90.3,0-3.2.6-5.7,3.8-7.6l1.3,1.3c0,1.3.6,3.2,1.3,4.4,6.9,25.9,7.6,52.4,3.2,78.3-9.5,55.6-34.7,103.6-67.6,148.5h0c-5.1,6.9-8.2,7.6-15.8,3.8-2.5-1.3-4.4-2.5-6.3-4.4-10.1-10.7-19.6-22.1-25.3-35.4-8.2-19-4.4-36.6,10.1-51.8,10.7-11.4,24.6-19,39.2-24h-.6ZM134.1,274.9c-13.9-15.2-17.7-32.2-10.1-51.2,3.2-8.2,8.2-15.8,13.9-22.1,8.2-8.8,15.2-19,19.6-30.3,10.1-25.9,8.8-51.8,2.5-78.3-1.3-6.3-3.2-12.6-5.1-19.6,34.1,34.1,60.7,73.3,75.8,119.4-6.3,1.3-12,3.8-17.7,5.7-1.3-1.3-1.3-2.5-1.3-3.8-3.2-13.9-5.7-27.8-10.1-41.1-3.8-10.7-6.9-20.8-13.9-29.7-3.2-3.8-6.3-5.7-11.4-3.8-4.4,1.9-6.3,5.7-5.7,10.7,0,8.2,3.8,15.2,10.1,20.2,15.2,12,23.4,27.8,28.4,46.1.6,2.5,0,4.4-1.9,6.3-15.8,12.6-20.8,29.1-18.3,48.6,2.5,22.1,13.9,39.2,29.1,54.3,2.5,2.5,4.4,4.4,6.9,6.9-22.7-3.8-44.9-10.1-65.1-20.2-9.5-5.1-17.7-10.7-25.3-18.3h-.6ZM134.1,394.9c6.3-6.3,12-13.9,17.7-20.8,6.3-7.6,12-15.8,19.6-22.7,4.4-3.8,8.8-6.9,16.4-5.7-6.9,6.3-12,12.6-15.8,19.6-3.8,7.6-6.9,15.2-9.5,22.7-2.5,8.2-5.7,16.4-8.2,24.6-1.3,4.4-3.8,6.3-8.2,7.6-10.1,3.2-20.2,4.4-30.3,5.1-11.4,0-22.1,0-33.5-2.5,20.8-2.5,37.3-12.6,51.8-27.8h0Z"/>
    </g>
  </g>
</svg>