<?xml version="1.0" encoding="UTF-8"?>
<svg xmlns="http://www.w3.org/2000/svg" version="1.1" viewBox="0 0 512 512">
  <defs>
    <style>
      .cls-1 {
        fill: #090a14;
      }

      .cls-2 {
        fill: #861ccb;
      }

      .cls-3 {
        fill: #8f1dce;
      }

      .cls-4 {
        fill: #7650a1;
      }

      .cls-5 {
        fill: #311a6e;
      }
    </style>
  </defs>
  <!-- Generator: Adobe Illustrator 28.7.1, SVG Export Plug-In . SVG Version: 1.2.0 Build 142)  -->
  <g>
    <g id="Layer_1">
      <circle class="cls-2" cx="256" cy="256" r="256"/>
      <g id="Layer_1-2" data-name="Layer_1">
        <g>
          <g id="Layer_1-2">
            <g>
              <path class="cls-4" d="M335.5,1510.4c-16.8-7.2-34.7-10.1-52.6-12.4-16.9-2.2-33.9-3.8-51.2-5.7,1.8-4.5,4.3-3.5,7.2-3,5.1,1.1,10.5,2.5,15.5,1.8,33.8-4.8,57.4-23.2,69.5-55.1,8.9-23.5-3.2-41.1-28.2-42.7-7.5-.5-15.1,0-23.1,0,.2-2.8.4-4.8.5-6.8,1.2-18.4-.2-20.4-17.6-25.9-3.4-1-6.7-1.9-10.1-2.6-39.8-9-80-9.6-120.4-7.7-22.6,1-45.3,3.3-67.3,9.7.4-.8.8-1.5,1.2-2.4.9-1.8,1.5-3.6,4-3.8.8,0,1.5-.9,1.8-1.7.7-2.3,2.6-3.4,4.3-4.5,11.2-7.8,22.8-14.8,35.8-19.4,5-1.7,10.1-3.2,15.4-3,3.6.2,4.2,1.1,2.4,4.3-2.3,4.3-5.7,6.6-10.6,6.4-1.7,0-3.4,0-5.1.6-1.3.5-2.3,1.4-2.1,2.9.2,1.4,1.3,2,2.4,2.3,4.3,1,8.2,0,11.7-2.8,4.1-3.3,6.5-7.7,8.4-12.5.5-1.2,0-1.8-.9-2.4-2.8-2.4-6.2-2.8-9.7-2.4-6.6.7-12.6,3.3-18.5,6.2-11,5.4-21.1,12.2-31.1,19.4-.9.6-1.7,1.8-3.1,1.2-.3-.4-.2-.7,0-1,9.4-14.5,19.7-28.3,33.3-39.1,3.3-2.6,6.7-5.1,10.9-6.2,2.9-.8,3.4-.4,3.1,2.7-.5,5.3-3.3,9-8.2,10.8-1.8.6-3.5,1.4-4.7,3-.6.9-1,1.8-.5,2.9.5,1.2,1.5,1.3,2.6,1.2,2.9-.2,5.3-1.4,7.3-3.4,5.4-5.2,6.6-11.9,6.9-18.8,0-1.3-1-1.5-1.9-1.8-2.9-.9-5.6-.3-8.2.9-5.2,2.4-9.3,6.1-13.3,10.1-10.2,10.4-18.7,22.3-26.5,34.6-1.8,2.9-3.8,5.4-7,6.9-2,.9-3.8,2.3-5.6,4-.5-1.4.5-2.2,1.1-3,10.9-16.4,19.7-33.7,25.4-52.5,5.5-18.1,7.7-36.5,4.1-55.3-2.6-13.8-8.2-26.2-16.8-37.3-2-2.5-3.4-2.6-5.6-.2-2.7,3-4.3,6.6-5.9,10.2-5.9,13.5-10.4,27.5-15.3,41.4-3,8.4-6,16.8-10.3,24.7-2.2,4-4.6,7.9-8.8,10.8-.8-3.4-1.5-6.3-2.4-9.3-8.1-29.1-23.5-53.5-46.5-73.2-2.4-2.1-5-4-7.8-5.6-3.7-2.2-6.9-1.4-9.1,2.4-1.2,2-1.7,4.3-2,6.6-.9,7.3,1,14.1,3.5,20.9,2.1,5.6,4.2,11.3,6.2,17,1,2.9,1.7,6,1.9,9.1.4,5.9-1.3,11-6,15-5.2,4.3-10.3,8.5-15.5,12.9-3.5,3-6.6,6.2-9,10.3-4.8,8.4-4.6,16.8.7,24.8,6.1,9.1,14.7,15.4,23.8,21,3.4,2.1,6.8,3.9,10.6,6.1-2.8.5-5.3.4-7.7,1.1-7,2.1-11.6,6.9-15.4,12.7-3,4.5-5.2,9.5-7.2,14.5-4.3,10.3-11.3,18.2-22.2,22.1-4.5,1.6-9.1,2.2-14.6,1.4,3,3.3,6.1,5.3,9.2,7.2,3.7,2.2,7.7,3.8,12,4.6,2.2.5,11.6,1.5,12.7,1.5,7.2,0,14.1-1.7,21-3.8,0,0,.3,0,1,.2-8,7-17,11-27.6,12.5,1.7,5.6,5.6,8.8,10.3,11.2,4.8,2.4,10.1,2.8,15.4,2.5,5.8-.1,16.1-4,18.7-4.9,12.6-4.3,24.2-10.3,33.2-20.5,2.6-3,5.1-6.2,6.5-9.9,3.5-9.2,9.6-16.4,16.8-22.9,1.4-1.2,2.4-2.8,4.3-3.5,0,1.4-.9,2-1.4,2.8-8.5,11.5-16.6,23.3-22.2,36.6-2.4,5.5-4.2,11.1-4.2,17.2s.6,6.5,2.6,9.2c2.1,2.8,2.7,2.9,5.1.4,3.2-3.4,4.7-7.5,4.5-12-.2-5.5.6-10.8,2.1-16,3.3-12,7.7-23.4,13.9-34,.5-.8.9-1.5,1.4-2.2,0,2.6.5,5.6.9,9.1,4.9,37.6,17.1,72.1,41.9,103.4-13.9,1.3-26,2.2-38,3.6-22.7,2.7-45.6,5.2-67.2,13.7-5.3,2.1-12.6,3.9-12.3,11,.3,6.8,7.4,8.8,12.9,10.7,15.8,5.5,31.7,9.2,48.5,11.3,62,7.6,124.1,8.7,186.4,6.6,16.4-.5,32-5.5,48.3-5.3,26.3.3,51.6-4.8,76.3-13.6,4.8-1.7,10.7-3.9,10.9-10,.2-6.2-6-8.1-10.6-10.1h.8ZM265.7,1423.9c1.6-6.8,5.4-10,12-10.6,10-.9,21.8-3.8,28.1,5.5,6.4,9.7-.8,19.4-7.2,27.3-10.2,12.7-22.9,22.2-39.2,25.8-4.1.9-8.1,1.5-12.9-1.3,8.5-15.2,15.4-30.4,19.3-46.7h0ZM-42.8,1334.6c-6.6-7.1-8.1-15.1-4.6-24.1,1.5-3.9,3.8-7.3,6.6-10.4,3.9-4.2,7.1-8.9,9.1-14.3,4.7-12,4.2-24.3,1.2-36.6-.7-3-1.5-6.1-2.4-9.1,16.1,15.9,28.3,34.2,35.6,56.1-3.1.5-5.7,1.8-8.3,2.7-.6-.5-.6-1.2-.7-1.8-1.4-6.4-2.7-12.9-4.8-19.3-1.6-4.9-3.2-9.9-6.4-13.9-1.4-1.6-3.1-2.6-5.3-1.7s-2.9,2.8-2.8,5.1c.2,3.8,1.7,7.1,4.7,9.4,7.2,5.5,10.9,13.1,13.2,21.6.4,1.2.3,2-.8,2.9-7.3,5.8-9.9,13.7-8.7,22.7,1.3,10.2,6.5,18.3,13.5,25.5,1.1,1.1,2.2,2.2,3.3,3.4-10.8-1.8-21-4.6-30.5-9.6-4.3-2.3-8.4-5-11.9-8.6h0ZM-51.4,1405c-5.3.2-10.4,0-15.6-1.2,9.8-1.2,17.6-6.1,24.3-12.9,3-3.1,5.7-6.4,8.3-9.9,2.9-3.6,5.5-7.5,9.1-10.6,2-1.8,4.2-3.2,7.8-2.7-3.4,2.9-5.6,5.9-7.4,9.2-1.8,3.4-3.3,7.1-4.5,10.7-1.3,3.8-2.6,7.6-3.8,11.5-.6,2.1-1.8,3-3.9,3.5-4.6,1.4-9.4,2.1-14.2,2.4h0ZM16.3,1386.1c-2.4,5.9-5.6,11.4-9.8,16.3-9.2,10.9-20.3,18.6-35,19.5-3.7.3-7.4.5-11.8-.9,1.3-.4,1.8-.5,2.4-.6,9-2.1,15.5-7.5,20.2-15.3,3.5-5.9,5.5-12.4,6.8-19.1.5-2.7,1.2-5.3,2.6-7.8,4.3-7.6,14.1-9.7,21.2-4.5,4.3,3.2,5.6,7.4,3.4,12.5h0ZM35.6,1377.7c.2-.5.3-1.2,1-.8,0,.5-.2.8-1,.8ZM26.7,1354.4c-2.4,3.3-3.9,3.6-7.5,1.7-1.1-.5-2.2-1.2-3-2.1-4.8-5-9.2-10.2-12-16.7-3.8-9-2.2-17.3,4.7-24.2,5.2-5.3,11.5-8.9,18.4-11.1,5.8-1.9,9.5-5.7,12.2-10.8,7.2-13.3,11.9-27.4,14.5-42.3.3-1.4.4-2.7,1.9-3.6.3.3.5.5.5.7.2.6.4,1.4.5,2,3.3,12.1,3.4,24.5,1.4,36.9-4.4,26-16.2,48.6-31.8,69.5h.2ZM56.5,1387c-1.1-7.6,4.9-9.4,10.1-11.1,19.3-6.6,39.5-7.5,59.5-8.9,9.7-.6,19.5,0,29.2,0,30.2-1.1,59.8,2.9,89.2,9.5,8.5,1.9,11.5,6.2,10.1,14.7-5.2,28.9-13.5,56-32.3,79.9-31.1,39.4-83,45.6-120.8,12-28.5-25.4-39.5-59.5-44.8-95.9h0l-.2-.2ZM299.1,1525.5c-24.4,8.1-49.8,9.9-75.1,11.6-63.3,4.2-126.6,3.7-189.5-5.6-10.3-1.5-20.6-3.7-30.2-7.8-3.1-1.3-7.1-2.7-7-6.9,0-4.1,3.9-5.4,7.2-6.7,22-8.5,45.4-9.6,68.5-12.7,10.3-1.4,16.1,2.6,22.1,10.1-13,3.2-26.3,1.9-38.4,8.3,3.7,6.4,10.3,6.2,15.5,6.8,54.8,6.7,109.7,6.6,164.4,0,5.2-.6,11-1,15.8-6.2-10.9-7.7-23.8-4.8-35.4-9.1,5-7.1,10.4-11.1,20.3-10,20.7,2.5,41.6,4.1,61.6,10.5,5.1,1.6,12.5,2.4,12.3,9.1-.2,5.8-7.1,6.7-12,8.3h0v.3Z"/>
              <path class="cls-4" d="M27.9,1548.6c7.9,7.2,17.5,6.6,26.5,8.1,58,9.3,116.4,9,174.7,3.4,17.4-1.6,35.9-.7,54.2-13-87,9.8-171.2,9.7-255.5,1.6h0Z"/>
              <path class="cls-4" d="M188,1339.4l-.5.3.3.2.3-.5h0Z"/>
              <path class="cls-4" d="M84.6,1393.5c16.4,3.5,33.1,4.5,49.6,5.3,30.6,1.4,61.1.5,91.3-5.3,6.2-1.2,13.9-1.1,17.5-8.6-23.6-17.6-152.7-17.7-175.1.2,4.3,6.7,10.8,7.1,16.7,8.3h0Z"/>
              <path class="cls-4" d="M183.8,1434.9c13.5,11.4,15.6,27,7.2,39.9-3.4,5.2-9,7.8-12.1,12.8,35.9-15.2,47.4-48.2,59.6-83.1-29.2,5.7-57.2,6-85.6,6.8,13.4,4.3,21.2,15.3,31,23.6h-.1Z"/>
              <path class="cls-4" d="M106.2,1479c2-1.6-.2-3.2-1.6-4.3-10.9-21.4-20.5-43.1-19.3-67.7-5.8-1.6-10.9-3.1-17.3-4.9,9.1,27.3,16.8,53.2,35,74.4.9,1.2,1.7,3.6,3.3,2.4h0Z"/>
              <path class="cls-4" d="M-19.8,1328.7c.5.5,1.4,1.2,2.3.5.6-.5.7-1.4.4-2.2-3.7-7.3-5.2-15.5-8.8-22.8-.6-1.4-1.3-3.3-3.1-3-1.8.4-1.7,2.4-1.9,3.8-.3,2,0,4,.2,6.1,1.8,6.9,6,12.5,11,17.6h0Z"/>
              <path class="cls-4" d="M-18.3,1334.5c-.9-1.7-2.2-2.4-3.4-2.8-5.2-2-9.2-5.2-12.4-9.7-1-1.4-2.3-3.6-4.3-2.4-2.2,1.2-1,3.6-.4,5.3,1.5,4.3,4.7,7,8.8,8.4,3.6,1.4,7.4,1.9,11.7,1.1h0Z"/>
              <path class="cls-4" d="M55.9,1267.8c-1.4-.6-2.3.5-3.1,1.3-3.4,3.5-5.1,8-4.8,12.7,1.1,17-3.8,32.6-10.2,48-.5,1.3-1,2.5-1.5,3.8.2,0,.4.3.5.4,6.2-10.4,10.7-21.6,14.3-33.1,2.8-9.1,4.7-18.5,5.6-28,0-.7.2-1.4.2-2.1,0-1.1.2-2.4-1-3h0Z"/>
              <path class="cls-4" d="M24.4,1317c-.2-1.8-.5-3.6-1.2-5.3-.4-.8-.7-1.6-1.7-1.8-1.2,0-1.6.8-2.1,1.6-1.8,3.7-2.2,7.6-1.4,11.6,1,5.5,3.3,10.5,6.2,15.2.5.7.9,1.7,2.3,1.6,0-.4.2-.6,0-1-2-7.2-1.2-14.8-2.1-22.1h0v.2Z"/>
              <path class="cls-4" d="M12.5,1328.6c-.9-1.5-1.9-4-4.1-3.2-2.4.8-1.6,3.4-1.4,5.3,1,7.2,9.5,14.5,17.2,14.1-5.9-4.4-8.5-10.5-11.8-16.1h0Z"/>
              <path class="cls-4" d="M42.5,1328.6c.2-.5.4-.8.5-1.2-.2-.2-.4-.3-.5-.5-.5.5-.5.9,0,1.6h0Z"/>
            </g>
          </g>
          <g>
            <g>
              <path class="cls-4" d="M113.5,1270.9h-11.1l10.5-49,11.4-1.6-5.5,25.8c3.6-.3,6.7-2.4,9.4-6.3s4-8.1,4-12.6-.8-5.8-2.5-7.7c-1.7-1.8-4-2.8-7-2.8-6.3,0-11.2,1.7-14.7,5s-5.3,7.9-5.3,13.7,0,1.8.2,2.5c.1.7.3,1.4.7,2.1.1.2.2.3.2.4v.2c-2.9,0-5-.6-6.3-1.8-1.3-1.2-2-3.1-2-5.7s.9-5.2,2.6-7.7c1.7-2.6,4.1-4.9,7.2-7,2.6-1.7,5.4-3,8.4-4,3-.9,5.9-1.4,8.8-1.4,5.6,0,10.1,1.4,13.3,4.2,3.2,2.8,4.9,6.5,4.9,11s-.6,5.4-1.8,8-2.9,4.9-5,6.9c-2,1.9-4.4,3.4-7,4.3-2.6,1-5.4,1.5-8.4,1.5h-.4l-4.7,22h.1Z"/>
              <path class="cls-4" d="M152.2,1263.9c1.3,0,2.5-.6,3.6-1.7,1.1-1.1,1.9-2.8,2.6-5l5.2-24.7h11.1l-5.6,26.2c-.1.4-.2.9-.2,1.3v1.2c0,1,.2,1.8.7,2.2s1.3.7,2.4.7,2.5-.6,3.6-1.8,2-2.9,2.6-5h3.2c-1.6,4.7-3.8,8.3-6.4,10.7s-5.6,3.6-9.1,3.6-4-.6-5.3-1.9-2.1-3.1-2.3-5.4c-1.5,2.5-3.2,4.3-5,5.5-1.9,1.2-4,1.8-6.4,1.8s-4.6-.8-6.1-2.4c-1.5-1.6-2.2-3.9-2.2-6.8s0-1.4.2-2.3.2-1.8.4-2.7l5.2-24.7h11.1l-5.6,26.2c-.1.4-.2.8-.2,1.1v1c0,1,.2,1.8.6,2.3s1,.8,1.7.8h0l.2-.2Z"/>
              <path class="cls-4" d="M186.5,1270.9h-11.1l8.2-38.5h11.1l-1,4.8c2.2-1.9,4-3.2,5.4-3.8,1.3-.7,2.6-1,4-1s2.9.6,3.8,1.7,1.5,2.5,1.5,4.1-.5,2.9-1.6,4c-1,1.1-2.4,1.6-4,1.6s-1.6-.2-2-.6-.8-1.3-1-2.5c-.2-.8-.3-1.3-.5-1.6s-.5-.3-.9-.3c-.9,0-1.7.2-2.5.5s-1.8,1.1-3.1,2.4l-6.2,29.3h0Z"/>
              <path class="cls-4" d="M211.9,1287.4l-11.7,2.8,12.9-60.7h11.1l-1.2,5.8c1.3-1.1,2.7-1.9,4.2-2.5s3.1-.9,4.9-.9c3.1,0,5.4,1,7,3.1s2.4,5.1,2.4,9.1c0,7.9-1.7,14.4-5,19.5s-8,7.7-13.9,7.7-3-.2-4.1-.7c-1.1-.4-1.9-1.1-2.4-2.1l-4,18.8h-.2ZM217.1,1262.9c.2.6.6,1,1.1,1.3s1.1.4,1.8.4c3.2,0,5.8-2.1,7.8-6.3s3-9,3-14.5-.3-3.7-.9-4.8c-.6-1.1-1.6-1.6-2.9-1.6s-1.9.3-2.9,1-1.8,1.6-2.5,2.7l-4.5,21.6h0v.2Z"/>
              <path class="cls-4" d="M242.7,1262.1c0-.7,0-1.4.2-2.3.1-.9.2-1.8.4-2.7l8.3-38.6,11.4-1.6-8.9,41.6c-.1.4-.2.9-.2,1.3v1.2c0,1,.2,1.8.7,2.2s1.3.7,2.4.7,2.8-.6,4.1-1.9c1.3-1.3,2.2-2.9,2.9-4.9h3.2c-1.6,4.7-3.8,8.2-6.6,10.6-2.8,2.4-6,3.6-9.6,3.6s-4.6-.8-6.1-2.4c-1.5-1.6-2.2-3.9-2.2-6.8h0Z"/>
              <path class="cls-4" d="M291,1239c0,4.3-1.8,8-5.2,11.1-3.5,3.1-7.6,4.9-12.5,5.1,0,.9,0,1.5-.1,2v1.1c0,2.4.4,4,1.2,5,.8,1,2.2,1.5,4.3,1.5s4.6-.5,6.7-1.7c2-1.1,4.3-3.1,7-6.1h2.6c-3,4.8-6.2,8.4-9.7,10.8-3.5,2.3-7.3,3.5-11.5,3.5s-7-1-9-3.1-3-5.1-3-9.2.4-6.1,1.4-9.3c.9-3.3,2.2-6.2,3.7-8.8,1.9-3.1,4.2-5.4,6.8-7,2.7-1.6,5.6-2.3,8.9-2.3s4.9.6,6.4,1.8c1.4,1.2,2.1,3.1,2.1,5.6h0ZM283.1,1235.7c-1.8,0-3.5,1.6-5.3,4.7s-3.1,6.8-4,11.2c3-.2,5.6-1.6,7.8-4.1,2.2-2.5,3.4-5.4,3.4-8.6s-.2-1.9-.4-2.4c-.3-.5-.8-.8-1.5-.8h0Z"/>
            </g>
            <g>
              <path class="cls-4" d="M163,1332.5h-11.1l10.5-49,11.4-1.6-3.6,17.1h.4c2.9,0,5.4-1.3,7.7-3.9s3.4-5.5,3.4-8.5-.9-4.6-2.7-6.1c-1.8-1.5-4.3-2.2-7.5-2.2-5.4,0-9.9,1.7-13.7,5.2-3.7,3.4-5.6,8-5.6,13.6s0,1.8.2,2.5c.1.7.3,1.4.7,2.1.1.2.2.3.2.4v.2c-2.8,0-4.8-.6-6.2-1.8-1.3-1.2-2-2.9-2-5.3s.9-5.5,2.7-8.2,4.2-5,7.4-7c2.6-1.7,5.4-3,8.5-3.9s6.3-1.3,9.4-1.3c5,0,9,1.1,12,3.4s4.4,5.2,4.4,8.9-.7,4.7-2.1,7c-1.4,2.2-3.3,4-5.6,5.3,2.9.6,5.2,1.9,6.7,4.1,1.6,2.2,2.3,4.9,2.3,8.3s-.4,4.9-1.1,7.6c-.7,2.7-1.7,5-3,7.1-1.6,2.5-3.4,4.3-5.6,5.6s-4.6,1.9-7.2,1.9-4.3-.5-5.6-1.5c-1.3-1-2-2.4-2-4.3s0-1.3.2-2,.4-1.6.8-2.4c1,1,1.9,1.7,2.7,2.1s1.6.7,2.5.7c2.3,0,4.2-1.3,5.6-4s2.1-6,2.1-9.9-.6-5.7-1.8-7.3-3.1-2.5-5.5-2.5-.9,0-1.6,0-1.3.1-2,.2l-6.3,29.5h.2-.2Z"/>
              <path class="cls-4" d="M206.5,1325.4c1.3,0,2.5-.6,3.6-1.7s1.9-2.8,2.6-5l5.2-24.7h11.1l-5.6,26.2c-.1.4-.2.9-.2,1.3v1.2c0,1,.2,1.8.7,2.2s1.3.7,2.4.7,2.5-.6,3.6-1.8,2-2.9,2.6-5h3.2c-1.6,4.7-3.8,8.3-6.4,10.7s-5.6,3.6-9.1,3.6-4-.6-5.3-1.9-2.1-3.1-2.3-5.4c-1.5,2.5-3.2,4.3-5,5.5-1.9,1.2-4,1.8-6.4,1.8s-4.6-.8-6.1-2.4c-1.5-1.6-2.2-3.9-2.2-6.8s0-1.4.2-2.3c.1-.9.2-1.8.4-2.7l5.2-24.7h11.1l-5.6,26.2c-.1.4-.2.8-.2,1.1v1c0,1,.2,1.8.6,2.3s1,.8,1.7.8h0l.2-.2Z"/>
              <path class="cls-4" d="M235.3,1293.9h2.5l2.3-10.6,11.4-1.6-2.6,12.2h4.6l-.6,3.1h-4.6l-4.9,23.1c-.1.4-.2.9-.2,1.3v1.2c0,1,.2,1.8.7,2.2s1.3.7,2.4.7,2.8-.6,4.1-1.9c1.3-1.3,2.2-2.9,2.9-4.9h3.2c-1.6,4.7-3.8,8.2-6.6,10.6-2.8,2.4-6,3.6-9.6,3.6s-4.6-.8-6.1-2.4c-1.5-1.6-2.2-3.9-2.2-6.8s0-1.4.2-2.3.2-1.8.4-2.7l4.6-21.7h-2.5l.6-3.1h0Z"/>
              <path class="cls-4" d="M255.9,1293.9h2.5l2.3-10.6,11.4-1.6-2.6,12.2h4.6l-.6,3.1h-4.6l-4.9,23.1c-.1.4-.2.9-.2,1.3v1.2c0,1,.2,1.8.7,2.2s1.3.7,2.4.7,2.8-.6,4.1-1.9c1.3-1.3,2.2-2.9,2.9-4.9h3.2c-1.6,4.7-3.8,8.2-6.6,10.6-2.8,2.4-6,3.6-9.6,3.6s-4.6-.8-6.1-2.4c-1.5-1.6-2.2-3.9-2.2-6.8s0-1.4.2-2.3.2-1.8.4-2.7l4.6-21.7h-2.5l.6-3.1h0Z"/>
              <path class="cls-4" d="M301.7,1300.6c0,4.3-1.8,8-5.2,11.1-3.5,3.1-7.6,4.9-12.5,5.1,0,.9,0,1.5-.1,2v1.1c0,2.4.4,4,1.2,5,.8,1,2.2,1.5,4.3,1.5s4.6-.5,6.7-1.7c2-1.1,4.3-3.1,7-6.1h2.6c-3,4.8-6.2,8.4-9.7,10.8-3.5,2.3-7.3,3.5-11.5,3.5s-7-1-9-3.1-3-5.1-3-9.2.4-6.1,1.4-9.3,2.2-6.2,3.7-8.8c1.9-3.1,4.2-5.4,6.8-7,2.7-1.6,5.6-2.3,8.9-2.3s4.9.6,6.4,1.8c1.4,1.2,2.1,3.1,2.1,5.6h0ZM293.8,1297.3c-1.8,0-3.5,1.6-5.3,4.7-1.8,3.1-3.1,6.8-4,11.2,3-.2,5.6-1.6,7.8-4.1,2.2-2.5,3.4-5.4,3.4-8.6s-.2-1.9-.4-2.4c-.3-.5-.8-.8-1.5-.8h0Z"/>
              <path class="cls-4" d="M311.2,1332.5h-11.1l8.2-38.5h11.1l-1,4.8c2.2-1.9,4-3.2,5.4-3.8,1.3-.7,2.6-1,4-1s2.9.6,3.8,1.7,1.5,2.5,1.5,4.1-.5,2.9-1.6,4c-1,1.1-2.4,1.6-4,1.6s-1.6-.2-2-.6-.8-1.3-1-2.5c-.2-.8-.3-1.3-.5-1.6s-.5-.3-.9-.3c-.9,0-1.7.2-2.5.5s-1.8,1.1-3.1,2.4l-6.2,29.3h0Z"/>
              <path class="cls-4" d="M352.6,1274.7c2.5,0,4.7.8,6.4,2.4,1.8,1.6,2.7,3.6,2.7,5.9s0,1.2,0,1.7,0,1-.2,1.5h-3.6c.1-.8.2-1.3.2-1.5v-.6c0-.8-.3-1.5-.8-1.9s-1.2-.7-2.1-.7-2.4.5-3.4,1.6c-.9,1.1-1.6,2.7-2,4.7l-1.3,6.1h5.6l-.5,3.1h-5.7l-8.9,41.6c-.9,4.4-2.5,7.6-4.9,9.8-2.3,2.2-5.3,3.3-9,3.3s-4.7-.8-6.4-2.4c-1.8-1.6-2.7-3.6-2.7-5.9s.9-4.9,2.7-6.5,5.3-3.4,10.6-5l9.3-44c.9-4.3,2.6-7.6,4.9-9.8,2.4-2.2,5.4-3.3,9.1-3.3h0ZM328.7,1334.4c-3,1-5.2,2.1-6.5,3.4-1.3,1.3-2,2.8-2,4.5s.3,1.2,1,1.7,1.3.8,2.1.8,1.8-.5,2.6-1.6,1.3-2.5,1.8-4.5l1-4.5h0v.2Z"/>
              <path class="cls-4" d="M352,1323.7c0-.7,0-1.4.2-2.3s.2-1.8.4-2.7l8.3-38.6,11.4-1.6-8.9,41.6c-.1.4-.2.9-.2,1.3v1.2c0,1,.2,1.8.7,2.2s1.3.7,2.4.7,2.8-.6,4.1-1.9c1.3-1.3,2.2-2.9,2.9-4.9h3.2c-1.6,4.7-3.8,8.2-6.6,10.6-2.8,2.4-6,3.6-9.6,3.6s-4.6-.8-6.1-2.4c-1.5-1.6-2.2-3.9-2.2-6.8h0Z"/>
              <path class="cls-4" d="M386.1,1325.4c1.3,0,2.5-.5,3.5-1.6s1.9-2.7,2.5-4.7l5.4-25.2h11.1l-7.6,35.8c2.6-.9,4.6-2.2,6.1-3.9s2.7-4,3.7-7.1h3.2c-1.2,3.9-2.9,7-5,9.4s-5,4-8.6,5l-1.1,5.6c-.9,4.3-2.5,7.6-4.9,9.8-2.3,2.2-5.3,3.3-9,3.3s-4.7-.7-6.3-2c-1.6-1.3-2.3-3.1-2.3-5.5s1-4.7,3.1-6.7,5.2-3.5,9.4-4.8l.9-4.2c-1.3,1.4-2.7,2.5-4.2,3.2s-3.2,1.1-5,1.1-4.6-.8-6.1-2.4c-1.5-1.6-2.2-3.9-2.2-6.8s0-1.4.2-2.3.2-1.8.4-2.7l5.2-24.7h11.1l-5.6,26.2c0,.3-.1.6-.2,1v1c0,1.1.2,1.9.6,2.5s1,.9,1.7.9h0v-.2ZM388.4,1336.7c-2.6,1-4.5,2-5.7,3-1.2,1.1-1.8,2.2-1.8,3.5s.2,1.3.8,1.8c.5.5,1.1.8,1.8.8s1.7-.6,2.5-1.8,1.5-2.9,1.9-5l.4-2.2h.1Z"/>
            </g>
          </g>
        </g>
      </g>
      <g>
        <path class="cls-3" d="M154.4,205.2s0,0,0,0c0,0,0,0,0,0,0,0,0,0,0,0Z"/>
        <path class="cls-5" d="M230.1,282.5s0,0,0,0c0,0,0,0,0,0,0,0,0,0,0,0h0ZM250.7,391.2c.4.1.8.2,1.2.3h0s-1.2-.3-1.2-.3Z"/>
        <path class="cls-5" d="M417.6,281.5c-10.4-5.6-20.9-4.7-31.3-.4-4.5,1.9-8.5,4.8-12.5,8.4.5-5.4,1.1-10.4-.2-15.3-.5,5.3-4.5,7.5-8.6,9.5-7.6,3.7-15.7,5.6-23.9,7.2-7.1,1.4-14.2,2.2-21.3,2.9-17.6,1.9-35.2,1.7-52.8,1.3-8.2-.2-16.4-.8-24.6-1.9-8.1-1.1-16.2-2.7-24-5.2-1-.3-2.1-.7-2.9-1.5,1.2-3.7,1.9-3.9,5.4-2.8,6.2,2,12.7,2.7,19.1,3.8,6.9,1.2,14,1.4,20.9,1.9,13.1,1,26.2.8,39.3.5,17.1-.5,34-2.3,50.6-6.6,4.1-1.1,8.1-2.3,11.6-4.8,3.7-2.7,3.6-5.4-.4-7.7-4.2-2.4-8.9-3.6-13.6-4.8-4.2-1.1-8.5-1.9-12.7-2.5-9.6-1.4-19.3-2.4-29.1-2.8-10.3-.5-20.6-1-30.9-.7-6.8.2-13.6.6-20.5.9-1.8,0-2.3,1.2-3.3,2.5-3.4,4.6-6.9,9.1-11.5,12.6-2.9,2.3-5.9,4.6-9.4,5.9-.2.4-.6.5-1,.4,0,0,0,0,0,0,0,0,0,0,0,0-.1.1-.3.3-.5.4,0-.6.3-.4.5-.4,0,0,0,0,0,0h0c.1-.5.5-.5.9-.5,1-1.6,2.7-2.4,4.1-3.5,7.2-6.1,12.8-13.3,17.1-21.7,1.6-5,2.9-10.1,2.9-15.4,7.7,1.8,12.5,0,15.9-5.8,2-3.5,2.5-7.3,2.1-11.3-.4-4-2-7.6-4.9-10.4,2.6-3.2,5.3-6.2,7.8-9.4,9.5-12.1,17.2-25.2,20.3-40.5,1.7-8.6,2-17.2-1.2-25.5-1.7-4.5-4.2-8.4-9.2-9.9-2.7-.8-5.3.1-7.2,2.5-1.6,2-1.7,4.8-.4,7.1,1,1.7,2.4,3.2,4.2,4.1,3.4,1.9,5.3,4.9,6.3,8.5,1.7,5.9,1.1,11.8-.2,17.7-2.7,12.3-9,22.9-16.3,32.9-1.3,1.8-2.6,3.7-4.7,5.7.4-1.2.5-1.7.7-2.2,1.8-5.4,3.7-10.7,5.2-16.2,2.9-11.1,3.6-22.2,1.2-33.4-1.6-7.4-5-13.9-10.1-19.6-2.1-2.3-4.7-4-7.8-4.8-3.1-.9-6.6.4-8.1,3-1.6,2.6-1,5.7,1.3,8.3,1.3,1.5,3,2,4.8,2.4,4,.8,6.9,2.9,9.2,6.2,3.4,4.9,4.8,10.4,5.4,16.2,1,9.4-.5,18.6-3,27.6-1.4,4.8-3.1,9.6-5.3,14.1-.5-.1-.8-.2-1.1-.2-3.6-1-7.2-1-10.6,0,1.3-5.4,2.3-10.9,2.9-16.5,1.5-13.8.3-27.5-2-41.1-.9-5.2-2.1-10.4-3.7-15.4-3.8-11.9-8.7-23.4-15.4-33.9-2.7-4.2-5.8-8-9.8-11-3.6-2.8-7.5-4.4-12.1-3.2-6,1.6-9.7,5.9-12.7,10.9-2.8,4.6-4,9.7-5,15-.9,4.9-2.1,9.7-4.8,13.9-3.7-4.8-7.6-9.4-11.8-13.8-12.2-12.7-25.5-24.1-40.6-33.3-6-3.6-12.3-6.4-19.2-7.8-6.3-1.3-12.2-.8-17.3,3.5-6.6,5.7-8.6,13.4-9.3,21.7-.6,7.5,1,14.8,3,22,2,7.1,3.5,14.3,2.5,21.6-1.2,9.5-3,18.9-4.4,28.4-1.3,9.1-2,18.3-.3,27.5,2.6,13.7,9.6,24.1,22.2,30.5,2.9,1.5,6,2.6,9.7,3.9-2.1.2-3.5.6-4.9,1.2-10.4,4.1-18.7,10.9-24.8,20.3-10,15.4-12.5,32.3-9.5,50.1,1.7,10.1,6,19.2,13.2,26.6,7.1,7.3,16,11.4,26.1,12.2,10.1.8,19.9-.9,29.2-5.1,12.6-5.7,22.7-14.6,32.3-24.4,3-3,4.9-7,8.6-9.5.5.6.3,1.2.3,1.8,0,16.4,3.7,32,10,47,1.5,3.5,3.7,6.6,4.7,10.3.8,1.2,2.1,1.9,2.5,3.7-6.5.9-12.9,2.1-19.3,3.5-8.3,1.8-16.6,3.9-24.2,7.8-3.5,1.8-7.6,3-10.5,5.9-2.9,2.9-4.2,8-.7,11.9,2.7,3.1,5.8,5.8,9.9,7.7,10.3,4.7,21.2,7.5,32.1,10.4,9.7,2.6,19.7,3.7,29.6,5,5.5.7,11.1.9,16.5,1.6,19.2,2.4,38.5,1.9,57.8,1.8,6.4,0,12.9-.3,19.3-.9,24-2.3,47.9-5.6,70.8-13.7,4.4-1.6,8.6-3.6,12.7-5.8,3-1.6,5.4-4.2,7.3-7,2.2-3.2.9-8.2-2.2-10.6-10.7-8.5-23.5-11.5-36.4-14.4-1.4-.3-2.9-.7-4.3-1.2,3.1-.3,5.9-2,9-1.7-.8-.7-.3-.7.3-1,1.9-.6,3.7-1.3,5.5-2.1,10.6-4.3,20.3-10.2,28.7-18,10.4-9.5,18.5-20.6,20.5-35.1,1.5-10.8-3.5-22.4-13.6-27.9ZM346.1,377.5s0,0,0,0c0,0,0-.1.1-.2,0,0,0,.1-.1.2h0c-.3,2-1.8,3.3-3.1,4.6-3.2,3.2-6.7,5.9-10.9,7.6,5.2-3.5,9.6-7.8,14-12.2ZM228.4,231.9c-.1,0-.2.2-.3.2-.3.2-.7.4-1.1.5,0-.5-.2-.8-.2-1.1,0-1,0-2,0-3.1-.3-15-3.6-29.5-8.4-43.7,0,0,0-.1,0-.2,1-5.9,3.5-11.1,8.4-15.4,4,21,4.9,41.7,1.6,62.7ZM203.2,106.9c.7-1.6,1.6-3.1,2.6-4.5,1.7-2.5,4.2-3.7,7-4.4,1.9-.4,3.5.7,4.9,1.8,2.3,1.9,4,4.4,5.7,6.8,2.1,3.1,4,6.3,5.6,9.6.9,1.8,1.4,3.8,2.3,5.6,2.6,4.8,4.2,10,5.8,15.2,1.3,4.3,2.7,8.5,3.5,12.9,1.7,8.9,3.1,17.8,3.3,26.9.2,12.8-1.3,25.4-4.9,37.7-.5.6-1,1.2-1.4,1.8-1.5,2.1-2.3,4.4-3.4,6.6-.5.9-1,1.8-1.5,2.7.2-5.9.5-11.7.6-17.4.3-13.2-1-26.3-3.7-39.2-.6-3.1-1.2-6.2-2.2-9.2-1.7-5.6-3.1-11.4-5.3-16.9-4.5-11.1-10.2-21.6-18.2-30.6-2.2-2.5-2.2-2.4-.8-5.5ZM194.5,131.9c1.6-3.1,3.1-6.3,4.2-9.6.9-2.5,1.4-5.1,2.1-7.6,0-.4.2-.7.3-1.3,3.5,3.6,5.9,7.5,8.6,11.3,2.7,3.9,5,8.1,6.8,12.5,1.3,3.2,2.7,6.3,3.9,9.5,2.4,6,4,12.2,5.5,18.5.3,1,0,1.6-.8,2.2-2.7,2-4.3,5-6.3,7.8-1.4-4.5-3-8.8-4.9-13-2.3-5-5-9.9-7.9-14.6-3.2-5.2-7.1-9.9-11.3-14.2-.5-.5-.5-.9-.2-1.5ZM192.5,135.1c3.4,3.1,6.2,6.5,8.7,10.1,2,2.9,4.1,5.8,5.7,9,3.4,7.1,7.3,13.9,8.7,21.8.1.6.2,1.2.3,1.8-5.9-15.3-14.1-29.3-23.5-42.6,0,0,0,0,0,0ZM103.1,96.7c.6-4.2,3-7.3,6.1-9.9,2.1-1.7,4.9-1.4,7.3-.8,4.1,1,7.7,3,11.4,5.1,4.6,2.6,8.9,5.5,13.1,8.6,2.3,1.7,4.1,4,6.4,5.6,6.3,4.5,11.6,10.1,16.8,15.6,4.3,4.6,8.7,9.1,12.5,14.1.7,1,1.5,1.9,2.2,2.9,1.2,1.6,2.4,3.2,3.5,4.8.8,1,1.5,2.1,2.3,3.2,4.7,6.8,9.1,13.7,12.9,21.1,2.1,4.1,4.1,8.3,5.9,12.6h0c2.4,5.7,4.6,11.5,6.4,17.4,2.3,7.3,4.1,14.8,5.3,22.4.2,1.1.4,2.3.5,3.4.4,3,.7,6,.9,9,0,.5,0,1.1,0,1.6,0,1.2.1,2.3.1,3.5,0,.6,0,1.3,0,1.9,0,.9,0,1.9,0,2.9,0,.3,0,.5,0,.8-.1-.3-.2-.5-.3-.8-.4-.9-.8-1.9-1.2-2.8-.5-1.2-1-2.4-1.6-3.5-.6-1.4-1.2-2.7-1.8-4.1-1.4-3.1-2.7-6.2-4.1-9.2-1.3-3-2.7-5.9-4-8.8-.8-1.7-1.6-3.3-2.4-5-7.4-15-16.4-29-26.7-42.2-.2-.2-.4-.5-.6-.7-.8-1-1.6-2-2.4-3-1.4-1.8-2.9-3.7-4.5-5.4-.4-.4-.7-.8-1.1-1.2-5.7-6-11-12.5-17.2-18-12.7-11.3-26.3-20.9-42-27.4-4.3-1.8-4.3-1.7-4.4-6.4,0-2.5.1-4.9.5-7.4ZM168.8,186.2c-.7-5.9,0-11.9,2.4-18.1.2.2.3.5.5.7.6.7,1.1,1.5,1.7,2.3,6.5,8.9,12.5,18,17.9,27.4,3.1,5.3,5.9,10.8,8.6,16.3,2.2,4.7,4.3,9.5,6.3,14.3.5,1.2,1,2.5,1.4,3.7.9,2.3,1.7,4.5,2.5,6.8.3.9.6,1.7.9,2.6.4,1.3.9,2.6,1.3,3.9.1.4.3.8.4,1.3l-1-.9c-1.3-1.2-2.6-2.5-3.9-3.7-.8-.8-1.7-1.6-2.5-2.4-1.8-1.7-3.6-3.5-5.3-5.2-2.4-2.4-4.7-4.9-7-7.4-3-3.3-5.8-6.6-8.7-10-.7-.9-1.4-1.8-2.2-2.7-1.7-2.1-2.8-4.7-4.4-7-1.7-2.5-3.2-5.1-4.5-7.7-.7-1.4-1.4-2.9-1.9-4.4-.4-1-.7-2.1-1.1-3.1h0c-.7-2.2-1.1-4.4-1.4-6.6ZM106.4,126.3c-.5-3.7-1.4-7.3-2.2-10.9-.1-.5-.2-1.1-.4-1.9,6.6,2.3,12.2,5.8,17.9,9,5.9,3.3,11.3,7.1,16.3,11.5,3.6,3.2,7.3,6.3,10.9,9.6,6.1,5.6,11.5,11.7,16.8,17.9.6.7,1.2,1.3,1.7,2,1,1.1,1,2,.3,3.3-1.7,3.4-2.2,7.1-2.7,10.9h0c-.1,1-.2,2-.4,2.9-4.6-4.9-9.2-9.3-14.3-13.4-6-4.9-12.4-9.4-19-13.5-7.3-4.6-15.1-8.1-23.1-11-1-.3-1.2-.8-1.2-1.7.1-4.9,0-9.8-.7-14.7ZM106.6,146.4c6.2,1.8,11.8,4.4,17.3,7.4,4.4,2.4,8.8,4.8,12.8,7.9,8.7,6.8,17.9,13.1,24.6,22.1,2.1,2.8,4,5.6,5,9.1,0,0,0,.2,0,.3.2.7.4,1.5.6,2.2.6,1.6,1.2,3.2,2,4.8.7,1.5,1.5,3.1,2.3,4.6,1.5,2.8,3,5.5,4.7,8.2.9,1.4,1.8,2.8,2.9,4.3-.3,0-.5,0-.8-.1-1.4-.3-2.3-1-3.2-1.8,0,0,0,0,0,0-.6-.5-1.1-1.1-1.7-1.5-2.2-1.8-4.4-3.5-6.7-5.2-2.6-2-5.3-3.9-8-5.8-1.9-1.3-3.9-2.7-5.8-3.9-.2-.1-.3-.2-.5-.3-.5-.3-1.1-.7-1.6-1-4.5-3-9-6.2-13.8-8.6-10.4-5.3-20.9-10.7-32.5-13.3-.9-.2-2.1-.5-1.9-2,.9-9.1,2.5-18,4.3-27.1ZM108.4,209.2c-3.6-4.1-5.5-9.3-6.6-14.8-.9-4.5-.7-9-.5-13.5,0-.8.3-1.4.8-2,4.4.8,8.5,2.5,12.6,4,6.1,2.3,12,5,17.5,8.4,3.6,2.3,7.9,3.6,11,6.7.9.9,2,1.5,3.3,2,.5.2,1,.4,1.5.5.4.1.9.3,1.3.5.8.4,1.5,1,2.1,1.6,1,.9,2,1.8,3,2.6,0,0,0,0,0,0,1.9,1.5,3.9,2.9,6,4.2,1,.7,2.1,1.4,3.1,2,3.7,2.5,7.4,5.1,10.8,7.9l6.1,5.1c1,.8,1.9,1.6,2.9,2.4,5.6,4.7,11.1,9.5,16.5,14.5.8.8,1.7,1.6,2.5,2.4.2.2.4.4.6.6,1.2,1.2,3,1.8,4.1,3.3.3.4.6.7.6,1.1,0,.3,0,.6-.4.9-.2-.1-.5-.2-.7-.3-3.3-1.5-6.7-2.9-10.1-4.2-1.6-.6-3.1-1.2-4.7-1.8-3.5-1.3-7.1-2.6-10.6-3.8-7.3-2.5-14.6-4.9-21.9-7.4-1.1-.4-2.3-.8-3.4-1.2-4.3-1.5-8.7-2.9-13-4.4-3.5-1.2-7-2.3-10.4-3.5l-2.5-.8c-.2,0-.4-.1-.5-.2-7.9-2.7-15.3-6.6-20.9-13ZM104.3,254.8c5.2-8.2,12.9-12.7,21.8-15.1,1.4-.4,2.8-.7,4.2-1,.2,0,.4,0,.5,0,1.4-.2,2.7-.4,4.1-.5,2.7-.2,5.4-.1,8.2.1,1.3.1,2.6.2,3.9.4,1,.1,2,.3,2.9.4,9.8,1.7,19.3,4.2,28.6,7.3,1.6.5,3.1,1.1,4.6,1.6,4.6,1.7,9.2,3.5,13.8,5.5,1.5.6,2.9,1.3,4.4,1.9-3.6.2-7.1.3-10.7.5-5.7.3-11.3.8-16.8,1.7-7.2,1.2-14-.2-20.9-1.2-.2,0-.3,0-.5,0-4.1-.5-8.2-1-12.2-1.3-3.1-.2-6.2-.4-9.3-.4-8.4,0-16.7.8-25,2.9-.7.2-1.4.3-2.1.4-.6.1-1.2.3-2,.4,0-1.9,1.7-2.6,2.5-3.8ZM95.2,272.1c2.6-8.6,2.7-8.6,11.4-10.6,3.6-.8,7.1-1.6,10.8-2,5.5-.6,11-.9,16.4-.8,4.2,0,8.4.4,12.6,1,1.5.2,2.9.5,4.4.8,1.9.4,3.9.1,6,.5.4,0,.8.1,1.3.3.1,0,.2,0,.4.1-1.3.5-2.6,1-3.8,1.6-2.8,1.3-5.5,2.7-8.2,4.2-3.9,2.3-7.7,4.8-11.4,7.4-1,.7-1.9,1.4-2.6,2.4-.9,1.2-2,2-3.5,2.3-12.2,3.1-23.8,7.7-35.2,13.1-.3.1-.6.2-1,.4-.5-7.1.4-13.9,2.4-20.5ZM93.6,300.6c-.2-.9-.3-1.9-.5-2.8-.1-.8.2-1.3.9-1.7,8.8-4.6,18-8.3,27.6-11,.2,0,.4,0,1.1.1-2.8,6-7.6,10.4-10.7,15.9-3.2,5.6-6.6,11-10,16.7-4.5-5-7.1-10.8-8.4-17.2ZM124.1,326c-2.7,2.7-5.1,1.5-7.7.7-3.2-.9-6.3-2.1-8.6-4.7-.8-.9-2.5,0-3.1-1.9,1.6-2.5,3.5-5.2,5.2-8,2.4-3.9,4.2-8.2,6.7-12,2.4-3.6,5.5-6.9,8.1-10.4,2.8-3.8,6-7.2,9.6-10.1,5.3-4.2,10.9-8.1,16.8-11.2,3.4-1.8,7-3.3,10.7-4.5,1.5-.5,3-.9,4.6-1.3,6.2-1.5,12.6-1.7,18.9-2.2,1.6-.2,3.3-.3,4.9-.3,3.5-.2,7-.2,10.5-.2,1.4,0,2.8,0,4.2,0,.1.5,0,.9-.6,1.2-13.6,7.3-25.2,17.4-37.1,27.1-6,4.9-11.9,10-17.6,15.3-4.2,3.9-8.4,7.6-12.9,11.1-.8.6-1.4,1.5-2.1,2.3-2.9,3.7-7.1,5.9-10.4,9.2ZM173.1,306.6c-5.2,5-10.8,9.5-16.8,13.3-8.6,5.4-17.8,9.5-29,8.3,4.3-2.9,6.7-7.3,11.2-9.5,2.5-1.3,4.3-3.9,6.4-5.8,6.8-6.1,13.5-12.4,20.5-18.3,9.2-7.7,18.7-15.1,28.2-22.4,3.9-3,8.4-5,12.6-7.7-.8,1.6-1.6,3.2-2.5,4.7-8.3,14-19,26.2-30.7,37.5ZM204.5,338.4c-2.3-8.6-2.8-17.3-3.1-26.6,1,1.7.8,3.1,1,4.5,2.4,14.5,6.5,28.5,13.6,41.4,8.3,15.2,20.2,26.5,36.1,33.5,0,0-.2.2-.2.3h0c-.4,0-.8-.2-1.2-.3-3.5-1-6.8-2.3-9.9-3.9-2.1-1.1-4.2-2.3-6.2-3.6-4.1-2.7-8.3-5.3-11.4-9-3.2-4-6.4-8.1-9-12.6-4.4-7.4-7.6-15.3-9.7-23.7ZM343.7,400.1c-4.4,3.1-9.6,4.6-14.7,5.9-6.6,1.7-13.4,2.6-20.1,3.4-11.4,1.3-22.8,1.7-34.2,1.4-9.3-.2-18.5-.8-27.7-2.2-7.3-1.1-14.6-2.6-21.5-5.4-2.5-1-5-2.2-7-4-3.3-2.8-2.9-6.6,1-8.7-1.1,5.4,2.8,7.3,6.5,9,7.7,3.7,16,4.9,24.4,6,15.7,2.2,31.5,1.8,47.3,1.3,12.1-.3,24.1-1.8,35.8-5.5,2.7-.9,5.2-2,7.6-3.5.3-.2.5-.4.8-.5,1.2-.9,1.9-1.7,2.2-2.8,0-.2.1-.4.1-.6,0-.4,0-.8,0-1.3,0-.2,0-.5-.1-.7,0-.2-.1-.5-.2-.7,0-.2-.2-.5-.3-.8h0c0,0,.1-.2.2-.2,4.4,2.6,4.5,6.6,0,9.8ZM415.5,308.5c-.9,10.5-6.4,18.6-13.6,25.7-11.1,10.9-24.1,18.4-39.5,21.4-.5.1-1.1.2-1.6.3-.4,0-.8,0-1.3,0,3.8-8.1,6.9-16.3,9.2-24.7,1.4-5,2.6-9.9,3.2-15.1,0-.6.2-1.1.6-1.5,3.4-4.1,5.5-9.1,9-13.1,5.7-6.4,14.9-11.2,24.8-8,6.3,2,9.8,8.1,9.3,15Z"/>
        <path class="cls-5" d="M416.4,396.2c-2,4.8-5.7,8.3-9.8,11.4-10.9,8-23.1,12.9-35.9,16.6-1.8.5-3.4,1.3-4.8,2.4-5,3.8-11.1,5.1-17,6.7-13.4,3.6-27.1,5.6-41,6.3-5.1.3-10.1.9-15.2.8-.5-.6-1.2-.4-1.8-.4-7.3,0-14.6,0-21.8,0-.6,0-1.3-.1-1.8.4-5.7.2-11.4-.5-17.1-1-8.9-.8-17.8-1.8-26.5-3.7-8.1-1.8-16.5-3.1-23.7-7.3-10.1-5.9-21.7-8-32-13.4-6.1-3.3-12.2-6.4-17.2-11.3-3.3-3.3-6.1-7.1-6.6-12-.2-1.8,0-3.6.8-5.2h0s0,0,0,0h0c.2,1.7-.6,3.2-.3,4.9.5,2.4,1.6,4.3,3.1,5.9.2.2.3.4.5.5,1,1,2.2,2,3.4,2.9,6.6,4.9,14.1,8,21.8,10.6,22.1,7.6,45,11.1,68.1,13.3,9.8.9,19.6,1.3,29.5,1.5,12.4.3,24.8.4,37.2-.5,5.9-.5,11.7-.4,17.6-1.1,10.7-1.3,21.5-2.6,32.1-4.8,16.6-3.5,33.4-6.7,48.1-16.2,3.1-2,6.3-3.6,8.6-6.5,0-.1.2-.2.3-.4.2-.2.4-.5.5-.8,0,0,0,0,0,0,.2-.3.3-.5.5-.8s.3-.5.4-.8c.1-.3.2-.5.3-.8.1-.3.2-.6.3-.8.3-1.3.4-2.7,0-4.2,0-.4-.2-.7-.3-1.1,0-.2-.1-.4-.2-.5,0,0,0-.2,0-.3,0-.2-.1-.4-.2-.5,0,0,0-.2,0-.3,0-.2-.1-.4-.1-.5,0-.4-.1-.7-.1-1.1h0s0,0,0,0c2.8,3.9,2.3,8,.6,12.1Z"/>
        <polygon class="cls-3" points="145.1 386.5 145.1 386.5 145.1 386.6 145.1 386.6 145.1 386.5"/>
        <path class="cls-3" d="M415.8,384.2s0,0,0,0h0c0,0,0,0,0,0Z"/>
        <path class="cls-3" d="M145.1,386.5c0,0,.2-.1.2-.2,0,0-.1.1-.2.2h0Z"/>
        <path class="cls-3" d="M145.4,386.2c0-.1,0-.2.1-.4,0,.1,0,.2-.1.4Z"/>
        <path class="cls-3" d="M145.6,385.6c.2-.3.3-.6.5-1-.2.3-.3.7-.5,1h0s0,0,0,0Z"/>
        <path class="cls-3" d="M414.8,382.7s0,0,0,0h0s0,0,0,0Z"/>
        <path class="cls-1" d="M267.3,440.4c.5-.6,1.2-.4,1.8-.4,7.3,0,14.6,0,21.8,0,.6,0,1.3-.1,1.8.4-8.5,0-16.9,0-25.4,0Z"/>
        <path class="cls-5" d="M414.9,382.7h0s0,0,0,0c0,0,0,0,0,0,0-.1-.2-.3-.2-.4,0-.1-.2-.3-.2-.4h0s0,0,0,0c.3.2.5.5.5.9Z"/>
        <path class="cls-5" d="M415.8,384.2h0s0,0,0,0c-.3-.1-.4-.3-.4-.6,0,0,0-.2,0-.3h0c0,0,0,0,0-.1h0s0,0,0,0c.4.2.5.6.5,1Z"/>
        <path class="cls-5" d="M146.1,384.6c-.2.3-.3.7-.5,1h0s0,0,0,0h0c0-.5,0-.8.5-1Z"/>
        <path class="cls-5" d="M145.6,385.6h0s0,0,0,0h0c0,0,0,.2,0,.3,0,.1,0,.2-.1.4,0,0,0,0,0,.1,0,0,0,0,0,0,0,0-.1.1-.2.2,0,0,0,0,0,0h0s0,0,0,0c0-.4,0-.8.5-1t0,0Z"/>
        <path class="cls-5" d="M414.4,381.8c-.2-.2-.3-.4-.5-.5.2.2.3.4.5.5Z"/>
        <path class="cls-5" d="M415.3,383.2s0,0,0,0h0c-.1-.2-.3-.3-.4-.4h0s0,0,0,0,0,0,0,0h0c.3,0,.4.2.5.5,0,0,0,0,0,0Z"/>
        <path class="cls-3" d="M154.4,205.2s0,0,0,0c0,0,0,0,0,0,0,0,0,0,0,0Z"/>
        <path class="cls-3" d="M251.9,391.5h0c-.4,0-.8-.2-1.2-.3l1.2.3Z"/>
        <path class="cls-3" d="M252.2,391.2c0,0-.2.2-.2.3h0c0,0,.2-.2.3-.3Z"/>
        <path class="cls-5" d="M346.1,377.5h0s0,0,0,0h0Z"/>
        <path class="cls-3" d="M252.2,391.2c0,0-.2.2-.2.3h0c0,0,.2-.2.3-.3Z"/>
        <path class="cls-5" d="M230.1,282.5s0,0,0,0h0s0,0,0,0Z"/>
        <path class="cls-5" d="M231.1,282c-.2.4-.6.5-1,.4.1-.5.5-.5.9-.5h0Z"/>
        <path class="cls-5" d="M230,282.5c-.1.1-.3.3-.5.4,0-.6.3-.4.5-.4Z"/>
        <path class="cls-5" d="M230.1,282.5s0,0,0,0c0,0,0,0,0,0h0Z"/>
        <path class="cls-5" d="M346.2,377.3c0,0,0,.1-.1.2h0c0,0,0-.1.1-.2Z"/>
      </g>
    </g>
  </g>
</svg>