<?xml version="1.0" encoding="UTF-8"?>
<svg xmlns="http://www.w3.org/2000/svg" version="1.1" viewBox="0 0 1439.2 206.1">
  <defs>
    <style>
      .cls-1 {
        fill: #fff;
      }
    </style>
  </defs>
  <!-- Generator: Adobe Illustrator 28.7.1, SVG Export Plug-In . SVG Version: 1.2.0 Build 142)  -->
  <g>
    <g id="Layer_1">
      <g>
        <g>
          <path class="cls-1" d="M109.3,56.8c0-10.9-4.1-19.8-11.8-26.6-8-6.8-18.6-10-32.2-10s-13.9,1.2-21.3,3.5c-7.4,2.1-14.2,5.3-20.4,9.5-7.4,5-13.3,10.6-17.4,16.8-4.1,6.2-6.2,12.4-6.2,18.6s1.5,10.6,4.7,13.6c3,3,8.3,4.4,15.1,4.4v-.6c-.3,0-.3-.3-.6-.9-.6-1.5-1.2-3.2-1.5-5-.6-1.8-.6,8-.6-6.2s4.1-25.1,12.7-33.1c8.6-8,20.4-12.1,35.4-12.1s12.7,2.4,16.8,6.8c3.8,4.4,5.9,7.7,5.9,18.6s-3.2,21-9.7,30.4c-6.5,9.5-14.2,14.5-22.7,15.4l13.3-62-27.5,3.8-25.1,118.1h26.6l.9-.6,11.2-52.9h.9c7.1,0,13.9-1.2,20.1-3.5,6.2-2.4,11.8-5.6,16.8-10.3,5-4.7,9.2-10.3,12.1-16.5,3-6.2,4.4-8.3,4.4-19.2Z"/>
          <path class="cls-1" d="M252.5,93.4c1.2.9.9,1.5,5,1.5s7.4-1.2,9.7-3.8c2.7-2.7,3.8-5.6,3.8-9.7s-1.2-7.4-3.5-10c-2.4-2.7-5.9-4.1-9.2-4.1s-6.2.9-9.5,2.4-7.7,4.7-13,9.2l2.4-11.5h-26.6l-12.7,59.4h-.3c-1.5,5.3-3.5,9.2-6.2,12.1-2.7,2.7-6.2,4.1-8.9,4.1s-4.7-.3-5.9-1.5-1.8-3-1.8-5.3v-3c.3-.9.3-1.8.6-3l13.3-63.2h-26.6l-12.7,59.7c-1.5,5.3-3.5,9.5-6.2,12.1-2.3,2.6-5.2,4.1-8.4,4.1-1.7,0-3.1-.9-4-2.1-.9-1.2-1.5-3.2-1.5-5.6v-2.4c.3-.9.3-1.8.6-2.7l13.3-63.2h-26.6l-12.7,59.7c-.6,2.4-.9,4.4-1.2,6.5-.3,2.1-.3-1.5-.3,5.6s1.8,12.7,5.3,16.5c3.5,3.8,8.9,5.9,14.5,5.9s10.9-1.5,15.4-4.4c4.4-3,8.6-7.4,12.1-13.3.6,5.6,2.4,10,5.6,13,3.2,3,4.4,4.4,12.7,4.4s15.7-3,21.9-8.6c1.1-1,2.2-2.1,3.2-3.3l-2.4,11h26.6l14.8-70.6c3.2-3,5.9-4.7,7.7-5.6,1.8-.9,3.8-1.2,5.9-1.2s1.8.3,2.1.9c.3.6.9,1.8,1.2,3.8.3,3.2,1.2,5.3,2.4,6.2Z"/>
          <path class="cls-1" d="M328.1,66c-4.4,0-8.3.6-11.8,2.1s-7.1,3.2-10,5.9l3-13.9h-26.6l-31,146.2,28.1-6.8-.3-.3,9.7-45.2c1.2,2.4,3.2,3.8,5.9,5,2.7,1.2-4.1,1.8,10,1.8s25.4-6.2,33.4-18.6c8-12.4,12.1-28.1,12.1-47s-1.8-16.8-5.6-21.9c-3.8-5-9.5-7.4-16.8-7.4ZM318.4,129.7c-4.7,10-11.2,15.1-18.9,15.1s-3.2-.3-4.4-1.2c-1.2-.9-2.1-1.8-2.7-3.2l10.9-52c1.5-2.7,3.5-5,5.9-6.5s3.5-2.4,6.8-2.4,5.6,1.2,7.1,3.8c1.5,2.7,2.4-1.8,2.4,11.5s-2.4,24.8-7.1,34.8Z"/>
          <path class="cls-1" d="M473.1,126.5c-6.5,7.1-11.8,12.1-16.8,14.8-4.7,3-10.9,4.1-15.9,4.1s-8.6-1.2-10.3-3.5c-2.1-2.4-3-6.5-3-12.1v-2.7c.3-1.2.3-2.7.3-4.7,11.8-.6,21.6-4.7,30.1-12.4,8.6-7.7,12.7-16.5,12.7-26.9l-.3.3c0-6.2-1.5-10.6-5-13.6-3.5-3-7.4-4.4-15.4-4.4s-15.1,1.8-21.6,5.6c-6.5,3.8-12.1,9.5-16.5,16.8-3.5,6.2-6.5,13.3-8.9,21.3-2.1,8-3.2,12.7-3.2,22.4s.1,3.7.3,5.5c-.4.5-.8.9-1.2,1.3-3,3-7.1,4.4-9.7,4.4s-4.7-.3-5.9-1.5c-1.2-1.2-1.8-3-1.8-5.3v-3c.3-.9.3-1.8.6-3l21.3-100.4-27.5,3.8-19.8,93c-.6,2.4-.9,4.4-1.2,6.5-.3,2.1-.3,4.1-.3,5.6,0,7.1,1.8,12.7,5.3,16.5,3.5,3.8,5.9,5.9,14.5,5.9s16.2-3,23-8.9c1.9-1.6,3.6-3.4,5.2-5.4,1.2,2.7,2.7,5,4.5,6.9,4.7,5,11.5,7.4,21.6,7.4s19.5-3,27.8-8.6c8.3-5.6,16.2-14.5,23.3-26h-6.2ZM438.6,86.3c4.1-7.4,8.6-11.2,12.7-11.2s2.7.6,3.5,1.8c.9,1.2,1.2-2.1,1.2,5.6s-2.7,14.5-8,20.7c-5.3,6.2-11.8,9.5-18.9,10,2.1-10.3,5.3-19.5,9.5-26.9Z"/>
        </g>
        <g>
          <path class="cls-1" d="M594.4,82.6c5.4-3.2,10-7.2,13.2-12.3s4.9-8,4.9-16.3-3.4-15.2-10.3-20.6-16.3-8-28.1-8-14.9.9-22.1,3.2c-7.2,2.3-13.8,5.2-19.8,9.2-7.5,4.6-13.2,10-17.2,16.3-4.3,6.3-6.3,13.8-6.3,19.2s1.7,9.5,4.9,12.3c3.4,2.6,8,4,14.6,4v-.6c-.3,0-.3-.3-.6-.9-.6-1.4-1.1-3.2-1.4-4.9-.6-1.7-.6,7.2-.6-6s4.6-23.8,13.2-31.8c8.9-8,19.5-12,32.1-12s13.5,1.7,17.5,5.2c4.3,3.7,6.3,7.2,6.3,14.3s-2.6,14.1-8,20.1c-5.4,6-11.5,9.2-18.1,9.2h-1.1l8.6-39.9-26.7,3.7-24.4,114.7h25.8l-.3-.6h-.6l14.9-69.1c1.4,0,2.9-.3,4.6-.3h3.7c5.7,0,10,1.7,12.9,5.7,2.9,4,4.3,8.3,4.3,17.2s-1.7,16.6-4.9,22.9c-3.2,6.3-7.5,9.5-12.9,9.5s-4-.3-5.7-1.4c-2-.9-4-2.6-6.3-4.9-.9,2-1.4,4-1.7,5.7-.6,1.7-.6.3-.6,4.9s1.4,7.7,4.6,10c3.2,2.3,6.9,3.4,13.2,3.4s11.8-1.4,16.9-4.3c4.9-3.2,9.2-7.5,12.9-13.2,3.2-4.9,5.4-10.3,7.2-16.6,1.7-6.3,2.6-9.8,2.6-17.8s-1.7-14.3-5.4-19.5c-3.7-5.2-8.9-8.3-15.8-9.8Z"/>
          <polygon class="cls-1" points="719.7 70.3 719.9 70.3 720 69.7 719.7 70.3"/>
          <polygon class="cls-1" points="767.9 70.3 768.1 70.3 768.2 69.7 767.9 70.3"/>
          <path class="cls-1" d="M919,86.6c1.7-.9,3.7-1.1,5.7-1.1s1.7.3,2,.9c.3.6.9,1.7,1.1,3.7.3,3.2,1.1,5.2,2.3,6,1.1.9.9,1.4,4.9,1.4s7.2-1.1,9.5-3.7c2.6-2.6,3.7-5.4,3.7-9.5s-1.1-7.2-3.4-9.8c-2.3-2.6-5.7-4-8.9-4s-6,.9-9.2,2.3c-3.2,1.4-7.5,4.6-12.6,8.9l2.3-11.2h-25.8l-12.3,57.6h-.6c-6.3,6.9-11.5,11.8-16.3,14.3-4.6,2.9-10.6,4-15.5,4s-8.3-1.1-10-3.4c-2-2.3-2.9-6.3-2.9-11.8v-2.6c.3-1.1.3-2.6.3-4.6,11.5-.6,21.2-4.6,29.3-12,8.3-7.5,12.3-16.1,12.3-26.1l-.3.3c0-6-1.4-10.3-4.9-13.2-3.4-2.9-7.2-4.3-14.9-4.3s-14.6,1.7-20.9,5.4c-6.3,3.7-11.8,9.2-16.1,16.3-3.4,6-6.6,12.9-8.6,20.6-2,7.7-3.2,12.3-3.2,21.8s0,1.9,0,2.8c-.8,1.2-1.7,2.3-2.7,3.2-2.9,2.9-6.9,4.3-9.5,4.3s-4.6-.3-5.7-1.4c-1.1-1.1-1.7-2.9-1.7-5.2v-2.9c.3-.9.3-1.7.6-2.9l11.5-53.9h10.9l1.4-7.2h-10.9l6-28.4-26.7,3.7-5.4,25h-5.9l-1.3,6.6h6l-10.9,50.8h0c-1.4,4.6-3.7,8.6-6.6,11.5-2.9,2.9-6.9,4.3-9.5,4.3s-4.6-.3-5.7-1.4c-1.1-1.1-1.7-2.9-1.7-5.2v-2.9c.3-.9.3-1.7.6-2.9l11.5-53.9h10.9l1.4-7.2h-10.9l6-28.4-26.7,3.7-5.4,25h-5.9l-1.3,6.6h6l-10.9,50.8c0,.3-.1.6-.2.9h0c-1.4,5.2-3.4,8.9-6,11.8-2.6,2.6-6,4-8.6,4s-4.6-.3-5.7-1.4c-1.1-1.1-1.7-2.9-1.7-5.2v-2.9c.3-.9.3-1.7.6-2.9l12.9-61.4h-25.8l-12.3,57.9c-1.4,5.2-3.7,9.2-6,11.8-2.3,2.5-5.1,4-8.2,4-1.7,0-3-.9-3.9-2-.9-1.1-1.4-3.2-1.4-5.4v-2.3c.3-.9.3-1.7.6-2.6l12.9-61.4h-25.8l-12.3,57.9c-.6,2.3-.9,4.3-1.1,6.3-.3,2-.3-1.4-.3,5.4s1.7,12.3,5.2,16.1c3.4,3.7,8.6,5.7,14.1,5.7s10.6-1.4,14.9-4.3c4.3-2.9,8.3-7.2,11.8-12.9.6,5.4,2.3,9.8,5.4,12.6,3.2,2.9,4.3,4.3,12.3,4.3s15.2-2.9,21.2-8.3c2.4-2.2,4.7-4.9,6.8-8,.7,4.1,2.3,7.5,4.6,10,3.4,3.7,5.7,5.7,14.1,5.7s15.8-2.9,22.4-8.6c2.6-2.2,4.9-4.8,7-7.8.7,4.4,2.3,8,4.8,10.7,3.4,3.7,5.7,5.7,14.1,5.7s15.8-2.9,22.4-8.6c2.2-1.9,4.2-4.1,6.1-6.5,1.2,3.4,2.9,6.2,5.1,8.5,4.6,4.9,11.2,7.2,20.9,7.2s18.9-2.9,27-8.3c5.1-3.5,10.1-8.2,14.9-14.1l-4.5,21.3h25.8s14.3-68.5,14.3-68.5c3.2-2.9,5.7-4.6,7.5-5.4ZM844.2,89.2c4-7.2,8.3-10.9,12.3-10.9h0c1.7,0,2.6.6,3.4,1.7.9,1.1,1.1-2,1.1,5.4s-2.6,14.1-7.7,20.1c-5.2,6-11.5,9.2-18.4,9.8,2-10,5.2-18.9,9.2-26.1Z"/>
          <path class="cls-1" d="M1129.8,128.8c-2.3,7.2-5.2,12.6-8.6,16.6-3.4,4-8,6.9-14.1,9.2l17.8-83.7h-25.8l-12.6,58.8c-1.7,4.6-3.7,8.3-6,10.9-2.3,2.6-5.2,3.7-8,3.7l.3.3c-1.7,0-3.2-.6-4-2-.9-1.1-1.4-3.2-1.4-5.7v-2.3c0-.9.3-1.4.3-2.3l12.9-61.4h-25.8l-12.2,57.4h-.1c-1.4,4.6-3.7,8.6-6.6,11.5-2.9,2.9-6.9,4.3-9.5,4.3s-4.6-.3-5.7-1.4c-1.1-1.1-1.7-2.9-1.7-5.2v-2.9c.3-.9.3-1.7.6-2.9l20.6-97.5-26.1,3.6c-1.1-2.5-2.7-4.8-4.9-6.8-4-3.7-8.9-5.4-14.9-5.4h-.3c-8.6,0-15.8,2.6-21.2,7.7s-9.2,12.9-11.5,22.9l-21.8,103c-12.3,4-20.4,8-24.7,11.8-4.3,3.7-6.3,9.8-6.3,15.2s2.3,10,6.3,13.8c4,3.7,6.3,5.4,14.9,5.4s15.5-2.6,20.9-7.7c5.4-5.2,9.2-12.6,11.5-22.9l20.6-97.5h13.2l1.1-7.2h-13.2l3.2-14.3c1.1-4.6,2.6-8.3,4.9-10.9,2-2.6,5.7-3.7,7.7-3.7s3.4.6,4.9,1.7c1.4,1.1,2,2.6,2,4.6v1.4c0,.3,0,1.4-.3,3.4h4.1l-16.2,76c-.6,2.3-.9,4.3-1.1,6.3-.3,2-.3,4-.3,5.4,0,6.9,1.7,12.3,5.2,16.1,3.4,3.7,5.7,5.7,14.1,5.7s15.8-2.9,22.4-8.6c2.5-2.2,4.8-4.8,6.9-7.7.6,4.6,2.3,8.4,4.8,11.1,3.4,3.7,9.8,5.7,14.1,5.7s8.3-.9,11.8-2.6c3.4-1.4,6.9-4,9.8-7.5l-2.3,9.8c-9.8,2.9-17.2,6.9-22.1,11.2-4.9,4.3-7.2,10-7.2,15.5s1.7,9.8,5.4,12.9c3.7,3.2,5.7,4.6,14.6,4.6s15.8-2.6,21.2-7.7c5.4-5.2,9.2-12.9,11.5-22.9l2.6-12.9c8.3-2.3,14.9-6.3,20.1-11.8,5.2-5.7,8.9-12.9,11.8-22.1h-7.5ZM938,165.5l-2.3,10.3c-.9,4.3-2.3,7.7-4,10.3-1.7,2.6-4.3,3.7-6,3.7s-3.4-.9-4.9-2-2.3,0-2.3-4,1.4-7.7,4.6-10.6c3.2-3.2,8.3-5.7,15.2-8l-.3.3ZM1077.1,175.5c-1.1,4.9-2.6,8.9-4.6,11.8-2,2.9-4.3,4.3-6,4.3s-3.2-.6-4.3-1.7-1.7-.9-1.7-4,1.4-5.7,4.3-8.3,7.2-4.9,13.2-7.2h.3l-1.1,5.2Z"/>
        </g>
      </g>
    </g>
  </g>
</svg>