<?xml version="1.0" encoding="UTF-8"?>
<svg xmlns="http://www.w3.org/2000/svg" version="1.1" viewBox="0 0 1528.2 206.1">
  <defs>
    <style>
      .cls-1 {
        fill: #48bf03;
      }

      .cls-2 {
        fill: #64ff00;
      }

      .cls-3 {
        fill: #44a307;
      }

      .cls-4 {
        fill: #b4ff83;
      }
    </style>
  </defs>
  <!-- Generator: Adobe Illustrator 28.7.1, SVG Export Plug-In . SVG Version: 1.2.0 Build 142)  -->
  <g>
    <g id="Layer_1">
      <path class="cls-4" d="M101.9,1.1C45.6,1.1,0,46.8,0,103.1s45.6,101.9,101.9,101.9,101.9-45.6,101.9-101.9S158.2,1.1,101.9,1.1ZM167,108.2c0-1.7.1-3.4.1-5.1,0-13.7-2.9-26.8-8.1-38.6-10.2,4.5-19.4,10.7-27.4,18.2-4.3-19.9-14.9-37.5-29.5-50.6-14.7,13.2-25.3,31-29.6,51-7.7-7.4-16.5-13.4-26.3-17.9-5,11.6-7.8,24.4-7.8,37.9s0,3.8.2,5.7c-10-3.6-20.8-5.5-32.1-5.5v-.2c0-16.6,4.2-32.2,11.7-45.8,11.2-20.4,29.7-36.3,52-44.2,5.4-1.9,10.9-3.3,16.7-4.2,4.9-.8,9.9-1.2,15.1-1.2s10.8.5,16,1.3c5.5.9,10.9,2.3,16,4.2,22.2,7.9,40.5,23.7,51.7,44.1,7.5,13.6,11.7,29.2,11.7,45.8v.2c-10.6,0-20.8,1.7-30.3,4.9Z"/>
      <path class="cls-1" d="M167.2,103.1c0,1.7,0,3.4-.1,5.1-14.3,4.8-27.1,12.9-37.5,23.4h0c-10.6,10.7-18.7,23.9-23.3,38.6,0,0,0,0,0,0-.5,1.7-1,3.4-1.4,5.1,0,.3-.1.6-.2.9-1.3,5.5-2.2,11.1-2.5,16.9,0,.2,0,.3,0,.5,0,1.6-.1,3.3-.1,4.9,0-1.6,0-3.2-.1-4.8,0-.2,0-.5,0-.7-.3-5.6-1.2-11.1-2.4-16.4,0-.4-.2-.8-.3-1.2-.5-2-1.1-3.9-1.7-5.9-4.5-14.1-12.3-26.8-22.3-37.1-10.1-10.4-22.5-18.5-36.4-23.5-.1-1.9-.2-3.8-.2-5.7,0-13.5,2.8-26.3,7.8-37.9,9.8,4.5,18.7,10.6,26.3,17.9,18.1,17.4,29.3,41.8,29.3,68.8,0-27.3,11.4-51.8,29.8-69.2,8-7.5,17.2-13.7,27.4-18.2,5.2,11.8,8.1,24.8,8.1,38.6Z"/>
      <path class="cls-2" d="M131.7,82.7c-18.3,17.4-29.8,42-29.8,69.2,0-27.1-11.3-51.5-29.3-68.8,4.3-20.1,14.9-37.8,29.6-51,14.6,13.1,25.2,30.7,29.5,50.6Z"/>
      <path class="cls-3" d="M101.9,198.5c-4,0-7.9-.2-11.7-.7-1.1-.1-2.2-.3-3.4-.5-5.7-.9-11.3-2.3-16.7-4.2-37-13.1-63.6-48.3-63.7-89.8,11.3,0,22.1,2,32.1,5.5,13.9,5,26.4,13.1,36.4,23.5,10.1,10.4,17.8,23,22.3,37.1.6,1.9,1.2,3.9,1.7,5.9.1.4.2.8.3,1.2,1.3,5.3,2.1,10.8,2.4,16.4,0,.2,0,.5,0,.7,0,1.6.1,3.2.1,4.8Z"/>
      <path class="cls-3" d="M197.3,103.3c0,41.4-26.5,76.6-63.4,89.7-5.2,1.8-10.5,3.2-16,4.2-1.4.2-2.8.4-4.2.6-3.8.5-7.8.7-11.7.7,0-1.6,0-3.3.1-4.9,0-.2,0-.3,0-.5.3-5.8,1.2-11.4,2.5-16.9,0-.3.1-.6.2-.9.4-1.7.9-3.4,1.4-5.1,0,0,0,0,0,0,4.6-14.7,12.7-27.9,23.3-38.6h0c10.4-10.5,23.2-18.6,37.5-23.4,9.5-3.2,19.7-4.9,30.3-4.9Z"/>
      <g>
        <path class="cls-3" d="M390.7,177.6c-1.5,0-3-.1-4.6-.3-1.6-.2-3.1-.6-4.6-1.1-5.7-1.9-10.4-5.4-14.1-10.4-3.7-5-6.6-11-8.8-17.8-2.2-6.9-4-14.1-5.4-21.6s-2.9-14.8-4.4-21.7c-2.2-.9-4.3-2-6.3-3.3-2-1.2-3.8-2.5-5.3-3.9l-1.2,2c-13.2,22-27.4,39.1-42.6,51.4-15.2,12.2-30.9,17.9-47.1,16.9-4.5-.3-8.7-1.8-12.6-4.6-3.9-2.8-5.9-6.8-5.9-11.9s0-1.4.1-2c0-.7.2-1.4.3-2,.8-3.5,3-6.5,6.6-8.9,3.6-2.4,7.2-3.6,10.7-3.6,1.5-1.8,3.4-2.6,5.7-2.6s2.1.3,3.2.8c1,.5,1.9,1.4,2.5,2.6.5.1,1.3.2,2.2.2s2-.1,2.9-.4c.8-.3,1.3-.7,1.4-1.4.3-.9.7-1.4,1.2-1.4s.9.3,1,.8c.3.5.4,1.2.4,1.8s-.3,1.8-1,2.6c-.7.8-2,1.4-3.9,1.6-1.1,0-2.1-.3-3.1-.8.1,1,.2,1.9.1,3,0,1-.1,2.1-.1,3.2v.6c0,1.2.4,2.3,1.1,3.3.7,1,1.5,1.2,2.3.6.5-.4,1-.6,1.3-.6s.3.3-.1,1c-1,1.8-2.5,2.6-4.7,2.6s-1.1-.1-1.6-.4c-1.6-.7-2.9-1.7-3.8-3.2-.9-1.4-1.4-2.8-1.5-4.2-.3-2.6-1-4.4-2.2-5.5-1.2-1.1-2.4-1.8-3.5-2-.4,0-.6,0-.6-.2-2.6.5-5.2,1.9-7.7,4-2.6,2.1-4.2,4.5-4.9,7.2-.1.5-.2,1.2-.3,1.8,0,.7-.1,1.3-.1,1.8,0,4.2,1.6,7.5,4.7,9.8,3.1,2.3,6.8,3.5,11,3.5,6.1,0,12.6-2.2,19.5-6.6,6.9-4.4,13.9-10.3,21.1-17.7,7.2-7.4,14.3-15.7,21.4-24.9,7.1-9.2,13.9-18.4,20.6-27.8-1.4-2.9-2-5.7-2-8.6s.3-3.3,1-4.9c1.1-1.6,3-2.4,5.7-2.4h.8c1.5,0,2.9.5,4.3,1.4,1.4-1.9,2.6-3.8,3.9-5.6s2.4-3.6,3.7-5.4c3.8-5.8,8.5-12.2,14.1-19.2,5.6-6.9,11.6-13.5,18.1-19.8-6.1-2-12.7-3.6-19.7-4.6-7-1-14.2-1.5-21.7-1.5s-19.5.9-29.2,2.6c-9.7,1.8-18.9,4.5-27.5,8.2-8.6,3.7-16.3,8.3-22.9,13.8-6.7,5.5-11.8,12-15.5,19.5-1.6,3.1-2.8,6.2-3.6,9.2-.7,3-1.1,5.8-1.1,8.6,0,5.2,1.3,9.7,3.9,13.7l.4.2c1.2.5,2.5.9,3.9,1.1,1.4.2,2.6.3,3.7.3s1.3,0,1.8-.1c.5,0,1.1-.2,1.6-.3-.1-.4-.2-.8-.3-1.2,0-.4-.1-.8-.1-1.2,0-1.6.5-2.8,1.5-3.6,1-.7,1.9-1.2,2.8-1.3.9-.3,1.9-.6,2.8-1,.9-.4,1.5-.9,1.9-1.6.7-1.1,1.1-2.2,1.2-3.3.1-1.1.2-1.9.2-2.4.9,1,1.6,2.2,2,3.8.4,1.6.6,3,.6,4.4,0,3.5-.8,6.1-2.5,7.8-1.7,1.7-3.4,2.5-5.2,2.5s-2.8-.5-3.9-1.6c-1.5.5-3.1.8-4.7.8s-1.9-.1-2.9-.3c-1-.2-2-.4-3.1-.5,5.2,6,12.3,9,21.4,9s8.8-.7,13-2.2c.1,0,.3,0,.4-.1.1,0,.3-.1.4-.1l.6-.2c6.4-2.2,11.8-5.6,16.2-10.2,4.4-4.6,7.8-9.7,10.1-15.4,2.3-5.6,3.5-10.9,3.5-15.8s-1.2-9-3.5-12.3c-2.3-3.3-6-5-11.2-5h-.2c-1.9,0-3.6,1.1-5.2,3.4-1.6,2.2-2.4,5.3-2.5,9.1-.1,1.8-1,4.3-2.4,7.6-1.5,3.3-3.5,5.9-6.1,7.8-1.8,1.4-3.5,2-5.3,2s-2.8-.5-3.9-1.4c-.3-.3-.4-.5-.4-.8s.7-.5,2.2-.8c1.5-.3,2.8-1.4,3.8-3.4,1-2,1.4-3.8,1.1-5.6-.4-6.1.6-11,3-14.8,2.4-3.7,6-5.6,10.9-5.6h1.5c.5,0,1,0,1.5.2,1.5,0,2.9.1,4.1.4,1.2.3,2.4.5,3.5.8-.8-.7-1.6-1.5-2.3-2.5-.7-1-1.1-2.3-1.1-3.8s.6-2.2,1.7-2.9c1.2-.7,2.3-1,3.6-1s1.3.1,1.8.4c.9.5,1.4,1,1.4,1.4s-.6.5-1.8.4h-.4c-1.1,0-1.6.7-1.6,2s.4,2.6,1.1,4.3c.7,1.6,1.4,2.8,1.9,3.5,2.7,1.6,4.8,3.8,6.3,6.5,1.5,2.7,2.4,5.6,2.6,8.8.4-.7.9-1.4,1.4-2,.5-.7,1.1-1.4,1.6-2-.8-1.1-1.2-2.2-1.2-3.5s.6-3.4,1.8-5.2,3.1-3.4,5.5-4.8c1.9-1.1,4.4-1.9,7.4-2.5,3.1-.6,6.1-.9,9.1-.9s4.4.2,6.3.6c1.9.4,3.4,1.1,4.5,2,.9,1,1.5,1.7,1.5,2.2,0,.5,0,1-.3,1.2-1.4-.3-2.6-.4-3.7-.4-1.6,0-3,.2-4.1.6-1.5.7-2.6,1.6-3.3,2.9-.7,1.2-1.5,2.6-2.4,4.2-1,1.6-2.7,3.2-5.3,4.8-2.2,1.5-4.8,2.2-7.7,2.2s-4.3-.5-6.1-1.6c-1.5,1.1-2.6,2.2-3.5,3.5-.8,1.2-1.4,2.4-1.8,3.7-.5,6.7-3.1,13.4-7.5,20.3-4.5,6.9-10.5,12.4-18.1,16.6,1.2,0,2.5.3,3.9,1,.9-.9,2.2-1.4,3.7-1.4s3.5.8,5.2,2.3c1.7,1.6,2.5,4,2.5,7.4s-.2,2.9-.6,4.6c-.4,1.7-1.2,3.1-2.2,4.2-.1-.7-.2-1.5-.2-2.5s-.3-2.1-1-3.2c-.4-.7-1.1-1.3-1.9-1.7-.9-.5-1.8-.8-2.8-1.1-.8-.3-1.7-.8-2.6-1.5-1-.7-1.4-1.9-1.4-3.4s0-1,.1-1.3c0-.3.2-.7.3-1.1-1.2-.4-2.5-.6-3.9-.6h-1.2c-.4,0-.8,0-1.2.2-6.3,2.7-13,4.1-20.2,4.1s-12.4-1.3-17.1-3.9c1.2,1.8,1.8,3.3,1.8,4.5,0,1.8-.9,3.1-2.5,4-1.7.9-3.1,1.1-4.2.7-.4-.1-.7-.4-.8-.7-.1-.3.3-.6,1.2-.9,1.2-.4,1.8-1.7,1.8-3.9s-.1-2.5-.4-3.8c-.3-1.3-.7-2.2-1.4-2.8l-.2-.2c-3.4-3.4-6.3-7.1-8.6-11-2.3-3.9-3.5-8.5-3.5-13.7s.4-5.6,1.1-8.8c.7-3.1,1.9-6.2,3.4-9.4,1.5-3.3,3.4-6.3,5.8-9.2,2.4-2.9,5.1-5.5,8-7.9-.7.1-1.5.3-2.3.5-.9.2-1.7.3-2.5.3-1.6,0-3.1-.3-4.5-1-1-.5-1.6-1.3-2-2.3-.4-1-.6-2-.6-3,0-1.8.5-3.3,1.4-4.5.4-.4.7-.6,1-.6.4,0,.6.7.6,2.2s.8,2.3,2.3,3.2c1.6.9,3.3,1.5,5.3,1.8,2,.3,3.5.4,4.6.1,1.1-.4,1.7-.7,1.8-.8,6.9-4.8,14.9-8.7,23.8-11.8,9-3.1,18.5-5.5,28.5-7,10.1-1.6,20.1-2.3,30.2-2.3s16,.5,23.8,1.5c7.9,1,15.4,2.5,22.4,4.6,1.9-1.9,3.9-3.7,6-5.5,2.1-1.8,4.2-3.4,6.4-4.9,4.5-3.4,9-5.7,13.5-7,4.5-1.3,8.6-1.9,12.2-1.9s7.2.5,9.9,1.6c2.6,1.1,4.2,2.4,4.8,3.9l-1.2.8c-1.1-1.2-2.6-2.2-4.7-3.1-2-.8-4.4-1.2-7.1-1.2s-7,.7-11.2,2.2c-4.2,1.5-8.9,4.1-14.1,7.9-1.5,1.1-3,2.4-4.6,3.9-1.6,1.5-3.2,3.1-4.8,4.9,10.9,3.9,19.8,9.4,26.7,16.3,6.9,6.9,10.4,15.4,10.4,25.5s-1.6,12.5-4.9,18-7.6,10.2-12.9,14.2c-5.4,3.9-11.2,7-17.6,9.2-6.4,2.2-12.8,3.3-19.2,3.3s-8.2-.5-12.2-1.6l-.8-.2c2.9,7.6,5.7,15.5,8.6,23.6,2.9,8.2,5.9,15.6,9.3,22.3,3.3,6.7,7,11.8,10.9,15.2,1.5,1.4,3,2.3,4.6,2.9,1.6.5,3.2.8,4.8.8,2.9,0,5.5-.7,8-2.2,2.5-1.5,4.5-3.5,5.9-5.9,1.4-2.4,1.9-5,1.5-7.5l1.8-.2c.5,4.8-.2,8.8-2.2,12-2,3.3-4.8,5.7-8.4,7.3-3.5,1.6-7.3,2.4-11.4,2.4ZM332.2,85.1c.9-1.5,1.9-2.9,2.9-4.3.9-1.4,1.9-2.7,2.9-4.1-.3-.3-.5-.5-.8-.7-.3-.2-.5-.4-.8-.5-.8-.4-1.6-.6-2.2-.6-1.1,0-1.8.4-2,1.2-.5,1.1-.8,2.2-.8,3.5s.3,3.2,1,5.5ZM348.1,101c-.5-2.7-1.2-5.3-1.8-7.6-.7-2.4-1.4-4.6-2.2-6.6l-5.1,8.2c2.4,2.2,5.5,4.2,9.2,6.1ZM368.1,104.8c5.7,0,11-.7,15.9-2.2,7.7-2.4,14-5.9,18.6-10.5,4.7-4.6,8.1-9.4,10.3-14.7,2.2-5.2,3.3-10.1,3.3-14.6,0-8.7-2.9-16.2-8.7-22.4-5.8-6.2-13.3-11.2-22.5-14.9-4.1,4.9-8.4,10.5-12.8,16.9-4.5,6.4-8.9,13-13.1,19.8-4.3,6.8-8.4,13.4-12.3,19.8,1.6,2.9,3.2,6.1,4.8,9.8,1.6,3.7,3.1,7.5,4.6,11.6,1.9.5,3.9.9,5.9,1.1,2,.2,4.1.3,6.1.3Z"/>
        <path class="cls-3" d="M415.1,152.7c-3.8,0-6.7-1.5-8.8-4.4-2-2.9-3.1-6.7-3.1-11.3s1.4-10.9,4.1-17.5c1.5-3.7,3.7-7.4,6.7-11.3,3-3.9,6.5-7.5,10.4-10.8,3.9-3.3,8.2-6,12.7-8.2,4.6-2.1,9.2-3.2,14-3.2s6.2,1,7.5,2.9c1.4,1.9,2,4.2,2,6.9s-.4,5.2-1.2,7.9l11.4-17.3c.9-.7,3.1-1,6.3-1s4.8.3,7,.8c2.2.5,2.9,1.4,1.9,2.4-1.1,1.4-3,3.4-5.6,6.2-2.6,2.8-5.5,6.1-8.6,9.9-3.1,3.8-5.9,7.8-8.7,12-1.4,2.3-3.4,5.7-6,10.2-2.6,4.5-4.7,8.8-6.2,12.8-.8,2.4-1.2,4.4-1.2,5.9,0,2.9,1.2,4.3,3.7,4.3s3.2-.5,5.5-1.5c2.3-1,4.6-2.4,6.7-4.2,4.3-3.5,8.2-7.8,11.4-12.7,3.3-5,6.2-9.3,8.8-13.1.1-.1.3-.3.5-.4.2-.1.6-.2,1.1-.2s.9.2,1.2.7c.3.5.1,1.1-.4,1.7-3.8,5.7-7.5,11-11.2,16-3.7,5-7.4,8.9-11.2,11.9-3.8,3-7.9,4.5-12.4,4.5s-6.4-1.1-8.5-3.2c-2.1-2.1-3.2-5-3.2-8.7s.2-3.3.5-5.1c.3-1.8.8-3.4,1.3-4.9-2.2,2.9-4.9,6-8,9.4-3.2,3.4-6.6,6.3-10.1,8.8-3.5,2.4-7.1,3.7-10.6,3.7ZM417,148.9c2.7,0,5.6-1.1,8.7-3.3,3.1-2.2,6.1-5,9.3-8.5,3.1-3.5,6-7.2,8.6-11.1,2.2-3.3,4.3-6.7,6.4-10.4,2.1-3.7,3.9-7.3,5.3-10.8,1.4-3.5,2.1-6.7,2.1-9.6,0-4.3-1.6-6.5-4.7-6.5s-4.7,1-7.5,2.9c-2.9,1.9-5.7,4.3-8.7,7.3-2.9,3-5.6,6.2-8.2,9.7-2.5,3.5-4.5,6.8-6,10.1-.4.8-1.4,2.8-3,5.9-1.6,3.1-3.1,6.5-4.5,10.2-1.4,3.7-2.1,6.9-2.1,9.6s1.4,4.5,4.3,4.5Z"/>
        <path class="cls-3" d="M490.6,154c-3.7,0-6.8-1.1-9.3-3.4-2.5-2.2-3.8-5.5-3.8-9.7s.4-4.7,1.2-7.5c.9-3,2.1-5.7,3.4-8.3,1.3-2.5,3-5.4,5-8.7l20-29.6c.8-.7,1.8-1.1,3.1-1.3,1.2-.2,2.5-.3,3.9-.3s3.5.2,4.9.5c1.4.3,1.9.9,1.6,1.5l-20.2,30c-.4.5-1.7,2.4-4,5.6-2.2,3.2-4.4,6.7-6.4,10.5-2.6,4.8-3.9,8.8-3.9,12.2s1.7,5.5,5.1,5.5,2.4-.2,4-.7c1.6-.5,3.4-1.3,5.4-2.3,8.6-4.8,17.3-14.4,26.3-28.9.4-.7.8-1.1,1.1-1.1.3,0,.6-.1.7-.1.7,0,1.1.2,1.3.7.2.5.1,1.1-.3,1.7-4.9,7.5-9.7,13.9-14.4,19.4-4.7,5.4-9.6,9.4-14.8,11.8-3.4,1.6-6.7,2.4-10,2.4ZM509.9,73.9c-1.4,0-2-.2-2-.6s.8-1,2.3-2.1c1.6-1.2,3.3-2.4,5.2-3.8,1.9-1.4,3.3-2.4,4.3-3.1,2.3-1.8,4.6-3.4,6.8-4.9,2.2-1.5,3.8-2.2,4.6-2.2s1.7.3,2.5,1c.9.7,1.3,1.5,1.3,2.4s-1.1,1.7-3.4,3.2c-2.2,1.4-4.9,2.9-8,4.5-3.1,1.6-6,2.9-8.6,4-2.6,1.1-4.3,1.6-5.1,1.6Z"/>
        <path class="cls-3" d="M537.6,154c-2.4,0-4.8-.4-7.1-1.2-2.7-1-5-2.8-6.8-5.5-1.8-2.7-2.8-6.2-2.8-10.4s.6-6.6,1.8-10.5c1.2-3.9,3.3-8.1,6.1-12.7,1.6-2.6,3.8-5.5,6.5-8.7,2.7-3.2,5.8-6.3,9.4-9.3,3.5-3,7.3-5.4,11.2-7.3,3.9-1.9,7.9-2.9,11.8-2.9s8.1,1,9.9,3c1.8,2,2.8,4.3,2.8,7s-.4,4.4-1.2,6.5c-.8,2.2-1.8,4-2.9,5.5-1.6,2.2-3.2,3.7-4.8,4.7-1.6,1-3.1,1.4-4.6,1.4s-3.2-.6-4.2-1.7c-1-1.2-1.4-2.3-1.1-3.6,2.2-.5,4.4-1.6,6.6-3.2,2.2-1.6,4.2-3.3,5.8-5.1s2.5-3.4,2.6-4.8c.3-2-.1-3.5-1.1-4.4-1-.9-2.3-1.3-4-1.3-2.4,0-5.6,1.2-9.5,3.7-3.9,2.4-7.8,5.7-11.7,9.9-3.9,4.1-7.4,8.7-10.4,13.8-2.4,4.2-4.5,8.5-6.2,12.9-1.7,4.4-2.5,8.4-2.5,11.9s.3,3.4.8,4.8c.5,1.4,1.4,2.5,2.6,3.4,1.1.8,2.5,1.2,4.3,1.2,3.4,0,7.6-1.4,12.6-4.2,5-2.8,10.1-6.6,15.1-11.5,5-4.9,9.3-10.5,12.8-16.9.4-.7.9-1,1.4-1s.8.2,1.1.7c.3.5.4,1,.3,1.5-3.8,6.4-8.2,12.2-13.2,17.4-5,5.2-10.3,9.3-15.7,12.3-5.4,3-10.7,4.5-15.9,4.5Z"/>
        <path class="cls-3" d="M593.3,153.3c-3.5,0-6.9-.9-10-2.5-3.1-1.7-5.4-4.4-6.9-8.3-1-2.4-1.4-5.2-1.4-8.4s.7-7.5,2.2-11.2c1.9-4.5,4.7-8.9,8.4-13.2,3.7-4.3,7.7-8.3,12.2-11.8,4.5-3.5,9-6.3,13.5-8.5,4.5-2.1,8.5-3.2,12-3.2s5.4.8,7.1,2.4c1.2,1.2,1.8,3,1.8,5.3s-1.1,6.4-3.4,10.3c-2.2,3.9-5.4,7.2-9.5,10.1-2.6,1.8-5.6,3.2-9.1,4.4-3.5,1.2-7.1,1.7-10.9,1.7s-2.5,0-3.8-.2c-1.3-.1-2.5-.3-3.8-.6-1,1.1-2.1,2.8-3.4,5.2-1.3,2.4-2.4,5-3.3,7.8-.9,2.9-1.3,5.6-1.3,8.2.1,3.5,1.1,6,3,7.4s4,2.1,6.6,2.1c5.2,0,10.2-1.7,15-5,4.8-3.3,9.2-7.4,13.1-12.3,3.9-4.9,7.3-9.6,10-14.1.4-.5.7-.8,1-.9.3,0,.5-.1.6-.1.4,0,.8.2,1.1.6.3.4.4,1,.1,1.6-1.8,2.9-4,6.3-6.8,10.2-2.8,3.9-6,7.7-9.8,11.3-3.7,3.6-7.9,6.6-12.5,8.9-1.8.9-3.7,1.6-5.8,2-2.1.4-4.2.6-6.2.6ZM597.5,117.7c6.4,0,12.2-1.7,17.4-5,5.2-3.3,9-7.4,11.3-12.1.7-1.1,1.1-2.1,1.3-3.1.2-.9.3-1.7.3-2.2,0-2.3-1.3-3.5-3.9-3.5s-3.4.4-5.4,1.2c-2,.8-3.7,1.8-5.2,2.9-2.6,1.9-5.3,4.2-8,7-2.8,2.8-5.3,5.5-7.4,8.2-2.2,2.6-3.8,4.7-4.9,6.2.7.1,1.4.2,2.2.3.8,0,1.6.1,2.2.1Z"/>
        <path class="cls-3" d="M689.2,117.9c.4,0,.7.2,1,.6.3.4.3,1,0,1.8-6.4,10.2-13.7,17.4-21.8,21.7-8.2,4.3-16.2,7.2-24.3,8.7-3.3.8-6.7,1.2-10.2,1.2s-9-.9-13-2.6c-4.1-1.8-7-4.7-8.8-8.8-.8-2-1.2-4.1-1.2-6.1,0-3,.8-5.6,2.3-7.8,1.6-2.2,3.2-3.8,5-4.8,1.1-.7,2.3-1.1,3.6-1.3,1.3-.2,2.6-.3,4-.3s3.3.2,4.7.6c.4-.7,1.6-2.7,3.7-6,2-3.3,4.6-7.3,7.5-11.8,3-4.6,6.1-8.9,9.4-12.9,3.5-4.3,6.9-7.9,10.2-10.8s5.6-4.4,7.1-4.7c.4-.1.8-.2,1.2-.2h1c1.5,0,2.6.3,3.4,1,.7.7,1.1,1.5,1.1,2.4s-.5,1.9-1.5,2.9c-1,1-2.5,1.4-4.4,1.4s-4.3.6-6.5,1.7c-2.2,1.2-3.5,2.5-3.9,4-.4,1.2-.6,2.6-.6,4.1,0,2.4.4,4.9,1.3,7.3.9,2.4,1.7,4.9,2.5,7.3.8,2.4,1.6,5,2.3,7.5.7,2.6,1.1,5.4,1.1,8.4s-.4,5.5-1.2,8.4c-1.5,5.7-4.3,10.3-8.4,13.9,4.9-1.6,10.1-4.3,15.7-8.2,5.6-3.8,10.8-9.6,15.7-17.3.4-.7.8-1.1,1.1-1.1.3,0,.6-.1.7-.1ZM631.6,149.3c1.8,0,3.6-.3,5.5-.8,1.9-.5,3.7-1.4,5.5-2.6,2.4-1.5,4.5-3.9,6.1-7.1s3-6.8,4-10.7c1-3.9,1.8-7.6,2.2-11.1.5-3.5.7-6.3.7-8.4s-.2-5.7-.7-8.6c-.5-2.9-.6-5.6-.5-8.4-3,4.1-6.4,8.6-10.1,13.7-3.7,5-7.4,10.6-10.9,16.7,1.6,1,3,2.1,4.2,3.4,1.2,1.3,1.9,3.3,2.3,6,.1,1.1-.2,2.3-.9,3.6-.7,1.3-2.1,1.9-4.2,1.9s-2-.4-2-1.2.4-1.3,1.2-1.8c1.4-1.1,2-2.3,2-3.7s-.2-1.6-.6-2.4c-1-1.8-2.3-3.1-4-3.9-1.7-.8-3.5-1.2-5.4-1.2-2.7,0-5,.8-6.9,2.4-1.6,1.4-2.8,2.8-3.5,4.4-.7,1.6-1,3.2-1,4.8,0,2.6.7,5,2,7.2,1.4,2.2,3,3.9,4.9,5,3,1.9,6.3,2.9,10,2.9Z"/>
        <path class="cls-3" d="M802.7,183.7c-.4,0-1.1-.3-2-1-1.2-1.2-1.8-3.2-1.8-5.9s.9-7,2.9-9.6c2-2.6,4.4-3.9,7.1-3.9s2,.1,2.4.4c.9-1.6,2.6-2.9,4.9-3.9-2.6-.5-5.2-1.3-7.7-2.1-2.6-.9-5-1.8-7.3-2.8-9,9-18.2,15.8-27.7,20.4-9.5,4.6-19.3,6.7-29.3,6.1-4.5-.3-8.7-1.8-12.6-4.6-3.9-2.8-5.9-6.8-5.9-11.9s0-1.4.1-2c0-.7.2-1.4.3-2,.7-3.1,2.6-5.8,5.7-8.2,3.1-2.3,6.2-3.7,9.4-4.3.5-.1,1-.2,1.4-.2h1.2c.8,0,1.4,0,1.8.2.8.3,1.4.5,1.8.8.3.1.5.3.8.4.3.1.5.3.8.4,1.4.1,3.1-.2,5.2-1.1,2.1-.9,3-2,2.7-3.4v-.6c0-.8.3-1.2,1-1.2s1.2.4,1.6,1.1c.4.7.6,1.6.6,2.5s-.2,1.2-.6,1.9c-.4.7-1.2,1.5-2.2,2.1-1,.5-2.2.8-3.7.8s-2-.1-3.1-.4c.8.9,1.5,2.2,2,3.9.5,1.6.9,3.6,1,5.9,0,.9.3,1.8,1,2.5.7.7,1.5,1.1,2.4,1.1s1.3-.2,1.8-.6c-1.2,2.6-3.2,3.9-5.9,3.9s-3.5-.7-5.2-2.1c-1.7-1.4-2.8-3.5-3.2-6.2-.1-2.2-.8-4-1.9-5.6-1.2-1.6-2.6-2.3-4.4-2.3s-1.4.2-2.2.6l-.2.2c-3.1,2.2-5.1,5-5.9,8.6-.1.5-.2,1.2-.3,1.8,0,.7-.1,1.3-.1,1.8,0,4.2,1.6,7.5,4.7,9.8,3.1,2.3,6.8,3.5,11,3.5,6.8,0,14.1-2.7,21.9-8.3,7.8-5.5,15.7-12.6,23.5-21.3-1.8-1.2-3.5-2.6-5.3-4.1-2-1.8-3.9-3.6-5.5-5.4-1.6-1.8-3.1-3.6-4.5-5.4-1.4-1.1-2.6-1.8-3.8-2.2-1.2-.4-2.3-.6-3.6-.6,0,.7-.2,1.4-.6,2.2-.7,1.4-1.6,2.1-2.8,2.2-1.2.1-2.1.1-2.8,0-.4-.1-.8-.2-1.2-.2h-1.2c-1.4,0-2.5.3-3.6.9-1,.6-1.7,1.7-1.9,3.4-.5-.5-.8-1.4-.8-2.6s.4-3.1,1.3-4.8c.9-1.7,1.6-2.8,2.1-3.4.9-1.1,1.9-1.8,3-2.2s2-.6,3-.6c2.9,0,4.6,1.2,5.3,3.7,1.9,0,3.7.3,5.5,1-1-1.6-1.8-3.3-2.5-5-.7-1.7-1.4-3.4-1.9-5-1.5.3-3,.5-4.4.7-1.4.2-2.9.3-4.4.3-8,0-14.4-2.5-19.2-7.6-4.8-5.1-7.1-11.4-7.1-18.9s.5-6.9,1.5-10.6,2.6-7.4,4.8-11.2c4.2-7.5,10.2-14,17.8-19.6,7.7-5.6,16.1-10.2,25.2-14,9.1-3.7,17.8-6.5,26.1-8.3-2.9-2.6-6.4-4.6-10.6-6.1-4.2-1.5-9.2-2.2-14.9-2.2s-2.2,0-3.4.1c-1.2,0-2.3.2-3.4.3-2,.4-4,1.5-6,3.2-2,1.7-3.5,4.9-4.6,9.5-1.1,4.6-3.3,8.1-6.6,10.5-3.3,2.4-6.7,3.6-10.1,3.6s-4-.5-5.1-1.6c-1.1-1.1-1.5-1.9-1.2-2.4,2.2.1,4-.4,5.5-1.7,1.5-1.3,2.3-3.4,2.4-6.4.3-5.8,1.9-10.4,5-13.6,3.1-3.2,6.5-5,10.3-5.4-1-1.1-1.8-2.1-2.4-3.1-.3-.8-.4-1.4-.4-1.8,0-1.5.6-2.9,1.7-4.3,1.2-1.4,2.3-2.2,3.6-2.4h.4c.7,0,1,.2,1,.6s-.3.7-1,1.6c-.7.7-.6,1.9.1,3.6.7,1.7,1.8,3.3,3.2,4.8,1.4,1.5,2.6,2.4,3.7,2.9.7.5.9.9.8,1l.2.2c1.5-.1,2.9-.2,4.2-.3,1.3,0,2.5-.1,3.8-.1,6.4,0,11.9.8,16.6,2.3,4.7,1.6,8.5,3.8,11.5,6.6,8.3-1.5,17.6-2.2,27.9-2.2s13.2.3,20,1c6.8.7,13.5,1.8,20.2,3.3,1.9-1.6,3.8-3.2,5.6-4.8,1.8-1.6,3.7-3,5.6-4.4,4.6-3.4,9.2-5.8,13.7-7.2,4.5-1.4,8.6-2.1,12.4-2.1s7,.6,9.6,1.7c2.6,1.2,4.1,2.5,4.7,4.2l-1.6,1c-1.1-1.2-2.6-2.2-4.7-3.1-2-.8-4.4-1.2-7.1-1.2s-6.8.7-10.9,2.1c-4.1,1.4-8.8,4-14,7.8-2.4,1.8-5.1,4.1-7.9,7.1,9.4,2.6,18,6.2,25.8,10.8,7.8,4.6,14.1,10.4,18.7,17.4,4.7,7,7,15.4,7,25.2s-1.9,17.3-5.8,25c-3.9,7.7-9.1,14.6-15.8,20.7-6.7,6.1-14.3,11.3-22.8,15.6-8.6,4.3-17.6,7.6-27.2,9.9-9.6,2.3-19.1,3.5-28.6,3.5s-5.9-.1-8.8-.3c-2.9-.2-5.7-.6-8.6-1.1-.5,0-1.2,0-1.8.1-.7,0-1.4.2-2,.3-1,.4-1.9.9-2.8,1.4-.9.5-1.5,1.2-1.9,1.8.9.9,1.4,2.2,1.4,3.9s-.5,3.3-1.6,4.7c-1,1.1-1.9,1.9-3,2.4-1,.5-1.9,1-2.8,1.4-.8.3-1.7.8-2.5,1.7-.9.9-1.3,1.9-1.3,3s.2,1.2.6,1.8c-.1,0-.2,0-.2.1s0,.1-.2.1ZM759.7,119.1c2.6,0,5.4-.4,8.4-1.2-.3-1.4-.5-2.7-.6-4-.1-1.3-.2-2.5-.2-3.8,0-7.5,2.2-14,6.5-19.7,4.3-5.6,10.1-9.1,17.3-10.5,1.4-.7,2.4-1.5,3.2-2.4.7-.9,1.3-1.8,1.5-2.4-1.8-.3-3.2-1.2-4.4-2.9-1.2-1.6-1.7-3.3-1.7-5.1s.3-3.5,1-4.7c.7-1.2,1.3-2.3,1.8-3.3.3-.7.5-1.4.8-2.1.3-.7.4-1.5.4-2.3s-.2-1.8-.5-2.6c-.3-.8-1.1-1.4-2.1-1.6.7-.5,1.5-.8,2.4-.8,1.5,0,2.8.4,4,1.3,1.2.9,2,1.7,2.5,2.3,1.4,1.6,2.3,3.6,2.9,5.8.5,2.2.8,4.2.8,6,0,2.6-.6,4.8-1.9,6.5-1.3,1.8-2.8,2.9-4.4,3.3-.3.8-.6,1.6-.9,2.3-.3.7-.8,1.5-1.5,2.1,2.6-.3,5.2-.2,7.9.1,2.7.3,5.6,1.1,8.6,2.1,4.8-8.8,7.1-17.5,7.1-26.1s-.6-7.7-1.7-11.3c-1.2-3.6-2.9-6.8-5.2-9.5l-6.5,1.2c-10.7,2.6-20,6.2-27.8,10.9-7.8,4.7-14.2,9.6-19.3,14.7-5,5.1-8.7,9.7-11,13.8-.8,1.4-1.5,2.8-2.1,4.2s-1.2,2.8-1.7,4.2c.7,1.1,1.8,2.2,3.5,3.5,1.6,1.2,3.1,1.8,4.3,1.8s1.2-.2,1.6-.6,1.1-.8,1.6-.8c.8,0,1.2.4,1.2,1.2s-.4,2-1.2,3.1c-.8,1.1-2,1.6-3.7,1.6s-2.2-.3-3.3-.8c-1.2-.5-2.3-1.6-3.2-3.1-.9-1.5-1.5-2.7-1.7-3.7-1.4,4.2-2,8.4-2,12.4,0,6.1,1.7,11.1,5,15,3.3,3.9,8.1,5.8,14.4,5.8ZM776,114.8c1.8-.7,3.6-1.6,5.4-2.6,1.8-1.1,3.7-2.2,5.6-3.5,4.8-3.3,9.1-7,12.9-11.1,3.9-4.1,7.2-8.5,9.9-12.9-1.2-.3-2.4-.5-3.7-.7-1.2-.2-2.4-.3-3.7-.3-5.3,0-10,1.5-14.1,4.4-4.1,2.9-7.2,6.7-9.4,11.4-2.2,4.7-3.2,9.8-3.1,15.4ZM793.4,146.2c6.4-7.2,12.7-14.9,18.9-23.2,6.2-8.3,12.2-16.6,18-24.9-2-2.3-4.2-4.4-6.6-6.4-2.4-2-4.9-3.6-7.6-4.8-.4-.3-.8-.5-1.1-.6-.3-.1-.7-.3-1.1-.4-2.7,4.8-6,9.3-10,13.7-3.9,4.3-8.4,8.2-13.2,11.4-5.2,3.4-9.9,5.9-14.3,7.5.7,4.2,2.1,8.5,4.2,12.7,2.1,4.3,5.3,8.3,9.5,11.9.5.5,1.1,1.1,1.7,1.5.6.5,1.2,1,1.7,1.5ZM832.5,158.2c10.5,0,21-1.8,31.5-5.4,10.5-3.6,20.3-8.6,29.2-15,9-6.4,16.5-13.8,22.6-22.2,6.1-8.4,9.8-17.5,11.2-27.3.4-2.7.6-5.2.6-7.5,0-8.2-1.9-15.1-5.8-20.9-3.9-5.8-9-10.6-15.5-14.4-6.5-3.8-13.7-6.7-21.7-8.8-5,5.7-10.3,12.6-15.7,20.6-5.4,8-10.8,16.2-16,24.7-5.2,8.4-10,16.2-14.4,23.2,1.5,2.7,2.5,5.4,3.1,8.2.1.1.2.3.2.4.5,2.2,1.7,4.4,3.6,6.6,1.8,2.2,4,3.3,6.6,3.2.4-2.6,2-4.2,4.9-4.9.7-.3,1.3-.4,1.8-.4h1.6c.7,0,1.3,0,1.7.1.5,0,1,.2,1.5.3,1.2.1,2.6,0,4.3-.5,1.6-.5,2.4-1.5,2.2-3.2.3,0,.6.2,1,.6s.6,1.2.6,2.4c0,2.2-1.1,4.4-3.3,6.7-2.2,2.3-4.3,3.8-6.3,4.5-1.2.4-2.4.6-3.5.6-3.4,0-5.6-1.2-6.5-3.5-.3-.5-.4-1-.4-1.4-1.5.1-3.1-.3-4.8-1.2-1.7-.9-3.1-2.1-4.2-3.5v1.8c0,5-1.5,9.6-4.5,13.8-3,4.1-6.7,6.4-11,6.8l-.4-1c4.6-1.1,7.9-3.5,9.9-7.3,2-3.8,3-7.8,3-12s-1-9.6-3.1-14.1l-3.1,4.9c-4.8,7.6-9.6,14.7-14.7,21.3-5,6.6-10.1,12.5-15.3,17.8,4.3,2,9,3.5,13.9,4.5,4.9.9,9.8,1.4,14.9,1.4ZM832.1,95.5l13-19.4c3.9-6,8.9-12.6,14.9-20,6-7.3,12.4-14.2,19.2-20.6-5.7-1.2-11.6-2.1-17.6-2.8-6-.6-12-.9-17.8-.9s-9.9.2-14.5.5c-4.6.3-9,.9-13,1.5,1.9,2.3,3.4,4.9,4.5,7.8,1.1,2.9,1.8,5.9,2,9.1l.2-.2c1.4-2.6,3.5-4.4,6.5-5.5v-.2c.1-1.9,1.3-3.7,3.4-5.5,2.1-1.8,4.8-2.6,8-2.6s4.6.5,7.1,1.5c2.6,1,4.9,2.4,6.9,4.1,2,1.7,3.2,3.6,3.5,5.6v.8c0,.8-.1,1.4-.3,1.7-.2.3-.4.6-.7.7-.3-1.1-.9-1.9-1.8-2.3-1-.5-2-.7-3.1-.7-1.8,0-3.4.5-4.9,1.4-1,.5-2.1,1.2-3.6,2-1.4.8-3.3,1.2-5.6,1.2s-3.7-.5-5.5-1.6c-1.8-1.1-2.9-2.6-3.3-4.5-2.2,1-3.9,2.8-5.1,5.5-.8,1.8-1.4,3.7-1.6,5.7-.1.3-.2.6-.2,1v1l-.2,1.2c-.8,7.2-3.2,14.5-7.1,22l2.6,1.2c2.7,1.4,5.2,3,7.5,4.8,2.3,1.8,4.5,3.9,6.5,6.2Z"/>
        <path class="cls-3" d="M951.9,153.3c-3.5,0-6.9-.9-10-2.5-3.1-1.7-5.4-4.4-6.9-8.3-1-2.4-1.4-5.2-1.4-8.4s.7-7.5,2.2-11.2c1.9-4.5,4.7-8.9,8.4-13.2,3.7-4.3,7.7-8.3,12.2-11.8,4.5-3.5,9-6.3,13.5-8.5,4.5-2.1,8.5-3.2,12-3.2s5.4.8,7.1,2.4c1.2,1.2,1.8,3,1.8,5.3s-1.1,6.4-3.4,10.3-5.4,7.2-9.5,10.1c-2.6,1.8-5.6,3.2-9.1,4.4-3.5,1.2-7.1,1.7-10.9,1.7s-2.5,0-3.8-.2c-1.3-.1-2.5-.3-3.8-.6-1,1.1-2.1,2.8-3.4,5.2-1.3,2.4-2.4,5-3.3,7.8-.9,2.9-1.3,5.6-1.3,8.2.1,3.5,1.1,6,3,7.4s4,2.1,6.6,2.1c5.2,0,10.2-1.7,15-5,4.8-3.3,9.2-7.4,13.1-12.3,3.9-4.9,7.3-9.6,10-14.1.4-.5.7-.8,1-.9.3,0,.5-.1.6-.1.4,0,.8.2,1.1.6.3.4.4,1,.1,1.6-1.8,2.9-4,6.3-6.8,10.2-2.8,3.9-6,7.7-9.8,11.3-3.7,3.6-7.9,6.6-12.5,8.9-1.8.9-3.7,1.6-5.8,2-2.1.4-4.2.6-6.2.6ZM956.2,117.7c6.4,0,12.2-1.7,17.4-5,5.2-3.3,9-7.4,11.3-12.1.7-1.1,1.1-2.1,1.3-3.1.2-.9.3-1.7.3-2.2,0-2.3-1.3-3.5-3.9-3.5s-3.4.4-5.4,1.2c-2,.8-3.7,1.8-5.2,2.9-2.6,1.9-5.3,4.2-8,7s-5.3,5.5-7.4,8.2c-2.2,2.6-3.8,4.7-4.9,6.2.7.1,1.4.2,2.2.3.8,0,1.6.1,2.2.1Z"/>
        <path class="cls-3" d="M1001.2,153.3c-.5,0-1.2,0-1.8-.1-.7,0-1.4-.2-2-.3-3.9-1-6.8-2.8-8.5-5.4-1.7-2.6-2.5-5.9-2.5-9.7s.4-6.2,1.3-9.7c.9-3.5,2-7.1,3.4-10.9,2.3-6,5.2-12.6,8.7-19.9,3.5-7.3,7.4-14.7,11.8-22.4,4.4-7.7,9.1-15.1,14.1-22.3,5-7.2,10.1-13.7,15.4-19.6,3.1-3.5,6.3-6.7,9.5-9.6,3.2-2.9,6.3-5.2,9.5-6.9,5.3-3.3,10.2-4.9,14.7-4.9s4.9.6,6.4,1.9c1.6,1.3,2.3,3.3,2.3,6s-.4,3.8-1.1,6c-.7,2.2-2,4.8-3.8,7.6-3.4,5.7-7.8,11.7-13.1,17.9-5.4,6.3-11.2,12.3-17.4,18.2-6.3,5.9-12.5,11.3-18.9,16.2-6.3,4.9-12.3,8.9-17.8,12-2.7,4.9-5.3,10.1-7.7,15.6s-4.4,10.7-5.9,15.7c-1.5,5-2.2,9.2-2.2,12.7s.5,4.9,1.6,6.5c1.1,1.6,2.8,2.4,5.1,2.4s6.5-1.4,10.4-4.1c3.9-2.7,8-6.4,12.3-11.1s8.3-10.2,12.1-16.4c.7-.8,1.4-1.2,2-1.2s.7.3.9.8c.2.5.2,1.1-.1,1.6-6.7,10.2-13.1,18.2-19.5,24.1-6.3,5.9-12.7,8.9-19.1,8.9ZM1012.6,93.8c4.3-2.4,9.4-6.2,15.2-11.2,5.8-5,11.6-10.6,17.6-16.8,6-6.2,11.5-12.3,16.6-18.4s9.1-11.5,11.9-16.1c1.5-2.4,2.6-4.5,3.3-6.3.7-1.8,1-3.3,1-4.5,0-2.4-1.1-3.7-3.3-3.7s-6.7,2-11.4,5.9c-3.4,2.9-6.6,6-9.6,9.5-3,3.5-5.1,6-6.3,7.6-6.3,8.3-12.3,17.3-18.1,27-5.8,9.7-11.5,18.7-16.9,27Z"/>
        <path class="cls-3" d="M1163,203.9c-3,0-6.2-1-9.7-3.1-3.5-2-6-4.2-7.6-6.5-1.8-2.6-2.6-5.2-2.6-7.9s.9-5.6,2.9-7.1c-.1-.4-.2-.8-.2-1.2v-1.2c0-1.1.1-2.2.4-3.5.3-1.2.7-2.3,1.2-3.3l.8-1.4c-5,2.6-9.8,4.4-14.4,5.4-4.6,1-8.8,1.5-12.7,1.5-8.2,0-15.5-1.3-21.9-4-6.5-2.6-11.5-6.8-15.3-12.3-3.7-5.6-5.6-12.7-5.6-21.4s1.4-13,4.1-18.6c2.7-5.6,6.2-10.6,10.4-14.8.7-1.1,1.1-2.3,1.3-3.6.2-1.3.3-2.4.3-3.4,0-2.3-.6-4.4-1.8-6.4-1.2-2-2.6-2.8-4.1-2.3-.1,0-.2,0-.3.1,0,0-.2.1-.3.1-.7,0-1-.3-1-.8,0-.9.6-1.7,1.8-2.2,1.4-.9,2.8-1.4,4.3-1.4s3.5.9,4.7,2.5c1.2,1.7,1.8,3.9,1.8,6.6-.3,2.3-.9,4.5-1.8,6.5,5.7-4.6,11.9-8.2,18.5-10.6,6.7-2.4,12.7-3.7,18.1-3.7,9.4,0,16.2,2.4,20.4,7.2,4.2,4.8,6.3,10.3,6.3,16.4s-1.5,9.8-4.6,14.6c-3.1,4.8-7.1,8.8-12.2,11.9-5.1,3.1-10.6,4.7-16.6,4.7s-7.1-.6-10.6-1.8c-.1-.1-.3-.2-.4-.2s-.3,0-.4-.2c-2.2-.7-4.2-2.2-6-4.5-1.8-2.3-2.8-5.3-2.8-9s.7-6.8,2.1-10.5c1.4-3.7,3.4-6.1,5.8-7,.8-.3,1.4-.4,1.6-.4.5,0,1,.1,1.3.3.3.2.6.4.7.5-1.5.7-2.2,2-2.2,4.1s.3,2.3.9,3.6c.6,1.3,1.3,2.3,1.9,3,.9,1,1.9,2,3,3.3,1,1.2,1.9,2.9,2.5,5.1.1.5.2,1.1.3,1.5,0,.5.1,1,.1,1.5,0,1.6-.3,3.2-1,4.7-.7,1.5-1.8,2.6-3.3,3.5.8.1,1.6.2,2.3.3.7,0,1.5.1,2.3.1,5.4,0,10.4-1.5,14.9-4.5,4.5-3,8.1-6.7,10.9-11.2,2.8-4.5,4.2-9,4.2-13.4s-1.5-10.2-4.6-14.2c-3.1-4-8.7-6-17-6s-14,1.5-19.9,4.6c-5.9,3.1-11,7.1-15.4,12.1-4.4,5-7.7,10.6-10,16.6-2.3,6-3.5,12-3.5,17.8s1.2,10.8,3.6,15.6c2.4,4.8,6.1,8.7,11.2,11.7,5.1,3,11.7,4.6,19.9,4.7-2.2-.7-4-1.7-5.4-3.2s-2.1-3-2.1-4.8.6-3.3,1.9-4.1c1.3-.8,2.5-1.2,3.8-1.2s1.4.2,1.6.5c.3.3,0,.8-1,1.3-1,.5-1.4,1.6-1.4,3.1s.4,2.6,1.2,3.9c.5.9,1.5,1.9,2.7,2.7,1.3.9,2.9,1.3,4.8,1.3h.4c6.5,0,13.1-1.6,19.8-4.7,6.7-3.1,13.3-7.3,20-12.4,6.7-5.2,13.2-10.9,19.8-17.1,6.5-6.2,12.8-12.6,19-19-1.4.4-3,.6-4.9.6v.2c-1.5,2.6-4.3,3.9-8.4,3.9s-5-.7-7.5-2c-2.7-1.5-5.3-4.1-7.8-7.7-2.5-3.7-3.8-7.1-3.8-10.2s0-.8.1-1.3c0-.5.2-.9.3-1.3.4-1.2.9-2,1.4-2.3.5-.3.9-.5,1.2-.5-.5,2.4.4,4.2,2.8,5.4,2.4,1.2,4.4,1.7,6.2,1.7s.8,0,1.3-.1c.5,0,.9-.1,1.3-.1,1.1,0,2.3.1,3.6.3,1.3.2,2.7.6,4.2,1.3,1.9,1,3.5,2.4,4.8,4.4,1.3,2,1.7,4,1.3,6.2,3.1,0,6-1,8.6-3.1,6.8-7.2,13.3-14.2,19.5-21.1,6.2-6.9,11.8-12.9,16.8-18,5.2-5.4,10.8-10.9,16.9-16.5,6.1-5.6,12.6-10.4,19.6-14.5-2.6-1.5-5-2.9-7.1-4.2-2.2-1.3-3.9-2.3-5.3-3-3.7-2-8.6-4.2-14.9-6.6-6.3-2.4-13-4.4-20.2-6.1-7.2-1.7-14.1-2.5-20.8-2.5-9.5,0-17.6,2.1-24.1,6.2-6.6,4.1-11.5,9.3-14.9,15.6-3.3,6.3-5,12.6-5,19.2s1.1,10.1,3.4,14.7c2.2,4.6,5.6,8.3,10.2,11.1,4.5,2.8,10.2,4.2,17,4.2h1.9c.6,0,1.2,0,1.7-.2,1.4-.7,2.5-1.7,3.4-3,.9-1.3,1.5-2.4,1.7-3.4.3-1.1.4-2,.4-2.9s-.2-1.8-.5-2.6c-.3-.8-.9-1.3-1.5-1.4-.5-.1-.8-.4-.8-.8,0-.8.9-1.2,2.9-1.2s3.1.5,4,1.5c.9,1,1.3,2.3,1.3,3.8s-.5,3.2-1.4,4.7c-1.5,2.3-3.6,4-6.3,5.1,6.2-.9,11.5-2.9,15.7-5.7,4.2-2.9,7.4-6.2,9.5-10,2.1-3.8,3.2-7.5,3.2-11.2s-1.4-9.4-4.3-13.9c-2.9-4.5-7.4-7.1-13.7-7.9h-1.7c-.6,0-1.3.1-1.9.4-1.2.5-2.3,1.4-3.2,2.5-.9,1.2-1.3,2.3-1.3,3.4s.5,2.1,1.4,2.6c.3.1.4.4.4.8s-.3.8-1,.8c-1.2,0-2.4-.9-3.7-2.9-.3-.8-.4-1.5-.4-2s.1-1,.4-1.8c-.5.3-.9.5-1,.8-1.1,1-3,1.8-5.7,2.6-2.7.8-5.4,1.2-8.2,1.2s-1.3,0-1.8-.1c-.5,0-1.2-.2-1.8-.3-1.8-.4-3.3-1.3-4.6-2.5-1.3-1.3-1.9-2.9-1.9-4.8s.1-.8.4-.8.8.5,2,1.4c.7.4,1.6.6,2.6.6,2.9,0,5.3-1,7.3-3.1,2.3-2.4,5-4.5,7.9-6.3,3-1.8,5.7-2.6,8.2-2.6s5.8.9,7.6,2.5c1.8,1.7,3.1,3.6,3.8,5.8,5.7,1.4,10,4.2,12.9,8.5,2.9,4.3,4.4,9.3,4.4,15s-1.5,9.5-4.5,14.3c-3,4.8-7.3,8.7-12.9,11.7-5.6,3.1-12.6,4.6-20.9,4.6s-15.9-1.6-21.6-4.8c-5.7-3.2-10-7.3-12.8-12.4s-4.3-10.6-4.3-16.4.9-9.6,2.9-14.7c-1,.4-1.9.7-2.8,1-.9.3-1.9.5-3.2.6.1,3-1.4,6-4.5,9-3.1,3-7.3,4.5-12.6,4.5s-8-.7-12.2-2.2c-4.2-1.5-6.9-3.7-8.2-6.5-.4-1.1-.6-1.9-.6-2.4,0-.9.3-1.6.8-1.8.9,1.6,2.4,2.4,4.5,2.4s3-.4,4.6-1.2c1.6-.8,2.8-1.7,3.8-2.6,1.1-1.1,2.3-2.3,3.8-3.6,1.4-1.3,3.4-2.4,6-3.4,1.2-.4,2.6-.6,4.3-.6s4.2.5,6.2,1.5c2,1,3.3,2.7,4,5,1.8-.3,3.3-.7,4.5-1.2,1.2-.5,2.5-1.6,3.9-3.3,3.8-7.2,9.7-13.3,17.8-18.3,8.1-5,18.2-7.5,30.3-7.5s6.4.3,9.7.8c3.3.5,6.7,1.2,10.1,2-1.6-1.6-2.4-3.4-2.4-5.3s.5-3.2,1.6-3.8c1.1-.6,2.1-.9,3.1-.9-.8,0-1.2,1-1.2,3.1s.3,2.9,1,4.7c.7,1.8,1.7,3,3.1,3.7,6.4,1.8,12.4,3.9,18,6.4,5.6,2.5,10.2,4.7,13.6,6.6,1.1.5,3,1.6,5.6,3.1,2.6,1.5,5.6,3.1,8.9,4.9,4.6-2.6,9.4-4.6,14.4-6,5-1.4,10-2.1,15.2-2.1s9.4,1.3,12.4,4c3,2.6,4.5,5.5,4.5,8.7s-1.6,5.9-4.9,8.4-8.5,3.4-15.7,2.9c-1.1-.1-2.6-.6-4.7-1.4-2-.8-4.4-1.8-6.9-2.9-1,1.2-2,2.5-3.3,3.9-1.2,1.4-2.4,2.8-3.7,4.3-2.3,2.9-4.8,6.5-7.3,10.9-2.6,4.4-5,8.9-7.3,13.5-2.3,4.6-4.4,8.5-6.3,11.9-4.1,7.7-9.5,15.4-16.2,22.9-6.7,7.5-14.2,14.1-22.4,19.8-8.2,5.6-16.7,9.5-25.4,11.5,3.7.3,6.8.5,9.4.6,2.6.1,5.1.3,7.6.5,2.5.2,4.4.4,5.6.5,1.2.1,2.8.3,4.8.5,2,.2,4,.3,6.2.3,3.8,0,7.4-.5,10.7-1.5,3.3-1,5-3.1,5-6.2s-.3-2.4-.8-3.7l1.8-.4c2.3,3.8,3.5,7.2,3.5,10.2s-1.6,6.7-4.7,8.6c-3.1,1.9-6.5,2.9-10,2.9-5,0-10.3-.9-15.7-2.6-5.4-1.8-11.2-3.5-17.2-5.2-6-1.7-12.6-2.5-19.7-2.5l-.6-1.8c.5.1,1.1.2,1.6.3.5,0,1.1.1,1.6.1,4.6,0,9.4-1.6,14.3-4.9,4.9-3.3,9.7-7.4,14.5-12.4,4.8-5,9.3-10.3,13.6-15.8,4.3-5.5,8-10.5,11.3-15,.7-1.5,1.5-2.7,2.4-3.7h-26.9c-14.9,16.7-28.3,30.1-40,40-11.8,10-22,17.9-30.9,23.7v.2h-.4v.2c-2.4,1.5-4.4,3.5-5.9,5.9-1.8,2.7-2.5,5.3-2.2,7.7.8-.4,1.8-.6,2.9-.6,1.6,0,3.2.5,4.8,1.4,1.6.9,2.7,2.2,3.6,3.7,1.1,1.9,1.7,3.6,1.9,5.2.2,1.6.4,3,.5,4.4.1,1.8.9,3.7,2.2,5.7,1.4,2,3.1,2.7,5.3,2,0,.1-.1.5-.3,1.1-.2.6-.9,1.2-1.9,1.7-1,.5-2.1.8-3.5.8ZM1256.8,97.3c6.4-7.9,12.9-15.7,19.6-23.4,6.7-7.7,13.7-15.1,21-22.2-1.8-.9-3.6-1.9-5.4-3-1.8-1-3.7-2-5.6-3-7.3,4.1-14.4,9.1-21.1,15-6.7,5.9-13,12.1-19,18.5-5.9,6.5-11.3,12.5-16.2,18h26.7ZM1314.9,53.5c3.9,0,6.8-.8,8.7-2.5,1.8-1.7,2.8-3.5,2.8-5.4s-.9-4.1-2.6-5.9c-1.8-1.8-4.4-2.6-7.7-2.6s-8.7.6-13,1.8c-4.4,1.2-8.6,2.9-12.8,4.9,1.8,1,3.5,1.9,5.2,2.8,1.7.9,3.4,1.7,5,2.3,3.4-3.1,6.8-6.1,10.2-9l1.2,1.4c-.5.7-1.6,1.8-3.1,3.3s-3.3,3.4-5.3,5.7c3.4,1.6,5.8,2.6,7.3,2.9.7.1,1.4.2,2.1.3.7,0,1.5.1,2.1.1Z"/>
        <path class="cls-3" d="M1288,153.3c-.5,0-1.2,0-1.8-.1-.7,0-1.4-.2-2-.3-3.9-1-6.8-2.8-8.5-5.4-1.7-2.6-2.5-5.9-2.5-9.7s.4-6.2,1.3-9.7c.9-3.5,2-7.1,3.4-10.9,2.3-6,5.2-12.6,8.7-19.9,3.5-7.3,7.4-14.7,11.8-22.4,4.4-7.7,9.1-15.1,14.1-22.3,5-7.2,10.1-13.7,15.4-19.6,3.1-3.5,6.3-6.7,9.5-9.6,3.2-2.9,6.3-5.2,9.5-6.9,5.3-3.3,10.2-4.9,14.7-4.9s4.9.6,6.4,1.9c1.6,1.3,2.3,3.3,2.3,6s-.4,3.8-1.1,6c-.7,2.2-2,4.8-3.8,7.6-3.4,5.7-7.8,11.7-13.1,17.9-5.4,6.3-11.2,12.3-17.4,18.2-6.3,5.9-12.5,11.3-18.9,16.2-6.3,4.9-12.3,8.9-17.8,12-2.7,4.9-5.3,10.1-7.7,15.6-2.4,5.5-4.4,10.7-5.9,15.7-1.5,5-2.2,9.2-2.2,12.7s.5,4.9,1.6,6.5c1.1,1.6,2.8,2.4,5.1,2.4s6.5-1.4,10.4-4.1c3.9-2.7,8-6.4,12.3-11.1s8.3-10.2,12.1-16.4c.7-.8,1.4-1.2,2-1.2s.7.3.9.8c.2.5.2,1.1-.1,1.6-6.7,10.2-13.1,18.2-19.5,24.1-6.3,5.9-12.7,8.9-19.1,8.9ZM1299.4,93.8c4.3-2.4,9.4-6.2,15.2-11.2,5.8-5,11.6-10.6,17.6-16.8,6-6.2,11.5-12.3,16.6-18.4,5.1-6.1,9.1-11.5,11.9-16.1,1.5-2.4,2.6-4.5,3.3-6.3.7-1.8,1-3.3,1-4.5,0-2.4-1.1-3.7-3.3-3.7s-6.7,2-11.4,5.9c-3.4,2.9-6.6,6-9.6,9.5-3,3.5-5.1,6-6.3,7.6-6.3,8.3-12.3,17.3-18.1,27-5.8,9.7-11.5,18.7-16.9,27Z"/>
        <path class="cls-3" d="M1405.9,154.6c-4.1,0-7-1.1-8.8-3.2-1.8-2.1-2.6-4.6-2.6-7.4s.5-5,1.4-7.3c2.4-6.4,5.4-12,8.9-16.7,3.5-4.8,7.1-10.1,10.9-16.1,2.2-3.5,3.3-6.2,3.3-7.9s-.8-2.4-2.4-2.4-5.3,1.4-9.4,4.2c-4.1,2.8-8.3,6.8-12.6,11.9-3,3.5-6.2,7.7-9.7,12.4-3.5,4.8-6.8,9.4-9.9,13.9-3.1,4.5-6.6,9.7-10.4,15.7-.8.3-2.1.5-3.9.7-1.8.2-3.5.3-5.3.3s-2.1,0-3-.1c-.9,0-1.7-.2-2.3-.3,1.4-2,3.3-4.8,5.8-8.4,2.5-3.5,5.2-7.4,8.2-11.5,2.9-4.1,5.7-8.2,8.5-12.2,2.7-4,5.1-7.5,7.1-10.5,2-3,3.4-5,4.1-6.1,2.4-3.9,3.7-7.2,3.7-9.8s-.7-2.6-2.2-2.6-3.1.9-5.7,2.5c-2.6,1.7-6,4.6-10.4,8.7-2.9,2.7-5.6,5.8-8.4,9.2-2.7,3.4-5.3,6.8-7.7,10.2-3.8,5-7.3,9.8-10.4,14.4-3.1,4.6-5.6,8.3-7.4,11.1-1.8,2.9-2.8,4.4-3,4.5-1.1.4-2.3.7-3.8.8-1.4.1-2.8.2-4.2.2s-2.9,0-4.2-.2c-1.3-.1-2.1-.3-2.5-.4,1.6-2.2,3.8-5.1,6.5-8.8,2.7-3.7,5.6-7.7,8.7-12.1,3.1-4.4,6-8.8,9-13.1,2.9-4.3,5.5-8.3,7.6-11.8,2.2-3.5,3.7-6.2,4.7-8.2,1.6-3.7,2.4-6.2,2.4-7.5s-.6-2.2-1.8-2.2-1.8.5-3.5,1.4c-1.8,1.2-3.8,3.2-6.2,5.8-2.4,2.6-4.8,5.6-7.2,8.9s-4.7,6.4-6.7,9.4c-2,3-3.6,5.4-4.7,7.1-.3.1-.6.2-1,.2s-1-.2-1.2-.6c-.3-.4-.3-.9-.2-1.4.9-1.5,2.5-3.8,4.7-6.8,2.2-3.1,4.6-6.3,7.2-9.9,2.6-3.5,5.2-6.8,7.6-9.7,2.4-2.9,4.4-4.9,5.9-6,2.9-2,5.6-3.1,8.2-3.1s4.1.8,5.5,2.3c1.4,1.6,2,3.6,2,6.2s-.9,7.5-2.6,12c.7-.9,2.1-2.5,4.3-4.6,2.2-2.1,4.4-4.2,6.6-6.2,2.2-2,3.7-3.3,4.4-3.7,2.3-1.2,4.5-2.1,6.6-2.6,2.1-.5,4-.8,5.8-.8,3.4,0,5.8.8,7.1,2.4.8.8,1.2,2.1,1.2,3.9s-.4,3.7-1.2,5.9c-.8,2.2-1.8,4.2-2.9,6.1,2.4-2.6,5-5,7.7-7.3,2.7-2.3,5.6-4.3,8.6-6.1,2.7-1.6,5.2-2.8,7.4-3.6,2.2-.7,4.2-1.1,6-1.1,5.3,0,7.9,2.7,7.9,8.2s-.5,4.4-1.5,7.1c-1,2.7-2.7,5.6-5,8.6-2.6,3.4-5.9,7.7-9.9,13-4,5.3-7.2,10.4-9.5,15.3-1.6,3.4-2.4,6.1-2.4,8.2s1.3,4.1,3.9,4.1,4.8-1,8.2-3.1c4.1-2.4,8.5-6.1,13.1-11,4.7-4.9,9.1-10.9,13.3-18.1.4-.4.9-.6,1.6-.6,1.2,0,1.5.8.8,2.4-3.8,6.3-7.8,12-12.1,17.1-4.3,5.2-8.7,9.3-13.1,12.4-4.5,3.1-9,4.7-13.5,4.7Z"/>
        <path class="cls-3" d="M1448.5,152.7c-3.8,0-6.7-1.5-8.8-4.4-2-2.9-3.1-6.7-3.1-11.3s1.4-10.9,4.1-17.5c1.5-3.7,3.7-7.4,6.7-11.3,3-3.9,6.5-7.5,10.4-10.8,3.9-3.3,8.2-6,12.7-8.2,4.6-2.1,9.2-3.2,14-3.2s6.2,1,7.5,2.9c1.4,1.9,2,4.2,2,6.9s-.4,5.2-1.2,7.9l11.4-17.3c.9-.7,3.1-1,6.3-1s4.8.3,7,.8c2.2.5,2.9,1.4,1.9,2.4-1.1,1.4-3,3.4-5.6,6.2-2.6,2.8-5.5,6.1-8.6,9.9-3.1,3.8-5.9,7.8-8.7,12-1.4,2.3-3.4,5.7-6,10.2-2.6,4.5-4.7,8.8-6.2,12.8-.8,2.4-1.2,4.4-1.2,5.9,0,2.9,1.2,4.3,3.7,4.3s3.2-.5,5.5-1.5c2.3-1,4.6-2.4,6.7-4.2,4.3-3.5,8.2-7.8,11.4-12.7,3.3-5,6.2-9.3,8.8-13.1.1-.1.3-.3.5-.4.2-.1.6-.2,1.1-.2s.9.2,1.2.7c.3.5.1,1.1-.4,1.7-3.8,5.7-7.5,11-11.2,16-3.7,5-7.4,8.9-11.2,11.9-3.8,3-7.9,4.5-12.4,4.5s-6.4-1.1-8.5-3.2c-2.1-2.1-3.2-5-3.2-8.7s.2-3.3.5-5.1c.3-1.8.8-3.4,1.3-4.9-2.2,2.9-4.9,6-8,9.4-3.2,3.4-6.6,6.3-10.1,8.8-3.5,2.4-7.1,3.7-10.6,3.7ZM1450.4,148.9c2.7,0,5.6-1.1,8.7-3.3,3.1-2.2,6.1-5,9.3-8.5,3.1-3.5,6-7.2,8.6-11.1,2.2-3.3,4.3-6.7,6.4-10.4,2.1-3.7,3.9-7.3,5.3-10.8,1.4-3.5,2.1-6.7,2.1-9.6,0-4.3-1.6-6.5-4.7-6.5s-4.7,1-7.5,2.9c-2.9,1.9-5.7,4.3-8.7,7.3-2.9,3-5.6,6.2-8.2,9.7-2.5,3.5-4.5,6.8-6,10.1-.4.8-1.4,2.8-3,5.9-1.6,3.1-3.1,6.5-4.5,10.2-1.4,3.7-2.1,6.9-2.1,9.6s1.4,4.5,4.3,4.5Z"/>
      </g>
    </g>
  </g>
</svg>