<?xml version="1.0" encoding="UTF-8"?>
<svg xmlns="http://www.w3.org/2000/svg" version="1.1" viewBox="0 0 512 512">
  <defs>
    <style>
      .cls-1 {
        fill: #6e229c;
      }
    </style>
  </defs>
  <!-- Generator: Adobe Illustrator 28.7.1, SVG Export Plug-In . SVG Version: 1.2.0 Build 142)  -->
  <g>
    <g id="Layer_1">
      <g>
        <g>
          <path class="cls-1" d="M149.3,112.1s0,0,0,0c0,0,0,0,0,0,0,0,0,0,0,0Z"/>
          <path class="cls-1" d="M212.7,176.8s0,0,0,0c0,0,0,0,0,0,0,0,0,0,0,0h0ZM230,267.8c.3,0,.6.2,1,.3h0s-1-.3-1-.3Z"/>
          <path class="cls-1" d="M369.7,176c-8.7-4.7-17.5-3.9-26.2-.3-3.8,1.6-7.1,4.1-10.4,7.1.4-4.5.9-8.7-.1-12.8-.4,4.4-3.7,6.3-7.2,8-6.3,3.1-13.1,4.7-20,6-5.9,1.2-11.9,1.8-17.9,2.5-14.7,1.6-29.5,1.4-44.2,1.1-6.9-.1-13.8-.7-20.6-1.6-6.8-.9-13.6-2.3-20.1-4.4-.9-.3-1.8-.6-2.5-1.3,1-3.1,1.6-3.3,4.5-2.3,5.2,1.7,10.6,2.3,16,3.2,5.8,1,11.7,1.1,17.5,1.6,11,.8,22,.7,32.9.4,14.3-.4,28.5-1.9,42.4-5.5,3.4-.9,6.8-1.9,9.7-4,3.1-2.3,3.1-4.5-.3-6.4-3.6-2-7.5-3-11.4-4-3.5-.9-7.1-1.6-10.7-2.1-8.1-1.1-16.2-2-24.3-2.3-8.6-.4-17.2-.8-25.9-.6-5.7.1-11.4.5-17.1.7-1.5,0-1.9,1-2.8,2.1-2.8,3.9-5.8,7.6-9.6,10.6-2.5,1.9-4.9,3.9-7.9,4.9-.2.3-.5.4-.8.4,0,0,0,0,0,0,0,0,0,0,0,0-.1.1-.2.2-.4.4,0-.5.2-.4.4-.4,0,0,0,0,0,0h0c0-.4.4-.4.7-.4.8-1.3,2.3-2,3.4-3,6-5.1,10.7-11.2,14.3-18.2,1.3-4.2,2.4-8.4,2.4-12.9,6.5,1.5,10.5,0,13.3-4.9,1.7-2.9,2.1-6.1,1.8-9.4-.4-3.3-1.7-6.4-4.1-8.7,2.2-2.7,4.4-5.2,6.5-7.9,7.9-10.2,14.4-21.1,17-33.9,1.4-7.2,1.7-14.4-1-21.4-1.4-3.7-3.6-7-7.7-8.3-2.3-.7-4.4,0-6,2.1-1.3,1.7-1.5,4-.3,6,.9,1.5,2,2.7,3.5,3.5,2.9,1.6,4.4,4.1,5.3,7.2,1.4,4.9.9,9.9-.2,14.8-2.3,10.3-7.6,19.2-13.7,27.6-1.1,1.5-2.1,3.1-4,4.8.3-1,.4-1.4.6-1.8,1.5-4.5,3.1-9,4.3-13.6,2.4-9.3,3-18.6,1-28-1.3-6.2-4.2-11.7-8.5-16.4-1.8-2-4-3.3-6.5-4.1-2.6-.7-5.5.4-6.8,2.5-1.3,2.2-.8,4.8,1.1,6.9,1.1,1.2,2.5,1.7,4,2,3.3.7,5.8,2.5,7.7,5.2,2.8,4.1,4,8.7,4.5,13.6.8,7.9-.4,15.6-2.5,23.1-1.1,4.1-2.6,8-4.4,11.8-.4,0-.7-.1-.9-.2-3-.8-6-.8-8.9,0,1.1-4.5,1.9-9.2,2.4-13.8,1.3-11.6.3-23-1.7-34.4-.8-4.4-1.8-8.7-3.1-12.9-3.2-10-7.3-19.6-12.9-28.4-2.2-3.5-4.9-6.7-8.2-9.2-3-2.3-6.3-3.6-10.1-2.6-5,1.3-8.1,4.9-10.7,9.1-2.3,3.9-3.4,8.2-4.2,12.5-.8,4.1-1.8,8.1-4,11.7-3.1-4-6.4-7.9-9.9-11.6-10.2-10.6-21.4-20.2-34-27.9-5-3-10.3-5.4-16.1-6.6-5.3-1.1-10.2-.7-14.5,3-5.5,4.8-7.2,11.3-7.8,18.1-.5,6.3.8,12.4,2.5,18.4,1.7,5.9,2.9,11.9,2.1,18.1-1,7.9-2.5,15.8-3.6,23.8-1.1,7.6-1.7,15.3-.2,23,2.2,11.4,8,20.2,18.6,25.5,2.5,1.3,5.1,2.2,8.1,3.3-1.8.1-3,.5-4.1,1-8.7,3.4-15.7,9.1-20.8,17-8.4,12.9-10.5,27.1-8,42,1.4,8.5,5,16.1,11.1,22.3,5.9,6.1,13.4,9.6,21.9,10.2,8.5.7,16.7-.8,24.4-4.3,10.5-4.8,19-12.3,27-20.4,2.5-2.5,4.1-5.9,7.2-7.9.4.5.3,1,.3,1.5,0,13.7,3.1,26.8,8.4,39.4,1.2,2.9,3.1,5.5,4,8.6.6,1,1.8,1.6,2.1,3.1-5.5.7-10.8,1.8-16.2,2.9-7,1.5-13.9,3.3-20.3,6.5-3,1.5-6.3,2.5-8.8,4.9-2.5,2.4-3.5,6.7-.6,10,2.3,2.6,4.9,4.9,8.3,6.4,8.6,4,17.7,6.3,26.8,8.7,8.2,2.2,16.5,3.1,24.8,4.2,4.6.6,9.3.7,13.8,1.3,16.1,2,32.2,1.6,48.4,1.5,5.4,0,10.8-.3,16.1-.8,20.1-1.9,40.1-4.7,59.3-11.5,3.7-1.3,7.2-3,10.7-4.8,2.5-1.3,4.5-3.5,6.1-5.8,1.8-2.7.8-6.9-1.8-8.9-9-7.1-19.7-9.6-30.5-12-1.2-.3-2.4-.6-3.6-1,2.6-.3,4.9-1.7,7.6-1.4-.7-.5-.3-.6.3-.8,1.6-.5,3.1-1.1,4.6-1.7,8.9-3.6,17-8.6,24.1-15,8.7-8,15.5-17.2,17.2-29.4,1.2-9-2.9-18.8-11.4-23.4ZM309.8,256.4s0,0,0,0c0,0,0-.1.1-.2,0,0,0,.1,0,.2h0c-.3,1.7-1.5,2.7-2.6,3.8-2.7,2.7-5.6,4.9-9.2,6.4,4.3-2.9,8.1-6.5,11.7-10.2ZM211.3,134.5c0,0-.2.1-.3.2-.3.2-.6.3-.9.5,0-.4-.2-.7-.2-.9,0-.9,0-1.7,0-2.6-.3-12.6-3-24.7-7-36.6,0,0,0-.1,0-.2.8-5,3-9.3,7-12.9,3.3,17.6,4.1,35,1.3,52.5ZM190.2,29.8c.6-1.3,1.4-2.6,2.2-3.8,1.4-2.1,3.5-3.1,5.8-3.7,1.6-.4,2.9.6,4.1,1.5,1.9,1.6,3.3,3.6,4.8,5.7,1.8,2.6,3.3,5.3,4.7,8.1.8,1.5,1.1,3.2,1.9,4.7,2.2,4.1,3.5,8.4,4.9,12.7,1.1,3.6,2.2,7.1,2.9,10.8,1.4,7.4,2.6,14.9,2.8,22.5.2,10.7-1.1,21.3-4.1,31.6-.4.5-.8,1-1.2,1.5-1.2,1.7-1.9,3.7-2.8,5.6-.4.8-.8,1.5-1.3,2.3.2-4.9.4-9.8.5-14.6.2-11-.9-22-3.1-32.8-.5-2.6-1-5.2-1.8-7.7-1.5-4.7-2.6-9.5-4.4-14.1-3.8-9.3-8.5-18.1-15.2-25.7-1.8-2.1-1.9-2-.6-4.6ZM182.9,50.7c1.4-2.6,2.6-5.3,3.5-8,.7-2.1,1.2-4.3,1.7-6.4,0-.3.1-.6.3-1.1,2.9,3,5,6.3,7.2,9.5,2.3,3.3,4.2,6.8,5.7,10.4,1.1,2.7,2.2,5.3,3.3,8,2,5.1,3.3,10.3,4.6,15.5.2.9,0,1.3-.7,1.9-2.2,1.7-3.6,4.2-5.3,6.6-1.2-3.8-2.5-7.4-4.1-10.9-1.9-4.2-4.1-8.3-6.6-12.2-2.7-4.4-5.9-8.3-9.4-11.9-.4-.4-.5-.8-.2-1.2ZM181.2,53.4c2.8,2.6,5.2,5.4,7.3,8.5,1.7,2.4,3.4,4.8,4.7,7.6,2.8,5.9,6.1,11.7,7.3,18.3,0,.5.2,1,.3,1.5-4.9-12.8-11.8-24.5-19.7-35.7,0,0,0,0,0,0ZM106.3,21.2c.5-3.6,2.5-6.2,5.1-8.3,1.8-1.5,4.1-1.1,6.2-.6,3.4.8,6.5,2.5,9.6,4.3,3.8,2.2,7.5,4.6,11,7.2,1.9,1.4,3.4,3.3,5.4,4.7,5.3,3.8,9.7,8.4,14.1,13.1,3.6,3.8,7.3,7.6,10.5,11.8.6.8,1.2,1.6,1.8,2.4,1,1.3,2,2.7,2.9,4,.6.9,1.3,1.8,1.9,2.6,4,5.7,7.6,11.5,10.8,17.7,1.8,3.5,3.4,7,4.9,10.5h0c2,4.8,3.8,9.6,5.4,14.5,1.9,6.1,3.4,12.4,4.5,18.8.2,1,.3,1.9.4,2.9.4,2.5.6,5,.8,7.6,0,.5,0,.9,0,1.4,0,1,0,1.9.1,2.9,0,.5,0,1.1,0,1.6,0,.8,0,1.6,0,2.4,0,.2,0,.5,0,.7,0-.2-.2-.4-.3-.6-.4-.8-.7-1.6-1-2.3-.4-1-.9-2-1.3-3-.5-1.1-1-2.3-1.5-3.4-1.1-2.6-2.3-5.2-3.4-7.7-1.1-2.5-2.2-4.9-3.4-7.4-.7-1.4-1.3-2.8-2-4.2-6.2-12.5-13.7-24.3-22.3-35.3-.2-.2-.3-.4-.5-.6-.7-.8-1.3-1.7-2-2.5-1.2-1.5-2.4-3.1-3.7-4.5-.3-.3-.6-.7-.9-1-4.8-5.1-9.2-10.4-14.4-15.1-10.6-9.4-22-17.5-35.2-22.9-3.6-1.5-3.6-1.4-3.7-5.4,0-2.1.1-4.1.4-6.2ZM161.3,96.2c-.6-4.9,0-9.9,2-15.1.1.2.3.4.4.6.5.6.9,1.3,1.4,1.9,5.5,7.4,10.5,15.1,15,22.9,2.6,4.5,5,9,7.2,13.7,1.9,3.9,3.6,7.9,5.3,12,.4,1,.8,2.1,1.2,3.1.7,1.9,1.4,3.8,2.1,5.7.3.7.5,1.5.7,2.2.4,1.1.7,2.2,1.1,3.3.1.3.2.7.3,1.1l-.8-.8c-1.1-1-2.2-2.1-3.2-3.1-.7-.7-1.4-1.3-2.1-2-1.5-1.5-3-2.9-4.5-4.4-2-2-4-4.1-5.9-6.2-2.5-2.7-4.9-5.5-7.3-8.4-.6-.7-1.2-1.5-1.8-2.2-1.4-1.8-2.4-3.9-3.6-5.9-1.4-2.1-2.7-4.2-3.8-6.5-.6-1.2-1.1-2.4-1.6-3.7-.3-.9-.6-1.7-.9-2.6h0c-.6-1.9-1-3.7-1.2-5.6ZM109.1,46c-.4-3.1-1.2-6.1-1.8-9.1,0-.4-.2-.9-.4-1.6,5.6,1.9,10.2,4.8,15,7.5,4.9,2.7,9.5,5.9,13.6,9.7,3,2.7,6.1,5.3,9.1,8,5.1,4.7,9.6,9.8,14,15,.5.6,1,1.1,1.4,1.7.8,1,.8,1.7.3,2.8-1.4,2.8-1.8,5.9-2.3,9.1h0c-.1.8-.2,1.6-.3,2.5-3.8-4.1-7.7-7.8-11.9-11.2-5.1-4.1-10.4-7.9-15.9-11.3-6.1-3.8-12.6-6.7-19.3-9.2-.8-.3-1-.7-1-1.4,0-4.1,0-8.2-.6-12.3ZM109.2,62.8c5.2,1.5,9.9,3.7,14.5,6.2,3.7,2,7.4,4,10.7,6.6,7.3,5.7,15,10.9,20.6,18.5,1.8,2.4,3.4,4.7,4.1,7.6,0,0,0,.2,0,.2.2.6.3,1.2.5,1.8.5,1.4,1,2.7,1.7,4,.6,1.3,1.3,2.6,1.9,3.8,1.2,2.3,2.5,4.6,4,6.9.7,1.2,1.5,2.4,2.4,3.6-.2,0-.4,0-.6-.1-1.1-.3-2-.8-2.7-1.5,0,0,0,0,0,0-.5-.4-.9-.9-1.4-1.3-1.9-1.5-3.7-2.9-5.6-4.3-2.2-1.7-4.5-3.3-6.7-4.9-1.6-1.1-3.2-2.2-4.9-3.3-.1,0-.3-.2-.4-.3-.4-.3-.9-.6-1.3-.9-3.8-2.5-7.5-5.2-11.6-7.2-8.7-4.5-17.5-9-27.2-11.1-.7-.2-1.7-.4-1.6-1.6.8-7.6,2.1-15.1,3.6-22.7ZM110.8,115.4c-3.1-3.5-4.6-7.8-5.5-12.4-.7-3.8-.6-7.5-.4-11.3,0-.6.3-1.1.7-1.7,3.7.6,7.1,2.1,10.6,3.4,5.1,1.9,10,4.2,14.6,7,3.1,1.9,6.6,3,9.2,5.6.7.7,1.7,1.3,2.7,1.7.4.2.8.3,1.3.4.4.1.7.3,1.1.4.6.3,1.3.8,1.8,1.3.8.8,1.6,1.5,2.5,2.2,0,0,0,0,0,0,1.6,1.3,3.3,2.4,5,3.5.9.6,1.7,1.1,2.6,1.7,3.1,2.1,6.2,4.2,9.1,6.6l5.1,4.3c.8.7,1.6,1.4,2.4,2,4.7,3.9,9.3,8,13.8,12.2.7.7,1.4,1.3,2.1,2,.2.2.3.3.5.5,1,1,2.5,1.5,3.4,2.7.2.3.5.6.5.9,0,.2,0,.5-.3.7-.2,0-.4-.2-.6-.3-2.8-1.3-5.6-2.4-8.4-3.5-1.3-.5-2.6-1-3.9-1.5-3-1.1-5.9-2.1-8.9-3.2-6.1-2.1-12.2-4.1-18.3-6.2-1-.3-1.9-.6-2.9-1-3.6-1.2-7.3-2.4-10.9-3.7-2.9-1-5.8-2-8.7-2.9l-2.1-.7c-.2,0-.3-.1-.4-.2-6.6-2.3-12.8-5.5-17.5-10.8ZM107.4,153.6c4.4-6.8,10.8-10.6,18.2-12.6,1.2-.3,2.3-.6,3.5-.8.2,0,.3,0,.4,0,1.1-.2,2.3-.3,3.4-.4,2.3-.2,4.6-.1,6.8,0,1.1,0,2.2.2,3.3.4.8.1,1.6.2,2.5.4,8.2,1.4,16.2,3.5,24,6.1,1.3.4,2.6.9,3.9,1.4,3.9,1.4,7.7,3,11.5,4.6,1.2.5,2.4,1.1,3.7,1.6-3,.1-6,.3-9,.4-4.7.3-9.4.6-14.1,1.4-6,1-11.7-.2-17.5-1-.1,0-.3,0-.4,0-3.4-.5-6.8-.8-10.2-1.1-2.6-.2-5.2-.3-7.8-.3-7,0-14,.6-20.9,2.4-.6.2-1.2.2-1.8.3-.5.1-1,.2-1.6.3,0-1.6,1.4-2.2,2.1-3.2ZM99.7,168.1c2.2-7.2,2.3-7.2,9.6-8.9,3-.7,6-1.3,9-1.7,4.6-.5,9.2-.7,13.8-.7,3.5,0,7.1.3,10.6.8,1.2.2,2.4.4,3.7.6,1.6.3,3.2.1,5.1.4.3,0,.7.1,1.1.2.1,0,.2,0,.3,0-1.1.4-2.2.9-3.2,1.3-2.4,1.1-4.6,2.2-6.8,3.5-3.3,1.9-6.5,4-9.5,6.2-.8.6-1.6,1.2-2.2,2-.7,1-1.7,1.7-2.9,2-10.2,2.6-19.9,6.4-29.4,10.9-.2.1-.5.2-.9.3-.5-6,.4-11.7,2-17.2ZM98.4,192c-.2-.8-.3-1.6-.4-2.4-.1-.7.1-1.1.8-1.4,7.4-3.9,15.1-7,23.1-9.2.2,0,.4,0,.9,0-2.3,5-6.4,8.7-9,13.3-2.7,4.7-5.5,9.2-8.3,14-3.8-4.2-5.9-9-7.1-14.4ZM123.9,213.3c-2.3,2.2-4.3,1.3-6.5.6-2.7-.8-5.3-1.8-7.2-3.9-.7-.8-2.1,0-2.6-1.6,1.4-2.1,2.9-4.4,4.3-6.7,2-3.3,3.5-6.8,5.6-10,2-3,4.6-5.8,6.8-8.7,2.4-3.2,5-6,8-8.4,4.5-3.6,9.1-6.8,14.1-9.4,2.9-1.5,5.8-2.8,9-3.8,1.3-.4,2.5-.8,3.9-1.1,5.2-1.2,10.5-1.4,15.8-1.9,1.4-.1,2.7-.2,4.1-.3,2.9-.1,5.9-.1,8.8-.2,1.2,0,2.3,0,3.5,0,.1.5,0,.8-.5,1-11.4,6.1-21.1,14.6-31.1,22.7-5,4.1-10,8.4-14.8,12.8-3.5,3.2-7,6.4-10.8,9.3-.7.5-1.2,1.2-1.7,1.9-2.4,3.1-6,5-8.7,7.7ZM165,197c-4.3,4.2-9.1,8-14.1,11.2-7.2,4.6-14.9,7.9-24.3,7,3.6-2.5,5.6-6.1,9.4-8,2.1-1.1,3.6-3.3,5.4-4.9,5.7-5.1,11.3-10.4,17.2-15.4,7.7-6.5,15.6-12.6,23.6-18.7,3.3-2.5,7-4.2,10.6-6.5-.7,1.3-1.3,2.7-2.1,4-7,11.7-15.9,21.9-25.7,31.4ZM191.3,223.6c-1.9-7.2-2.4-14.5-2.6-22.3.8,1.4.6,2.6.8,3.8,2,12.1,5.4,23.9,11.4,34.7,7,12.7,16.9,22.2,30.3,28.1,0,0-.1.2-.2.2h0c-.3,0-.6-.2-1-.3-2.9-.8-5.7-1.9-8.3-3.3-1.8-.9-3.5-1.9-5.2-3-3.4-2.2-6.9-4.4-9.5-7.6-2.7-3.3-5.3-6.8-7.5-10.5-3.7-6.2-6.3-12.8-8.2-19.8ZM307.9,275.3c-3.7,2.6-8,3.9-12.3,5-5.5,1.4-11.2,2.2-16.9,2.9-9.5,1.1-19.1,1.4-28.6,1.2-7.8-.2-15.5-.7-23.2-1.9-6.2-.9-12.2-2.2-18-4.5-2.1-.8-4.1-1.8-5.9-3.3-2.8-2.3-2.4-5.5.8-7.3-.9,4.5,2.4,6.1,5.4,7.6,6.4,3.1,13.4,4.1,20.4,5.1,13.2,1.8,26.4,1.5,39.6,1.1,10.1-.3,20.2-1.5,29.9-4.6,2.2-.7,4.4-1.7,6.3-2.9.2-.1.4-.3.6-.4,1-.7,1.6-1.5,1.9-2.3,0-.2,0-.3.1-.5,0-.3,0-.7,0-1.1,0-.2,0-.4,0-.6,0-.2,0-.4-.2-.6,0-.2-.1-.4-.2-.7h0c0,0,.1-.1.2-.2,3.7,2.1,3.7,5.5,0,8.2ZM368,198.6c-.7,8.8-5.4,15.6-11.4,21.5-9.3,9.2-20.2,15.4-33.1,17.9-.5,0-.9.2-1.4.2-.3,0-.6,0-1.1,0,3.2-6.8,5.8-13.6,7.7-20.7,1.1-4.1,2.2-8.3,2.7-12.6,0-.5.2-.9.5-1.3,2.9-3.4,4.6-7.6,7.6-10.9,4.8-5.4,12.5-9.3,20.7-6.7,5.2,1.7,8.2,6.8,7.7,12.5Z"/>
          <path class="cls-1" d="M368.8,272.1c-1.7,4.1-4.7,7-8.2,9.5-9.1,6.7-19.4,10.8-30.1,13.9-1.5.4-2.8,1.1-4,2-4.2,3.2-9.3,4.3-14.3,5.6-11.2,3-22.7,4.7-34.3,5.3-4.2.2-8.5.7-12.7.6-.4-.5-1-.4-1.5-.4-6.1,0-12.2,0-18.3,0-.5,0-1.1-.1-1.5.4-4.8.2-9.6-.4-14.3-.8-7.4-.6-14.9-1.5-22.2-3.1-6.8-1.5-13.8-2.6-19.8-6.1-8.5-5-18.2-6.7-26.8-11.3-5.1-2.7-10.2-5.4-14.4-9.5-2.8-2.8-5.1-5.9-5.6-10-.2-1.5,0-3,.7-4.3h0s0,0,0,0h0c.2,1.4-.5,2.7-.2,4.1.4,2,1.3,3.6,2.6,4.9.1.2.3.3.4.4.9.9,1.8,1.6,2.8,2.4,5.5,4.1,11.8,6.7,18.2,8.9,18.5,6.3,37.6,9.3,57,11.1,8.2.8,16.4,1.1,24.7,1.3,10.4.2,20.8.4,31.1-.5,4.9-.4,9.8-.3,14.8-.9,9-1.1,18-2.1,26.9-4,13.9-2.9,28-5.6,40.3-13.6,2.6-1.7,5.2-3,7.2-5.4,0-.1.2-.2.2-.3.2-.2.3-.4.4-.6,0,0,0,0,0,0,.1-.2.3-.4.4-.6s.2-.4.3-.7c.1-.2.2-.4.3-.7,0-.2.2-.5.2-.7.3-1.1.3-2.3,0-3.6,0-.3-.2-.6-.3-.9,0-.2-.1-.3-.2-.4,0,0,0-.1,0-.2,0-.2-.1-.3-.2-.4,0,0,0-.1,0-.2,0-.1,0-.3-.1-.4,0-.3-.1-.6-.1-.9h0s0,0,0,0c2.3,3.3,1.9,6.7.5,10.1Z"/>
          <polygon class="cls-1" points="141.5 263.9 141.5 263.9 141.5 264 141.5 264 141.5 263.9"/>
          <path class="cls-1" d="M368.2,262s0,0,0,0h0c0,0,0,0,0,0Z"/>
          <path class="cls-1" d="M141.5,263.9c0,0,.1,0,.2-.1,0,0-.1.1-.2.1h0Z"/>
          <path class="cls-1" d="M141.8,263.7c0,0,0-.2,0-.3,0,.1,0,.2,0,.3Z"/>
          <path class="cls-1" d="M141.9,263.1c.1-.3.3-.5.4-.8-.1.3-.3.6-.4.8h0s0,0,0,0Z"/>
          <path class="cls-1" d="M367.4,260.7s0,0,0,0h0s0,0,0,0Z"/>
          <path class="cls-1" d="M243.9,309.1c.4-.5,1-.4,1.5-.4,6.1,0,12.2,0,18.3,0,.5,0,1.1-.1,1.5.4-7.1,0-14.2,0-21.2,0Z"/>
          <path class="cls-1" d="M367.4,260.7h0s0,0,0,0c0,0,0,0,0,0,0-.1-.1-.2-.2-.4,0-.1-.1-.2-.2-.4h0s0,0,0,0c.3.2.4.4.4.8Z"/>
          <path class="cls-1" d="M368.2,261.9h0s0,0,0,0c-.2-.1-.3-.3-.4-.5,0,0,0-.1,0-.2h0s0,0,0-.1h0s0,0,0,0c.3.2.4.5.4.8Z"/>
          <path class="cls-1" d="M142.3,262.3c-.1.3-.3.6-.4.8h0s0,0,0,0h0c0-.4,0-.7.4-.9Z"/>
          <path class="cls-1" d="M141.9,263.1h0s0,0,0,0h0c0,0,0,.1,0,.2,0,.1,0,.2,0,.3,0,0,0,0,0,.1,0,0,0,0,0,0,0,0-.1.1-.2.1,0,0,0,0,0,0h0s0,0,0,0c0-.3,0-.7.4-.8t0,0Z"/>
          <path class="cls-1" d="M367,260c-.1-.1-.3-.3-.4-.4.1.1.3.3.4.4Z"/>
          <path class="cls-1" d="M367.8,261.2s0,0,0,0h0c-.1-.1-.2-.3-.4-.4h0s0,0,0,0,0,0,0,0h0c.2,0,.3.2.4.4,0,0,0,0,0,0Z"/>
          <path class="cls-1" d="M149.3,112.1s0,0,0,0c0,0,0,0,0,0,0,0,0,0,0,0Z"/>
          <path class="cls-1" d="M231,268.1h0c-.3,0-.6-.2-1-.3l1,.3Z"/>
          <path class="cls-1" d="M231.2,267.9c0,0-.1.2-.2.2h0c0,0,.1-.2.2-.2Z"/>
          <path class="cls-1" d="M309.8,256.4h0s0,0,0,0h0Z"/>
          <path class="cls-1" d="M231.2,267.9c0,0-.1.2-.2.2h0c0,0,.1-.2.2-.2Z"/>
          <path class="cls-1" d="M212.7,176.8s0,0,0,0h0s0,0,0,0Z"/>
          <path class="cls-1" d="M213.5,176.4c-.2.3-.5.4-.8.4,0-.4.4-.4.7-.4h0Z"/>
          <path class="cls-1" d="M212.7,176.8c-.1.1-.2.2-.4.4,0-.5.2-.4.4-.4Z"/>
          <path class="cls-1" d="M212.7,176.8s0,0,0,0c0,0,0,0,0,0h0Z"/>
          <path class="cls-1" d="M309.9,256.2c0,0,0,.1,0,.2h0c0,0,0-.1.1-.2Z"/>
        </g>
        <g>
          <path class="cls-1" d="M190.2,321.6c0-5.5-2.1-10-6-13.4-4-3.4-9.4-5.1-16.3-5.1s-7,.6-10.7,1.8c-3.7,1-7.2,2.7-10.3,4.8-3.7,2.5-6.7,5.4-8.8,8.5-2.1,3.1-3.1,6.3-3.1,9.4s.7,5.4,2.4,6.9c1.5,1.5,4.2,2.2,7.6,2.2v-.3c-.1,0-.1-.1-.3-.4-.3-.7-.6-1.6-.7-2.5-.3-.9-.3,4-.3-3.1s2.1-12.7,6.4-16.7c4.3-4,10.3-6.1,17.9-6.1s6.4,1.2,8.5,3.4c1.9,2.2,3,3.9,3,9.4s-1.6,10.6-4.9,15.4c-3.3,4.8-7.2,7.3-11.5,7.8l6.7-31.3-13.9,1.9-12.7,59.6h13.4l.4-.3,5.7-26.7h.4c3.6,0,7-.6,10.1-1.8,3.1-1.2,6-2.8,8.5-5.2s4.6-5.2,6.1-8.4c1.5-3.1,2.2-4.2,2.2-9.7Z"/>
          <path class="cls-1" d="M262.5,340c.6.4.4.7,2.5.7s3.7-.6,4.9-1.9c1.3-1.3,1.9-2.8,1.9-4.9s-.6-3.7-1.8-5.1c-1.2-1.3-3-2.1-4.6-2.1s-3.1.4-4.8,1.2-3.9,2.4-6.6,4.6l1.2-5.8h-13.4l-6.4,30h-.2c-.7,2.7-1.8,4.6-3.1,6.1-1.3,1.3-3.1,2.1-4.5,2.1s-2.4-.1-3-.7-.9-1.5-.9-2.7v-1.5c.1-.4.1-.9.3-1.5l6.7-31.9h-13.4l-6.4,30.1c-.7,2.7-1.8,4.8-3.1,6.1-1.2,1.3-2.6,2.1-4.2,2.1-.9,0-1.6-.5-2-1-.4-.6-.7-1.6-.7-2.8v-1.2c.1-.4.1-.9.3-1.3l6.7-31.9h-13.4l-6.4,30.1c-.3,1.2-.4,2.2-.6,3.3-.1,1-.1-.7-.1,2.8s.9,6.4,2.7,8.4c1.8,1.9,4.5,3,7.3,3s5.5-.7,7.8-2.2c2.2-1.5,4.3-3.7,6.1-6.7.3,2.8,1.2,5.1,2.8,6.6,1.6,1.5,2.2,2.2,6.4,2.2s7.9-1.5,11-4.3c.6-.5,1.1-1.1,1.6-1.7l-1.2,5.6h13.4l7.5-35.6c1.6-1.5,3-2.4,3.9-2.8.9-.4,1.9-.6,3-.6s.9.1,1,.4c.1.3.4.9.6,1.9.1,1.6.6,2.7,1.2,3.1Z"/>
          <path class="cls-1" d="M300.7,326.2c-2.2,0-4.2.3-6,1s-3.6,1.6-5.1,3l1.5-7h-13.4l-15.7,73.8,14.2-3.4h-.1c0-.1,4.9-23,4.9-23,.6,1.2,1.6,1.9,3,2.5,1.3.6-2.1.9,5.1.9s12.8-3.1,16.9-9.4c4-6.3,6.1-14.2,6.1-23.7s-.9-8.5-2.8-11c-1.9-2.5-4.8-3.7-8.5-3.7ZM295.7,358.4c-2.4,5.1-5.7,7.6-9.5,7.6s-1.6-.1-2.2-.6c-.6-.4-1-.9-1.3-1.6l5.5-26.2c.7-1.3,1.8-2.5,3-3.3s1.8-1.2,3.4-1.2,2.8.6,3.6,1.9c.7,1.3,1.2-.9,1.2,5.8s-1.2,12.5-3.6,17.6Z"/>
          <path class="cls-1" d="M373.9,356.7c-3.3,3.6-6,6.1-8.5,7.5-2.4,1.5-5.5,2.1-8.1,2.1s-4.3-.6-5.2-1.8c-1-1.2-1.5-3.3-1.5-6.1v-1.3c.1-.6.1-1.3.1-2.4,6-.3,10.9-2.4,15.2-6.3,4.3-3.9,6.4-8.4,6.4-13.6h-.1c0-3-.7-5.2-2.5-6.7-1.8-1.5-3.7-2.2-7.8-2.2s-7.6.9-10.9,2.8c-3.3,1.9-6.1,4.8-8.4,8.5-1.8,3.1-3.3,6.7-4.5,10.7-1,4-1.6,6.4-1.6,11.3s0,1.9.2,2.8c-.2.2-.4.5-.6.7-1.5,1.5-3.6,2.2-4.9,2.2s-2.4-.1-3-.7c-.6-.6-.9-1.5-.9-2.7v-1.5c.1-.4.1-.9.3-1.5l10.7-50.7-13.9,1.9-10,47c-.3,1.2-.4,2.2-.6,3.3-.1,1-.1,2.1-.1,2.8,0,3.6.9,6.4,2.7,8.4,1.8,1.9,3,3,7.3,3s8.2-1.5,11.6-4.5c.9-.8,1.8-1.7,2.6-2.8.6,1.3,1.4,2.5,2.3,3.5,2.4,2.5,5.8,3.7,10.9,3.7s9.8-1.5,14-4.3c4.2-2.8,8.2-7.3,11.8-13.1h-3.1ZM356.4,336.5c2.1-3.7,4.3-5.7,6.4-5.7s1.3.3,1.8.9c.4.6.6-1,.6,2.8s-1.3,7.3-4,10.4c-2.7,3.1-6,4.8-9.5,5.1,1-5.2,2.7-9.8,4.8-13.6Z"/>
        </g>
        <g>
          <path class="cls-1" d="M76.7,415c4.3-2.5,7.9-5.6,10.4-9.7s3.8-6.3,3.8-12.8-2.7-11.9-8.1-16.2-12.8-6.3-22.1-6.3-11.7.7-17.3,2.5c-5.6,1.8-10.8,4.1-15.5,7.2-5.9,3.6-10.4,7.9-13.5,12.8-3.4,5-5,10.8-5,15.1s1.4,7.4,3.8,9.7c2.7,2,6.3,3.2,11.5,3.2v-.5c-.2,0-.2-.2-.5-.7-.5-1.1-.9-2.5-1.1-3.8-.5-1.4-.5,5.6-.5-4.7s3.6-18.7,10.4-25c7-6.3,15.3-9.5,25.2-9.5s10.6,1.4,13.7,4.1c3.4,2.9,5,5.6,5,11.3s-2,11-6.3,15.8-9,7.2-14.2,7.2h-.9l6.8-31.3-20.9,2.9-19.1,90h20.3l-.2-.4h-.5l11.7-54.2c1.1,0,2.3-.2,3.6-.2h2.9c4.5,0,7.9,1.4,10.1,4.5,2.3,3.2,3.4,6.5,3.4,13.5s-1.4,13.1-3.8,18-5.9,7.4-10.1,7.4-3.2-.2-4.5-1.1c-1.6-.7-3.2-2-5-3.8-.7,1.6-1.1,3.2-1.4,4.5-.5,1.4-.5.2-.5,3.8s1.1,6.1,3.6,7.9c2.5,1.8,5.4,2.7,10.4,2.7s9.2-1.1,13.3-3.4c3.8-2.5,7.2-5.9,10.1-10.4,2.5-3.8,4.3-8.1,5.6-13.1,1.4-5,2-7.7,2-14s-1.4-11.3-4.3-15.3c-2.9-4.1-7-6.5-12.4-7.7Z"/>
          <polygon class="cls-1" points="175 405.3 175.1 405.3 175.2 404.9 175 405.3"/>
          <polygon class="cls-1" points="212.8 405.3 212.9 405.3 213 404.9 212.8 405.3"/>
          <path class="cls-1" d="M331.4,418.2c1.4-.7,2.9-.9,4.5-.9s1.4.2,1.6.7c.2.5.7,1.4.9,2.9.2,2.5.9,4.1,1.8,4.7.9.7.7,1.1,3.8,1.1s5.6-.9,7.4-2.9c2-2,2.9-4.3,2.9-7.4s-.9-5.6-2.7-7.7c-1.8-2-4.5-3.2-7-3.2s-4.7.7-7.2,1.8c-2.5,1.1-5.9,3.6-9.9,7l1.8-8.8h-20.3l-9.7,45.2h-.5c-5,5.4-9,9.2-12.8,11.3-3.6,2.3-8.3,3.2-12.2,3.2s-6.5-.9-7.9-2.7c-1.6-1.8-2.3-5-2.3-9.2v-2c.2-.9.2-2,.2-3.6,9-.5,16.7-3.6,23-9.5,6.5-5.9,9.7-12.6,9.7-20.5l-.2.2c0-4.7-1.1-8.1-3.8-10.4-2.7-2.3-5.6-3.4-11.7-3.4s-11.5,1.4-16.4,4.3c-5,2.9-9.2,7.2-12.6,12.8-2.7,4.7-5.2,10.1-6.8,16.2-1.6,6.1-2.5,9.7-2.5,17.1s0,1.5,0,2.2c-.6.9-1.3,1.8-2.1,2.5-2.3,2.3-5.4,3.4-7.4,3.4s-3.6-.2-4.5-1.1c-.9-.9-1.4-2.3-1.4-4.1v-2.3c.2-.7.2-1.4.5-2.3l9-42.3h8.6l1.1-5.6h-8.6l4.7-22.3-20.9,2.9-4.3,19.6h-4.6l-1,5.2h4.7l-8.6,39.8h0c-1.1,3.6-2.9,6.8-5.2,9-2.3,2.3-5.4,3.4-7.4,3.4s-3.6-.2-4.5-1.1c-.9-.9-1.4-2.3-1.4-4.1v-2.3c.2-.7.2-1.4.5-2.3l9-42.3h8.6l1.1-5.6h-8.6l4.7-22.3-20.9,2.9-4.3,19.6h-4.6l-1,5.2h4.7l-8.6,39.8c0,.2-.1.5-.2.7h0c-1.1,4.1-2.7,7-4.7,9.2-2,2-4.7,3.2-6.8,3.2s-3.6-.2-4.5-1.1c-.9-.9-1.4-2.3-1.4-4.1v-2.3c.2-.7.2-1.4.5-2.3l10.1-48.2h-20.3l-9.7,45.5c-1.1,4.1-2.9,7.2-4.7,9.2-1.8,2-4,3.1-6.4,3.1-1.3,0-2.4-.7-3-1.6-.7-.9-1.1-2.5-1.1-4.3v-1.8c.2-.7.2-1.4.5-2l10.1-48.2h-20.3l-9.7,45.5c-.5,1.8-.7,3.4-.9,5-.2,1.6-.2-1.1-.2,4.3s1.4,9.7,4.1,12.6c2.7,2.9,6.8,4.5,11,4.5s8.3-1.1,11.7-3.4c3.4-2.3,6.5-5.6,9.2-10.1.5,4.3,1.8,7.7,4.3,9.9,2.5,2.3,3.4,3.4,9.7,3.4s11.9-2.3,16.7-6.5c1.9-1.7,3.7-3.8,5.4-6.3.6,3.2,1.8,5.9,3.6,7.9,2.7,2.9,4.5,4.5,11,4.5s12.4-2.3,17.6-6.8c2-1.7,3.8-3.8,5.5-6.1.5,3.4,1.8,6.3,3.7,8.4,2.7,2.9,4.5,4.5,11,4.5s12.4-2.3,17.6-6.8c1.7-1.5,3.3-3.2,4.8-5.1,1,2.6,2.3,4.9,4,6.7,3.6,3.8,8.8,5.6,16.4,5.6s14.9-2.3,21.2-6.5c4-2.7,7.9-6.5,11.7-11.1l-3.6,16.7h20.3s11.3-53.8,11.3-53.8c2.5-2.3,4.5-3.6,5.9-4.3ZM272.7,420.2c3.2-5.6,6.5-8.6,9.7-8.6h0c1.4,0,2,.5,2.7,1.4.7.9.9-1.6.9,4.3s-2,11-6.1,15.8c-4.1,4.7-9,7.2-14.4,7.7,1.6-7.9,4.1-14.9,7.2-20.5Z"/>
          <path class="cls-1" d="M496.8,451.2c-1.8,5.6-4.1,9.9-6.8,13.1-2.7,3.2-6.3,5.4-11,7.2l14-65.7h-20.3l-9.9,46.1c-1.4,3.6-2.9,6.5-4.7,8.6-1.8,2-4.1,2.9-6.3,2.9l.2.2c-1.4,0-2.5-.5-3.2-1.6-.7-.9-1.1-2.5-1.1-4.5v-1.8c0-.7.2-1.1.2-1.8l10.1-48.2h-20.3l-9.6,45h0c-1.1,3.6-2.9,6.8-5.2,9-2.3,2.3-5.4,3.4-7.4,3.4s-3.6-.2-4.5-1.1c-.9-.9-1.4-2.3-1.4-4.1v-2.3c.2-.7.2-1.4.5-2.3l16.2-76.5-20.5,2.9c-.8-2-2.1-3.8-3.8-5.3-3.2-2.9-7-4.3-11.7-4.3h-.2c-6.8,0-12.4,2-16.7,6.1-4.3,4.1-7.2,10.1-9,18l-17.1,80.8c-9.7,3.2-16,6.3-19.4,9.2-3.4,2.9-5,7.7-5,11.9s1.8,7.9,5,10.8c3.2,2.9,5,4.3,11.7,4.3s12.2-2,16.4-6.1c4.3-4.1,7.2-9.9,9-18l16.2-76.5h10.4l.9-5.6h-10.4l2.5-11.3c.9-3.6,2-6.5,3.8-8.6,1.6-2,4.5-2.9,6.1-2.9s2.7.4,3.8,1.4c1.1.9,1.6,2,1.6,3.6v1.1c0,.2,0,1.1-.2,2.7h3.2l-12.7,59.6c-.5,1.8-.7,3.4-.9,5-.2,1.6-.2,3.2-.2,4.3,0,5.4,1.4,9.7,4.1,12.6,2.7,2.9,4.5,4.5,11,4.5s12.4-2.3,17.6-6.8c2-1.7,3.8-3.7,5.4-6,.5,3.6,1.8,6.6,3.8,8.7,2.7,2.9,7.7,4.5,11,4.5s6.5-.7,9.2-2c2.7-1.1,5.4-3.2,7.7-5.9l-1.8,7.7c-7.7,2.3-13.5,5.4-17.3,8.8-3.8,3.4-5.6,7.9-5.6,12.2s1.4,7.7,4.3,10.1c2.9,2.5,4.5,3.6,11.5,3.6s12.4-2,16.7-6.1c4.3-4.1,7.2-10.1,9-18l2-10.1c6.5-1.8,11.7-5,15.8-9.2,4.1-4.5,7-10.1,9.2-17.3h-5.9ZM346.2,480l-1.8,8.1c-.7,3.4-1.8,6.1-3.2,8.1-1.4,2-3.4,2.9-4.7,2.9s-2.7-.7-3.8-1.6-1.8,0-1.8-3.2,1.1-6.1,3.6-8.3c2.5-2.5,6.5-4.5,11.9-6.3l-.2.2ZM455.4,487.9c-.9,3.8-2,7-3.6,9.2-1.6,2.3-3.4,3.4-4.7,3.4s-2.5-.5-3.4-1.4-1.4-.7-1.4-3.2,1.1-4.5,3.4-6.5,5.6-3.8,10.4-5.6h.2l-.9,4.1Z"/>
        </g>
      </g>
    </g>
  </g>
</svg>