<?xml version="1.0" encoding="UTF-8"?>
<svg xmlns="http://www.w3.org/2000/svg" version="1.1" viewBox="0 0 512 512">
  <defs>
    <style>
      .cls-1 {
        fill: #6b5100;
      }
    </style>
  </defs>
  <!-- Generator: Adobe Illustrator 28.7.1, SVG Export Plug-In . SVG Version: 1.2.0 Build 142)  -->
  <g>
    <g id="Layer_1">
      <g>
        <path class="cls-1" d="M78,148.9l.8-2.7h5c4.9,0,9.4-.7,13.5-2.2,4.1-1.4,7.6-3.6,10.6-6.5,3-2.9,5.3-6.5,7-10.6,1.6-4.2,2.5-9,2.5-14.4s-1.2-9.4-3.5-11.9c-2.3-2.5-5.8-3.8-10.5-3.8s-5.1.7-6.5,2c-1.5,1.3-2.7,4-3.8,7.9l-20.4,77.4c-.8,3-1.3,5.4-1.4,7.3-.1,1.9.5,3.2,2,4,1.5.9,4.2,1.4,8.1,1.6l-.6,3c-3-.2-6.5-.3-10.6-.4-4,0-8.3,0-12.8,0s-9.5,0-14,0c-4.5,0-8,.2-10.6.4l.6-3c3.4-.2,6-.6,8-1.2,1.9-.6,3.4-1.8,4.5-3.6,1.1-1.8,2.1-4.5,3-8.1l19.7-74.4c.9-3.1,1.3-5.6,1.3-7.4s-.7-3.1-2.2-4.1c-1.5-.9-4.1-1.4-7.9-1.5l.8-3c1.8.1,4,.2,6.6.2,2.6,0,5.3.1,8.2.1,2.9,0,5.5,0,7.9,0,4.6,0,8.7,0,12.2-.1,3.5,0,7-.1,10.3-.1,12.2,0,21.2,1.7,27.1,5.1,5.9,3.4,8.8,8.7,8.8,15.8s-2.4,12.9-7.3,17.9c-4.9,5.1-11.6,9-20.2,11.9-8.6,2.8-18.6,4.3-30,4.3h-6ZM80.4,146.6c2.9.2,5.3.4,7.3.5s3.6.3,5.1.5c1.4.1,2.9.3,4.3.4,4.2.5,8.1,1.1,11.8,1.8,3.6.7,6.8,1.8,9.3,3.2,2.5,1.5,4.4,3.4,5.6,5.9,1.2,2.5,1.5,5.8,1,9.8l-2.1,15.5c-.3,3.2-.1,5.8.6,7.6.7,1.9,2,2.9,4,2.9s3.7-.9,5.2-2.8c1.4-1.8,2.8-4.5,4-8l.8-2.1h3.5l-.6,1.9c-1.8,6.2-4.5,10.8-8.2,13.8-3.7,3-8.6,4.5-14.8,4.5s-11.8-1.6-14.8-5c-3-3.3-4.1-7.4-3.4-12.4l2.2-17.1c.5-4.1.3-7.5-.5-10.3-.8-2.7-2.8-4.8-6-6.2-3.2-1.4-8.1-2.1-14.7-2.1l.3-2.2Z"/>
        <path class="cls-1" d="M171.9,193.9c1.6,0,3.3-.8,5.2-2.5,1.9-1.7,3.8-4.2,5.8-7.4,2-3.2,3.9-7.2,5.9-11.9,1.9-4.7,3.6-10.1,5.2-16.4l-3.3,16.4c-2.5,7.4-5.2,13.3-8.2,17.7-3,4.4-6.2,7.6-9.6,9.5-3.4,1.9-7,2.9-10.6,2.9-5.6,0-9.8-1.6-12.6-5-2.8-3.3-4.2-7.8-4.2-13.5s.9-11,2.8-16.9c1.8-5.9,4.3-11.6,7.5-17.1,3.2-5.5,6.7-10.4,10.7-14.9,3.9-4.4,8.1-7.9,12.6-10.5,4.4-2.6,8.8-3.9,13.1-3.9s5.8,1.3,7.7,3.9c1.8,2.6,2.3,6.7,1.6,12.1l-1.6.9c.5-3.6.3-6.4-.5-8.4-.9-2-2.3-3-4.3-3s-4.2,1.2-6.7,3.5c-2.5,2.3-4.9,5.5-7.3,9.4-2.4,4-4.6,8.5-6.7,13.6-2.1,5.1-3.7,10.4-4.9,15.9-1.2,5.6-1.8,11-1.8,16.4s.3,5.8,1,7.2c.7,1.4,1.7,2.1,3.2,2.1ZM203.7,122.5c4.3,0,8.2-.3,11.7-.7,3.5-.3,6.8-.9,10-1.6l-19.6,66.9c-.3,1.3-.5,2.5-.7,3.7-.1,1.2,0,2.1.5,2.8.5.7,1.2,1,2.3,1s2.7-.8,4.3-2.3c1.6-1.5,3.2-4.7,5-9.5l2.7-7.2h2.8l-3.8,10.9c-1.4,4.1-3.2,7.3-5.4,9.5-2.2,2.2-4.6,3.8-7,4.6-2.5.9-5,1.4-7.4,1.4-5.2,0-8.9-1.6-11.1-4.6-1.5-2.2-2.2-4.9-2-8.2.2-3.2.8-7,2-11.2l15.6-55.5Z"/>
        <path class="cls-1" d="M250.2,135.1c1.7-5,1.1-7.5-1.6-7.5s-3.5.9-5,2.7c-1.5,1.8-3.1,4.9-4.7,9.1l-3,7.7h-2.8l4.2-11.4c1.4-4,3.2-7.1,5.3-9.3,2.1-2.2,4.5-3.8,7.2-4.7,2.6-.9,5.4-1.4,8.3-1.4s6.2.7,8.2,1.9c2,1.3,3.3,3,4,5,.7,2.1.9,4.3.8,6.8-.2,2.5-.7,4.9-1.5,7.3l-15.8,45.9c-.9,2.7-1.1,4.6-.7,5.8.5,1.2,1.4,1.7,2.8,1.7s2.7-.8,4.3-2.2c1.5-1.5,3.3-4.7,5.2-9.6l2.7-7.2h2.9l-3.9,10.9c-1.4,4.1-3.2,7.3-5.4,9.5-2.2,2.2-4.6,3.8-7.1,4.6-2.6.9-5.1,1.4-7.7,1.4-4.3,0-7.6-1-9.8-2.9s-3.5-4.6-3.7-8.2c-.2-3.6.5-7.8,2.1-12.8l14.7-43ZM255.9,97.2c.2-4.3,1.8-7.6,4.7-9.9,2.9-2.3,6.5-3.5,10.6-3.5s6.5.9,8.5,2.6c2,1.8,2.8,4.2,2.6,7.3-.2,3.9-1.8,7.1-4.8,9.5-3,2.5-6.6,3.7-10.8,3.7s-6.2-.9-8.2-2.6c-2-1.7-2.8-4.1-2.6-7.1Z"/>
        <path class="cls-1" d="M331.3,123.2c-3.7,0-7.4,1.6-11,4.7-3.6,3.1-6.8,7.4-9.7,12.7-2.9,5.3-5.1,11.2-6.8,17.9-1.7,6.6-2.5,13.4-2.5,20.4s1,9.1,3.1,11.5c2.1,2.4,4.8,3.5,8.2,3.5s6.5-.9,9.8-2.9c3.3-1.9,6.6-5.3,10.1-10.4l3,1.2c-2,3.3-4.6,6.5-7.7,9.6-3.1,3.1-6.8,5.6-11,7.6-4.2,2-8.8,2.9-14,2.9s-12.8-1.9-17.2-5.6-6.8-9.6-6.8-17.5.8-10,2.3-15.5c1.5-5.4,3.8-10.7,6.7-15.8,2.9-5.1,6.5-9.8,10.6-13.9,4.2-4.1,8.9-7.4,14.2-9.8,5.3-2.4,11-3.7,17.2-3.7s9.9,1.4,13.3,4.1c3.3,2.8,5,6.2,5,10.3s-.7,5.3-2,7.9c-1.3,2.5-3.1,4.6-5.3,6.3-2.2,1.7-4.8,2.5-7.6,2.5s-4.4-.8-6.1-2.3c-1.6-1.5-2.5-3.7-2.5-6.4,0-4.1,1.4-7.6,4.1-10.6,2.7-2.9,5.9-4.9,9.5-5.8-.8-1-1.8-1.7-2.9-2.2-1.2-.5-2.6-.8-4.3-.8Z"/>
        <path class="cls-1" d="M366.7,167.3c4.1-1.6,8-3.4,11.7-5.4,3.7-2,6.8-4.2,9.5-6.6,3.9-3.5,7-7.6,9.4-12.2,2.3-4.6,3.5-9.7,3.5-15.1s-.2-3.3-.6-4c-.4-.6-1-1-1.8-1-2.2,0-4.6,1.1-7.1,3.4s-5.1,5.2-7.6,9c-2.5,3.8-4.8,8-6.8,12.8-2.1,4.8-3.7,9.8-5,15-1.3,5.2-1.9,10.3-1.9,15.1s1.1,9.4,3.2,11.5c2.1,2.1,4.9,3.1,8.3,3.1s6-.9,10-2.7c4-1.8,8-5,11.9-9.6l2.4,1.2c-2.1,3.3-4.9,6.5-8.2,9.6-3.4,3.1-7.3,5.6-11.8,7.6-4.5,2-9.4,2.9-14.7,2.9s-8.5-.8-12.1-2.4c-3.6-1.6-6.4-4-8.4-7.1-2.1-3.2-3.1-7-3.1-11.6s.9-10.7,2.6-16.4c1.7-5.6,4.2-11,7.4-16.3,3.2-5.2,7-10,11.5-14.2,4.5-4.2,9.5-7.6,15-10.1,5.5-2.4,11.3-3.7,17.5-3.7s8.1,1,11.1,2.9c3,2,4.5,4.9,4.5,8.9s-1.1,7.6-3.2,10.9c-2.2,3.4-5,6.5-8.6,9.3-3.6,2.8-7.6,5.3-12.1,7.5-4.5,2.2-9,4.1-13.7,5.7-4.7,1.6-9,2.9-13.1,3.8l.2-1.9Z"/>
        <path class="cls-1" d="M428.5,197.8c.8.4,1.7.7,2.6.8.9.1,2,.2,3.3.2,3.7,0,6.7-1.1,9.1-3.4,2.3-2.2,3.5-5.4,3.5-9.5s-.7-6.7-2.1-10.1c-1.4-3.4-3.5-7.2-6.3-11.3-2.3-3.6-4.4-7.1-6.4-10.5-2-3.4-2.9-7.3-2.9-11.7s1.1-8.1,3.3-11.4c2.2-3.3,5.3-5.9,9.4-7.8,4-1.9,8.9-2.9,14.6-2.9s7.3.4,10.7,1.4c3.5.9,6.3,2.5,8.6,4.6,2.3,2.2,3.5,5.4,3.5,9.6s-.3,3.1-1,4.9c-.7,1.8-1.6,3.3-3,4.4-1.3,1.2-3.1,1.7-5.2,1.7s-4.5-.9-6-2.8c-1.5-1.8-2.2-4.3-2.2-7.3s.5-5.1,1.4-7.3c.9-2.1,2-3.9,3.2-5.2-1.3-.8-3.1-1.2-5.2-1.2-3.6,0-6.4,1.1-8.5,3.3-2.1,2.2-3.1,5.4-3.2,9.5,0,2.3.4,4.5,1.2,6.5.8,2.1,1.9,4.1,3.3,6.2,1.4,2.1,2.9,4.5,4.5,7,3,4.9,5.2,9.1,6.7,12.6,1.4,3.5,2.2,7,2.2,10.6s-1.1,8.2-3.4,11.6c-2.2,3.5-5.5,6.2-9.8,8.2-4.3,2-9.3,3.1-15.1,3.1s-8.2-.6-12-1.6c-3.8-1.1-6.9-2.9-9.2-5.5-2.3-2.6-3.5-6-3.5-10.3s.7-5.3,2.2-7.5c1.4-2.2,3.5-3.3,6.2-3.3s4.8,1.1,6.3,3.4,2.2,5,2.2,8.3-.4,4.9-1.1,7-1.4,3.9-1.9,5.2Z"/>
      </g>
      <g>
        <path class="cls-1" d="M217.1,282.6c.8,0,1.8-.5,3-1.6,1.1-1.1,2.4-2.7,3.7-4.9,1.3-2.2,2.6-4.8,3.8-8,1.2-3.2,2.3-6.8,3.2-10.9l-1.1,8.1c-1.7,4.8-3.3,8.8-4.9,11.9s-3.4,5.5-5.3,7c-1.9,1.5-4.2,2.2-6.9,2.2s-3.1-.4-4.5-1.1c-1.3-.8-2.4-1.9-3.2-3.4-.8-1.5-1.2-3.5-1.2-6s.4-4.8,1.1-7.5c.7-2.7,1.8-5.4,3.2-8.1,1.4-2.6,3.2-5.1,5.2-7.3,2-2.2,4.3-4.1,6.9-5.4s5.4-2,8.6-2,2.8.4,3.6,1.1c.8.7,1.2,1.7,1.4,3l-.6,1.5c-.2-1.3-.6-2.3-1-2.9-.5-.6-1.3-1-2.2-1s-2.7.6-4,1.8c-1.4,1.2-2.7,2.8-4,4.8-1.3,2-2.4,4.3-3.5,6.9-1.1,2.6-1.9,5.3-2.5,8.2-.6,2.9-.9,5.7-.9,8.6s.2,3,.6,3.9c.4.9,1,1.3,1.8,1.3ZM235.1,278.9c-.5,1.2-.6,2.1-.3,2.8.2.7.7,1,1.4,1s1.4-.4,2.1-1.2,1.6-2.4,2.4-4.8l1.3-3.6h1.4l-1.8,5.5c-.7,2.1-1.5,3.6-2.6,4.8-1.1,1.1-2.3,1.9-3.6,2.3-1.3.4-2.5.6-3.7.6-3.1,0-5.1-1.1-5.9-3.4-.5-.9-.7-2.1-.6-3.6,0-1.4.3-3.1.9-4.9l10.4-39.1c.5-1.7.5-2.9-.1-3.8-.6-.8-2.1-1.2-4.6-1.2l.5-1.6c3.5,0,6.7-.3,9.5-.9,2.8-.5,5.5-1.3,8-2.2l-14.7,53.2Z"/>
        <path class="cls-1" d="M256.6,269c2-.8,4-1.7,5.8-2.7,1.8-1,3.4-2.1,4.7-3.3,1.9-1.8,3.5-3.8,4.7-6.1,1.2-2.3,1.8-4.8,1.8-7.5s-.1-1.7-.3-2c-.2-.3-.5-.5-.9-.5-1.1,0-2.3.6-3.6,1.7-1.3,1.1-2.5,2.6-3.8,4.5-1.2,1.9-2.4,4-3.4,6.4-1,2.4-1.9,4.9-2.5,7.5-.6,2.6-.9,5.1-.9,7.6s.5,4.7,1.6,5.7c1.1,1,2.5,1.5,4.2,1.5s3-.4,5-1.3c2-.9,4-2.5,5.9-4.8l1.2.6c-1.1,1.7-2.4,3.3-4.1,4.8-1.7,1.6-3.7,2.8-5.9,3.8-2.2,1-4.7,1.5-7.3,1.5s-4.3-.4-6-1.2c-1.8-.8-3.2-2-4.2-3.6-1-1.6-1.5-3.5-1.5-5.8s.4-5.4,1.3-8.2c.9-2.8,2.1-5.5,3.7-8.1,1.6-2.6,3.5-5,5.8-7.1s4.7-3.8,7.5-5c2.7-1.2,5.7-1.8,8.8-1.8s4,.5,5.5,1.5,2.2,2.5,2.2,4.5-.5,3.8-1.6,5.5c-1.1,1.7-2.5,3.3-4.3,4.7-1.8,1.4-3.8,2.7-6,3.8-2.2,1.1-4.5,2.1-6.8,2.8-2.3.8-4.5,1.4-6.6,1.9v-1Z"/>
        <path class="cls-1" d="M292.6,278.9c-.4,1.3-.4,2.2-.1,2.9.3.6.7.9,1.4.9s1.2-.4,2-1.1c.8-.7,1.6-2.3,2.5-4.8l1.4-3.6h1.4l-1.9,5.5c-.7,2.1-1.6,3.6-2.7,4.7-1.1,1.1-2.3,1.9-3.5,2.3s-2.5.7-3.8.7-3-.3-4-.9c-1-.6-1.7-1.4-2.2-2.5-.5-1.1-.7-2.3-.6-3.8,0-1.4.4-3,.9-4.8l11.8-39.1c.5-1.7.5-2.9-.2-3.8-.6-.8-2.1-1.2-4.6-1.2l.5-1.6c3.6,0,6.8-.3,9.5-.9,2.7-.5,5.4-1.3,7.9-2.2l-15.8,53.2Z"/>
      </g>
      <g>
        <path class="cls-1" d="M96.3,407.8c-3.1,4.3-4.7,7.8-4.8,10.4-.1,2.7,1,4.6,3.3,5.8,2.3,1.3,5.4,2,9.3,2.2l-.8,3c-4.2-.2-7.8-.3-10.9-.4-3.1,0-5.9,0-8.6,0s-4.2,0-5.7,0c-1.5,0-3,.2-4.6.4l.6-3c1.8-.5,3.5-1.3,5-2.4,1.6-1.1,3.3-2.8,5.2-5,2-2.2,4.2-5,6.7-8.5l62.5-88.1c1.3.1,2.6.2,4,.2s2.6,0,3.7-.2l6,94.4c.3,3.6,1.2,6.1,2.8,7.4,1.5,1.3,3.1,2.1,4.6,2.2l-.6,3c-2.5-.2-5.8-.3-10-.4-4.2,0-8.1,0-11.8,0s-8.8,0-12.8,0c-4,0-7.3.2-9.8.4l.6-3c4.8-.2,8.2-1.1,10.3-2.6,2-1.5,2.9-4.9,2.6-10l-3.6-69,5.1-5.4-48.5,68.5ZM110.3,386.1h43.8l-1.2,3h-45.3l2.7-3Z"/>
        <path class="cls-1" d="M206.6,416.5c-.7,2.6-.8,4.5-.2,5.7.5,1.2,1.5,1.8,2.8,1.8s2.4-.7,4.1-2.2c1.6-1.4,3.2-4.7,4.9-9.7l2.7-7.2h2.9l-3.8,11c-1.4,4.1-3.2,7.3-5.4,9.5-2.2,2.2-4.6,3.8-7,4.6-2.5.9-5,1.4-7.5,1.4s-6-.6-8-1.7c-2-1.1-3.5-2.8-4.4-5-1-2.1-1.4-4.7-1.2-7.6.2-2.9.7-6.1,1.7-9.6l23.6-78.3c1-3.4.9-5.9-.3-7.5-1.2-1.6-4.3-2.4-9.1-2.4l1-3.1c7.2,0,13.5-.7,19-1.7,5.4-1,10.7-2.5,15.8-4.4l-31.5,106.5Z"/>
        <path class="cls-1" d="M253.7,429.3h-21.2l18.3-64.8c.4-1.3.6-2.5.7-3.7,0-1.1,0-2.1-.4-2.8-.3-.7-1-1-2.2-1-1.7,0-3.3.9-4.8,2.7s-3.1,4.9-4.6,9.1l-2.9,7.7h-2.8l4-11.4c1.5-4,3.3-7.1,5.4-9.3,2.1-2.2,4.4-3.8,7-4.7,2.6-.9,5.2-1.4,7.8-1.4s6,.6,7.8,1.9c1.8,1.3,3,2.9,3.6,5,.6,2.1.8,4.4.6,6.8-.2,2.5-.6,4.9-1.2,7.3l-15.1,58.6ZM290,367c.5-1.7.9-3.2,1.1-4.6.2-1.3.2-2.4,0-3.2-.3-.8-1-1.2-2.2-1.2-2.3,0-4.8,1.4-7.3,4.1-2.6,2.8-5.3,6.6-8,11.6-2.8,5-5.5,11-8.2,17.9-2.7,6.9-5.2,14.5-7.7,22.6l.8-10.3c4.2-13.3,8.3-23.9,12.3-31.9,4-8,8.3-13.7,12.9-17.2,4.6-3.5,9.8-5.2,15.6-5.2s5.8.6,7.6,1.8c1.7,1.2,2.9,2.8,3.5,5,.6,2.1.8,4.5.5,7.2-.2,2.7-.8,5.6-1.6,8.7l-16.1,57h-21.4l18.3-62.2ZM330,367c.9-2.6,1.3-4.7,1.3-6.5,0-1.7-.8-2.5-2.2-2.5s-4.1,1.2-6.5,3.5c-2.5,2.4-5.1,5.9-7.9,10.6-2.8,4.8-5.7,10.8-8.7,18-3,7.3-6,15.8-9,25.6l.3-8.1c3.6-11.4,7-20.9,10.3-28.4,3.2-7.5,6.5-13.4,9.9-17.8,3.3-4.4,6.8-7.4,10.4-9.2,3.6-1.8,7.4-2.7,11.5-2.7s7.4,1,9.3,3.1c1.9,2.1,2.9,4.8,2.9,8.2,0,3.4-.6,7.2-2,11.4l-14.7,44.2c-1,2.9-1.2,4.9-.7,5.9.5,1.1,1.4,1.6,2.6,1.6s2.7-.7,4.3-2.2c1.6-1.4,3.3-4.7,5.1-9.7l2.7-7.2h2.9l-3.8,11c-1.4,4.2-3.2,7.4-5.5,9.6-2.2,2.2-4.6,3.7-7.2,4.6-2.5.8-5.1,1.3-7.6,1.3s-5.4-.5-7.4-1.4c-2-.9-3.6-2.3-4.6-4-1.3-2-1.9-4.5-1.7-7.7.2-3.1.9-6.7,2.3-10.8l13.5-40.5Z"/>
        <path class="cls-1" d="M384.9,423.3c1.6,0,3.3-.8,5.2-2.5,1.9-1.7,3.8-4.2,5.8-7.4,2-3.2,3.9-7.2,5.9-11.9,1.9-4.7,3.6-10.1,5.2-16.4l-3.3,16.4c-2.5,7.4-5.2,13.3-8.2,17.7-3,4.4-6.2,7.6-9.6,9.5-3.4,1.9-7,2.9-10.6,2.9-5.6,0-9.8-1.7-12.6-5-2.8-3.3-4.2-7.8-4.2-13.5s.9-11,2.8-17c1.8-5.9,4.3-11.6,7.5-17.1,3.2-5.5,6.7-10.4,10.7-14.9,3.9-4.4,8.1-7.9,12.6-10.5,4.4-2.6,8.8-3.9,13.1-3.9s5.8,1.3,7.7,3.9c1.8,2.6,2.3,6.7,1.6,12.2l-1.6.9c.5-3.6.3-6.4-.5-8.4-.9-2-2.3-3-4.3-3s-4.2,1.2-6.7,3.5c-2.5,2.3-4.9,5.5-7.3,9.4-2.4,4-4.6,8.5-6.7,13.6-2.1,5.1-3.7,10.4-4.9,15.9-1.2,5.5-1.8,11-1.8,16.4s.3,5.8,1,7.2c.7,1.4,1.7,2.1,3.2,2.1ZM416.7,351.9c4.3,0,8.2-.3,11.7-.7,3.5-.3,6.8-.9,10-1.6l-19.6,66.9c-.3,1.3-.5,2.5-.7,3.7-.1,1.2,0,2.1.5,2.8.5.7,1.2,1,2.3,1s2.7-.8,4.3-2.3c1.6-1.5,3.2-4.7,5-9.5l2.7-7.2h2.8l-3.8,11c-1.4,4.1-3.2,7.3-5.4,9.5-2.2,2.2-4.6,3.8-7,4.6-2.5.9-5,1.4-7.4,1.4-5.2,0-8.9-1.6-11.1-4.7-1.5-2.2-2.2-4.9-2-8.2.2-3.2.8-7,2-11.2l15.6-55.5Z"/>
      </g>
      <rect class="cls-1" x="591.8" y="260.3" width="90.2" height="90.2"/>
      <rect class="cls-1" x="110.4" y="260.3" width="75.7" height="5.6"/>
      <rect class="cls-1" x="324.5" y="260.3" width="75.7" height="5.6"/>
    </g>
  </g>
</svg>