<?xml version="1.0" encoding="UTF-8"?>
<svg xmlns="http://www.w3.org/2000/svg" version="1.1" viewBox="0 0 512 512">
  <defs>
    <style>
      .cls-1 {
        fill: #7650a1;
      }
    </style>
  </defs>
  <!-- Generator: Adobe Illustrator 28.7.1, SVG Export Plug-In . SVG Version: 1.2.0 Build 142)  -->
  <g>
    <g id="Layer_1">
      <g>
        <g id="Layer_1-2" data-name="Layer_1">
          <g>
            <path class="cls-1" d="M433.6,390.8c-16.8-7.2-34.7-10.1-52.6-12.4-16.9-2.2-33.9-3.8-51.2-5.7,1.8-4.5,4.3-3.5,7.2-3,5.1,1.1,10.5,2.5,15.5,1.8,33.8-4.8,57.4-23.2,69.5-55.1,8.9-23.5-3.2-41.1-28.2-42.7-7.5-.5-15.1,0-23.1,0,.2-2.8.4-4.8.5-6.8,1.2-18.4-.2-20.4-17.6-25.9-3.4-1-6.7-1.9-10.1-2.6-39.8-9-80-9.6-120.4-7.7-22.6,1-45.3,3.3-67.3,9.7.4-.8.8-1.5,1.2-2.4.9-1.8,1.5-3.6,4-3.8.8,0,1.5-.9,1.8-1.7.7-2.3,2.6-3.4,4.3-4.5,11.2-7.8,22.8-14.8,35.8-19.4,5-1.7,10.1-3.2,15.4-3,3.6.2,4.2,1.1,2.4,4.3-2.3,4.3-5.7,6.6-10.6,6.4-1.7,0-3.4,0-5.1.6-1.3.5-2.3,1.4-2.1,2.9.2,1.4,1.3,2,2.4,2.3,4.3,1,8.2,0,11.7-2.8,4.1-3.3,6.5-7.7,8.4-12.5.5-1.2,0-1.8-.9-2.4-2.8-2.4-6.2-2.8-9.7-2.4-6.6.7-12.6,3.3-18.5,6.2-11,5.4-21.1,12.2-31.1,19.4-.9.6-1.7,1.8-3.1,1.2-.3-.4-.2-.7,0-1,9.4-14.5,19.7-28.3,33.3-39.1,3.3-2.6,6.7-5.1,10.9-6.2,2.9-.8,3.4-.4,3.1,2.7-.5,5.3-3.3,9-8.2,10.8-1.8.6-3.5,1.4-4.7,3-.6.9-1,1.8-.5,2.9.5,1.2,1.5,1.3,2.6,1.2,2.9-.2,5.3-1.4,7.3-3.4,5.4-5.2,6.6-11.9,6.9-18.8,0-1.3-1-1.5-1.9-1.8-2.9-.9-5.6-.3-8.2.9-5.2,2.4-9.3,6.1-13.3,10.1-10.2,10.4-18.7,22.3-26.5,34.6-1.8,2.9-3.8,5.4-7,6.9-2,.9-3.8,2.3-5.6,4-.5-1.4.5-2.2,1.1-3,10.9-16.4,19.7-33.7,25.4-52.5,5.5-18.1,7.7-36.5,4.1-55.3-2.6-13.8-8.2-26.2-16.8-37.3-2-2.5-3.4-2.6-5.6-.2-2.7,3-4.3,6.6-5.9,10.2-5.9,13.5-10.4,27.5-15.3,41.4-3,8.4-6,16.8-10.3,24.7-2.2,4-4.6,7.9-8.8,10.8-.8-3.4-1.5-6.3-2.4-9.3-8.1-29.1-23.5-53.5-46.5-73.2-2.4-2.1-5-4-7.8-5.6-3.7-2.2-6.9-1.4-9.1,2.4-1.2,2-1.7,4.3-2,6.6-.9,7.3,1,14.1,3.5,20.9,2.1,5.6,4.2,11.3,6.2,17,1,2.9,1.7,6,1.9,9.1.4,5.9-1.3,11-6,15-5.2,4.3-10.3,8.5-15.5,12.9-3.5,3-6.6,6.2-9,10.3-4.8,8.4-4.6,16.8.7,24.8,6.1,9.1,14.7,15.4,23.8,21,3.4,2.1,6.8,3.9,10.6,6.1-2.8.5-5.3.4-7.7,1.1-7,2.1-11.6,6.9-15.4,12.7-3,4.5-5.2,9.5-7.2,14.5-4.3,10.3-11.3,18.2-22.2,22.1-4.5,1.6-9.1,2.2-14.6,1.4,3,3.3,6.1,5.3,9.2,7.2,3.7,2.2,7.7,3.8,12,4.6,2.2.5,11.6,1.5,12.7,1.5,7.2,0,14.1-1.7,21-3.8,0,0,.3,0,1,.2-8,7-17,11-27.6,12.5,1.7,5.6,5.6,8.8,10.3,11.2,4.8,2.4,10.1,2.8,15.4,2.5,5.8-.1,16.1-4,18.7-4.9,12.6-4.3,24.2-10.3,33.2-20.5,2.6-3,5.1-6.2,6.5-9.9,3.5-9.2,9.6-16.4,16.8-22.9,1.4-1.2,2.4-2.8,4.3-3.5,0,1.4-.9,2-1.4,2.8-8.5,11.5-16.6,23.3-22.2,36.6-2.4,5.5-4.2,11.1-4.2,17.2s.6,6.5,2.6,9.2c2.1,2.8,2.7,2.9,5.1.4,3.2-3.4,4.7-7.5,4.5-12-.2-5.5.6-10.8,2.1-16,3.3-12,7.7-23.4,13.9-34,.5-.8.9-1.5,1.4-2.2,0,2.6.5,5.6.9,9.1,4.9,37.6,17.1,72.1,41.9,103.4-13.9,1.3-26,2.2-38,3.6-22.7,2.7-45.6,5.2-67.2,13.7-5.3,2.1-12.6,3.9-12.3,11,.3,6.8,7.4,8.8,12.9,10.7,15.8,5.5,31.7,9.2,48.5,11.3,62,7.6,124.1,8.7,186.4,6.6,16.4-.5,32-5.5,48.3-5.3,26.3.3,51.6-4.8,76.3-13.6,4.8-1.7,10.7-3.9,10.9-10,.2-6.2-6-8.1-10.6-10.1h.2ZM363.8,304.3c1.6-6.8,5.4-10,12-10.6,10-.9,21.8-3.8,28.1,5.5,6.4,9.7-.8,19.4-7.2,27.3-10.2,12.7-22.9,22.2-39.2,25.8-4.1.9-8.1,1.5-12.9-1.3,8.5-15.2,15.4-30.4,19.3-46.7ZM55.3,215c-6.6-7.1-8.1-15.1-4.6-24.1,1.5-3.9,3.8-7.3,6.6-10.4,3.9-4.2,7.1-8.9,9.1-14.3,4.7-12,4.2-24.3,1.2-36.6-.7-3-1.5-6.1-2.4-9.1,16.1,15.9,28.3,34.2,35.6,56.1-3.1.5-5.7,1.8-8.3,2.7-.6-.5-.6-1.2-.7-1.8-1.4-6.4-2.7-12.9-4.8-19.3-1.6-4.9-3.2-9.9-6.4-13.9-1.4-1.6-3.1-2.6-5.3-1.7s-2.9,2.8-2.8,5.1c.2,3.8,1.7,7.1,4.7,9.4,7.2,5.5,10.9,13.1,13.2,21.6.4,1.2.3,2-.8,2.9-7.3,5.8-9.9,13.7-8.7,22.7,1.3,10.2,6.5,18.3,13.5,25.5,1.1,1.1,2.2,2.2,3.3,3.4-10.8-1.8-21-4.6-30.5-9.6-4.3-2.3-8.4-5-11.9-8.6h0ZM46.7,285.4c-5.3.2-10.4,0-15.6-1.2,9.8-1.2,17.6-6.1,24.3-12.9,3-3.1,5.7-6.4,8.3-9.9,2.9-3.6,5.5-7.5,9.1-10.6,2-1.8,4.2-3.2,7.8-2.7-3.4,2.9-5.6,5.9-7.4,9.2-1.8,3.4-3.3,7.1-4.5,10.7-1.3,3.8-2.6,7.6-3.8,11.5-.6,2.1-1.8,3-3.9,3.5-4.6,1.4-9.4,2.1-14.2,2.4h0ZM114.4,266.5c-2.4,5.9-5.6,11.4-9.8,16.3-9.2,10.9-20.3,18.6-35,19.5-3.7.3-7.4.5-11.8-.9,1.3-.4,1.8-.5,2.4-.6,9-2.1,15.5-7.5,20.2-15.3,3.5-5.9,5.5-12.4,6.8-19.1.5-2.7,1.2-5.3,2.6-7.8,4.3-7.6,14.1-9.7,21.2-4.5,4.3,3.2,5.6,7.4,3.4,12.5h0ZM133.7,258.1c.2-.5.3-1.2,1-.8,0,.5-.2.8-1,.8ZM124.8,234.8c-2.4,3.3-3.9,3.6-7.5,1.7-1.1-.5-2.2-1.2-3-2.1-4.8-5-9.2-10.2-12-16.7-3.8-9-2.2-17.3,4.7-24.2,5.2-5.3,11.5-8.9,18.4-11.1,5.8-1.9,9.5-5.7,12.2-10.8,7.2-13.3,11.9-27.4,14.5-42.3.3-1.4.4-2.7,1.9-3.6.3.3.5.5.5.7.2.6.4,1.4.5,2,3.3,12.1,3.4,24.5,1.4,36.9-4.4,26-16.2,48.6-31.8,69.5h0ZM154.6,267.4c-1.1-7.6,4.9-9.4,10.1-11.1,19.3-6.6,39.5-7.5,59.5-8.9,9.7-.6,19.5,0,29.2,0,30.2-1.1,59.8,2.9,89.2,9.5,8.5,1.9,11.5,6.2,10.1,14.7-5.2,28.9-13.5,56-32.3,79.9-31.1,39.4-83,45.6-120.8,12-28.5-25.4-39.5-59.5-44.8-95.9h0ZM397.2,405.9c-24.4,8.1-49.8,9.9-75.1,11.6-63.3,4.2-126.6,3.7-189.5-5.6-10.3-1.5-20.6-3.7-30.2-7.8-3.1-1.3-7.1-2.7-7-6.9,0-4.1,3.9-5.4,7.2-6.7,22-8.5,45.4-9.6,68.5-12.7,10.3-1.4,16.1,2.6,22.1,10.1-13,3.2-26.3,1.9-38.4,8.3,3.7,6.4,10.3,6.2,15.5,6.8,54.8,6.7,109.7,6.6,164.4,0,5.2-.6,11-1,15.8-6.2-10.9-7.7-23.8-4.8-35.4-9.1,5-7.1,10.4-11.1,20.3-10,20.7,2.5,41.6,4.1,61.6,10.5,5.1,1.6,12.5,2.4,12.3,9.1-.2,5.8-7.1,6.7-12,8.3h0Z"/>
            <path class="cls-1" d="M126,429c7.9,7.2,17.5,6.6,26.5,8.1,58,9.3,116.4,9,174.7,3.4,17.4-1.6,35.9-.7,54.2-13-87,9.8-171.2,9.7-255.5,1.6h0Z"/>
            <path class="cls-1" d="M286.1,219.8l-.5.3.3.2.3-.5h0Z"/>
            <path class="cls-1" d="M182.7,273.9c16.4,3.5,33.1,4.5,49.6,5.3,30.6,1.4,61.1.5,91.3-5.3,6.2-1.2,13.9-1.1,17.5-8.6-23.6-17.6-152.7-17.7-175.1.2,4.3,6.7,10.8,7.1,16.7,8.3h0Z"/>
            <path class="cls-1" d="M281.9,315.3c13.5,11.4,15.6,27,7.2,39.9-3.4,5.2-9,7.8-12.1,12.8,35.9-15.2,47.4-48.2,59.6-83.1-29.2,5.7-57.2,6-85.6,6.8,13.4,4.3,21.2,15.3,31,23.6Z"/>
            <path class="cls-1" d="M204.3,359.4c2-1.6-.2-3.2-1.6-4.3-10.9-21.4-20.5-43.1-19.3-67.7-5.8-1.6-10.9-3.1-17.3-4.9,9.1,27.3,16.8,53.2,35,74.4.9,1.2,1.7,3.6,3.3,2.4h0Z"/>
            <path class="cls-1" d="M78.3,209.1c.5.5,1.4,1.2,2.3.5.6-.5.7-1.4.4-2.2-3.7-7.3-5.2-15.5-8.8-22.8-.6-1.4-1.3-3.3-3.1-3-1.8.4-1.7,2.4-1.9,3.8-.3,2,0,4,.2,6.1,1.8,6.9,6,12.5,11,17.6h0Z"/>
            <path class="cls-1" d="M79.8,214.9c-.9-1.7-2.2-2.4-3.4-2.8-5.2-2-9.2-5.2-12.4-9.7-1-1.4-2.3-3.6-4.3-2.4-2.2,1.2-1,3.6-.4,5.3,1.5,4.3,4.7,7,8.8,8.4,3.6,1.4,7.4,1.9,11.7,1.1h0Z"/>
            <path class="cls-1" d="M154,148.2c-1.4-.6-2.3.5-3.1,1.3-3.4,3.5-5.1,8-4.8,12.7,1.1,17-3.8,32.6-10.2,48-.5,1.3-1,2.5-1.5,3.8.2,0,.4.3.5.4,6.2-10.4,10.7-21.6,14.3-33.1,2.8-9.1,4.7-18.5,5.6-28,0-.7.2-1.4.2-2.1,0-1.1.2-2.4-1-3Z"/>
            <path class="cls-1" d="M122.5,197.4c-.2-1.8-.5-3.6-1.2-5.3-.4-.8-.7-1.6-1.7-1.8-1.2,0-1.6.8-2.1,1.6-1.8,3.7-2.2,7.6-1.4,11.6,1,5.5,3.3,10.5,6.2,15.2.5.7.9,1.7,2.3,1.6,0-.4.2-.6,0-1-2-7.2-1.2-14.8-2.1-22.1h0Z"/>
            <path class="cls-1" d="M110.6,209c-.9-1.5-1.9-4-4.1-3.2-2.4.8-1.6,3.4-1.4,5.3,1,7.2,9.5,14.5,17.2,14.1-5.9-4.4-8.5-10.5-11.8-16.1h0Z"/>
            <path class="cls-1" d="M140.6,209c.2-.5.4-.8.5-1.2-.2-.2-.4-.3-.5-.5-.5.5-.5.9,0,1.6h0Z"/>
          </g>
        </g>
        <g>
          <g>
            <path class="cls-1" d="M211.6,151.3h-11.1l10.5-49,11.4-1.6-5.5,25.8c3.6-.3,6.7-2.4,9.4-6.3,2.7-3.9,4-8.1,4-12.6s-.8-5.8-2.5-7.7c-1.7-1.8-4-2.8-7-2.8-6.3,0-11.2,1.7-14.7,5-3.5,3.3-5.3,7.9-5.3,13.7s0,1.8.2,2.5c.1.7.3,1.4.7,2.1.1.2.2.3.2.4v.2c-2.9,0-5-.6-6.3-1.8-1.3-1.2-2-3.1-2-5.7s.9-5.2,2.6-7.7c1.7-2.6,4.1-4.9,7.2-7,2.6-1.7,5.4-3,8.4-4,3-.9,5.9-1.4,8.8-1.4,5.6,0,10.1,1.4,13.3,4.2,3.2,2.8,4.9,6.5,4.9,11s-.6,5.4-1.8,8c-1.2,2.6-2.9,4.9-5,6.9-2,1.9-4.4,3.4-7,4.3-2.6,1-5.4,1.5-8.4,1.5h-.4l-4.7,22h0Z"/>
            <path class="cls-1" d="M250.3,144.3c1.3,0,2.5-.6,3.6-1.7,1.1-1.1,1.9-2.8,2.6-5l5.2-24.7h11.1l-5.6,26.2c-.1.4-.2.9-.2,1.3,0,.4,0,.8,0,1.2,0,1,.2,1.8.7,2.2.5.4,1.3.7,2.4.7s2.5-.6,3.6-1.8c1.1-1.2,2-2.9,2.6-5h3.2c-1.6,4.7-3.8,8.3-6.4,10.7s-5.6,3.6-9.1,3.6-4-.6-5.3-1.9-2.1-3.1-2.3-5.4c-1.5,2.5-3.2,4.3-5,5.5-1.9,1.2-4,1.8-6.4,1.8s-4.6-.8-6.1-2.4c-1.5-1.6-2.2-3.9-2.2-6.8s0-1.4.2-2.3.2-1.8.4-2.7l5.2-24.7h11.1l-5.6,26.2c-.1.4-.2.8-.2,1.1v1c0,1,.2,1.8.6,2.3s1,.8,1.7.8h0Z"/>
            <path class="cls-1" d="M284.6,151.3h-11.1l8.2-38.5h11.1l-1,4.8c2.2-1.9,4-3.2,5.4-3.8,1.3-.7,2.6-1,4-1s2.9.6,3.8,1.7,1.5,2.5,1.5,4.1-.5,2.9-1.6,4c-1,1.1-2.4,1.6-4,1.6s-1.6-.2-2-.6-.8-1.3-1-2.5c-.2-.8-.3-1.3-.5-1.6s-.5-.3-.9-.3c-.9,0-1.7.2-2.5.5s-1.8,1.1-3.1,2.4l-6.2,29.3h0Z"/>
            <path class="cls-1" d="M310,167.8l-11.7,2.8,12.9-60.7h11.1l-1.2,5.8c1.3-1.1,2.7-1.9,4.2-2.5,1.5-.6,3.1-.9,4.9-.9,3.1,0,5.4,1,7,3.1s2.4,5.1,2.4,9.1c0,7.9-1.7,14.4-5,19.5s-8,7.7-13.9,7.7-3-.2-4.1-.7c-1.1-.4-1.9-1.1-2.4-2.1l-4,18.8h0ZM315.2,143.3c.2.6.6,1,1.1,1.3.5.3,1.1.4,1.8.4,3.2,0,5.8-2.1,7.8-6.3s3-9,3-14.5-.3-3.7-.9-4.8c-.6-1.1-1.6-1.6-2.9-1.6s-1.9.3-2.9,1-1.8,1.6-2.5,2.7l-4.5,21.6h0Z"/>
            <path class="cls-1" d="M340.8,142.5c0-.7,0-1.4.2-2.3.1-.9.2-1.8.4-2.7l8.3-38.6,11.4-1.6-8.9,41.6c-.1.4-.2.9-.2,1.3,0,.4,0,.8,0,1.2,0,1,.2,1.8.7,2.2.5.4,1.3.7,2.4.7s2.8-.6,4.1-1.9c1.3-1.3,2.2-2.9,2.9-4.9h3.2c-1.6,4.7-3.8,8.2-6.6,10.6-2.8,2.4-6,3.6-9.6,3.6s-4.6-.8-6.1-2.4c-1.5-1.6-2.2-3.9-2.2-6.8h0Z"/>
            <path class="cls-1" d="M389.1,119.4c0,4.3-1.8,8-5.2,11.1-3.5,3.1-7.6,4.9-12.5,5.1,0,.9,0,1.5-.1,2v1.1c0,2.4.4,4,1.2,5,.8,1,2.2,1.5,4.3,1.5s4.6-.5,6.7-1.7c2-1.1,4.3-3.1,7-6.1h2.6c-3,4.8-6.2,8.4-9.7,10.8-3.5,2.3-7.3,3.5-11.5,3.5s-7-1-9-3.1-3-5.1-3-9.2.4-6.1,1.4-9.3c.9-3.3,2.2-6.2,3.7-8.8,1.9-3.1,4.2-5.4,6.8-7,2.7-1.6,5.6-2.3,8.9-2.3s4.9.6,6.4,1.8c1.4,1.2,2.1,3.1,2.1,5.6h0ZM381.2,116.1c-1.8,0-3.5,1.6-5.3,4.7-1.8,3.1-3.1,6.8-4,11.2,3-.2,5.6-1.6,7.8-4.1,2.2-2.5,3.4-5.4,3.4-8.6s-.2-1.9-.4-2.4c-.3-.5-.8-.8-1.5-.8h0Z"/>
          </g>
          <g>
            <path class="cls-1" d="M261.1,212.9h-11.1l10.5-49,11.4-1.6-3.6,17.1h.4c2.9,0,5.4-1.3,7.7-3.9s3.4-5.5,3.4-8.5-.9-4.6-2.7-6.1c-1.8-1.5-4.3-2.2-7.5-2.2-5.4,0-9.9,1.7-13.7,5.2-3.7,3.4-5.6,8-5.6,13.6s0,1.8.2,2.5c.1.7.3,1.4.7,2.1.1.2.2.3.2.4v.2c-2.8,0-4.8-.6-6.2-1.8-1.3-1.2-2-2.9-2-5.3s.9-5.5,2.7-8.2c1.8-2.7,4.2-5,7.4-7,2.6-1.7,5.4-3,8.5-3.9s6.3-1.3,9.4-1.3c5,0,9,1.1,12,3.4s4.4,5.2,4.4,8.9-.7,4.7-2.1,7c-1.4,2.2-3.3,4-5.6,5.3,2.9.6,5.2,1.9,6.7,4.1,1.6,2.2,2.3,4.9,2.3,8.3s-.4,4.9-1.1,7.6c-.7,2.7-1.7,5-3,7.1-1.6,2.5-3.4,4.3-5.6,5.6-2.2,1.3-4.6,1.9-7.2,1.9s-4.3-.5-5.6-1.5c-1.3-1-2-2.4-2-4.3s0-1.3.2-2c.2-.7.4-1.6.8-2.4,1,1,1.9,1.7,2.7,2.1.8.4,1.6.7,2.5.7,2.3,0,4.2-1.3,5.6-4,1.4-2.7,2.1-6,2.1-9.9s-.6-5.7-1.8-7.3-3.1-2.5-5.5-2.5-.9,0-1.6,0c-.7,0-1.3.1-2,.2l-6.3,29.5h.2Z"/>
            <path class="cls-1" d="M304.6,205.8c1.3,0,2.5-.6,3.6-1.7s1.9-2.8,2.6-5l5.2-24.7h11.1l-5.6,26.2c-.1.4-.2.9-.2,1.3,0,.4,0,.8,0,1.2,0,1,.2,1.8.7,2.2.5.4,1.3.7,2.4.7s2.5-.6,3.6-1.8c1.1-1.2,2-2.9,2.6-5h3.2c-1.6,4.7-3.8,8.3-6.4,10.7-2.6,2.4-5.6,3.6-9.1,3.6s-4-.6-5.3-1.9-2.1-3.1-2.3-5.4c-1.5,2.5-3.2,4.3-5,5.5-1.9,1.2-4,1.8-6.4,1.8s-4.6-.8-6.1-2.4c-1.5-1.6-2.2-3.9-2.2-6.8s0-1.4.2-2.3c.1-.9.2-1.8.4-2.7l5.2-24.7h11.1l-5.6,26.2c-.1.4-.2.8-.2,1.1v1c0,1,.2,1.8.6,2.3s1,.8,1.7.8h0Z"/>
            <path class="cls-1" d="M333.4,174.3h2.5l2.3-10.6,11.4-1.6-2.6,12.2h4.6l-.6,3.1h-4.6l-4.9,23.1c-.1.4-.2.9-.2,1.3,0,.4,0,.8,0,1.2,0,1,.2,1.8.7,2.2.5.4,1.3.7,2.4.7s2.8-.6,4.1-1.9c1.3-1.3,2.2-2.9,2.9-4.9h3.2c-1.6,4.7-3.8,8.2-6.6,10.6-2.8,2.4-6,3.6-9.6,3.6s-4.6-.8-6.1-2.4c-1.5-1.6-2.2-3.9-2.2-6.8s0-1.4.2-2.3.2-1.8.4-2.7l4.6-21.7h-2.5l.6-3.1h0Z"/>
            <path class="cls-1" d="M354,174.3h2.5l2.3-10.6,11.4-1.6-2.6,12.2h4.6l-.6,3.1h-4.6l-4.9,23.1c-.1.4-.2.9-.2,1.3,0,.4,0,.8,0,1.2,0,1,.2,1.8.7,2.2.5.4,1.3.7,2.4.7s2.8-.6,4.1-1.9c1.3-1.3,2.2-2.9,2.9-4.9h3.2c-1.6,4.7-3.8,8.2-6.6,10.6-2.8,2.4-6,3.6-9.6,3.6s-4.6-.8-6.1-2.4c-1.5-1.6-2.2-3.9-2.2-6.8s0-1.4.2-2.3.2-1.8.4-2.7l4.6-21.7h-2.5l.6-3.1h0Z"/>
            <path class="cls-1" d="M399.8,181c0,4.3-1.8,8-5.2,11.1-3.5,3.1-7.6,4.9-12.5,5.1,0,.9,0,1.5-.1,2v1.1c0,2.4.4,4,1.2,5,.8,1,2.2,1.5,4.3,1.5s4.6-.5,6.7-1.7c2-1.1,4.3-3.1,7-6.1h2.6c-3,4.8-6.2,8.4-9.7,10.8-3.5,2.3-7.3,3.5-11.5,3.5s-7-1-9-3.1-3-5.1-3-9.2.4-6.1,1.4-9.3,2.2-6.2,3.7-8.8c1.9-3.1,4.2-5.4,6.8-7,2.7-1.6,5.6-2.3,8.9-2.3s4.9.6,6.4,1.8c1.4,1.2,2.1,3.1,2.1,5.6h0ZM391.9,177.7c-1.8,0-3.5,1.6-5.3,4.7-1.8,3.1-3.1,6.8-4,11.2,3-.2,5.6-1.6,7.8-4.1,2.2-2.5,3.4-5.4,3.4-8.6s-.2-1.9-.4-2.4c-.3-.5-.8-.8-1.5-.8h0Z"/>
            <path class="cls-1" d="M409.3,212.9h-11.1l8.2-38.5h11.1l-1,4.8c2.2-1.9,4-3.2,5.4-3.8,1.3-.7,2.6-1,4-1s2.9.6,3.8,1.7,1.5,2.5,1.5,4.1-.5,2.9-1.6,4c-1,1.1-2.4,1.6-4,1.6s-1.6-.2-2-.6-.8-1.3-1-2.5c-.2-.8-.3-1.3-.5-1.6s-.5-.3-.9-.3c-.9,0-1.7.2-2.5.5s-1.8,1.1-3.1,2.4l-6.2,29.3h0Z"/>
            <path class="cls-1" d="M450.7,155.1c2.5,0,4.7.8,6.4,2.4,1.8,1.6,2.7,3.6,2.7,5.9s0,1.2,0,1.7,0,1-.2,1.5h-3.6c.1-.8.2-1.3.2-1.5v-.6c0-.8-.3-1.5-.8-1.9s-1.2-.7-2.1-.7-2.4.5-3.4,1.6c-.9,1.1-1.6,2.7-2,4.7l-1.3,6.1h5.6l-.5,3.1h-5.7l-8.9,41.6c-.9,4.4-2.5,7.6-4.9,9.8-2.3,2.2-5.3,3.3-9,3.3s-4.7-.8-6.4-2.4c-1.8-1.6-2.7-3.6-2.7-5.9s.9-4.9,2.7-6.5,5.3-3.4,10.6-5l9.3-44c.9-4.3,2.6-7.6,4.9-9.8,2.4-2.2,5.4-3.3,9.1-3.3h0ZM426.8,214.8c-3,1-5.2,2.1-6.5,3.4-1.3,1.3-2,2.8-2,4.5s.3,1.2,1,1.7,1.3.8,2.1.8,1.8-.5,2.6-1.6,1.3-2.5,1.8-4.5l1-4.5h0Z"/>
            <path class="cls-1" d="M450.1,204.1c0-.7,0-1.4.2-2.3s.2-1.8.4-2.7l8.3-38.6,11.4-1.6-8.9,41.6c-.1.4-.2.9-.2,1.3,0,.4,0,.8,0,1.2,0,1,.2,1.8.7,2.2.5.4,1.3.7,2.4.7s2.8-.6,4.1-1.9c1.3-1.3,2.2-2.9,2.9-4.9h3.2c-1.6,4.7-3.8,8.2-6.6,10.6-2.8,2.4-6,3.6-9.6,3.6s-4.6-.8-6.1-2.4c-1.5-1.6-2.2-3.9-2.2-6.8h0Z"/>
            <path class="cls-1" d="M484.2,205.8c1.3,0,2.5-.5,3.5-1.6,1-1.1,1.9-2.7,2.5-4.7l5.4-25.2h11.1l-7.6,35.8c2.6-.9,4.6-2.2,6.1-3.9,1.5-1.7,2.7-4,3.7-7.1h3.2c-1.2,3.9-2.9,7-5,9.4s-5,4-8.6,5l-1.1,5.6c-.9,4.3-2.5,7.6-4.9,9.8-2.3,2.2-5.3,3.3-9,3.3s-4.7-.7-6.3-2c-1.6-1.3-2.3-3.1-2.3-5.5s1-4.7,3.1-6.7,5.2-3.5,9.4-4.8l.9-4.2c-1.3,1.4-2.7,2.5-4.2,3.2-1.5.7-3.2,1.1-5,1.1s-4.6-.8-6.1-2.4c-1.5-1.6-2.2-3.9-2.2-6.8s0-1.4.2-2.3.2-1.8.4-2.7l5.2-24.7h11.1l-5.6,26.2c0,.3-.1.6-.2,1,0,.3,0,.7,0,1,0,1.1.2,1.9.6,2.5.4.6,1,.9,1.7.9h0ZM486.5,217.1c-2.6,1-4.5,2-5.7,3-1.2,1.1-1.8,2.2-1.8,3.5s.2,1.3.8,1.8c.5.5,1.1.8,1.8.8s1.7-.6,2.5-1.8,1.5-2.9,1.9-5l.4-2.2h0Z"/>
          </g>
        </g>
      </g>
    </g>
  </g>
</svg>