<?xml version="1.0" encoding="UTF-8"?>
<svg xmlns="http://www.w3.org/2000/svg" version="1.1" viewBox="0 0 805 206.1">
  <defs>
    <style>
      .cls-1 {
        fill: #77509f;
      }
    </style>
  </defs>
  <!-- Generator: Adobe Illustrator 28.7.1, SVG Export Plug-In . SVG Version: 1.2.0 Build 142)  -->
  <g>
    <g id="Layer_1">
      <g id="Layer_1-2" data-name="Layer_1">
        <g id="Layer_1-2">
          <g>
            <path class="cls-1" d="M240.3,169.9c-9.3-4-19.2-5.6-29.2-6.9-9.4-1.2-18.8-2.1-28.4-3.2,1-2.5,2.4-2,4-1.7,2.8.6,5.8,1.4,8.6,1,18.7-2.7,31.8-12.9,38.6-30.5,4.9-13-1.8-22.8-15.6-23.6-4.2-.3-8.4,0-12.8,0,.1-1.6.2-2.7.3-3.8.7-10.2-.1-11.3-9.7-14.4-1.9-.6-3.7-1.1-5.6-1.5-22-5-44.4-5.3-66.8-4.3-12.5.6-25.1,1.8-37.3,5.4.2-.5.5-.9.7-1.3.5-1,.9-2,2.2-2.1.5,0,.9-.5,1-1,.4-1.3,1.5-1.9,2.4-2.5,6.2-4.3,12.6-8.2,19.8-10.7,2.8-1,5.6-1.8,8.5-1.7,2,0,2.3.6,1.4,2.4-1.3,2.4-3.2,3.7-5.9,3.6-1,0-1.9,0-2.8.4-.7.3-1.3.8-1.2,1.6,0,.8.7,1.1,1.4,1.3,2.4.6,4.6,0,6.5-1.6,2.3-1.8,3.6-4.3,4.7-6.9.3-.7,0-1-.5-1.4-1.6-1.4-3.4-1.6-5.4-1.4-3.7.4-7,1.8-10.2,3.5-6.1,3-11.7,6.8-17.2,10.7-.5.4-1,1-1.7.7-.2-.2,0-.4,0-.6,5.2-8,10.9-15.7,18.5-21.7,1.8-1.5,3.7-2.8,6-3.5,1.6-.5,1.9-.2,1.7,1.5-.3,3-1.8,5-4.6,6-1,.4-2,.8-2.6,1.7-.4.5-.6,1-.3,1.6.3.7.9.7,1.5.7,1.6,0,3-.8,4.1-1.9,3-2.9,3.7-6.6,3.8-10.4,0-.7-.6-.9-1.1-1-1.6-.5-3.1-.2-4.6.5-2.9,1.3-5.2,3.4-7.4,5.6-5.7,5.8-10.3,12.3-14.7,19.2-1,1.6-2.1,3-3.9,3.8-1.1.5-2.1,1.3-3.1,2.2-.3-.8.3-1.2.6-1.7,6-9.1,10.9-18.7,14.1-29.1,3.1-10,4.3-20.2,2.3-30.7-1.5-7.6-4.6-14.5-9.3-20.7-1.1-1.4-1.9-1.5-3.1,0-1.5,1.7-2.4,3.7-3.3,5.7-3.3,7.5-5.8,15.3-8.5,22.9-1.7,4.7-3.3,9.3-5.7,13.7s-2.6,4.4-4.9,6c-.5-1.9-.9-3.5-1.3-5.2-4.5-16.1-13.1-29.7-25.8-40.6-1.4-1.2-2.8-2.2-4.3-3.1C32.1-.4,30.4,0,29.1,2.1c-.7,1.1-1,2.4-1.1,3.7-.5,4.1.6,7.8,2,11.6,1.2,3.1,2.3,6.3,3.4,9.4.6,1.6,1,3.3,1.1,5,.2,3.3-.7,6.1-3.3,8.3-2.9,2.4-5.7,4.7-8.6,7.1-2,1.7-3.7,3.5-5,5.7-2.7,4.7-2.6,9.3.4,13.8,3.4,5.1,8.1,8.5,13.2,11.6,1.9,1.2,3.8,2.2,5.9,3.4-1.6.3-3,.2-4.3.6-3.9,1.2-6.4,3.8-8.5,7-1.7,2.5-2.9,5.3-4,8-2.4,5.7-6.3,10.1-12.3,12.2-2.5.9-5.1,1.2-8.1.8,1.7,1.8,3.4,3,5.1,4,2.1,1.2,4.3,2.1,6.6,2.6,1.2.3,6.4.9,7,.9,4,0,7.8-1,11.6-2.1,0,0,.2,0,.6.1-4.4,3.9-9.4,6.1-15.3,6.9,1,3.1,3.1,4.9,5.7,6.2,2.7,1.4,5.6,1.6,8.5,1.4,3.2,0,8.9-2.2,10.3-2.7,7-2.4,13.4-5.7,18.4-11.3,1.5-1.7,2.8-3.4,3.6-5.5,2-5.1,5.3-9.1,9.3-12.7.8-.7,1.4-1.6,2.4-2,0,.8-.5,1.1-.8,1.6-4.7,6.4-9.2,12.9-12.3,20.3-1.3,3.1-2.3,6.2-2.3,9.5s.4,3.6,1.5,5.1c1.2,1.6,1.5,1.6,2.8.2,1.8-1.9,2.6-4.2,2.5-6.7,0-3.1.4-6,1.2-8.9,1.8-6.6,4.3-13,7.7-18.9.3-.5.5-.9.8-1.2,0,1.5.3,3.1.5,5.1,2.7,20.8,9.5,40,23.2,57.3-7.7.7-14.4,1.2-21.1,2-12.6,1.5-25.3,2.9-37.2,7.6-3,1.2-7,2.2-6.8,6.1.2,3.8,4.1,4.9,7.1,5.9,8.7,3.1,17.6,5.1,26.9,6.3,34.4,4.2,68.8,4.8,103.4,3.7,9.1-.3,17.7-3.1,26.8-3,14.6.2,28.6-2.7,42.3-7.5,2.7-1,5.9-2.2,6-5.5.1-3.5-3.3-4.5-5.9-5.6h.1l.2.4ZM201.6,122c.9-3.8,3-5.5,6.6-5.9,5.5-.5,12.1-2.1,15.6,3.1,3.6,5.4-.5,10.7-4,15.1-5.7,7-12.7,12.3-21.7,14.3s-4.5.9-7.1-.7c4.7-8.4,8.5-16.9,10.7-25.9h-.1ZM30.7,72.5c-3.7-3.9-4.5-8.4-2.6-13.4.9-2.2,2.1-4.1,3.7-5.8,2.2-2.3,3.9-4.9,5.1-7.9,2.6-6.7,2.3-13.5.7-20.3-.4-1.7-.9-3.4-1.3-5,8.9,8.8,15.7,19,19.7,31.1-1.7.3-3.2,1-4.6,1.5-.4-.3-.4-.7-.4-1-.8-3.6-1.5-7.2-2.7-10.7-.9-2.7-1.8-5.5-3.6-7.7-.8-.9-1.7-1.5-2.9-1s-1.6,1.6-1.6,2.8c0,2.1,1,3.9,2.6,5.2,4,3.1,6,7.3,7.3,12,.2.7.2,1.1-.5,1.6-4.1,3.2-5.5,7.6-4.8,12.6.7,5.7,3.6,10.1,7.5,14.2.6.6,1.2,1.2,1.8,1.9-6-1-11.6-2.6-16.9-5.3-2.4-1.3-4.7-2.8-6.6-4.8h0ZM25.9,111.5c-2.9.1-5.8,0-8.6-.7,5.4-.7,9.7-3.4,13.5-7.2,1.7-1.7,3.2-3.6,4.6-5.5,1.6-2,3.1-4.2,5-5.9,1.1-1,2.3-1.8,4.3-1.5-1.9,1.6-3.1,3.3-4.1,5.1-1,1.9-1.8,3.9-2.5,5.9-.7,2.1-1.5,4.2-2.1,6.4-.4,1.2-1,1.7-2.2,2-2.6.8-5.2,1.2-7.9,1.3h0ZM63.4,101c-1.4,3.3-3.1,6.3-5.4,9-5.1,6-11.2,10.3-19.4,10.8-2.1.2-4.1.3-6.5-.5.7-.2,1-.3,1.3-.4,5-1.2,8.6-4.2,11.2-8.5,2-3.3,3.1-6.9,3.8-10.6.3-1.5.7-3,1.5-4.3,2.4-4.2,7.8-5.4,11.7-2.5,2.4,1.8,3.1,4.1,1.9,6.9h0ZM74.1,96.4c0-.3.2-.7.6-.5,0,.3,0,.5-.6.5ZM69.2,83.4c-1.4,1.8-2.2,2-4.2,1-.6-.3-1.2-.7-1.7-1.2-2.7-2.8-5.1-5.7-6.6-9.2-2.1-5-1.2-9.6,2.6-13.4,2.9-2.9,6.4-4.9,10.2-6.2,3.2-1.1,5.3-3.2,6.8-6,4-7.4,6.6-15.2,8-23.4.2-.8.2-1.5,1.1-2,.2.2.3.3.3.4,0,.4.2.8.3,1.1,1.8,6.7,1.9,13.6.8,20.4-2.5,14.4-9,27-17.6,38.6h0ZM85.7,101.5c-.6-4.2,2.7-5.2,5.6-6.2,10.7-3.7,21.9-4.2,33-4.9,5.4-.4,10.8,0,16.2,0,16.7-.6,33.1,1.6,49.4,5.3,4.7,1.1,6.4,3.4,5.6,8.1-2.9,16-7.5,31-17.9,44.3-17.2,21.8-46,25.3-67,6.7-15.8-14.1-21.9-33-24.8-53.2h-.1ZM220.2,178.3c-13.5,4.5-27.6,5.5-41.6,6.4-35.1,2.3-70.2,2.1-105.1-3.1-5.7-.9-11.4-2.1-16.7-4.3-1.7-.7-3.9-1.5-3.9-3.8s2.2-3,4-3.7c12.2-4.7,25.1-5.3,37.9-7,5.7-.8,8.9,1.5,12.2,5.6-7.2,1.8-14.6,1.1-21.3,4.6,2.1,3.6,5.7,3.4,8.6,3.8,30.4,3.7,60.8,3.7,91.2,0,2.9-.4,6.1-.6,8.7-3.4-6-4.3-13.2-2.7-19.6-5,2.8-3.9,5.8-6.2,11.2-5.5,11.5,1.4,23,2.3,34.1,5.8,2.8.9,6.9,1.4,6.8,5-.1,3.2-3.9,3.7-6.6,4.6h.1Z"/>
            <path class="cls-1" d="M69.8,191.1c4.4,4,9.7,3.7,14.7,4.5,32.2,5.2,64.5,5,96.8,1.9,9.6-.9,19.9-.4,30.1-7.2-48.2,5.4-94.9,5.4-141.6.9h0Z"/>
            <path class="cls-1" d="M158.6,75.1l-.3.2h.2c0,0,.2-.2.2-.2h0Z"/>
            <path class="cls-1" d="M101.3,105.1c9.1,2,18.3,2.5,27.5,3,17,.8,33.9.3,50.6-2.9,3.5-.7,7.7-.6,9.7-4.8-13.1-9.7-84.6-9.8-97.1.1,2.4,3.7,6,3.9,9.2,4.6h.1Z"/>
            <path class="cls-1" d="M156.3,128c7.5,6.3,8.6,15,4,22.1-1.9,2.9-5,4.3-6.7,7.1,19.9-8.4,26.3-26.7,33-46.1-16.2,3.2-31.7,3.3-47.4,3.8,7.4,2.4,11.7,8.5,17.2,13.1h-.1Z"/>
            <path class="cls-1" d="M113.2,152.5c1.1-.9,0-1.8-.9-2.4-6-11.8-11.3-23.9-10.7-37.5-3.2-.9-6-1.7-9.6-2.7,5,15.1,9.3,29.5,19.4,41.3.5.7,1,2,1.8,1.3h0Z"/>
            <path class="cls-1" d="M43.4,69.2c.3.3.8.7,1.3.3.4-.3.4-.8.2-1.2-2.1-4.1-2.9-8.6-4.9-12.6s-.7-1.8-1.7-1.7c-1,.2-1,1.3-1.1,2.1-.2,1.1,0,2.2,0,3.4,1,3.8,3.3,6.9,6.1,9.7h0Z"/>
            <path class="cls-1" d="M44.2,72.4c-.5-1-1.2-1.3-1.9-1.6-2.9-1.1-5.1-2.9-6.9-5.4-.6-.8-1.3-2-2.4-1.4-1.2.7-.6,2-.2,3,.9,2.4,2.6,3.9,4.9,4.7,2,.8,4.1,1.1,6.5.6h0Z"/>
            <path class="cls-1" d="M85.4,35.4c-.8-.4-1.3.3-1.7.7-1.9,2-2.8,4.4-2.7,7,.6,9.4-2.1,18.1-5.7,26.6-.3.7-.6,1.4-.9,2.1,0,0,.2.2.3.2,3.4-5.8,5.9-11.9,7.9-18.3,1.6-5.1,2.6-10.2,3.1-15.5,0-.4,0-.8,0-1.2,0-.6,0-1.4-.6-1.7h.2Z"/>
            <path class="cls-1" d="M67.9,62.7c0-1-.3-2-.7-2.9-.2-.5-.4-.9-1-1-.7,0-.9.5-1.2.9-1,2.1-1.2,4.2-.8,6.4.6,3.1,1.8,5.8,3.4,8.4.3.4.5,1,1.3.9,0-.2,0-.4,0-.6-1.1-4-.7-8.2-1.2-12.2h.2Z"/>
            <path class="cls-1" d="M61.3,69.2c-.5-.9-1.1-2.2-2.3-1.8-1.3.5-.9,1.9-.8,2.9.6,4,5.3,8,9.5,7.8-3.3-2.5-4.7-5.8-6.5-8.9h.1Z"/>
            <path class="cls-1" d="M78,69.2c0-.3.2-.5.3-.7l-.3-.3c-.3.3-.3.5,0,.9h0Z"/>
          </g>
        </g>
        <g>
          <path class="cls-1" d="M336.5,100.4h-14.5l13.7-64,14.9-2-7.1,33.6c4.7-.4,8.8-3.1,12.3-8.3,3.5-5.1,5.3-10.6,5.3-16.5s-1.1-7.6-3.3-10c-2.2-2.4-5.2-3.6-9.2-3.6-8.2,0-14.6,2.2-19.2,6.5s-6.9,10.3-6.9,17.9.1,2.4.3,3.3c.2,1,.4,1.9.9,2.7.2.3.2.4.3.5v.3c-3.7,0-6.5-.8-8.2-2.3-1.7-1.6-2.6-4.1-2.6-7.4s1.1-6.7,3.4-10c2.2-3.4,5.4-6.3,9.4-9.1,3.4-2.2,7.1-3.9,11-5.2,3.9-1.2,7.7-1.9,11.5-1.9,7.4,0,13.2,1.8,17.4,5.4,4.2,3.6,6.3,8.4,6.3,14.4s-.8,7-2.3,10.5c-1.6,3.4-3.8,6.4-6.6,9-2.7,2.5-5.7,4.4-9.2,5.7-3.4,1.3-7.1,1.9-10.9,1.9h-.5l-6.1,28.7h0Z"/>
          <path class="cls-1" d="M387,91.2c1.8,0,3.3-.7,4.7-2.2,1.4-1.5,2.5-3.7,3.4-6.6l6.8-32.3h14.5l-7.3,34.2c-.2.6-.2,1.2-.3,1.7,0,.5-.1,1-.1,1.5,0,1.3.3,2.3,1,2.9.6.6,1.7.9,3.1.9s3.3-.7,4.7-2.3c1.4-1.5,2.6-3.7,3.4-6.6h4.2c-2.1,6.2-4.9,10.8-8.3,13.9s-7.4,4.7-11.8,4.7-5.2-.8-6.9-2.5-2.8-4-3-7.1c-1.9,3.2-4.2,5.6-6.6,7.2-2.5,1.6-5.2,2.3-8.3,2.3s-6-1.1-7.9-3.1c-1.9-2.1-2.9-5.1-2.9-8.9s0-1.9.2-3,.3-2.3.6-3.6l6.8-32.3h14.5l-7.3,34.2c-.2.5-.2,1-.3,1.4v1.3c0,1.3.3,2.3.7,3s1.3,1.1,2.2,1.1h.1v.2Z"/>
          <path class="cls-1" d="M431.6,100.4h-14.5l10.7-50.3h14.5l-1.3,6.2c2.9-2.5,5.3-4.2,7-5,1.7-.9,3.4-1.3,5.2-1.3s3.7.7,5,2.2,1.9,3.3,1.9,5.4-.7,3.8-2,5.2c-1.3,1.4-3.1,2.1-5.2,2.1s-2-.3-2.7-.8-1.1-1.7-1.3-3.3c-.2-1.1-.4-1.8-.7-2.1s-.6-.4-1.1-.4c-1.1,0-2.2.2-3.2.7s-2.4,1.5-4.1,3.1l-8.1,38.2h0Z"/>
          <path class="cls-1" d="M464.8,121.9l-15.2,3.6,16.8-79.1h14.5l-1.6,7.5c1.7-1.4,3.5-2.5,5.4-3.2s4.1-1.1,6.3-1.1c4,0,7.1,1.3,9.2,4s3.1,6.6,3.1,11.8c0,10.2-2.2,18.7-6.6,25.5s-10.5,10-18.1,10-3.9-.3-5.4-.9c-1.4-.6-2.5-1.5-3.1-2.7l-5.2,24.5h0ZM471.7,90c.3.7.7,1.3,1.4,1.7.7.4,1.5.6,2.4.6,4.2,0,7.6-2.7,10.2-8.2,2.6-5.4,3.9-11.7,3.9-18.9s-.4-4.8-1.2-6.2c-.8-1.4-2.1-2.1-3.8-2.1s-2.5.4-3.7,1.3-2.3,2.1-3.2,3.6l-5.9,28.2h0Z"/>
          <path class="cls-1" d="M505.1,89c0-.9,0-1.9.2-3s.3-2.3.6-3.6l10.8-50.4,14.9-2-11.6,54.3c-.2.6-.2,1.2-.3,1.7,0,.5,0,1,0,1.5,0,1.3.3,2.3,1,2.9.6.6,1.7.9,3.1.9s3.6-.8,5.3-2.5,2.9-3.8,3.7-6.4h4.2c-2.1,6.1-5,10.7-8.6,13.9-3.6,3.1-7.8,4.7-12.5,4.7s-6-1.1-7.9-3.1c-1.9-2.1-2.9-5.1-2.9-8.9h0Z"/>
          <path class="cls-1" d="M568,58.9c0,5.5-2.3,10.4-6.8,14.5s-10,6.3-16.3,6.7c0,1.1,0,2-.2,2.6v1.4c0,3.1.5,5.3,1.5,6.6s2.9,1.9,5.7,1.9,6-.7,8.7-2.2c2.7-1.4,5.7-4.1,9.1-8h3.4c-3.9,6.3-8.1,11-12.7,14-4.5,3-9.6,4.6-15,4.6s-9.1-1.3-11.7-4c-2.7-2.7-3.9-6.7-3.9-12s.6-7.9,1.8-12.2c1.2-4.3,2.8-8.1,4.8-11.5,2.5-4,5.4-7,8.9-9.1,3.5-2,7.3-3,11.6-3s6.5.8,8.3,2.3c1.9,1.6,2.8,4,2.8,7.3h0ZM557.7,54.5c-2.3,0-4.6,2-6.9,6.1-2.3,4.1-4.1,8.9-5.2,14.6,3.9-.3,7.3-2.1,10.2-5.4s4.4-7,4.4-11.2-.2-2.5-.6-3.1c-.4-.7-1-1-1.9-1h0Z"/>
        </g>
        <g>
          <path class="cls-1" d="M403.7,180.8h-14.5l13.7-64,14.9-2-4.7,22.3h.6c3.7,0,7.1-1.7,10-5.1s4.4-7.1,4.4-11.2-1.2-6-3.5-8c-2.3-1.9-5.6-2.9-9.8-2.9-7,0-13,2.2-17.9,6.7s-7.3,10.4-7.3,17.7.1,2.4.3,3.3c.2,1,.4,1.9.9,2.7.2.3.2.4.3.5v.3c-3.6,0-6.3-.7-8.1-2.3-1.8-1.5-2.7-3.8-2.7-6.9s1.2-7.1,3.5-10.7c2.3-3.5,5.5-6.6,9.6-9.2,3.4-2.2,7-3.9,11.1-5.1s8.2-1.8,12.3-1.8c6.6,0,11.8,1.5,15.6,4.4,3.8,2.9,5.8,6.8,5.8,11.6s-.9,6.2-2.7,9.1c-1.8,2.9-4.3,5.2-7.4,6.9,3.8.7,6.8,2.5,8.8,5.4,2,2.8,3,6.5,3,10.8s-.5,6.5-1.4,10c-1,3.5-2.2,6.6-3.9,9.2-2,3.2-4.4,5.7-7.3,7.3-2.8,1.7-6,2.5-9.4,2.5s-5.6-.6-7.4-1.9c-1.8-1.3-2.6-3.1-2.6-5.5s.1-1.7.3-2.7c.2-1,.5-2,1-3.1,1.3,1.3,2.5,2.2,3.5,2.8s2.1.9,3.3.9c3,0,5.4-1.8,7.3-5.2,1.8-3.5,2.7-7.8,2.7-12.9s-.8-7.4-2.4-9.6-4-3.2-7.1-3.2-1.2,0-2.1.1c-.9,0-1.8.2-2.6.2l-8.3,38.5h.3,0Z"/>
          <path class="cls-1" d="M460.4,171.6c1.8,0,3.3-.7,4.7-2.2,1.4-1.5,2.5-3.7,3.4-6.6l6.8-32.3h14.5l-7.3,34.2c-.2.6-.2,1.2-.3,1.7,0,.5-.1,1-.1,1.5,0,1.3.3,2.3,1,2.9.6.6,1.7.9,3.1.9s3.3-.7,4.7-2.3c1.4-1.5,2.6-3.7,3.4-6.6h4.2c-2.1,6.2-4.9,10.8-8.3,13.9s-7.4,4.7-11.8,4.7-5.2-.8-6.9-2.5c-1.8-1.7-2.8-4-3-7.1-1.9,3.2-4.2,5.6-6.6,7.2-2.5,1.6-5.2,2.3-8.3,2.3s-6-1.1-7.9-3.1c-1.9-2.1-2.9-5.1-2.9-8.9s0-1.9.2-3,.3-2.3.6-3.6l6.8-32.3h14.5l-7.3,34.2c-.2.5-.2,1-.3,1.4v1.3c0,1.3.3,2.3.7,3s1.3,1.1,2.2,1.1h.1v.2Z"/>
          <path class="cls-1" d="M498,130.4h3.3l3-13.9,14.9-2-3.4,15.9h6l-.8,4h-6l-6.5,30.1c-.2.6-.2,1.2-.3,1.7,0,.5-.1,1-.1,1.5,0,1.3.3,2.3,1,2.9.6.6,1.7.9,3.1.9s3.6-.8,5.3-2.5,2.9-3.8,3.7-6.4h4.2c-2.1,6.1-5,10.7-8.6,13.9-3.6,3.1-7.8,4.7-12.5,4.7s-6-1.1-7.9-3.1c-1.9-2.1-2.9-5.1-2.9-8.9s0-1.9.2-3,.3-2.3.6-3.6l6-28.3h-3.3l.8-4h.2Z"/>
          <path class="cls-1" d="M524.8,130.4h3.3l3-13.9,14.9-2-3.4,15.9h6l-.8,4h-6l-6.5,30.1c-.2.6-.2,1.2-.3,1.7,0,.5,0,1,0,1.5,0,1.3.3,2.3,1,2.9.6.6,1.7.9,3.1.9s3.6-.8,5.3-2.5,2.9-3.8,3.7-6.4h4.2c-2.1,6.1-5,10.7-8.6,13.9-3.6,3.1-7.8,4.7-12.5,4.7s-6-1.1-7.9-3.1c-1.9-2.1-2.9-5.1-2.9-8.9s0-1.9.2-3,.3-2.3.6-3.6l6-28.3h-3.3l.8-4h.2Z"/>
          <path class="cls-1" d="M584.5,139.2c0,5.5-2.3,10.4-6.8,14.5s-10,6.3-16.3,6.7c0,1.1,0,2-.2,2.6v1.4c0,3.1.5,5.3,1.5,6.6s2.9,1.9,5.7,1.9,6-.7,8.7-2.2c2.7-1.4,5.7-4.1,9.1-8h3.4c-3.9,6.3-8.1,11-12.7,14-4.5,3-9.6,4.6-15,4.6s-9.1-1.3-11.7-4c-2.7-2.7-3.9-6.7-3.9-12s.6-7.9,1.8-12.2,2.8-8.1,4.8-11.5c2.5-4,5.4-7,8.9-9.1,3.5-2,7.3-3,11.6-3s6.5.8,8.3,2.3c1.9,1.6,2.8,4,2.8,7.3h0ZM574.3,134.9c-2.3,0-4.6,2-6.9,6.1-2.3,4.1-4.1,8.9-5.2,14.6,3.9-.3,7.3-2.1,10.2-5.4,2.9-3.3,4.4-7,4.4-11.2s-.2-2.5-.6-3.1c-.4-.7-1-1-1.9-1h0Z"/>
          <path class="cls-1" d="M597,180.8h-14.5l10.7-50.3h14.5l-1.3,6.2c2.9-2.5,5.3-4.2,7-5,1.7-.9,3.4-1.3,5.2-1.3s3.7.7,5,2.2,1.9,3.3,1.9,5.4-.7,3.8-2,5.2-3.1,2.1-5.2,2.1-2-.3-2.7-.8-1.1-1.7-1.3-3.3c-.2-1.1-.4-1.8-.7-2.1s-.6-.4-1.1-.4c-1.1,0-2.2.2-3.2.7s-2.4,1.5-4.1,3.1l-8.1,38.2h-.1Z"/>
          <path class="cls-1" d="M651,105.4c3.3,0,6.1,1,8.4,3.1,2.3,2.1,3.5,4.6,3.5,7.7s0,1.5,0,2.2,0,1.3-.3,1.9h-4.7c.2-1.1.2-1.7.2-2v-.7c0-1.1-.4-1.9-1.1-2.5s-1.6-.9-2.8-.9-3.1.7-4.4,2.1c-1.2,1.4-2.1,3.5-2.7,6.1l-1.7,8h7.4l-.7,4h-7.4l-11.6,54.3c-1.2,5.7-3.3,10-6.3,12.8s-6.9,4.3-11.7,4.3-6.1-1-8.4-3.1c-2.3-2.1-3.5-4.6-3.5-7.7s1.2-6.3,3.5-8.5,6.9-4.4,13.8-6.6l12.2-57.4c1.2-5.7,3.4-9.9,6.5-12.8,3.1-2.9,7-4.3,11.8-4.3h0ZM619.9,183.3c-3.9,1.3-6.7,2.8-8.4,4.4-1.8,1.7-2.6,3.6-2.6,5.9s.4,1.5,1.3,2.2c.9.7,1.8,1.1,2.8,1.1s2.4-.7,3.4-2,1.8-3.3,2.3-5.8l1.3-5.8h0Z"/>
          <path class="cls-1" d="M650.2,169.3c0-.9,0-1.9.2-3s.3-2.3.6-3.6l10.8-50.4,14.9-2-11.6,54.3c-.2.6-.2,1.2-.3,1.7,0,.5,0,1,0,1.5,0,1.3.3,2.3,1,2.9.6.6,1.7.9,3.1.9s3.6-.8,5.3-2.5,2.9-3.8,3.7-6.4h4.2c-2.1,6.1-5,10.7-8.6,13.9-3.6,3.1-7.8,4.7-12.5,4.7s-6-1.1-7.9-3.1c-1.9-2.1-2.9-5.1-2.9-8.9h0Z"/>
          <path class="cls-1" d="M694.7,171.6c1.7,0,3.2-.7,4.5-2.1,1.3-1.4,2.5-3.5,3.3-6.1l7-32.9h14.5l-10,46.7c3.4-1.2,6-2.9,7.9-5.1,1.9-2.2,3.5-5.3,4.8-9.3h4.2c-1.5,5.1-3.7,9.2-6.6,12.3-2.8,3.1-6.6,5.3-11.2,6.6l-1.5,7.3c-1.2,5.7-3.3,9.9-6.3,12.8-3,2.9-6.9,4.3-11.8,4.3s-6.1-.9-8.2-2.6c-2-1.8-3-4.1-3-7.1s1.3-6.2,4.1-8.7,6.8-4.6,12.3-6.3l1.2-5.4c-1.7,1.9-3.5,3.3-5.5,4.2-2,1-4.2,1.4-6.6,1.4s-6-1.1-7.9-3.1c-1.9-2.1-2.9-5.1-2.9-8.9s0-1.9.2-3,.3-2.3.6-3.6l6.8-32.3h14.5l-7.3,34.2c0,.4-.2.8-.2,1.3s0,.9,0,1.3c0,1.4.3,2.5.7,3.3.5.7,1.3,1.2,2.2,1.2h0l.2-.4ZM697.7,186.2c-3.4,1.3-5.8,2.6-7.4,3.9-1.6,1.4-2.4,2.9-2.4,4.6s.3,1.7,1,2.3c.7.7,1.5,1,2.4,1s2.2-.8,3.3-2.4,1.9-3.8,2.5-6.6l.6-2.9h0Z"/>
        </g>
        <g>
          <path class="cls-1" d="M749.2,185.9l3.5-3.2c-1.6.6-3.4,1.3-3.5,3.2Z"/>
          <path class="cls-1" d="M731.8,149.1c1.3.7,2.6,1.3,4,1.6.7.2,3.9.5,4.3.5,2.4,0,4.8-.6,7.1-1.3h.3c-2.7,2.4-5.7,3.7-9.3,4.2.6,1.9,1.9,3,3.5,3.8s3.4.9,5.2.9,5.4-1.3,6.3-1.7c4.3-1.5,8.2-3.5,11.2-6.9.9-1,1.7-2.1,2.2-3.3,1.2-3.1,3.2-5.5,5.7-7.7.5-.4.8-.9,1.5-1.2,0,.5-.3.7-.5.9-2.9,3.9-5.6,7.9-7.5,12.4-.8,1.9-1.4,3.8-1.4,5.8s.2,2.2.9,3.1c.7.9.9,1,1.7.1,1.1-1.1,1.6-2.5,1.5-4.1,0-1.9.2-3.6.7-5.4,1.1-4,2.6-7.9,4.7-11.5.2-.3.3-.5.5-.7,0,0,1.4-.5,3.2-1.4,1.7-.9,3.8-5.2,3.8-5.2,0-.3.3-.5.4-.8.3-.6.5-1.2,1.3-1.3.3,0,.5-.3.6-.6.2-.8.9-1.1,1.5-1.5,3.8-2.6,7.7-5,12.1-6.5,1.7-.6,3.4-1.1,5.2-1,1.2,0,1.4.4.8,1.4-.8,1.4-1.9,2.2-3.6,2.2s-1.2,0-1.7.2c-.4.2-.8.5-.7,1,0,.5.4.7.8.8,1.5.3,2.8,0,3.9-.9,1.4-1.1,2.2-2.6,2.8-4.2.2-.4,0-.6-.3-.8-.9-.8-2.1-.9-3.3-.8-2.2.2-4.3,1.1-6.2,2.1-3.7,1.8-7.1,4.1-10.5,6.5-.3.2-.6.6-1,.4v-.3c3.2-4.9,6.7-9.5,11.3-13.2,1.1-.9,2.3-1.7,3.7-2.1,1-.3,1.1-.1,1,.9-.2,1.8-1.1,3-2.8,3.6-.6.2-1.2.5-1.6,1-.2.3-.3.6-.2,1,.2.4.5.4.9.4,1,0,1.8-.5,2.5-1.1,1.8-1.7,2.2-4,2.3-6.4,0-.4-.3-.5-.6-.6-1-.3-1.9,0-2.8.3-1.7.8-3.1,2-4.5,3.4-3.5,3.5-6.3,7.5-9,11.7-.6,1-1.3,1.8-2.4,2.3-.7.3-1.3.8-1.9,1.3-.2-.5.2-.7.4-1,3.7-5.5,6.7-11.4,8.6-17.7,1.9-6.1,2.6-12.3,1.4-18.7-.9-4.6-2.8-8.8-5.7-12.6-.7-.9-1.2-.9-1.9,0-.9,1-1.5,2.2-2,3.5-2,4.6-3.5,9.3-5.2,14-1,2.8-2,5.7-3.5,8.3-.7,1.3-1.6,2.7-3,3.6-.3-1.1-.5-2.1-.8-3.1-2.7-9.8-8-18.1-15.7-24.7-.8-.7-1.7-1.3-2.6-1.9-1.3-.7-2.3-.5-3.1.8-.4.7-.6,1.4-.7,2.2-.3,2.5.3,4.8,1.2,7.1.7,1.9,1.4,3.8,2.1,5.7.3,1,.6,2,.6,3.1,0,2-.4,3.7-2,5.1-1.7,1.5-3.5,2.9-5.2,4.3-1.2,1-2.2,2.1-3,3.5-1.6,2.8-1.6,5.7.2,8.4,2,3.1,5,5.2,8,7.1,1.1.7,2.3,1.3,3.6,2-.9.2-1.8.1-2.6.4-2.4.7-3.9,2.3-5.2,4.3-1,1.5-1.7,3.2-2.4,4.9-1.5,3.5-3.8,6.1-7.5,7.5-1.5.6-3.1.7-4.9.5,1,1.1,2,1.8,3.1,2.4l.2-.3ZM767.3,140.7c-.8,2-1.9,3.9-3.3,5.5-3.1,3.7-6.9,6.3-11.8,6.6-1.3,0-2.5.2-4-.3.4-.1.6-.2.8-.2,3-.7,5.2-2.5,6.8-5.2,1.2-2,1.9-4.2,2.3-6.5.2-.9.4-1.8.9-2.6,1.5-2.6,4.8-3.3,7.2-1.5,1.5,1.1,1.9,2.5,1.2,4.2h-.1ZM773.8,137.9c0-.2,0-.4.3-.3,0,.2,0,.3-.3.3ZM771.1,112.3c2-.6,3.2-1.9,4.1-3.6,2.4-4.5,4-9.3,4.9-14.3,0-.5,0-.9.6-1.2l.2.2c0,.2,0,.5.2.7,1.1,4.1,1.2,8.3.5,12.4-1.5,8.8-5.5,16.4-10.7,23.5h0c-.8,1.1-1.3,1.2-2.5.6-.4-.2-.7-.4-1-.7-1.6-1.7-3.1-3.5-4-5.6-1.3-3-.7-5.8,1.6-8.2,1.7-1.8,3.9-3,6.2-3.8h0ZM747.4,123.3c-2.2-2.4-2.8-5.1-1.6-8.1.5-1.3,1.3-2.5,2.2-3.5,1.3-1.4,2.4-3,3.1-4.8,1.6-4.1,1.4-8.2.4-12.4-.2-1-.5-2-.8-3.1,5.4,5.4,9.6,11.6,12,18.9-1,.2-1.9.6-2.8.9-.2-.2-.2-.4-.2-.6-.5-2.2-.9-4.4-1.6-6.5-.6-1.7-1.1-3.3-2.2-4.7-.5-.6-1-.9-1.8-.6-.7.3-1,.9-.9,1.7,0,1.3.6,2.4,1.6,3.2,2.4,1.9,3.7,4.4,4.5,7.3,0,.4,0,.7-.3,1-2.5,2-3.3,4.6-2.9,7.7.4,3.5,2.2,6.2,4.6,8.6.4.4.7.7,1.1,1.1-3.6-.6-7.1-1.6-10.3-3.2-1.5-.8-2.8-1.7-4-2.9h0ZM747.4,142.3c1-1,1.9-2.2,2.8-3.3,1-1.2,1.9-2.5,3.1-3.6.7-.6,1.4-1.1,2.6-.9-1.1,1-1.9,2-2.5,3.1-.6,1.2-1.1,2.4-1.5,3.6-.4,1.3-.9,2.6-1.3,3.9-.2.7-.6,1-1.3,1.2-1.6.5-3.2.7-4.8.8-1.8,0-3.5,0-5.3-.4,3.3-.4,5.9-2,8.2-4.4h0Z"/>
        </g>
        <rect class="cls-1" x="277.6" width="2.9" height="200"/>
      </g>
    </g>
  </g>
</svg>