<?xml version="1.0" encoding="UTF-8"?>
<svg xmlns="http://www.w3.org/2000/svg" version="1.1" viewBox="0 0 1137.6 206.1">
  <defs>
    <style>
      .cls-1 {
        fill: #6b5100;
      }
    </style>
  </defs>
  <!-- Generator: Adobe Illustrator 28.7.1, SVG Export Plug-In . SVG Version: 1.2.0 Build 142)  -->
  <g>
    <g id="Layer_1">
      <g>
        <path class="cls-1" d="M51,111l.8-2.8h5.2c5.2,0,9.9-.8,14.2-2.3,4.3-1.5,8.1-3.8,11.2-6.9,3.2-3.1,5.6-6.8,7.3-11.2,1.7-4.4,2.6-9.5,2.6-15.2s-1.2-9.9-3.6-12.6c-2.4-2.7-6.1-4-11.1-4s-5.3.7-6.9,2.1c-1.5,1.4-2.9,4.2-4,8.3l-21.5,81.5c-.8,3.2-1.3,5.7-1.5,7.7-.2,2,.6,3.4,2.1,4.3,1.6.9,4.4,1.4,8.5,1.7l-.6,3.2c-3.2-.2-6.9-.3-11.1-.4-4.3,0-8.8,0-13.5,0s-10,0-14.7,0c-4.7,0-8.5.2-11.2.4l.6-3.2c3.6-.2,6.4-.6,8.4-1.3,2-.6,3.6-1.9,4.7-3.8,1.2-1.9,2.2-4.7,3.2-8.5l20.7-78.4c.9-3.3,1.4-5.8,1.4-7.7s-.8-3.3-2.3-4.3c-1.5-.9-4.3-1.5-8.3-1.6l.8-3.2c1.9.1,4.2.2,7,.2,2.7,0,5.6.1,8.6.2,3,0,5.8,0,8.3,0,4.8,0,9.1,0,12.9-.2,3.7-.1,7.3-.2,10.8-.2,12.9,0,22.4,1.8,28.5,5.4,6.2,3.6,9.2,9.1,9.2,16.6s-2.6,13.6-7.7,18.9c-5.1,5.3-12.2,9.5-21.3,12.5-9.1,3-19.6,4.5-31.6,4.5l-6.3.2ZM53.6,108.7c3.1.2,5.6.4,7.7.6s3.8.3,5.4.5c1.5.2,3,.3,4.5.4,4.4.5,8.6,1.2,12.4,1.9,3.8.7,7.1,1.9,9.8,3.4,2.7,1.5,4.7,3.6,5.9,6.2,1.3,2.6,1.6,6.1,1.1,10.3l-2.2,16.3c-.3,3.4-.1,6.1.6,8.1.7,2,2.2,3,4.3,3s3.9-1,5.5-2.9c1.5-1.9,2.9-4.8,4.2-8.5l.8-2.2h3.6l-.6,2.1c-1.9,6.5-4.8,11.4-8.6,14.5-3.8,3.2-9,4.7-15.6,4.7s-12.5-1.7-15.6-5.2c-3.1-3.5-4.3-7.8-3.6-13.1l2.4-18c.5-4.3.4-7.9-.5-10.8-.8-2.9-3-5.1-6.3-6.6-3.4-1.5-8.5-2.2-15.5-2.2l.3-2.4Z"/>
        <path class="cls-1" d="M149.9,158.4c1.7,0,3.5-.9,5.5-2.7,2-1.8,4.1-4.4,6.2-7.8,2.1-3.4,4.2-7.6,6.2-12.6,2-4.9,3.8-10.7,5.5-17.2l-3.5,17.2c-2.6,7.8-5.5,14-8.7,18.6-3.2,4.6-6.5,8-10.1,10-3.6,2-7.3,3-11.2,3-5.9,0-10.3-1.7-13.3-5.2-3-3.5-4.4-8.2-4.4-14.2s1-11.6,2.9-17.9c1.9-6.2,4.6-12.2,7.9-18,3.3-5.8,7.1-11,11.2-15.6,4.2-4.6,8.6-8.3,13.3-11.1,4.7-2.7,9.3-4.1,13.8-4.1s6.2,1.4,8.1,4.1c1.9,2.7,2.5,7,1.7,12.8l-1.7.9c.5-3.8.3-6.7-.6-8.8-.9-2.1-2.4-3.2-4.5-3.2s-4.5,1.2-7,3.6c-2.6,2.4-5.1,5.7-7.7,10-2.5,4.2-4.9,9-7,14.3-2.2,5.3-3.9,10.9-5.1,16.7-1.3,5.8-1.9,11.6-1.9,17.3s.4,6.1,1.1,7.6c.7,1.5,1.8,2.2,3.3,2.2ZM183.4,83.2c4.5-.1,8.6-.3,12.3-.7,3.7-.4,7.2-.9,10.6-1.7l-20.7,70.5c-.3,1.4-.6,2.7-.7,3.9-.2,1.2,0,2.2.5,2.9.5.7,1.3,1.1,2.4,1.1s2.9-.8,4.6-2.4c1.7-1.6,3.4-5,5.2-10l2.8-7.6h3l-3.9,11.5c-1.5,4.3-3.4,7.6-5.7,10s-4.8,4-7.4,4.9c-2.6.9-5.2,1.4-7.7,1.4-5.5,0-9.4-1.6-11.7-4.9-1.6-2.3-2.3-5.2-2.1-8.6.2-3.4.9-7.3,2.1-11.8l16.4-58.5Z"/>
        <path class="cls-1" d="M232.4,96.5c1.8-5.3,1.2-7.9-1.7-7.9s-3.6.9-5.2,2.8c-1.6,1.9-3.2,5.1-4.9,9.6l-3.2,8.1h-3l4.4-12c1.5-4.2,3.3-7.5,5.6-9.8,2.3-2.3,4.8-4,7.6-5,2.8-1,5.7-1.5,8.8-1.5s6.6.7,8.7,2.1c2.1,1.4,3.5,3.1,4.3,5.3.7,2.2,1,4.5.8,7.1-.2,2.6-.7,5.1-1.6,7.7l-16.6,48.3c-.9,2.8-1.2,4.9-.7,6.1.5,1.2,1.4,1.8,2.9,1.8s2.9-.8,4.5-2.4c1.6-1.6,3.4-4.9,5.5-10.1l2.8-7.6h3l-4.1,11.5c-1.5,4.3-3.4,7.6-5.7,10-2.3,2.3-4.8,4-7.5,4.9-2.7.9-5.4,1.4-8.1,1.4-4.5,0-8-1-10.3-3-2.4-2-3.7-4.9-3.9-8.7-.2-3.8.5-8.3,2.2-13.4l15.5-45.3ZM238.4,56.7c.2-4.5,1.9-8,5-10.4,3.1-2.4,6.8-3.6,11.1-3.6s6.9.9,8.9,2.8c2.1,1.8,3,4.4,2.8,7.7-.2,4.1-1.9,7.5-5.1,10-3.2,2.6-7,3.9-11.4,3.9s-6.6-.9-8.6-2.8c-2.1-1.8-3-4.3-2.8-7.5Z"/>
        <path class="cls-1" d="M317.9,84c-3.9,0-7.7,1.7-11.5,5-3.8,3.3-7.2,7.8-10.2,13.4-3,5.6-5.4,11.9-7.2,18.8-1.8,7-2.7,14.1-2.7,21.5s1.1,9.6,3.3,12.1c2.2,2.5,5.1,3.7,8.7,3.7s6.8-1,10.3-3c3.5-2,7-5.6,10.6-10.9l3.2,1.3c-2.1,3.5-4.8,6.8-8.1,10.1-3.3,3.3-7.2,5.9-11.5,8-4.4,2.1-9.3,3.1-14.8,3.1s-13.4-2-18.2-5.9c-4.7-4-7.1-10.1-7.1-18.4s.8-10.6,2.4-16.3c1.6-5.7,4-11.2,7-16.7,3.1-5.4,6.8-10.3,11.2-14.6,4.4-4.3,9.4-7.8,15-10.3,5.6-2.6,11.6-3.9,18.2-3.9s10.5,1.4,14,4.3c3.5,2.9,5.3,6.5,5.3,10.8s-.7,5.6-2.1,8.3c-1.4,2.7-3.2,4.9-5.6,6.6-2.4,1.7-5,2.6-8,2.6s-4.7-.8-6.4-2.4c-1.7-1.6-2.6-3.9-2.6-6.7,0-4.3,1.4-8,4.3-11.1,2.9-3.1,6.2-5.1,10-6.1-.8-1.1-1.9-1.8-3.1-2.4-1.2-.5-2.7-.8-4.5-.8Z"/>
        <path class="cls-1" d="M355.2,130.5c4.3-1.7,8.4-3.6,12.3-5.7,3.9-2.1,7.2-4.4,10-7,4.1-3.7,7.4-8,9.9-12.9,2.5-4.9,3.7-10.2,3.7-15.9s-.2-3.5-.6-4.2c-.4-.7-1.1-1-1.9-1-2.3,0-4.8,1.2-7.5,3.6-2.7,2.4-5.3,5.5-8,9.5-2.6,3.9-5,8.5-7.2,13.5-2.2,5.1-3.9,10.3-5.2,15.8-1.3,5.5-2,10.8-2,16s1.1,9.9,3.4,12.1c2.3,2.2,5.2,3.2,8.8,3.2s6.4-.9,10.6-2.8c4.2-1.9,8.4-5.3,12.5-10.1l2.5,1.3c-2.2,3.5-5.1,6.8-8.7,10.1-3.6,3.3-7.7,5.9-12.5,8-4.7,2.1-9.9,3.1-15.5,3.1s-9-.8-12.7-2.5c-3.7-1.7-6.7-4.2-8.8-7.5-2.2-3.3-3.2-7.4-3.2-12.2s.9-11.3,2.8-17.2c1.8-5.9,4.4-11.6,7.8-17.1,3.4-5.5,7.4-10.5,12.2-15,4.7-4.5,10-8,15.8-10.6,5.8-2.6,12-3.9,18.5-3.9s8.5,1,11.7,3.1c3.2,2.1,4.7,5.2,4.7,9.4s-1.1,8-3.4,11.5c-2.3,3.6-5.3,6.8-9.1,9.8-3.8,3-8,5.6-12.7,7.9-4.7,2.3-9.5,4.3-14.4,6-4.9,1.7-9.5,3-13.8,4l.2-2.1Z"/>
        <path class="cls-1" d="M420.3,162.5c.8.4,1.7.7,2.7.9.9.2,2.1.2,3.5.2,3.9,0,7.1-1.2,9.6-3.6,2.5-2.4,3.7-5.7,3.7-10s-.7-7-2.2-10.7c-1.5-3.6-3.7-7.6-6.6-11.9-2.4-3.8-4.7-7.5-6.7-11.1-2.1-3.6-3.1-7.7-3.1-12.3s1.2-8.5,3.5-12c2.3-3.5,5.6-6.2,9.9-8.2,4.3-2,9.4-3,15.4-3s7.7.5,11.3,1.4c3.6.9,6.7,2.6,9.1,4.9,2.4,2.3,3.6,5.7,3.6,10.1s-.3,3.3-1,5.2c-.7,1.9-1.7,3.5-3.2,4.7-1.4,1.2-3.2,1.8-5.5,1.8s-4.7-1-6.3-2.9c-1.6-1.9-2.4-4.5-2.4-7.7s.5-5.4,1.5-7.7c1-2.3,2.1-4.1,3.4-5.5-1.4-.8-3.2-1.3-5.5-1.3-3.8,0-6.8,1.2-8.9,3.5-2.2,2.3-3.3,5.6-3.4,10,0,2.4.4,4.7,1.3,6.9.8,2.2,2,4.3,3.5,6.6,1.5,2.2,3.1,4.7,4.7,7.4,3.2,5.2,5.5,9.6,7,13.3,1.5,3.7,2.3,7.4,2.3,11.2s-1.2,8.6-3.6,12.2c-2.4,3.6-5.8,6.5-10.3,8.7-4.5,2.2-9.8,3.2-15.9,3.2s-8.6-.6-12.6-1.7c-4-1.2-7.2-3.1-9.7-5.8-2.5-2.7-3.7-6.3-3.7-10.8s.8-5.6,2.3-7.9c1.5-2.3,3.7-3.5,6.6-3.5s5.1,1.2,6.6,3.6,2.4,5.3,2.4,8.8-.4,5.2-1.2,7.4-1.4,4.1-2,5.5Z"/>
        <path class="cls-1" d="M544.3,159.1c1.8,0,3.9-1.2,6.3-3.5,2.4-2.3,5-5.8,7.7-10.3,2.7-4.6,5.4-10.2,7.9-16.9,2.5-6.7,4.8-14.4,6.8-23l-2.4,17.1c-3.5,10.1-6.9,18.5-10.3,25.1-3.4,6.6-7.2,11.5-11.2,14.7-4.1,3.2-8.9,4.7-14.5,4.7s-6.6-.8-9.5-2.4-5.1-4-6.8-7.2c-1.7-3.2-2.5-7.4-2.5-12.6s.8-10.1,2.3-15.9c1.5-5.7,3.8-11.4,6.8-17,3-5.6,6.6-10.7,10.9-15.5,4.3-4.7,9.1-8.5,14.6-11.4,5.5-2.8,11.5-4.3,18-4.3s5.9.8,7.5,2.3c1.6,1.5,2.6,3.7,2.9,6.4l-1.3,3.2c-.4-2.7-1.2-4.8-2.2-6.2-1.1-1.4-2.6-2.1-4.7-2.1s-5.6,1.2-8.5,3.7c-3,2.5-5.8,5.8-8.5,10.1-2.7,4.3-5.1,9.1-7.3,14.5-2.2,5.4-4,11.2-5.2,17.2-1.3,6.1-1.9,12.1-1.9,18.1s.4,6.3,1.2,8.1c.8,1.8,2.1,2.8,3.9,2.8ZM582.2,151.3c-.9,2.5-1.2,4.5-.7,5.8.5,1.4,1.4,2.1,2.9,2.1s2.9-.8,4.5-2.4,3.3-5,5.1-10l2.7-7.6h3l-3.8,11.5c-1.4,4.3-3.2,7.7-5.5,10-2.3,2.4-4.8,4-7.5,4.9-2.7.9-5.3,1.3-7.8,1.3-6.5,0-10.7-2.4-12.5-7.3-.9-2-1.4-4.5-1.3-7.5.1-3,.7-6.5,1.9-10.3l22-82.5c1.1-3.6.9-6.2-.3-7.9-1.3-1.7-4.5-2.5-9.6-2.5l.9-3.3c7.5-.1,14.2-.7,20.1-1.8,5.9-1.1,11.5-2.7,16.9-4.7l-31,112.2Z"/>
        <path class="cls-1" d="M627.4,130.5c4.3-1.7,8.4-3.6,12.3-5.7,3.9-2.1,7.2-4.4,10-7,4.1-3.7,7.4-8,9.9-12.9,2.5-4.9,3.7-10.2,3.7-15.9s-.2-3.5-.6-4.2c-.4-.7-1.1-1-1.9-1-2.3,0-4.8,1.2-7.5,3.6-2.7,2.4-5.3,5.5-8,9.5-2.6,3.9-5,8.5-7.2,13.5-2.2,5.1-3.9,10.3-5.2,15.8-1.3,5.5-2,10.8-2,16s1.1,9.9,3.4,12.1c2.3,2.2,5.2,3.2,8.8,3.2s6.4-.9,10.6-2.8c4.2-1.9,8.4-5.3,12.5-10.1l2.5,1.3c-2.2,3.5-5.1,6.8-8.7,10.1-3.6,3.3-7.7,5.9-12.5,8-4.7,2.1-9.9,3.1-15.5,3.1s-9-.8-12.7-2.5c-3.7-1.7-6.7-4.2-8.8-7.5-2.2-3.3-3.2-7.4-3.2-12.2s.9-11.3,2.8-17.2c1.8-5.9,4.4-11.6,7.8-17.1,3.4-5.5,7.4-10.5,12.2-15,4.7-4.5,10-8,15.8-10.6,5.8-2.6,12-3.9,18.5-3.9s8.5,1,11.7,3.1c3.2,2.1,4.7,5.2,4.7,9.4s-1.1,8-3.4,11.5c-2.3,3.6-5.3,6.8-9.1,9.8-3.8,3-8,5.6-12.7,7.9-4.7,2.3-9.5,4.3-14.4,6-4.9,1.7-9.5,3-13.8,4l.2-2.1Z"/>
        <path class="cls-1" d="M703.3,151.3c-.7,2.7-.8,4.7-.2,6,.6,1.3,1.6,1.9,2.9,1.9s2.6-.8,4.3-2.3c1.7-1.5,3.4-4.9,5.2-10.2l2.8-7.6h3l-4,11.5c-1.5,4.3-3.4,7.6-5.7,10-2.3,2.3-4.8,4-7.4,4.9-2.6.9-5.3,1.4-7.9,1.4s-6.3-.6-8.4-1.8c-2.1-1.2-3.7-2.9-4.7-5.2-1-2.3-1.4-4.9-1.3-8,.2-3.1.8-6.4,1.8-10.1l24.8-82.5c1.1-3.6.9-6.2-.3-7.9-1.3-1.7-4.5-2.5-9.6-2.5l1.1-3.3c7.6-.1,14.2-.7,20-1.8,5.7-1.1,11.3-2.7,16.7-4.7l-33.2,112.2Z"/>
        <path class="cls-1" d="M773.9,142.2c-3.3,4.5-5,8.2-5.1,11-.1,2.8,1.1,4.8,3.5,6.2,2.4,1.3,5.7,2.1,9.8,2.3l-.8,3.2c-4.4-.2-8.2-.3-11.5-.4-3.2,0-6.2,0-9.1,0s-4.4,0-6,0c-1.6,0-3.2.2-4.9.4l.6-3.2c1.9-.5,3.7-1.4,5.3-2.5,1.6-1.2,3.5-2.9,5.5-5.2,2.1-2.3,4.4-5.3,7-9l65.9-92.7c1.4.1,2.8.2,4.2.2s2.7,0,3.9-.2l6.3,99.4c.3,3.8,1.3,6.4,2.9,7.8,1.6,1.4,3.2,2.2,4.8,2.3l-.6,3.2c-2.6-.2-6.1-.3-10.5-.4-4.4,0-8.5,0-12.4,0s-9.2,0-13.4,0c-4.2,0-7.6.2-10.3.4l.6-3.2c5.1-.2,8.7-1.1,10.8-2.8,2.2-1.6,3.1-5.1,2.8-10.5l-3.8-72.7,5.4-5.7-51,72.2ZM788.6,119.2h46.1l-1.3,3.2h-47.7l2.8-3.2Z"/>
        <path class="cls-1" d="M890,151.3c-.7,2.7-.8,4.7-.2,6,.6,1.3,1.6,1.9,2.9,1.9s2.6-.8,4.3-2.3c1.7-1.5,3.4-4.9,5.2-10.2l2.8-7.6h3l-4,11.5c-1.5,4.3-3.4,7.6-5.7,10-2.3,2.3-4.8,4-7.4,4.9-2.6.9-5.3,1.4-7.9,1.4s-6.3-.6-8.4-1.8c-2.1-1.2-3.7-2.9-4.7-5.2-1-2.3-1.4-4.9-1.3-8,.2-3.1.8-6.4,1.8-10.1l24.8-82.5c1.1-3.6.9-6.2-.3-7.9-1.3-1.7-4.5-2.5-9.6-2.5l1.1-3.3c7.6-.1,14.2-.7,20-1.8,5.7-1.1,11.3-2.7,16.7-4.7l-33.2,112.2Z"/>
        <path class="cls-1" d="M939.6,164.7h-22.3l19.3-68.3c.4-1.4.7-2.7.7-3.9,0-1.2,0-2.2-.4-2.9-.3-.7-1.1-1.1-2.4-1.1-1.8,0-3.5.9-5.1,2.8s-3.2,5.1-4.9,9.6l-3,8.1h-3l4.3-12c1.6-4.2,3.5-7.5,5.7-9.8,2.2-2.3,4.7-4,7.4-5,2.7-1,5.5-1.5,8.2-1.5s6.3.7,8.2,2c1.9,1.3,3.2,3.1,3.8,5.3s.8,4.6.6,7.2c-.2,2.6-.6,5.1-1.3,7.7l-16,61.8ZM977.9,99.2c.5-1.8.9-3.4,1.2-4.8.3-1.4.2-2.6,0-3.4-.3-.8-1.1-1.3-2.4-1.3-2.4,0-5,1.4-7.7,4.3-2.7,2.9-5.6,7-8.5,12.2-2.9,5.3-5.8,11.5-8.6,18.8-2.8,7.3-5.5,15.2-8.1,23.9l.8-10.9c4.4-14,8.7-25.2,13-33.6,4.2-8.4,8.7-14.4,13.6-18.1,4.8-3.7,10.3-5.5,16.4-5.5s6.1.6,8,1.9c1.8,1.3,3.1,3,3.7,5.2s.8,4.7.6,7.6c-.3,2.8-.8,5.9-1.7,9.2l-16.9,60h-22.6l19.3-65.6ZM1020,99.2c.9-2.7,1.4-5,1.3-6.8,0-1.8-.8-2.7-2.3-2.7s-4.3,1.2-6.9,3.7c-2.6,2.5-5.3,6.2-8.3,11.2-3,5-6,11.3-9.2,19-3.2,7.6-6.3,16.6-9.5,26.9l.3-8.5c3.8-12,7.4-22,10.8-29.9,3.4-7.9,6.9-14.1,10.4-18.7,3.5-4.6,7.2-7.8,11-9.7s7.8-2.8,12.2-2.8,7.8,1.1,9.8,3.2c2,2.2,3,5,3.1,8.6,0,3.6-.7,7.6-2.1,12l-15.5,46.6c-1.1,3.1-1.3,5.1-.7,6.2.6,1.1,1.5,1.7,2.8,1.7s2.9-.8,4.6-2.3c1.7-1.5,3.5-4.9,5.4-10.2l2.8-7.6h3l-3.9,11.5c-1.5,4.4-3.4,7.8-5.8,10.1-2.4,2.3-4.9,3.9-7.6,4.8-2.7.9-5.3,1.3-8,1.3s-5.6-.5-7.7-1.5c-2.1-1-3.7-2.4-4.9-4.2-1.4-2.1-2-4.8-1.8-8.1.2-3.3,1-7.1,2.4-11.4l14.2-42.7Z"/>
        <path class="cls-1" d="M1077.9,158.4c1.7,0,3.5-.9,5.5-2.7,2-1.8,4.1-4.4,6.2-7.8,2.1-3.4,4.2-7.6,6.2-12.6,2-4.9,3.8-10.7,5.5-17.2l-3.5,17.2c-2.6,7.8-5.5,14-8.7,18.6-3.2,4.6-6.5,8-10.1,10-3.6,2-7.3,3-11.2,3-5.9,0-10.3-1.7-13.3-5.2-3-3.5-4.4-8.2-4.4-14.2s1-11.6,2.9-17.9c1.9-6.2,4.6-12.2,7.9-18,3.3-5.8,7.1-11,11.2-15.6,4.2-4.6,8.6-8.3,13.3-11.1,4.7-2.7,9.3-4.1,13.8-4.1s6.2,1.4,8.1,4.1c1.9,2.7,2.5,7,1.7,12.8l-1.7.9c.5-3.8.3-6.7-.6-8.8-.9-2.1-2.4-3.2-4.5-3.2s-4.5,1.2-7,3.6c-2.6,2.4-5.1,5.7-7.7,10-2.5,4.2-4.9,9-7,14.3-2.2,5.3-3.9,10.9-5.1,16.7-1.3,5.8-1.9,11.6-1.9,17.3s.4,6.1,1.1,7.6c.7,1.5,1.8,2.2,3.3,2.2ZM1111.4,83.2c4.5-.1,8.6-.3,12.3-.7,3.7-.4,7.2-.9,10.6-1.7l-20.7,70.5c-.3,1.4-.6,2.7-.7,3.9-.2,1.2,0,2.2.5,2.9.5.7,1.3,1.1,2.4,1.1s2.9-.8,4.6-2.4c1.7-1.6,3.4-5,5.2-10l2.8-7.6h3l-4,11.5c-1.5,4.3-3.4,7.6-5.7,10s-4.8,4-7.4,4.9c-2.6.9-5.2,1.4-7.7,1.4-5.5,0-9.4-1.6-11.7-4.9-1.6-2.3-2.3-5.2-2.1-8.6.2-3.4.9-7.3,2.1-11.8l16.4-58.5Z"/>
      </g>
    </g>
  </g>
</svg>