<?xml version="1.0" encoding="UTF-8"?>
<svg xmlns="http://www.w3.org/2000/svg" version="1.1" viewBox="0 0 1080 1080">
  <defs>
    <style>
      .cls-1, .cls-2 {
        fill: #f04f44;
      }

      .cls-3 {
        fill: none;
        stroke: #298c43;
        stroke-width: 10px;
      }

      .cls-3, .cls-2 {
        stroke-miterlimit: 10;
      }

      .cls-2 {
        stroke: #f04f44;
        stroke-width: 2px;
      }
    </style>
  </defs>
  <!-- Generator: Adobe Illustrator 28.7.1, SVG Export Plug-In . SVG Version: 1.2.0 Build 142)  -->
  <g>
    <g id="Layer_1">
      <g>
        <g>
          <g>
            <g>
              <path class="cls-3" d="M233.8,887.3s10.4,12.4,45.4,9.6,45.4-21.5,45.4-21.5c0,0-24.6-14.7-47.4-9.6-22.9,5.1-43.5,21.5-43.5,21.5Z"/>
              <path class="cls-3" d="M308.4,793.9s13.3,4.9,21.4,34.6c8.1,29.7-4.2,43.8-4.2,43.8,0,0-19.4-15.9-22-36.2-2.6-20.4,4.8-42.2,4.8-42.2Z"/>
              <path class="cls-3" d="M176.1,809.1s6,14.1,38.3,21.1c32.3,7.1,46.9-6.9,46.9-6.9,0,0-18.1-20-40.1-21.7-22-1.7-45.1,7.4-45.1,7.4Z"/>
              <path class="cls-3" d="M252.4,731.1s12.7,6.5,17.2,36.9c4.5,30.4-9.3,43-9.3,43,0,0-17.4-18-17.6-38.6-.2-20.5,9.7-41.4,9.7-41.4Z"/>
              <path class="cls-3" d="M142.4,663.2s-1.3,8,11,20.4c12.4,12.4,22.8,10.3,22.8,10.3,0,0-2.4-14.1-11.7-21.1s-22.2-9.6-22.2-9.6Z"/>
              <path class="cls-3" d="M184.4,645.3s5.9,5.3,4,22.5c-1.9,17.1-11.2,22-11.2,22,0,0-6.8-12.3-4-23.4,2.8-11.1,11.2-21,11.2-21Z"/>
              <path class="cls-3" d="M149.1,726.4s.5,12.6,23.3,27.5c22.8,14.9,38,8.5,38,8.5,0,0-8.1-20.7-24.5-28.4-16.4-7.8-36.8-7.5-36.8-7.5Z"/>
              <path class="cls-3" d="M220.4,696.2s7.6,6.8,5.2,28.9c-2.5,22.1-14.5,28.3-14.5,28.3,0,0-8.8-15.8-5.1-30.2,3.7-14.3,14.4-27,14.4-27Z"/>
            </g>
            <g>
              <path class="cls-3" d="M872.8,215.6s-9.9-12.9-45-11.6c-35.1,1.3-46.3,19.4-46.3,19.4,0,0,23.9,15.8,47,11.7,23.1-4.1,44.4-19.5,44.4-19.5Z"/>
              <path class="cls-3" d="M794.1,305.7s-13.1-5.5-19.9-35.5,6.1-43.6,6.1-43.6c0,0,18.7,16.7,20.4,37.2,1.7,20.5-6.6,42-6.6,42Z"/>
              <path class="cls-3" d="M926.9,296.3s-5.4-14.3-37.4-22.8c-32-8.5-47.1,4.8-47.1,4.8,0,0,17.2,20.8,39.1,23.4,21.9,2.7,45.4-5.4,45.4-5.4Z"/>
              <path class="cls-3" d="M847.3,370.9s-12.4-7-15.6-37.6c-3.2-30.6,11.2-42.6,11.2-42.6,0,0,16.6,18.8,15.9,39.3-.7,20.5-11.5,40.9-11.5,40.9Z"/>
              <path class="cls-3" d="M954.3,443.5s1.7-7.9-10.1-20.8c-11.8-12.9-22.4-11.3-22.4-11.3,0,0,1.7,14.2,10.7,21.6,9,7.4,21.8,10.5,21.8,10.5Z"/>
              <path class="cls-3" d="M911.5,459.6s-5.7-5.6-3-22.6c2.7-17,12.2-21.5,12.2-21.5,0,0,6.3,12.6,3,23.6-3.3,11-12.1,20.5-12.1,20.5Z"/>
              <path class="cls-3" d="M950.3,380.1s0-12.6-22-28.5c-22.1-15.9-37.6-10.1-37.6-10.1,0,0,7.1,21,23.2,29.5,16.1,8.5,36.5,9.1,36.5,9.1Z"/>
              <path class="cls-3" d="M877.7,407.2s-7.3-7.2-3.9-29.1c3.4-21.9,15.7-27.6,15.7-27.6,0,0,8.1,16.2,3.8,30.4-4.3,14.2-15.6,26.4-15.6,26.4Z"/>
            </g>
          </g>
          <path class="cls-3" d="M827.7,816.2c-72.6,74.9-174.3,121.5-286.8,121.5-220.5,0-399.3-178.8-399.3-399.3s.1-12,.4-17.9"/>
          <path class="cls-3" d="M223.9,295.6c73-95.1,187.8-156.4,317-156.4,220.5,0,399.3,178.8,399.3,399.3s-7.6,89.2-21.6,129.9"/>
        </g>
        <g>
          <path class="cls-3" d="M547.3,347.1s-46.8,9-86.7-12.2c-39.9-21-49.9-66.6-49.9-66.6,0,0,32.6-3.2,59.4,3.7,8.2,1.9,15.9,5,21.9,9.2,22.7,16.2,44.9,49.3,52.5,61.3.4.5.6.9.9,1.3.4.5.6,1,.9,1.4.6,1.2,1,1.8,1,1.8Z"/>
          <path class="cls-3" d="M544.6,342.4c0,.1-.1.3-.1.3-7.6-12.1-29.8-45.2-52.5-61.3-6-4.2-13.7-7.3-21.9-9.2-7.4-27.7.1-53,.1-53,0,0,29.3,12.6,47.7,30.8,5,5,9.2,10.4,11.9,16,12.1,25.5,14.4,67.2,14.6,76.3h.1Z"/>
          <path class="cls-3" d="M560.9,267.7c-18.5,28.5-13.6,61.2-11.2,72.4,1.3-3.6,3.1-8.2,5.5-13.2-2.1,5.6-3.8,10.4-5.3,13.9-.8,1.9-1.4,3.5-1.9,4.5v.3c-.1.5-.3.9-.4,1.2-.3.3-.4.5-.4.5,0,0-.4-.6-1-1.8-.3-.4-.5-.9-.9-1.4-.3-.5-.6-.9-.8-1.5h-.1c-.3-9.2-2.6-50.9-14.6-76.5-2.7-5.6-6.9-11-11.9-16,3.5-33.6,27.1-57.6,27.1-57.6,0,0,24.8,31.9,27.2,61.1-4.1,4.4-7.8,9.1-11.3,14.4Z"/>
          <path class="cls-3" d="M625.2,219.1s-.6,28.1-6.8,54.1c-7.1,2.1-14.2,4.7-21.2,8.5-21.9,11.5-34.8,30.4-42,45.2-2.4,5-4.2,9.6-5.5,13.2-2.4-11.2-7.3-43.9,11.2-72.4,3.5-5.3,7.2-10,11.3-14.4,23-24.5,53-34.3,53-34.3Z"/>
          <path class="cls-3" d="M555.2,326.9c-2.1,5.6-3.8,10.4-5.3,13.9-.1-.3-.1-.4-.3-.6,1.3-3.6,3.1-8.2,5.5-13.2Z"/>
          <path class="cls-3" d="M683.9,269.5s-27.2,45.8-55.3,65.8c-25.9,18.5-81.3,13-81.3,13,0,0,.1-.5.4-1.7.1-.3.3-.6.4-1.2v-.3c.5-1,1.2-2.6,1.9-4.5,1.4-3.5,3.2-8.2,5.3-13.9,7.2-14.8,20-33.6,42-45.2,6.9-3.7,14.1-6.4,21.2-8.5,33.7-9.8,65.6-3.7,65.6-3.7Z"/>
          <path class="cls-3" d="M555.2,326.9c-2.1,5.6-3.8,10.4-5.3,13.9-.8,1.9-1.4,3.5-1.9,4.5.4-1.3,1-3.1,1.7-5.1,1.3-3.6,3.1-8.2,5.5-13.2Z"/>
        </g>
        <g>
          <path class="cls-1" d="M288.3,520.5c-1.9,0-3.8-.1-5.8-.4-2-.3-3.9-.7-5.8-1.4-7.2-2.4-13.1-6.8-17.7-13.1-4.6-6.3-8.3-13.8-11-22.5-2.7-8.6-5-17.7-6.8-27.2-1.8-9.5-3.6-18.6-5.5-27.3-2.7-1.2-5.4-2.6-8-4.1-2.6-1.5-4.8-3.2-6.7-4.9l-1.5,2.6c-16.6,27.7-34.5,49.3-53.6,64.7-19.2,15.4-38.9,22.5-59.3,21.3-5.6-.3-11-2.3-15.9-5.8-5-3.5-7.4-8.5-7.4-15s0-1.7.1-2.6c0-.9.2-1.7.4-2.6,1-4.4,3.8-8.2,8.3-11.2,4.5-3,9-4.5,13.5-4.5,1.9-2.2,4.3-3.3,7.2-3.3s2.7.3,4,1c1.3.7,2.3,1.8,3.2,3.3.7.2,1.6.3,2.8.3s2.6-.2,3.6-.5c1-.3,1.6-.9,1.8-1.8.3-1.2.9-1.8,1.5-1.8s1.1.3,1.3,1c.3.7.5,1.5.5,2.3s-.4,2.3-1.3,3.3c-.9,1-2.5,1.7-4.9,2.1-1.4,0-2.7-.3-3.8-1,.2,1.2.2,2.4.1,3.7,0,1.3-.1,2.6-.1,4v.8c0,1.5.5,2.9,1.4,4.1.9,1.2,1.9,1.5,3,.8.7-.5,1.2-.8,1.7-.8s.4.4-.1,1.3c-1.2,2.2-3.2,3.3-5.9,3.3s-1.4-.2-2.1-.5c-2.1-.9-3.6-2.2-4.7-4-1.1-1.8-1.8-3.5-1.9-5.3-.3-3.2-1.3-5.6-2.8-6.9-1.5-1.4-3-2.2-4.4-2.6-.5,0-.8,0-.8-.3-3.3.7-6.5,2.4-9.8,5-3.3,2.7-5.3,5.7-6.2,9.1-.2.7-.3,1.5-.4,2.3,0,.9-.1,1.6-.1,2.3,0,5.3,2,9.4,5.9,12.3,3.9,2.9,8.6,4.4,13.9,4.4,7.7,0,15.9-2.8,24.5-8.3,8.6-5.6,17.5-13,26.6-22.3,9.1-9.3,18-19.8,26.9-31.3,8.9-11.5,17.5-23.2,25.9-35-1.7-3.6-2.6-7.2-2.6-10.8s.4-4.1,1.3-6.2c1.4-2.1,3.8-3.1,7.2-3.1h1c1.9,0,3.7.6,5.4,1.8,1.7-2.4,3.3-4.7,4.9-7.1,1.5-2.3,3.1-4.6,4.6-6.8,4.8-7.4,10.7-15.4,17.7-24.1,7-8.7,14.6-17,22.8-24.9-7.7-2.6-16-4.5-24.8-5.8-8.8-1.3-17.9-1.9-27.3-1.9s-24.6,1.1-36.8,3.3c-12.2,2.2-23.8,5.6-34.6,10.3-10.9,4.6-20.5,10.4-28.9,17.3-8.4,6.9-14.9,15.1-19.5,24.5-2.1,3.9-3.6,7.8-4.5,11.5-.9,3.8-1.4,7.4-1.4,10.8,0,6.5,1.6,12.2,4.9,17.2l.5.3c1.5.7,3.2,1.2,4.9,1.4,1.7.3,3.2.4,4.6.4s1.6,0,2.3-.1c.7,0,1.4-.2,2.1-.4-.2-.5-.3-1-.4-1.5,0-.5-.1-1-.1-1.5,0-2.1.6-3.5,1.9-4.5,1.3-.9,2.4-1.5,3.5-1.7,1.2-.3,2.3-.8,3.5-1.3,1.1-.5,1.9-1.2,2.4-2.1.9-1.4,1.4-2.7,1.5-4.1.2-1.4.3-2.4.3-3.1,1.2,1.2,2.1,2.8,2.6,4.7.5,2,.8,3.8.8,5.5,0,4.5-1.1,7.7-3.2,9.9s-4.3,3.2-6.5,3.2-3.5-.7-4.9-2.1c-1.9.7-3.8,1-5.9,1s-2.4-.1-3.6-.4c-1.2-.3-2.5-.5-3.8-.6,6.5,7.5,15.5,11.3,26.9,11.3s11.1-.9,16.4-2.8c.2,0,.3,0,.5-.1.2,0,.3-.1.5-.1l.8-.3c8-2.7,14.8-7,20.4-12.8,5.6-5.8,9.8-12.3,12.7-19.4,2.9-7.1,4.4-13.7,4.4-19.9s-1.5-11.3-4.4-15.5c-2.9-4.2-7.6-6.3-14.1-6.3h-.3c-2.4,0-4.6,1.4-6.5,4.2-2,2.8-3,6.6-3.2,11.4-.2,2.2-1.2,5.4-3.1,9.6-1.9,4.2-4.5,7.5-7.7,9.9-2.2,1.7-4.5,2.6-6.7,2.6s-3.5-.6-4.9-1.8c-.3-.3-.5-.7-.5-1s.9-.7,2.8-1c1.9-.3,3.5-1.8,4.7-4.2,1.3-2.5,1.8-4.8,1.4-7.1-.5-7.7.7-13.9,3.7-18.6,3-4.7,7.6-7.1,13.7-7.1h1.9c.6,0,1.2,0,1.9.3,1.9,0,3.6.2,5.1.5,1.5.3,3,.7,4.4,1-1-.9-2-1.9-3-3.2-.9-1.3-1.4-2.9-1.4-4.7s.7-2.7,2.2-3.6c1.5-.9,3-1.3,4.5-1.3s1.6.2,2.3.5c1.2.7,1.8,1.3,1.8,1.8s-.8.7-2.3.5h-.5c-1.4,0-2.1.9-2.1,2.6s.5,3.3,1.4,5.4c.9,2.1,1.8,3.5,2.4,4.4,3.4,2.1,6.1,4.8,8,8.2,1.9,3.4,3,7.1,3.3,11,.5-.9,1.1-1.7,1.8-2.6.7-.9,1.4-1.7,2.1-2.6-1-1.4-1.5-2.8-1.5-4.4s.8-4.2,2.3-6.5c1.5-2.3,3.8-4.3,6.9-6,2.4-1.4,5.5-2.4,9.4-3.2,3.8-.8,7.7-1.2,11.4-1.2s5.6.3,8,.8c2.4.5,4.3,1.4,5.6,2.6,1.2,1.2,1.8,2.1,1.9,2.8,0,.7,0,1.2-.4,1.5-1.7-.3-3.3-.5-4.6-.5-2.1,0-3.8.3-5.1.8-1.9.9-3.3,2.1-4.1,3.6-.9,1.5-1.9,3.3-3.1,5.3-1.2,2-3.4,4-6.7,6-2.7,1.9-6,2.8-9.8,2.8s-5.5-.7-7.7-2.1c-1.9,1.4-3.3,2.8-4.4,4.4-1,1.5-1.8,3.1-2.3,4.6-.7,8.4-3.8,16.9-9.5,25.5-5.6,8.6-13.3,15.6-22.8,20.9,1.5,0,3.2.4,4.9,1.3,1.2-1.2,2.7-1.8,4.6-1.8s4.4,1,6.5,3c2.1,2,3.2,5.1,3.2,9.4s-.3,3.6-.8,5.8c-.5,2.1-1.5,3.9-2.8,5.3-.2-.9-.3-1.9-.3-3.2s-.4-2.6-1.3-4c-.5-.9-1.3-1.6-2.4-2.2-1.1-.6-2.3-1.1-3.5-1.4-1-.3-2.1-1-3.3-1.9-1.2-.9-1.8-2.3-1.8-4.2s0-1.2.1-1.7c0-.4.2-.9.4-1.4-1.5-.5-3.2-.8-4.9-.8h-1.5c-.5,0-1,0-1.5.3-7.9,3.4-16.3,5.1-25.4,5.1s-15.6-1.6-21.6-4.9c1.5,2.2,2.3,4.1,2.3,5.6,0,2.2-1.1,3.9-3.2,5-2.1,1.1-3.9,1.4-5.3.9-.5-.2-.9-.5-1-.9-.2-.4.3-.8,1.5-1.2,1.5-.5,2.3-2.1,2.3-4.9s-.2-3.1-.5-4.7c-.3-1.6-.9-2.8-1.8-3.5l-.3-.3c-4.3-4.3-7.9-8.9-10.8-13.9-2.9-5-4.4-10.7-4.4-17.2s.5-7.1,1.4-11c.9-3.9,2.3-7.9,4.2-11.8,1.9-4.1,4.3-8,7.3-11.5,3-3.6,6.4-6.9,10.1-10-.9.2-1.8.4-3,.6-1.1.3-2.2.4-3.2.4-2.1,0-3.9-.4-5.6-1.3-1.2-.7-2.1-1.7-2.6-3-.5-1.3-.8-2.5-.8-3.7,0-2.2.6-4.1,1.8-5.6.5-.5.9-.8,1.3-.8.5,0,.8.9.8,2.8s1,2.9,3,4c2,1.1,4.2,1.9,6.7,2.3,2.5.4,4.4.5,5.8.1,1.4-.5,2.1-.9,2.3-1,8.7-6,18.7-10.9,30-14.9,11.3-3.9,23.3-6.9,35.9-8.9,12.7-2,25.3-3,38-3s20.1.6,30,1.9c9.9,1.3,19.3,3.2,28.2,5.8,2.4-2.4,4.9-4.7,7.6-6.9,2.7-2.2,5.3-4.3,8.1-6.2,5.6-4.3,11.3-7.2,16.9-8.9,5.6-1.6,10.8-2.4,15.4-2.4s9.1.7,12.4,2.1c3.3,1.4,5.3,3,6,4.9l-1.5,1c-1.4-1.5-3.3-2.8-5.9-3.8s-5.6-1.5-9-1.5-8.8.9-14.1,2.8c-5.3,1.9-11.2,5.2-17.7,10-1.9,1.4-3.8,3-5.8,4.9-2,1.9-4,3.9-6,6.2,13.7,5,24.9,11.8,33.6,20.5,8.7,8.7,13.1,19.4,13.1,32.1s-2.1,15.8-6.2,22.7c-4.1,6.9-9.5,12.9-16.3,17.8-6.8,5-14.2,8.8-22.2,11.5-8,2.7-16.1,4.1-24.1,4.1s-10.3-.7-15.4-2.1l-1-.3c3.6,9.6,7.2,19.5,10.8,29.8s7.5,19.6,11.7,28.1c4.2,8.5,8.8,14.8,13.7,19.1,1.9,1.7,3.8,2.9,5.8,3.6,2,.7,4,1,6,1,3.6,0,7-.9,10.1-2.8,3.2-1.9,5.6-4.4,7.4-7.4,1.8-3.1,2.4-6.2,1.9-9.5l2.3-.3c.7,6-.3,11-2.8,15.1s-6.1,7.2-10.5,9.2c-4.5,2.1-9.2,3.1-14.4,3.1ZM214.6,404c1.2-1.9,2.4-3.7,3.6-5.4,1.2-1.7,2.4-3.4,3.6-5.1-.3-.3-.7-.6-1-.9-.3-.3-.7-.5-1-.6-1-.5-2-.8-2.8-.8-1.4,0-2.2.5-2.6,1.5-.7,1.4-1,2.8-1,4.4s.4,4,1.3,6.9ZM234.7,424c-.7-3.4-1.5-6.6-2.3-9.6-.9-3-1.8-5.8-2.8-8.3l-6.4,10.3c3.1,2.7,6.9,5.3,11.5,7.7ZM259.8,428.9c7.2,0,13.9-.9,20-2.8,9.8-3.1,17.6-7.5,23.5-13.2,5.9-5.7,10.2-11.9,13-18.5,2.7-6.6,4.1-12.7,4.1-18.3,0-10.9-3.6-20.4-10.9-28.2-7.3-7.9-16.7-14.1-28.4-18.7-5.1,6.2-10.5,13.3-16.2,21.3-5.6,8-11.2,16.3-16.6,24.9-5.4,8.6-10.6,16.9-15.5,24.9,2.1,3.6,4.1,7.7,6,12.3,2,4.6,3.9,9.5,5.8,14.6,2.4.7,4.9,1.2,7.4,1.4s5.1.4,7.7.4Z"/>
          <path class="cls-1" d="M319.1,489.2c-4.8,0-8.5-1.8-11-5.5-2.6-3.7-3.8-8.4-3.8-14.2s1.7-13.7,5.1-22.1c1.9-4.6,4.7-9.4,8.5-14.2,3.8-4.9,8.1-9.4,13.1-13.6,5-4.2,10.3-7.6,16-10.3,5.7-2.7,11.6-4,17.6-4s7.8,1.2,9.5,3.6c1.7,2.4,2.6,5.3,2.6,8.7s-.5,6.6-1.5,10l14.4-21.8c1.2-.9,3.8-1.3,8-1.3s6,.3,8.9,1c2.8.7,3.6,1.7,2.4,3.1-1.4,1.7-3.7,4.3-7.1,7.8-3.3,3.5-6.9,7.7-10.8,12.4-3.8,4.8-7.5,9.8-10.9,15.1-1.7,2.9-4.2,7.2-7.6,12.8s-5.9,11-7.8,16.2c-1,3.1-1.5,5.6-1.5,7.4,0,3.6,1.5,5.4,4.6,5.4s4-.6,6.9-1.9c2.9-1.3,5.7-3,8.5-5.3,5.5-4.4,10.3-9.8,14.4-16,4.1-6.2,7.8-11.8,11-16.6.2-.2.4-.3.6-.5.3-.2.7-.3,1.4-.3s1.2.3,1.5.9c.3.6.2,1.3-.5,2.2-4.8,7.2-9.5,13.9-14.1,20.1-4.6,6.2-9.3,11.3-14.1,15-4.8,3.8-10,5.6-15.7,5.6s-8-1.3-10.7-4c-2.7-2.7-4-6.3-4-10.9s.2-4.2.6-6.4c.4-2.2,1-4.3,1.7-6.2-2.7,3.6-6.1,7.5-10.1,11.8-4,4.3-8.3,8-12.7,11-4.5,3.1-8.9,4.6-13.3,4.6ZM321.4,484.3c3.4,0,7.1-1.4,10.9-4.1,3.8-2.7,7.7-6.3,11.7-10.7,3.9-4.4,7.5-9,10.8-14,2.7-4.1,5.4-8.5,8.1-13.1,2.7-4.6,4.9-9.1,6.7-13.6,1.8-4.4,2.7-8.5,2.7-12.1,0-5.5-2-8.2-5.9-8.2s-5.9,1.2-9.5,3.6c-3.6,2.4-7.2,5.5-10.9,9.2-3.7,3.8-7.1,7.8-10.3,12.2-3.2,4.4-5.7,8.6-7.6,12.7-.5,1-1.8,3.5-3.7,7.4-2,3.9-3.8,8.2-5.6,12.8-1.8,4.6-2.7,8.6-2.7,12.1s1.8,5.6,5.4,5.6Z"/>
          <path class="cls-1" d="M414,490.7c-4.6,0-8.5-1.4-11.7-4.2-3.2-2.8-4.7-6.9-4.7-12.2s.5-5.9,1.5-9.5c1.2-3.8,2.6-7.2,4.2-10.4,1.6-3.2,3.7-6.8,6.3-10.9l25.1-37.2c1-.9,2.3-1.4,3.8-1.7,1.5-.3,3.2-.4,4.9-.4s4.4.2,6.2.6c1.7.4,2.4,1.1,2.1,1.9l-25.4,37.7c-.5.7-2.2,3-5,7.1-2.8,4-5.5,8.4-8.1,13.2-3.3,6-4.9,11.1-4.9,15.4s2.1,6.9,6.4,6.9,3-.3,5-.9c2-.6,4.2-1.6,6.8-3,10.8-6,21.8-18.1,33.1-36.4.5-.9,1-1.3,1.4-1.4.4,0,.7-.1.9-.1.9,0,1.4.3,1.7.9.3.6.1,1.3-.4,2.2-6.2,9.4-12.2,17.5-18.1,24.4-5.9,6.8-12.1,11.8-18.6,14.9-4.3,2.1-8.5,3.1-12.6,3.1ZM456.6,394.2c-2.4,0-4.2-.8-5.5-2.3s-1.9-3.3-1.9-5.4c0-3.4,1.2-6.2,3.6-8.2,2.4-2.1,5-3.1,7.7-3.1s4.3.7,5.6,2.2c1.4,1.5,2.1,3.3,2.1,5.5,0,3.3-1.2,5.9-3.6,8.1-2.4,2.1-5,3.2-8,3.2Z"/>
          <path class="cls-1" d="M473.3,490.7c-3.1,0-6.1-.5-9-1.5-3.4-1.2-6.3-3.5-8.6-6.9-2.3-3.4-3.5-7.8-3.5-13.1s.8-8.3,2.3-13.2c1.5-4.9,4.1-10.2,7.7-16,2.1-3.2,4.8-6.9,8.2-10.9,3.4-4,7.4-7.9,11.8-11.7,4.4-3.8,9.1-6.8,14.1-9.2,5-2.4,9.9-3.6,14.9-3.6s10.1,1.2,12.4,3.7c2.3,2.5,3.5,5.4,3.5,8.9s-.5,5.5-1.5,8.2c-1,2.7-2.2,5-3.6,6.9-2.1,2.7-4.1,4.7-6,5.9-2,1.2-3.9,1.8-5.8,1.8s-4-.7-5.3-2.2c-1.3-1.5-1.8-3-1.4-4.5,2.7-.7,5.5-2,8.3-4,2.8-2,5.3-4.1,7.3-6.4,2.1-2.3,3.2-4.3,3.3-6,.3-2.6-.1-4.4-1.4-5.5-1.3-1.1-3-1.7-5-1.7-3.1,0-7.1,1.5-11.9,4.6-4.9,3.1-9.8,7.2-14.8,12.4-5,5.2-9.3,11-13.1,17.3-3.1,5.3-5.7,10.7-7.8,16.3-2.1,5.6-3.2,10.6-3.2,15s.3,4.2,1,6c.7,1.8,1.8,3.2,3.3,4.2,1.4,1,3.2,1.5,5.4,1.5,4.3,0,9.6-1.8,15.9-5.3,6.3-3.5,12.7-8.3,19-14.5,6.3-6.2,11.7-13.3,16.2-21.3.5-.9,1.1-1.3,1.8-1.3s1,.3,1.4.9c.4.6.6,1.2.4,1.9-4.8,8-10.4,15.4-16.7,21.9-6.3,6.6-12.9,11.8-19.8,15.5-6.8,3.8-13.5,5.6-20,5.6Z"/>
          <path class="cls-1" d="M543.4,489.9c-4.4,0-8.6-1.1-12.6-3.2-3.9-2.1-6.8-5.6-8.7-10.4-1.2-3.1-1.8-6.6-1.8-10.5s.9-9.5,2.8-14.1c2.4-5.6,5.9-11.2,10.5-16.7,4.6-5.5,9.8-10.4,15.4-14.9,5.6-4.4,11.3-8,16.9-10.6,5.6-2.7,10.7-4,15.1-4s6.8,1,9,3.1c1.5,1.5,2.3,3.8,2.3,6.7s-1.4,8.1-4.2,13c-2.8,4.9-6.8,9.1-11.9,12.7-3.3,2.2-7.1,4.1-11.4,5.5-4.4,1.5-8.9,2.2-13.7,2.2s-3.1,0-4.7-.3c-1.6-.2-3.2-.4-4.7-.8-1.2,1.4-2.6,3.6-4.2,6.5-1.6,3-3,6.3-4.1,9.9-1.1,3.6-1.7,7-1.7,10.3.2,4.5,1.4,7.6,3.7,9.4s5.1,2.7,8.3,2.7c6.5,0,12.8-2.1,18.9-6.3,6.1-4.2,11.6-9.4,16.6-15.5,5-6.2,9.1-12.1,12.6-17.7.5-.7.9-1.1,1.3-1.2.3,0,.6-.1.8-.1.5,0,1,.3,1.4.8.4.5.5,1.2.1,2.1-2.2,3.6-5.1,7.9-8.6,12.8-3.5,5-7.6,9.7-12.3,14.2-4.7,4.5-10,8.3-15.8,11.2-2.2,1.2-4.7,2.1-7.3,2.6-2.7.5-5.3.8-7.8.8ZM548.7,445c8,0,15.4-2.1,21.9-6.3,6.6-4.2,11.3-9.3,14.2-15.3.9-1.4,1.4-2.7,1.7-3.8.3-1.2.4-2.1.4-2.8,0-2.9-1.6-4.4-4.9-4.4s-4.3.5-6.8,1.5c-2.5,1-4.7,2.2-6.5,3.6-3.3,2.4-6.6,5.3-10.1,8.9-3.5,3.5-6.6,6.9-9.4,10.3-2.7,3.3-4.8,5.9-6.2,7.8.9.2,1.8.3,2.8.4,1,0,2,.1,2.8.1Z"/>
          <path class="cls-1" d="M664.2,445.3c.5,0,.9.3,1.3.8.3.5.3,1.3,0,2.3-8,12.8-17.2,21.9-27.5,27.3-10.3,5.4-20.4,9-30.5,10.9-4.1,1-8.4,1.5-12.8,1.5s-11.3-1.1-16.4-3.3c-5.1-2.2-8.8-5.9-11-11-1-2.6-1.5-5.1-1.5-7.7,0-3.8,1-7.1,3-9.9,2-2.8,4.1-4.8,6.3-6,1.4-.9,2.9-1.4,4.5-1.7,1.6-.3,3.3-.4,5-.4s4.2.3,5.9.8c.5-.9,2.1-3.4,4.6-7.6,2.6-4.2,5.7-9.1,9.5-14.9,3.8-5.7,7.7-11.2,11.8-16.3,4.4-5.5,8.7-10,12.8-13.6,4.1-3.6,7.1-5.6,9-5.9.5-.2,1-.3,1.5-.3h1.3c1.9,0,3.3.4,4.2,1.3.9.9,1.4,1.9,1.4,3.1s-.6,2.4-1.9,3.6c-1.3,1.2-3.1,1.8-5.5,1.8s-5.5.7-8.2,2.2c-2.7,1.5-4.4,3.1-4.9,5-.5,1.5-.8,3.3-.8,5.1,0,3.1.6,6.2,1.7,9.2,1.1,3.1,2.2,6.2,3.2,9.2,1,3.1,2,6.2,2.9,9.5.9,3.3,1.4,6.8,1.4,10.5s-.5,6.9-1.5,10.5c-1.9,7.2-5.4,13-10.5,17.5,6.2-2.1,12.7-5.5,19.8-10.3,7-4.8,13.6-12.1,19.8-21.8.5-.9,1-1.3,1.4-1.4.4,0,.7-.1.9-.1ZM591.6,484.8c2.2,0,4.5-.3,6.9-1,2.4-.7,4.7-1.8,6.9-3.3,3.1-1.9,5.6-4.9,7.7-9,2.1-4.1,3.7-8.6,5-13.5,1.3-4.9,2.2-9.5,2.8-14,.6-4.4.9-8,.9-10.5s-.3-7.2-.9-10.8c-.6-3.6-.8-7.1-.6-10.5-3.8,5.1-8,10.9-12.7,17.2-4.7,6.3-9.3,13.3-13.7,21,2.1,1.2,3.8,2.6,5.3,4.2,1.5,1.6,2.4,4.2,2.9,7.6.2,1.4-.2,2.9-1.2,4.5-.9,1.6-2.7,2.4-5.3,2.4s-2.6-.5-2.6-1.5.5-1.6,1.5-2.3c1.7-1.4,2.6-2.9,2.6-4.6s-.3-2.1-.8-3.1c-1.2-2.2-2.9-3.8-5-4.9-2.1-1-4.4-1.5-6.8-1.5-3.4,0-6.3,1-8.7,3.1-2.1,1.7-3.5,3.6-4.4,5.5-.9,2-1.3,4-1.3,6,0,3.3.9,6.3,2.6,9.1,1.7,2.8,3.8,4.9,6.2,6.3,3.8,2.4,8,3.6,12.6,3.6Z"/>
        </g>
        <g>
          <path class="cls-2" d="M292.5,657.7c-.3,0-.7-.2-1.3-.7-.8-.8-1.2-2.1-1.2-3.8s.6-4.5,1.8-6.2c1.3-1.7,2.8-2.5,4.6-2.5s1.3,0,1.6.3c.6-1.1,1.7-1.9,3.2-2.5-1.7-.4-3.3-.8-5-1.4-1.7-.6-3.2-1.2-4.7-1.8-5.8,5.8-11.8,10.2-17.9,13.2-6.1,3-12.5,4.3-18.9,3.9-2.9-.2-5.6-1.2-8.2-3-2.5-1.8-3.8-4.4-3.8-7.7s0-.9,0-1.3c0-.4.1-.9.2-1.3.4-2,1.7-3.8,3.7-5.3,2-1.5,4-2.4,6.1-2.8.3,0,.7-.1.9-.1h.8c.5,0,.9,0,1.2.1.5.2.9.3,1.2.5.2,0,.3.2.5.3.2,0,.3.2.5.3.9,0,2-.2,3.4-.7,1.4-.6,2-1.3,1.8-2.2v-.4c0-.5.2-.8.7-.8s.8.2,1.1.7c.3.5.4,1,.4,1.6s-.1.8-.4,1.2c-.3.5-.7.9-1.4,1.4-.6.3-1.4.5-2.4.5s-1.3,0-2-.3c.5.6,1,1.4,1.3,2.5.3,1.1.6,2.3.7,3.8,0,.6.2,1.2.7,1.6.4.5,1,.7,1.6.7s.8-.1,1.2-.4c-.8,1.7-2.1,2.5-3.8,2.5s-2.3-.5-3.4-1.4c-1.1-.9-1.8-2.3-2-4,0-1.4-.5-2.6-1.3-3.6-.7-1-1.7-1.5-2.8-1.5s-.9.1-1.4.4h-.1c-2,1.5-3.3,3.4-3.8,5.7,0,.3-.2.7-.2,1.2,0,.4,0,.8,0,1.2,0,2.7,1,4.8,3,6.3,2,1.5,4.4,2.2,7.1,2.2,4.4,0,9.1-1.8,14.1-5.3,5-3.6,10.1-8.1,15.2-13.8-1.1-.8-2.3-1.7-3.4-2.6-1.3-1.1-2.5-2.3-3.6-3.5s-2-2.3-2.9-3.5c-.9-.7-1.7-1.2-2.4-1.4-.7-.3-1.5-.4-2.3-.4,0,.4-.1.9-.4,1.4-.4.9-1,1.4-1.8,1.4-.7,0-1.3,0-1.8,0-.3,0-.5-.1-.8-.1h-.8c-.9,0-1.6.2-2.3.6-.7.4-1.1,1.1-1.3,2.2-.4-.3-.5-.9-.5-1.7s.3-2,.9-3.1c.6-1.1,1-1.8,1.4-2.2.6-.7,1.3-1.2,1.9-1.4.7-.3,1.3-.4,1.9-.4,1.8,0,3,.8,3.4,2.4,1.2,0,2.4.2,3.6.7-.6-1.1-1.2-2.1-1.6-3.2-.5-1.1-.9-2.2-1.3-3.2-1,.2-1.9.3-2.8.5s-1.9.2-2.8.2c-5.2,0-9.3-1.6-12.4-4.9-3.1-3.3-4.6-7.3-4.6-12.2s.3-4.5,1-6.8,1.7-4.8,3.1-7.2c2.7-4.8,6.6-9,11.5-12.6,5-3.6,10.4-6.6,16.3-9,5.9-2.4,11.5-4.2,16.8-5.3-1.8-1.7-4.1-3-6.8-3.9-2.7-1-5.9-1.4-9.6-1.4s-1.4,0-2.2,0c-.7,0-1.5.1-2.2.2-1.3.3-2.6.9-3.9,2-1.3,1.1-2.3,3.1-3,6.1-.7,3-2.1,5.2-4.3,6.8-2.2,1.5-4.3,2.3-6.5,2.3s-2.6-.3-3.3-1.1c-.7-.7-1-1.2-.8-1.6,1.4,0,2.6-.3,3.6-1.1,1-.8,1.5-2.2,1.6-4.1.2-3.8,1.3-6.7,3.2-8.8,2-2.1,4.2-3.2,6.6-3.5-.6-.7-1.1-1.4-1.6-2-.2-.5-.3-.9-.3-1.2,0-1,.4-1.9,1.1-2.8.7-.9,1.5-1.4,2.3-1.6h.3c.4,0,.7.1.7.4s-.2.4-.7,1.1c-.4.4-.4,1.2,0,2.3.5,1.1,1.2,2.1,2,3.1.9,1,1.7,1.6,2.4,1.8.4.4.6.6.5.7h.1c1,0,1.9,0,2.7,0,.8,0,1.6,0,2.4,0,4.1,0,7.7.5,10.7,1.5s5.5,2.4,7.4,4.3c5.3-1,11.4-1.4,18-1.4s8.5.2,12.9.7c4.4.4,8.7,1.1,13,2.1,1.2-1.1,2.4-2.1,3.6-3.1,1.2-1,2.4-1.9,3.6-2.8,3-2.2,5.9-3.8,8.8-4.7,2.9-.9,5.6-1.4,8-1.4s4.5.4,6.2,1.1c1.7.7,2.7,1.6,3,2.7l-1.1.7c-.7-.8-1.7-1.4-3-2-1.3-.5-2.9-.8-4.6-.8s-4.4.5-7,1.4c-2.7.9-5.7,2.6-9,5.1-1.6,1.1-3.3,2.7-5.1,4.6,6.1,1.7,11.6,4,16.6,7,5,3,9.1,6.7,12.1,11.3,3,4.5,4.5,9.9,4.5,16.3s-1.3,11.2-3.8,16.1c-2.5,5-5.9,9.4-10.2,13.4-4.3,3.9-9.2,7.3-14.7,10.1-5.5,2.8-11.4,4.9-17.6,6.4-6.2,1.5-12.3,2.2-18.5,2.2s-3.8,0-5.7-.2c-1.8-.1-3.7-.4-5.5-.7-.4,0-.7,0-1.2,0-.4,0-.9.1-1.3.2-.6.3-1.2.6-1.8.9-.6.3-1,.7-1.2,1.2.6.6.9,1.4.9,2.5s-.4,2.1-1.1,3c-.6.7-1.3,1.2-1.9,1.6-.7.3-1.2.7-1.8.9-.5.2-1.1.5-1.6,1.1-.6.6-.9,1.2-.9,1.9s.1.7.4,1.2c0,0-.1,0-.1,0s0,0-.1,0ZM264.7,616c1.7,0,3.5-.3,5.4-.8-.2-.9-.3-1.7-.4-2.6,0-.8-.1-1.6-.1-2.4,0-4.8,1.4-9.1,4.2-12.7,2.8-3.6,6.5-5.9,11.2-6.8.9-.4,1.6-1,2-1.6.5-.6.8-1.1,1-1.6-1.1-.2-2.1-.8-2.8-1.8-.7-1.1-1.1-2.1-1.1-3.3s.2-2.2.7-3c.4-.8.8-1.5,1.2-2.1.2-.4.3-.9.5-1.4.2-.5.3-1,.3-1.5s-.1-1.2-.3-1.7c-.2-.5-.7-.9-1.4-1.1.4-.3,1-.5,1.6-.5,1,0,1.8.3,2.6.9.7.6,1.3,1.1,1.6,1.5.9,1.1,1.5,2.3,1.8,3.8.3,1.4.5,2.7.5,3.9,0,1.7-.4,3.1-1.3,4.2-.8,1.1-1.8,1.8-2.8,2.1-.2.5-.4,1-.6,1.5-.2.5-.5.9-1,1.4,1.7-.2,3.4-.2,5.1,0,1.8.2,3.6.7,5.5,1.4,3.1-5.7,4.6-11.3,4.6-16.8s-.4-5-1.1-7.3c-.7-2.3-1.9-4.4-3.4-6.1l-4.2.8c-6.9,1.7-12.9,4-18,7-5,3-9.2,6.2-12.4,9.5-3.2,3.3-5.6,6.2-7.1,8.9-.5.9-1,1.8-1.4,2.7-.4.9-.8,1.8-1.1,2.7.4.7,1.2,1.4,2.2,2.2s2,1.2,2.8,1.2.8-.1,1.1-.4c.3-.3.7-.5,1.1-.5.5,0,.8.3.8.8s-.3,1.3-.8,2c-.5.7-1.3,1.1-2.4,1.1s-1.4-.2-2.1-.5c-.8-.3-1.5-1-2-2-.6-1-.9-1.8-1.1-2.4-.9,2.7-1.3,5.4-1.3,8,0,3.9,1.1,7.2,3.2,9.7,2.1,2.5,5.2,3.8,9.3,3.8ZM275.2,613.3c1.1-.4,2.3-1,3.5-1.7,1.2-.7,2.4-1.4,3.6-2.2,3.1-2.1,5.9-4.5,8.4-7.2,2.5-2.7,4.6-5.5,6.4-8.4-.8-.2-1.6-.3-2.4-.5-.8-.1-1.6-.2-2.4-.2-3.4,0-6.4.9-9.1,2.8-2.6,1.9-4.7,4.3-6.1,7.4-1.4,3-2.1,6.3-2,9.9ZM286.4,633.5c4.1-4.6,8.2-9.6,12.2-15,4-5.3,7.9-10.7,11.6-16.1-1.3-1.5-2.7-2.9-4.3-4.1-1.5-1.3-3.2-2.3-4.9-3.1-.3-.2-.5-.3-.7-.4-.2,0-.5-.2-.7-.3-1.8,3.1-3.9,6-6.4,8.8-2.5,2.8-5.4,5.3-8.6,7.4-3.3,2.2-6.4,3.8-9.2,4.9.4,2.7,1.3,5.5,2.7,8.2,1.4,2.8,3.4,5.3,6.1,7.7.3.4.7.7,1.1,1,.4.3.8.6,1.1,1ZM311.7,641.3c6.8,0,13.5-1.2,20.3-3.5,6.8-2.3,13.1-5.5,18.9-9.7,5.8-4.1,10.7-8.9,14.6-14.3,3.9-5.4,6.4-11.3,7.2-17.6.3-1.8.4-3.4.4-4.9,0-5.3-1.3-9.8-3.8-13.5-2.5-3.7-5.8-6.8-10-9.3-4.2-2.5-8.8-4.3-14-5.7-3.2,3.7-6.6,8.1-10.1,13.3-3.5,5.2-7,10.5-10.3,15.9-3.4,5.4-6.5,10.4-9.3,15,1,1.8,1.6,3.5,2,5.3,0,0,.1.2.1.3.3,1.4,1.1,2.8,2.3,4.3,1.2,1.4,2.6,2.1,4.3,2,.3-1.7,1.3-2.7,3.2-3.2.4-.2.8-.3,1.2-.3h1.1c.4,0,.8,0,1.1,0,.3,0,.6.1,1,.2.8,0,1.7,0,2.8-.3,1.1-.3,1.5-1,1.4-2,.2,0,.4.1.7.4.3.3.4.8.4,1.6,0,1.4-.7,2.9-2.1,4.3-1.4,1.5-2.8,2.5-4.1,2.9-.8.3-1.5.4-2.2.4-2.2,0-3.6-.7-4.2-2.2-.2-.3-.3-.7-.3-.9-1,0-2-.2-3.1-.8-1.1-.6-2-1.4-2.7-2.2v1.2c0,3.2-1,6.2-2.9,8.9-1.9,2.7-4.3,4.1-7.1,4.4l-.3-.7c3-.7,5.1-2.3,6.4-4.7,1.3-2.5,1.9-5,1.9-7.8s-.7-6.2-2-9.1l-2,3.2c-3.1,4.9-6.2,9.5-9.5,13.8-3.2,4.3-6.5,8.1-9.9,11.5,2.8,1.3,5.8,2.3,8.9,2.9,3.2.6,6.4.9,9.6.9ZM311.4,600.8l8.4-12.5c2.5-3.9,5.7-8.2,9.6-12.9,3.9-4.7,8-9.2,12.4-13.3-3.7-.8-7.5-1.4-11.4-1.8-3.9-.4-7.7-.6-11.5-.6s-6.4.1-9.3.3c-3,.2-5.8.5-8.4,1,1.2,1.5,2.2,3.2,2.9,5.1.7,1.9,1.1,3.8,1.3,5.9h.1c.9-1.8,2.3-3,4.2-3.7h0c0-1.4.8-2.5,2.2-3.7,1.4-1.1,3.1-1.7,5.2-1.7s2.9.3,4.6,1c1.7.7,3.2,1.5,4.5,2.6,1.3,1.1,2.1,2.3,2.2,3.6v.5c0,.5,0,.9-.2,1.1s-.3.4-.5.5c-.2-.7-.6-1.2-1.2-1.5-.6-.3-1.3-.5-2-.5-1.1,0-2.2.3-3.2.9-.6.4-1.4.8-2.3,1.3-.9.5-2.1.8-3.6.8s-2.4-.3-3.6-1.1c-1.1-.7-1.8-1.7-2.1-2.9-1.4.6-2.5,1.8-3.3,3.6-.5,1.1-.9,2.4-1.1,3.7,0,.2-.1.4-.1.7v1.4c-.7,4.6-2.2,9.4-4.7,14.2l1.7.8c1.8.9,3.4,1.9,4.9,3.1,1.5,1.2,2.9,2.5,4.2,4Z"/>
          <path class="cls-2" d="M388.8,638.1c-2.3,0-4.4-.5-6.4-1.6-2-1.1-3.5-2.9-4.5-5.3-.6-1.6-.9-3.4-.9-5.4s.5-4.9,1.4-7.2c1.2-2.9,3-5.7,5.4-8.6,2.4-2.8,5-5.3,7.9-7.6,2.9-2.3,5.8-4.1,8.7-5.5,2.9-1.4,5.5-2,7.8-2s3.5.5,4.6,1.6c.8.8,1.2,1.9,1.2,3.4s-.7,4.1-2.2,6.6c-1.4,2.5-3.5,4.7-6.1,6.5-1.7,1.1-3.6,2.1-5.9,2.8-2.2.7-4.6,1.1-7,1.1s-1.6,0-2.4-.1c-.8,0-1.6-.2-2.4-.4-.6.7-1.3,1.8-2.2,3.4-.8,1.5-1.5,3.2-2.1,5.1-.6,1.8-.9,3.6-.9,5.3,0,2.3.7,3.9,1.9,4.8s2.6,1.4,4.3,1.4c3.3,0,6.6-1.1,9.7-3.2,3.1-2.1,5.9-4.8,8.5-8,2.5-3.2,4.7-6.2,6.4-9.1.3-.3.5-.5.7-.6.2,0,.3,0,.4,0,.3,0,.5.1.7.4.2.3.2.6,0,1.1-1.1,1.8-2.6,4-4.4,6.6-1.8,2.5-3.9,5-6.3,7.3-2.4,2.3-5.1,4.2-8.1,5.7-1.1.6-2.4,1.1-3.8,1.3-1.4.3-2.7.4-4,.4ZM391.6,615.1c4.1,0,7.9-1.1,11.3-3.2,3.4-2.1,5.8-4.8,7.3-7.8.4-.7.7-1.4.9-2,.1-.6.2-1.1.2-1.4,0-1.5-.8-2.2-2.5-2.2s-2.2.3-3.5.8c-1.3.5-2.4,1.1-3.4,1.8-1.7,1.2-3.4,2.7-5.2,4.5-1.8,1.8-3.4,3.6-4.8,5.3-1.4,1.7-2.5,3-3.2,4,.4,0,.9.2,1.4.2.5,0,1,0,1.4,0Z"/>
          <path class="cls-2" d="M420.6,638.1c-.4,0-.7,0-1.2,0-.4,0-.9-.1-1.3-.2-2.5-.6-4.4-1.8-5.5-3.5-1.1-1.7-1.6-3.8-1.6-6.3s.3-4,.9-6.2c.6-2.2,1.3-4.6,2.2-7,1.5-3.9,3.4-8.1,5.6-12.8,2.2-4.7,4.8-9.5,7.6-14.5,2.8-5,5.9-9.8,9.1-14.4,3.2-4.6,6.5-8.9,9.9-12.6,2-2.3,4.1-4.3,6.1-6.2,2.1-1.8,4.1-3.3,6.1-4.5,3.4-2.1,6.6-3.2,9.5-3.2s3.1.4,4.1,1.2c1,.8,1.5,2.1,1.5,3.9s-.2,2.4-.7,3.9c-.5,1.4-1.3,3.1-2.4,4.9-2.2,3.7-5,7.5-8.5,11.6-3.5,4-7.2,8-11.3,11.8-4,3.8-8.1,7.3-12.2,10.5-4.1,3.2-7.9,5.7-11.5,7.8-1.8,3.2-3.4,6.5-5,10.1-1.6,3.6-2.9,6.9-3.8,10.1-1,3.2-1.4,5.9-1.4,8.2s.3,3.2,1.1,4.2c.7,1.1,1.8,1.6,3.3,1.6s4.2-.9,6.7-2.6c2.5-1.8,5.2-4.1,8-7.2,2.8-3,5.4-6.6,7.8-10.6.4-.5.9-.8,1.3-.8s.5.2.6.5c.1.4.1.7,0,1.1-4.3,6.6-8.5,11.8-12.6,15.6-4.1,3.8-8.2,5.7-12.3,5.7ZM428,599.7c2.8-1.6,6.1-4,9.8-7.2,3.7-3.2,7.5-6.9,11.4-10.9,3.9-4,7.4-8,10.7-11.9s5.9-7.4,7.7-10.4c1-1.6,1.7-2.9,2.1-4.1.4-1.1.7-2.1.7-2.9,0-1.6-.7-2.4-2.1-2.4s-4.3,1.3-7.4,3.8c-2.2,1.8-4.3,3.9-6.2,6.1-1.9,2.2-3.3,3.9-4.1,4.9-4,5.4-7.9,11.2-11.7,17.4-3.8,6.3-7.4,12.1-10.9,17.4Z"/>
        </g>
        <g>
          <path class="cls-1" d="M483.5,850.9c-3.8,0-7.8-1.3-12.2-3.8-4.4-2.6-7.6-5.3-9.6-8.2-2.2-3.3-3.3-6.6-3.3-10s1.2-7.1,3.6-9c-.2-.5-.3-1-.3-1.5v-1.5c0-1.4.2-2.8.5-4.4.3-1.5.9-2.9,1.5-4.1l1-1.8c-6.3,3.2-12.4,5.5-18.1,6.8-5.7,1.3-11.1,1.9-16,1.9-10.3,0-19.5-1.7-27.6-5-8.1-3.3-14.5-8.5-19.2-15.5-4.7-7-7.1-16-7.1-26.9s1.7-16.4,5.1-23.5c3.4-7.1,7.8-13.3,13.1-18.6.9-1.4,1.4-2.9,1.7-4.5.3-1.6.4-3,.4-4.2,0-2.9-.8-5.6-2.3-8.1-1.5-2.5-3.3-3.5-5.1-2.9-.2,0-.3,0-.4.1,0,0-.2.1-.4.1-.9,0-1.3-.3-1.3-1,0-1.2.8-2.1,2.3-2.8,1.7-1.2,3.5-1.8,5.4-1.8s4.4,1.1,5.9,3.2c1.5,2.1,2.3,4.9,2.3,8.3-.3,2.9-1.1,5.6-2.3,8.2,7.2-5.8,15-10.3,23.4-13.3,8.4-3.1,16-4.6,22.8-4.6,11.8,0,20.4,3,25.7,9.1,5.3,6.1,8,13,8,20.7s-1.9,12.3-5.8,18.3c-3.9,6.1-9,11.1-15.4,15-6.4,3.9-13.4,5.9-20.9,5.9s-8.9-.8-13.3-2.3c-.2-.2-.3-.3-.5-.3s-.3,0-.5-.3c-2.7-.9-5.3-2.7-7.6-5.6-2.3-2.9-3.5-6.7-3.5-11.3s.9-8.5,2.7-13.2c1.8-4.7,4.2-7.7,7.3-8.9,1-.3,1.7-.5,2.1-.5.7,0,1.2.1,1.7.4.4.3.7.5.9.6-1.9.9-2.8,2.6-2.8,5.1s.4,2.9,1.2,4.5c.8,1.6,1.6,2.9,2.4,3.7,1.2,1.2,2.4,2.6,3.7,4.1s2.3,3.7,3.2,6.4c.2.7.3,1.3.4,1.9,0,.6.1,1.2.1,1.9,0,2.1-.4,4-1.3,5.9-.9,1.9-2.2,3.3-4.1,4.4,1,.2,2,.3,3,.4.9,0,1.9.1,3,.1,6.8,0,13.1-1.9,18.7-5.6,5.6-3.8,10.2-8.5,13.7-14.1,3.5-5.6,5.3-11.3,5.3-16.9s-1.9-12.8-5.8-17.8c-3.8-5-11-7.6-21.4-7.6s-17.6,1.9-25,5.8c-7.4,3.8-13.9,8.9-19.4,15.3-5.5,6.3-9.7,13.3-12.6,20.9-2.9,7.6-4.4,15.1-4.4,22.5s1.5,13.6,4.5,19.6c3,6.1,7.7,11,14.1,14.8,6.4,3.8,14.8,5.7,25,5.9-2.7-.9-5-2.2-6.8-4-1.8-1.8-2.7-3.8-2.7-6s.8-4.1,2.4-5.1c1.6-1,3.2-1.5,4.7-1.5s1.7.2,2.1.6c.3.4,0,1-1.3,1.7-1.2.7-1.8,2-1.8,3.8s.5,3.3,1.5,4.9c.7,1.2,1.8,2.4,3.5,3.5,1.6,1.1,3.6,1.7,6,1.7h.5c8.2,0,16.5-2,24.9-5.9,8.4-3.9,16.8-9.2,25.2-15.7,8.4-6.5,16.7-13.7,24.9-21.6,8.2-7.9,16.2-15.8,23.9-23.9-1.7.5-3.8.8-6.2.8v.3c-1.9,3.3-5.4,4.9-10.5,4.9s-6.2-.9-9.5-2.6c-3.4-1.9-6.7-5.1-9.9-9.8-3.2-4.6-4.7-8.9-4.7-12.8s0-1.1.1-1.7c0-.6.2-1.2.4-1.7.5-1.5,1.1-2.5,1.8-3,.7-.4,1.2-.6,1.5-.6-.7,3.1.5,5.3,3.5,6.8,3,1.5,5.6,2.2,7.8,2.2s1.1,0,1.7-.1c.6,0,1.2-.1,1.7-.1,1.4,0,2.9.1,4.5.4,1.6.3,3.4.8,5.3,1.7,2.4,1.2,4.4,3,6,5.5,1.6,2.5,2.2,5.1,1.7,7.8,3.9,0,7.5-1.3,10.8-3.8,8.6-9.1,16.7-17.9,24.5-26.6,7.8-8.6,14.8-16.2,21.2-22.7,6.5-6.8,13.6-13.8,21.3-20.8,7.7-7,15.9-13.1,24.6-18.2-3.3-1.9-6.2-3.6-9-5.3-2.7-1.6-5-2.9-6.7-3.7-4.6-2.6-10.9-5.3-18.7-8.3-7.9-3-16.3-5.6-25.4-7.7-9.1-2.1-17.8-3.2-26.2-3.2-12,0-22.1,2.6-30.4,7.8-8.3,5.2-14.5,11.8-18.7,19.6-4.2,7.9-6.3,15.9-6.3,24.1s1.4,12.7,4.2,18.5c2.8,5.8,7.1,10.5,12.8,14,5.7,3.5,12.9,5.3,21.4,5.3h2.4c.8,0,1.5,0,2.2-.3,1.7-.9,3.1-2.1,4.2-3.7,1.1-1.6,1.8-3,2.2-4.2.3-1.4.5-2.6.5-3.6s-.2-2.3-.6-3.3c-.4-1-1.1-1.6-1.9-1.8-.7-.2-1-.5-1-1,0-1,1.2-1.5,3.6-1.5s3.9.6,5,1.9c1.1,1.3,1.7,2.9,1.7,4.7s-.6,4-1.8,5.9c-1.9,2.9-4.5,5-8,6.4,7.9-1.2,14.5-3.6,19.8-7.2,5.3-3.6,9.3-7.8,11.9-12.6,2.6-4.8,4-9.5,4-14.1s-1.8-11.8-5.4-17.5c-3.6-5.6-9.3-9-17.2-10h-2.2c-.8,0-1.6.2-2.4.5-1.5.7-2.9,1.8-4,3.2-1.1,1.5-1.7,2.9-1.7,4.2s.6,2.7,1.8,3.3c.3.2.5.5.5,1s-.4,1-1.3,1c-1.5,0-3.1-1.2-4.6-3.6-.3-1-.5-1.9-.5-2.6s.2-1.3.5-2.3c-.7.3-1.1.7-1.3,1-1.4,1.2-3.8,2.3-7.2,3.3-3.4,1-6.8,1.5-10.3,1.5s-1.6,0-2.3-.1c-.7,0-1.5-.2-2.3-.4-2.2-.5-4.2-1.6-5.8-3.2-1.6-1.6-2.4-3.6-2.4-6s.2-1,.5-1,1,.6,2.6,1.8c.9.5,2,.8,3.3.8,3.6,0,6.7-1.3,9.2-3.8,2.9-3.1,6.2-5.7,10-8,3.8-2.2,7.2-3.3,10.3-3.3s7.3,1.1,9.6,3.2c2.3,2.1,3.9,4.6,4.7,7.3,7.2,1.7,12.6,5.3,16.3,10.6,3.7,5.4,5.5,11.7,5.5,18.9s-1.9,12-5.6,18c-3.8,6-9.2,10.9-16.3,14.8-7.1,3.8-15.9,5.8-26.3,5.8s-20-2-27.2-6c-7.2-4-12.6-9.2-16.2-15.7-3.6-6.4-5.4-13.3-5.4-20.7s1.2-12.1,3.6-18.5c-1.2.5-2.4.9-3.5,1.3-1.1.3-2.4.6-4,.8.2,3.8-1.7,7.5-5.6,11.3-3.9,3.8-9.2,5.6-15.9,5.6s-10.1-.9-15.4-2.8c-5.3-1.9-8.7-4.6-10.3-8.2-.5-1.4-.8-2.4-.8-3.1,0-1.2.3-2,1-2.3,1.2,2.1,3.1,3.1,5.6,3.1s3.8-.5,5.8-1.5c2-1,3.5-2.1,4.7-3.3,1.4-1.4,3-2.9,4.7-4.5,1.8-1.6,4.3-3,7.6-4.2,1.5-.5,3.3-.8,5.4-.8s5.3.6,7.8,1.9c2.5,1.3,4.1,3.4,5,6.3,2.2-.3,4.1-.9,5.6-1.5,1.5-.7,3.2-2.1,4.9-4.1,4.8-9.1,12.3-16.8,22.5-23.1,10.2-6.3,22.9-9.5,38.1-9.5s8,.3,12.2,1c4.2.7,8.4,1.5,12.7,2.6-2.1-2.1-3.1-4.3-3.1-6.7s.7-4,2.1-4.7c1.4-.8,2.7-1.2,3.9-1.2-1,0-1.5,1.3-1.5,3.8s.4,3.7,1.3,5.9c.9,2.2,2.1,3.8,3.8,4.6,8,2.2,15.6,4.9,22.7,8.1,7.1,3.2,12.8,5.9,17.1,8.3,1.4.7,3.7,2,7.1,3.8,3.3,1.9,7.1,3.9,11.2,6.2,5.8-3.2,11.8-5.8,18.1-7.6,6.2-1.8,12.6-2.7,19.1-2.7s11.9,1.7,15.7,5c3.8,3.3,5.6,7,5.6,10.9s-2.1,7.4-6.2,10.5c-4.1,3.1-10.7,4.3-19.8,3.6-1.4-.2-3.3-.8-5.9-1.8-2.6-1-5.5-2.2-8.7-3.6-1.2,1.5-2.6,3.2-4.1,4.9-1.5,1.7-3.1,3.5-4.6,5.4-2.9,3.6-6,8.2-9.2,13.7-3.3,5.6-6.3,11.2-9.2,16.9-2.9,5.7-5.6,10.7-8,15-5.1,9.8-11.9,19.4-20.4,28.9-8.5,9.5-17.9,17.8-28.2,24.9-10.4,7.1-21,11.9-31.9,14.5,4.6.3,8.6.6,11.8.8,3.3.2,6.5.4,9.6.6,3.2.3,5.5.5,7.1.6,1.5.2,3.5.4,6,.6,2.5.3,5.1.4,7.8.4,4.8,0,9.3-.6,13.5-1.9,4.2-1.3,6.3-3.9,6.3-7.8s-.3-3.1-1-4.6l2.3-.5c2.9,4.8,4.4,9.1,4.4,12.8s-2,8.4-5.9,10.8c-3.9,2.4-8.1,3.6-12.6,3.6-6.3,0-12.9-1.1-19.8-3.3-6.8-2.2-14.1-4.4-21.7-6.5-7.6-2.1-15.9-3.2-24.8-3.2l-.8-2.3c.7.2,1.4.3,2.1.4.7,0,1.4.1,2.1.1,5.8,0,11.8-2.1,18-6.2,6.2-4.1,12.2-9.3,18.2-15.7,6-6.3,11.7-13,17.1-19.9,5.4-6.9,10.1-13.2,14.2-18.9.9-1.9,1.9-3.4,3.1-4.6h-33.9c-18.8,21-35.6,37.9-50.4,50.4-14.8,12.6-27.8,22.5-38.9,29.9v.3h-.5v.3c-3.1,1.9-5.6,4.4-7.4,7.4-2.2,3.4-3.2,6.7-2.8,9.8,1-.5,2.2-.8,3.6-.8,2.1,0,4.1.6,6,1.8,2,1.2,3.5,2.7,4.5,4.6,1.4,2.4,2.2,4.6,2.4,6.5.3,2,.5,3.8.6,5.5.2,2.2,1.1,4.6,2.8,7.2,1.7,2.6,3.9,3.4,6.7,2.6,0,.2-.1.6-.4,1.4-.3.8-1.1,1.5-2.4,2.2-1.2.7-2.7,1-4.4,1ZM601.6,716.7c8-9.9,16.3-19.8,24.6-29.5,8.4-9.8,17.2-19.1,26.4-28-2.2-1.2-4.5-2.4-6.8-3.7-2.3-1.3-4.7-2.5-7.1-3.7-9.2,5.1-18.1,11.4-26.6,18.9-8.5,7.4-16.4,15.2-23.9,23.4-7.4,8.1-14.2,15.7-20.4,22.7h33.6ZM674.7,661.5c5,0,8.6-1.1,10.9-3.2,2.3-2.1,3.5-4.4,3.5-6.8s-1.1-5.2-3.3-7.4c-2.2-2.2-5.5-3.3-9.8-3.3s-10.9.8-16.4,2.3c-5.5,1.5-10.9,3.6-16.2,6.2,2.2,1.2,4.4,2.4,6.5,3.5,2.1,1.1,4.2,2.1,6.3,3,4.3-3.9,8.6-7.7,12.8-11.3l1.5,1.8c-.7.9-2,2.2-3.8,4.1-1.9,1.9-4.1,4.3-6.7,7.2,4.3,2.1,7.4,3.3,9.2,3.6.9.2,1.8.3,2.7.4.9,0,1.8.1,2.7.1Z"/>
          <path class="cls-1" d="M640.8,787.3c-.7,0-1.5,0-2.3-.1-.9,0-1.7-.2-2.6-.4-5-1.2-8.5-3.5-10.7-6.8-2.1-3.3-3.2-7.4-3.2-12.2s.6-7.8,1.7-12.2c1.1-4.4,2.5-8.9,4.2-13.7,2.9-7.5,6.5-15.9,10.9-25,4.4-9.1,9.3-18.6,14.9-28.2,5.6-9.7,11.5-19,17.7-28.1,6.2-9.1,12.7-17.3,19.4-24.6,3.9-4.4,7.9-8.5,11.9-12.1,4-3.6,8-6.5,11.9-8.7,6.7-4.1,12.8-6.2,18.5-6.2s6.1.8,8.1,2.4c2,1.6,2.9,4.1,2.9,7.6s-.5,4.7-1.4,7.6c-.9,2.8-2.5,6-4.7,9.6-4.3,7.2-9.8,14.7-16.6,22.6-6.8,7.9-14.1,15.5-21.9,23-7.9,7.4-15.8,14.2-23.7,20.4-8,6.2-15.4,11.2-22.5,15.1-3.4,6.2-6.7,12.7-9.8,19.6-3.1,6.9-5.6,13.5-7.4,19.8-1.9,6.2-2.8,11.6-2.8,16s.7,6.2,2.1,8.2c1.4,2.1,3.5,3.1,6.4,3.1s8.1-1.7,13.1-5.1c5-3.4,10.1-8.1,15.5-14,5.4-5.9,10.5-12.8,15.3-20.7.9-1,1.7-1.5,2.6-1.5s.9.3,1.2,1c.3.7.2,1.4-.1,2.1-8.4,12.8-16.6,23-24.5,30.4-8,7.4-16,11.2-24,11.2ZM655.2,712.3c5.5-3.1,11.8-7.8,19.1-14.1,7.3-6.3,14.7-13.4,22.2-21.2,7.5-7.8,14.5-15.5,20.9-23.2,6.4-7.7,11.4-14.5,15-20.3,1.9-3.1,3.2-5.7,4.1-8,.9-2.2,1.3-4.1,1.3-5.6,0-3.1-1.4-4.6-4.1-4.6s-8.4,2.5-14.4,7.4c-4.3,3.6-8.3,7.6-12.1,11.9-3.8,4.4-6.4,7.6-8,9.6-7.9,10.4-15.5,21.8-22.8,34-7.4,12.2-14.5,23.6-21.3,34Z"/>
          <path class="cls-1" d="M789.4,788.8c-5.1,0-8.8-1.3-11-4-2.2-2.6-3.3-5.8-3.3-9.4s.6-6.3,1.8-9.2c3.1-8,6.8-15.1,11.2-21,4.4-6,8.9-12.7,13.7-20.3,2.7-4.4,4.1-7.8,4.1-10s-1-3.1-3.1-3.1-6.7,1.8-11.8,5.3c-5.1,3.5-10.4,8.5-15.9,15-3.8,4.5-7.8,9.7-12.2,15.7-4.4,6-8.5,11.8-12.4,17.4-3.9,5.6-8.3,12.2-13.1,19.8-1,.3-2.7.6-4.9.9-2.2.3-4.5.4-6.7.4s-2.6,0-3.7-.1c-1.1,0-2.1-.2-2.9-.4,1.7-2.6,4.1-6.1,7.3-10.5,3.2-4.4,6.6-9.3,10.3-14.5,3.7-5.2,7.2-10.3,10.7-15.4,3.4-5,6.4-9.5,9-13.2,2.6-3.8,4.3-6.3,5.1-7.7,3.1-5,4.6-9.1,4.6-12.3s-.9-3.3-2.8-3.3-3.9,1.1-7.2,3.2c-3.3,2.1-7.6,5.8-13.1,10.9-3.6,3.4-7.1,7.3-10.5,11.5-3.4,4.3-6.7,8.6-9.8,12.8-4.8,6.3-9.2,12.4-13.1,18.1-3.9,5.7-7.1,10.4-9.4,14-2.3,3.6-3.6,5.5-3.7,5.6-1.4.5-2.9.9-4.7,1-1.8.2-3.6.3-5.3.3s-3.6,0-5.3-.3c-1.6-.2-2.7-.3-3.2-.5,2.1-2.7,4.8-6.4,8.2-11,3.4-4.6,7.1-9.7,10.9-15.3,3.8-5.6,7.6-11.1,11.3-16.6,3.7-5.5,6.9-10.4,9.6-14.9,2.7-4.4,4.7-7.9,5.9-10.3,2.1-4.6,3.1-7.8,3.1-9.5s-.8-2.8-2.3-2.8-2.3.6-4.4,1.8c-2.2,1.5-4.8,4-7.8,7.3-3,3.3-6,7.1-9.1,11.2-3.1,4.1-5.9,8-8.5,11.8-2.6,3.8-4.5,6.8-5.9,9-.3.2-.8.3-1.3.3s-1.2-.3-1.5-.8c-.3-.5-.4-1.1-.3-1.8,1.2-1.9,3.2-4.7,5.9-8.6,2.7-3.8,5.8-8,9.1-12.4,3.3-4.4,6.5-8.5,9.6-12.2,3.1-3.7,5.6-6.2,7.4-7.6,3.6-2.6,7-3.8,10.3-3.8s5.2,1,6.9,2.9c1.7,2,2.6,4.6,2.6,7.8s-1.1,9.5-3.3,15.1c.9-1.2,2.6-3.1,5.4-5.8,2.7-2.7,5.5-5.3,8.3-7.8s4.7-4.1,5.5-4.6c2.9-1.5,5.7-2.7,8.3-3.3,2.7-.7,5.1-1,7.3-1,4.3,0,7.3,1,9,3.1,1,1,1.5,2.7,1.5,4.9s-.5,4.7-1.5,7.4c-1,2.7-2.2,5.3-3.6,7.7,3.1-3.2,6.3-6.3,9.8-9.2,3.4-2.9,7-5.5,10.8-7.7,3.4-2.1,6.5-3.5,9.4-4.5,2.8-.9,5.3-1.4,7.6-1.4,6.7,0,10,3.4,10,10.3s-.6,5.6-1.9,9c-1.3,3.4-3.4,7-6.3,10.8-3.3,4.3-7.4,9.8-12.4,16.4-5,6.7-9,13.1-11.9,19.2-2.1,4.3-3.1,7.7-3.1,10.3s1.6,5.1,4.9,5.1,6-1.3,10.3-3.8c5.1-3.1,10.7-7.7,16.6-13.9,5.9-6.2,11.5-13.8,16.8-22.8.5-.5,1.2-.8,2.1-.8,1.5,0,1.9,1,1,3.1-4.8,7.9-9.9,15.1-15.3,21.6-5.4,6.5-10.9,11.7-16.6,15.7-5.6,3.9-11.3,5.9-16.9,5.9Z"/>
          <path class="cls-1" d="M843,786.5c-4.8,0-8.5-1.8-11-5.5-2.6-3.7-3.8-8.4-3.8-14.2s1.7-13.7,5.1-22.1c1.9-4.6,4.7-9.4,8.5-14.2,3.8-4.9,8.1-9.4,13.1-13.6,5-4.2,10.3-7.6,16-10.3,5.7-2.7,11.6-4,17.6-4s7.8,1.2,9.5,3.6c1.7,2.4,2.6,5.3,2.6,8.7s-.5,6.6-1.5,10l14.4-21.8c1.2-.9,3.8-1.3,8-1.3s6,.3,8.9,1c2.8.7,3.6,1.7,2.4,3.1-1.4,1.7-3.7,4.3-7.1,7.8-3.3,3.5-6.9,7.7-10.8,12.4-3.8,4.8-7.5,9.8-10.9,15.1-1.7,2.9-4.2,7.2-7.6,12.8-3.3,5.6-5.9,11-7.8,16.2-1,3.1-1.5,5.6-1.5,7.4,0,3.6,1.5,5.4,4.6,5.4s4-.6,6.9-1.9c2.9-1.3,5.7-3,8.5-5.3,5.5-4.4,10.3-9.8,14.4-16,4.1-6.2,7.8-11.8,11-16.6.2-.2.4-.3.6-.5.3-.2.7-.3,1.4-.3s1.2.3,1.5.9c.3.6.2,1.3-.5,2.2-4.8,7.2-9.5,13.9-14.1,20.1-4.6,6.2-9.3,11.3-14.1,15-4.8,3.8-10,5.6-15.7,5.6s-8-1.3-10.6-4c-2.7-2.7-4-6.3-4-10.9s.2-4.2.6-6.4c.4-2.2,1-4.3,1.7-6.2-2.7,3.6-6.1,7.5-10.1,11.8-4,4.3-8.3,8-12.7,11-4.5,3.1-8.9,4.6-13.3,4.6ZM845.4,781.6c3.4,0,7.1-1.4,10.9-4.1,3.8-2.7,7.7-6.3,11.7-10.7,3.9-4.4,7.5-9,10.8-14,2.7-4.1,5.4-8.5,8.1-13.1,2.7-4.6,4.9-9.1,6.7-13.6,1.8-4.4,2.7-8.5,2.7-12.1,0-5.5-2-8.2-5.9-8.2s-5.9,1.2-9.5,3.6c-3.6,2.4-7.2,5.5-10.9,9.2-3.7,3.8-7.1,7.8-10.3,12.2-3.2,4.4-5.7,8.6-7.6,12.7-.5,1-1.8,3.5-3.7,7.4-2,3.9-3.8,8.2-5.6,12.8-1.8,4.6-2.7,8.6-2.7,12.1s1.8,5.6,5.4,5.6Z"/>
        </g>
      </g>
    </g>
  </g>
</svg>