<?xml version="1.0" encoding="UTF-8"?>
<svg xmlns="http://www.w3.org/2000/svg" version="1.1" viewBox="0 0 1439.2 206.1">
  <defs>
    <style>
      .cls-1 {
        fill: #6e229c;
      }

      .cls-2 {
        fill: #311a6e;
      }

      .cls-3 {
        fill: #dcbdff;
      }
    </style>
  </defs>
  <!-- Generator: Adobe Illustrator 28.7.1, SVG Export Plug-In . SVG Version: 1.2.0 Build 142)  -->
  <g>
    <g id="Layer_1">
      <circle class="cls-3" cx="131.6" cy="103.1" r="84.9"/>
      <rect class="cls-2" x="247.5" y="25.1" width="2.9" height="145.7"/>
      <g>
        <path class="cls-1" d="M61.7,74.7s0,0,0,0c0,0,0,0,0,0,0,0,0,0,0,0Z"/>
        <path class="cls-1" d="M104,117.8s0,0,0,0c0,0,0,0,0,0,0,0,0,0,0,0h0ZM115.6,178.6c.2,0,.4.1.6.2h0s-.6-.2-.6-.2Z"/>
        <path class="cls-1" d="M208.7,117.3c-5.8-3.1-11.6-2.6-17.5-.2-2.5,1.1-4.7,2.7-7,4.7.3-3,.6-5.8,0-8.5-.3,3-2.5,4.2-4.8,5.3-4.2,2.1-8.8,3.1-13.3,4-3.9.8-7.9,1.2-11.9,1.6-9.8,1-19.7.9-29.5.7-4.6,0-9.2-.5-13.7-1.1-4.5-.6-9-1.5-13.4-2.9-.6-.2-1.2-.4-1.6-.8.7-2,1-2.2,3-1.5,3.5,1.1,7.1,1.5,10.7,2.1,3.9.7,7.8.8,11.7,1.1,7.3.6,14.6.5,22,.3,9.5-.3,19-1.3,28.3-3.7,2.3-.6,4.5-1.3,6.5-2.7,2.1-1.5,2-3-.2-4.3-2.4-1.3-5-2-7.6-2.7-2.4-.6-4.7-1.1-7.1-1.4-5.4-.8-10.8-1.3-16.2-1.6-5.8-.3-11.5-.5-17.3-.4-3.8,0-7.6.3-11.4.5-1,0-1.3.6-1.8,1.4-1.9,2.6-3.9,5.1-6.4,7.1-1.6,1.3-3.3,2.6-5.3,3.3-.1.2-.3.3-.5.2,0,0,0,0,0,0,0,0,0,0,0,0,0,0-.2.2-.3.2,0-.3.1-.2.3-.2,0,0,0,0,0,0h0c0-.3.3-.3.5-.3.6-.9,1.5-1.3,2.3-2,4-3.4,7.2-7.5,9.6-12.1.9-2.8,1.6-5.6,1.6-8.6,4.3,1,7,0,8.9-3.3,1.1-2,1.4-4.1,1.2-6.3-.2-2.2-1.1-4.2-2.7-5.8,1.5-1.8,2.9-3.5,4.3-5.3,5.3-6.8,9.6-14.1,11.3-22.6,1-4.8,1.1-9.6-.7-14.3-1-2.5-2.4-4.7-5.1-5.5-1.5-.5-3,0-4,1.4-.9,1.1-1,2.7-.2,4,.6,1,1.4,1.8,2.3,2.3,1.9,1.1,2.9,2.7,3.5,4.8.9,3.3.6,6.6-.1,9.9-1.5,6.9-5,12.8-9.1,18.4-.7,1-1.4,2-2.6,3.2.2-.6.3-.9.4-1.2,1-3,2.1-6,2.9-9.1,1.6-6.2,2-12.4.7-18.7-.9-4.2-2.8-7.8-5.6-10.9-1.2-1.3-2.6-2.2-4.3-2.7-1.7-.5-3.7.2-4.5,1.7-.9,1.4-.6,3.2.7,4.6.7.8,1.7,1.1,2.7,1.3,2.2.4,3.9,1.6,5.1,3.5,1.9,2.7,2.7,5.8,3,9.1.6,5.3-.3,10.4-1.7,15.4-.8,2.7-1.7,5.3-3,7.9-.3,0-.4,0-.6-.1-2-.5-4-.5-5.9,0,.7-3,1.3-6.1,1.6-9.2.9-7.7.2-15.4-1.1-23-.5-2.9-1.2-5.8-2.1-8.6-2.1-6.7-4.9-13-8.6-19-1.5-2.3-3.2-4.4-5.5-6.2-2-1.6-4.2-2.4-6.8-1.8-3.3.9-5.4,3.3-7.1,6.1-1.5,2.6-2.3,5.4-2.8,8.4-.5,2.7-1.2,5.4-2.7,7.8-2.1-2.7-4.2-5.3-6.6-7.7-6.8-7.1-14.2-13.5-22.7-18.6-3.3-2-6.9-3.6-10.7-4.4-3.5-.7-6.8-.5-9.6,2-3.7,3.2-4.8,7.5-5.2,12.1-.4,4.2.5,8.3,1.7,12.3,1.1,3.9,1.9,8,1.4,12.1-.7,5.3-1.7,10.6-2.4,15.8-.7,5.1-1.1,10.2-.2,15.4,1.4,7.6,5.3,13.5,12.4,17,1.6.8,3.4,1.4,5.4,2.2-1.2,0-2,.3-2.7.6-5.8,2.3-10.5,6.1-13.9,11.3-5.6,8.6-7,18.1-5.3,28,.9,5.6,3.4,10.7,7.4,14.9,4,4.1,8.9,6.4,14.6,6.8,5.6.5,11.1-.5,16.3-2.9,7-3.2,12.7-8.2,18-13.6,1.7-1.7,2.7-3.9,4.8-5.3.3.3.2.7.2,1,0,9.1,2.1,17.9,5.6,26.3.8,1.9,2,3.7,2.6,5.7.4.7,1.2,1.1,1.4,2-3.6.5-7.2,1.2-10.8,2-4.6,1-9.3,2.2-13.5,4.3-2,1-4.2,1.7-5.9,3.3-1.6,1.6-2.3,4.5-.4,6.7,1.5,1.7,3.3,3.2,5.5,4.3,5.8,2.7,11.8,4.2,17.9,5.8,5.4,1.5,11,2.1,16.5,2.8,3.1.4,6.2.5,9.2.9,10.7,1.4,21.5,1,32.3,1,3.6,0,7.2-.2,10.8-.5,13.4-1.3,26.7-3.1,39.5-7.7,2.5-.9,4.8-2,7.1-3.2,1.7-.9,3-2.3,4.1-3.9,1.2-1.8.5-4.6-1.2-5.9-6-4.7-13.1-6.4-20.3-8-.8-.2-1.6-.4-2.4-.7,1.7-.2,3.3-1.1,5-.9-.4-.4-.2-.4.2-.5,1-.4,2.1-.7,3.1-1.1,5.9-2.4,11.3-5.7,16.1-10,5.8-5.3,10.4-11.5,11.5-19.6.8-6-2-12.5-7.6-15.6ZM168.8,170.9s0,0,0,0c0,0,0,0,0-.1,0,0,0,0,0,.1h0c-.2,1.1-1,1.8-1.7,2.6-1.8,1.8-3.8,3.3-6.1,4.3,2.9-2,5.4-4.4,7.8-6.8ZM103.1,89.6c0,0-.1,0-.2.1-.2.1-.4.2-.6.3,0-.3-.1-.4-.1-.6,0-.6,0-1.1,0-1.7-.2-8.4-2-16.5-4.7-24.4,0,0,0,0,0-.1.6-3.3,2-6.2,4.7-8.6,2.2,11.7,2.8,23.3.9,35ZM89,19.8c.4-.9.9-1.7,1.5-2.5,1-1.4,2.3-2.1,3.9-2.5,1.1-.2,2,.4,2.7,1,1.3,1.1,2.2,2.4,3.2,3.8,1.2,1.7,2.2,3.5,3.2,5.4.5,1,.8,2.1,1.3,3.1,1.5,2.7,2.3,5.6,3.3,8.5.7,2.4,1.5,4.8,2,7.2,1,5,1.7,9.9,1.8,15,.1,7.2-.7,14.2-2.7,21.1-.3.3-.6.7-.8,1-.8,1.1-1.3,2.5-1.9,3.7-.3.5-.5,1-.9,1.5.1-3.3.3-6.5.3-9.7.1-7.4-.6-14.7-2.1-21.9-.4-1.7-.7-3.5-1.2-5.2-1-3.2-1.7-6.4-3-9.4-2.5-6.2-5.7-12-10.2-17.1-1.2-1.4-1.2-1.4-.4-3.1ZM84.1,33.7c.9-1.7,1.7-3.5,2.3-5.4.5-1.4.8-2.8,1.1-4.3,0-.2,0-.4.2-.7,2,2,3.3,4.2,4.8,6.3,1.5,2.2,2.8,4.5,3.8,7,.7,1.8,1.5,3.5,2.2,5.3,1.3,3.4,2.2,6.8,3.1,10.3.1.6,0,.9-.5,1.2-1.5,1.1-2.4,2.8-3.5,4.4-.8-2.5-1.7-4.9-2.7-7.3-1.3-2.8-2.8-5.5-4.4-8.1-1.8-2.9-3.9-5.5-6.3-7.9-.3-.3-.3-.5-.1-.8ZM83,35.5c1.9,1.7,3.4,3.6,4.9,5.7,1.1,1.6,2.3,3.2,3.2,5,1.9,4,4.1,7.8,4.9,12.2,0,.3.1.7.2,1-3.3-8.5-7.9-16.4-13.1-23.8,0,0,0,0,0,0ZM33,14.1c.3-2.4,1.7-4.1,3.4-5.5,1.2-1,2.7-.8,4.1-.4,2.3.6,4.3,1.7,6.4,2.8,2.6,1.4,5,3.1,7.3,4.8,1.3,1,2.3,2.2,3.6,3.1,3.5,2.5,6.5,5.6,9.4,8.7,2.4,2.5,4.8,5.1,7,7.9.4.5.8,1.1,1.2,1.6.7.9,1.3,1.8,2,2.7.4.6.8,1.2,1.3,1.8,2.6,3.8,5.1,7.7,7.2,11.8,1.2,2.3,2.3,4.7,3.3,7h0c1.4,3.2,2.6,6.4,3.6,9.7,1.3,4.1,2.3,8.2,3,12.5.1.6.2,1.3.3,1.9.2,1.7.4,3.3.5,5.1,0,.3,0,.6,0,.9,0,.6,0,1.3,0,1.9,0,.4,0,.7,0,1.1,0,.5,0,1.1,0,1.6,0,.1,0,.3,0,.5,0-.1-.1-.3-.2-.4-.2-.5-.5-1-.7-1.6-.3-.7-.6-1.3-.9-2-.3-.8-.7-1.5-1-2.3-.8-1.7-1.5-3.4-2.3-5.1-.7-1.7-1.5-3.3-2.3-4.9-.4-.9-.9-1.9-1.3-2.8-4.1-8.4-9.1-16.2-14.9-23.6-.1-.1-.2-.3-.3-.4-.4-.6-.9-1.1-1.3-1.7-.8-1-1.6-2-2.5-3-.2-.2-.4-.4-.6-.6-3.2-3.4-6.1-7-9.6-10.1-7.1-6.3-14.7-11.7-23.5-15.3-2.4-1-2.4-1-2.4-3.6,0-1.4,0-2.7.3-4.1ZM69.8,64.1c-.4-3.3,0-6.6,1.3-10.1,0,.1.2.3.3.4.3.4.6.8.9,1.3,3.6,5,7,10,10,15.3,1.7,3,3.3,6,4.8,9.1,1.3,2.6,2.4,5.3,3.5,8,.3.7.5,1.4.8,2.1.5,1.3.9,2.5,1.4,3.8.2.5.3,1,.5,1.5.2.7.5,1.5.7,2.2,0,.2.1.5.2.7l-.5-.5c-.7-.7-1.4-1.4-2.2-2.1-.5-.4-.9-.9-1.4-1.3-1-1-2-1.9-3-2.9-1.3-1.3-2.6-2.7-3.9-4.1-1.7-1.8-3.3-3.7-4.8-5.6-.4-.5-.8-1-1.2-1.5-1-1.2-1.6-2.6-2.4-3.9-.9-1.4-1.8-2.8-2.5-4.3-.4-.8-.8-1.6-1.1-2.4-.2-.6-.4-1.1-.6-1.7h0c-.4-1.2-.6-2.5-.8-3.7ZM34.9,30.6c-.3-2.1-.8-4.1-1.2-6.1,0-.3-.1-.6-.2-1.1,3.7,1.3,6.8,3.2,10,5,3.3,1.8,6.3,4,9.1,6.4,2,1.8,4.1,3.5,6.1,5.4,3.4,3.1,6.4,6.5,9.4,10,.3.4.6.7,1,1.1.5.6.6,1.1.2,1.9-.9,1.9-1.2,3.9-1.5,6.1h0c0,.5-.1,1.1-.2,1.6-2.5-2.7-5.2-5.2-8-7.5-3.4-2.8-6.9-5.3-10.6-7.6-4.1-2.6-8.4-4.5-12.9-6.1-.5-.2-.7-.4-.7-.9,0-2.8,0-5.5-.4-8.2ZM35,41.8c3.4,1,6.6,2.5,9.7,4.1,2.5,1.3,4.9,2.7,7.1,4.4,4.9,3.8,10,7.3,13.7,12.3,1.2,1.6,2.2,3.1,2.8,5.1,0,0,0,.1,0,.2.1.4.2.8.4,1.2.3.9.7,1.8,1.1,2.7.4.9.9,1.7,1.3,2.6.8,1.6,1.7,3.1,2.7,4.6.5.8,1,1.6,1.6,2.4-.1,0-.3,0-.4,0-.8-.2-1.3-.6-1.8-1,0,0,0,0,0,0-.3-.3-.6-.6-.9-.8-1.2-1-2.5-2-3.7-2.9-1.5-1.1-3-2.2-4.5-3.3-1.1-.7-2.2-1.5-3.3-2.2,0,0-.2-.1-.3-.2-.3-.2-.6-.4-.9-.6-2.5-1.7-5-3.4-7.7-4.8-5.8-3-11.7-6-18.1-7.4-.5-.1-1.2-.3-1.1-1.1.5-5.1,1.4-10.1,2.4-15.2ZM36,76.9c-2-2.3-3.1-5.2-3.7-8.3-.5-2.5-.4-5-.3-7.6,0-.4.2-.8.5-1.1,2.4.4,4.7,1.4,7,2.3,3.4,1.3,6.7,2.8,9.8,4.7,2,1.3,4.4,2,6.2,3.8.5.5,1.1.8,1.8,1.1.3.1.6.2.8.3.2,0,.5.2.7.3.4.2.8.5,1.2.9.5.5,1.1,1,1.7,1.5,0,0,0,0,0,0,1.1.8,2.2,1.6,3.3,2.4.6.4,1.2.8,1.7,1.1,2.1,1.4,4.1,2.8,6,4.4l3.4,2.9c.5.5,1.1.9,1.6,1.4,3.1,2.6,6.2,5.3,9.2,8.1.5.4.9.9,1.4,1.3.1.1.2.2.3.3.7.7,1.7,1,2.3,1.8.2.2.3.4.4.6,0,.2,0,.3-.2.5-.1,0-.3-.1-.4-.2-1.9-.8-3.7-1.6-5.6-2.4-.9-.3-1.8-.7-2.6-1-2-.7-4-1.4-5.9-2.1-4.1-1.4-8.1-2.8-12.2-4.1-.6-.2-1.3-.4-1.9-.6-2.4-.8-4.9-1.6-7.3-2.4-1.9-.7-3.9-1.3-5.8-2l-1.4-.5c-.1,0-.2,0-.3-.1-4.4-1.5-8.6-3.7-11.7-7.2ZM33.8,102.4c2.9-4.6,7.2-7.1,12.2-8.4.8-.2,1.6-.4,2.4-.5.1,0,.2,0,.3,0,.8-.1,1.5-.2,2.3-.3,1.5-.1,3,0,4.6,0,.7,0,1.5.1,2.2.2.5,0,1.1.2,1.6.2,5.5.9,10.8,2.3,16,4.1.9.3,1.7.6,2.6.9,2.6.9,5.2,2,7.7,3.1.8.4,1.6.7,2.4,1.1-2,0-4,.2-6,.3-3.2.2-6.3.4-9.4,1-4,.7-7.8-.1-11.7-.6,0,0-.2,0-.3,0-2.3-.3-4.6-.5-6.8-.7-1.7-.1-3.5-.2-5.2-.2-4.7,0-9.3.4-14,1.6-.4.1-.8.1-1.2.2-.3,0-.7.1-1.1.2,0-1,.9-1.4,1.4-2.1ZM28.6,112c1.5-4.8,1.5-4.8,6.4-5.9,2-.5,4-.9,6-1.1,3.1-.3,6.1-.5,9.2-.4,2.4,0,4.7.2,7.1.6.8.1,1.6.3,2.4.4,1.1.2,2.2,0,3.4.3.2,0,.5,0,.7.1,0,0,.1,0,.2,0-.7.3-1.4.6-2.1.9-1.6.7-3.1,1.5-4.6,2.3-2.2,1.3-4.3,2.7-6.4,4.1-.5.4-1.1.8-1.5,1.3-.5.6-1.1,1.1-1.9,1.3-6.8,1.7-13.3,4.3-19.6,7.3-.1,0-.3.1-.6.2-.3-4,.2-7.8,1.4-11.5ZM27.8,128c-.1-.5-.2-1-.3-1.6,0-.5,0-.7.5-.9,4.9-2.6,10.1-4.7,15.4-6.1.1,0,.2,0,.6,0-1.5,3.4-4.2,5.8-6,8.9-1.8,3.1-3.7,6.2-5.6,9.3-2.5-2.8-4-6-4.7-9.6ZM44.8,142.2c-1.5,1.5-2.9.9-4.3.4-1.8-.5-3.5-1.2-4.8-2.6-.5-.5-1.4,0-1.7-1.1.9-1.4,1.9-2.9,2.9-4.5,1.3-2.2,2.4-4.6,3.8-6.7,1.3-2,3.1-3.9,4.5-5.8,1.6-2.1,3.3-4,5.3-5.6,3-2.4,6.1-4.5,9.4-6.3,1.9-1,3.9-1.8,6-2.5.8-.3,1.7-.5,2.6-.7,3.5-.8,7-.9,10.5-1.3.9,0,1.8-.1,2.7-.2,2,0,3.9,0,5.9-.1.8,0,1.5,0,2.3,0,0,.3,0,.5-.4.7-7.6,4.1-14.1,9.7-20.7,15.1-3.4,2.8-6.7,5.6-9.9,8.6-2.3,2.2-4.7,4.3-7.2,6.2-.4.3-.8.8-1.2,1.3-1.6,2.1-4,3.3-5.8,5.1ZM72.2,131.3c-2.9,2.8-6,5.3-9.4,7.4-4.8,3-10,5.3-16.2,4.7,2.4-1.6,3.7-4.1,6.3-5.3,1.4-.7,2.4-2.2,3.6-3.3,3.8-3.4,7.5-6.9,11.5-10.2,5.1-4.3,10.4-8.4,15.7-12.5,2.2-1.7,4.7-2.8,7-4.3-.5.9-.9,1.8-1.4,2.6-4.7,7.8-10.6,14.6-17.1,20.9ZM89.7,149.1c-1.3-4.8-1.6-9.7-1.7-14.9.5,1,.4,1.8.6,2.5,1.4,8.1,3.6,15.9,7.6,23.1,4.6,8.5,11.3,14.8,20.2,18.7,0,0,0,.1-.1.2h0c-.2,0-.4-.1-.6-.2-1.9-.6-3.8-1.3-5.5-2.2-1.2-.6-2.3-1.3-3.4-2-2.3-1.5-4.6-2.9-6.4-5-1.8-2.2-3.6-4.5-5-7-2.4-4.2-4.2-8.6-5.4-13.2ZM167.5,183.6c-2.5,1.8-5.3,2.6-8.2,3.3-3.7.9-7.5,1.5-11.2,1.9-6.3.7-12.7.9-19.1.8-5.2-.1-10.3-.5-15.5-1.2-4.1-.6-8.1-1.4-12-3-1.4-.6-2.8-1.2-3.9-2.2-1.8-1.6-1.6-3.7.6-4.9-.6,3,1.6,4.1,3.6,5,4.3,2.1,9,2.7,13.6,3.4,8.8,1.2,17.6,1,26.4.7,6.7-.2,13.5-1,20-3.1,1.5-.5,2.9-1.1,4.2-1.9.2,0,.3-.2.4-.3.7-.5,1.1-1,1.3-1.5,0-.1,0-.2,0-.4,0-.2,0-.5,0-.7,0-.1,0-.3,0-.4,0-.1,0-.3-.1-.4,0-.1,0-.3-.1-.4h0s0,0,.1-.1c2.5,1.4,2.5,3.7,0,5.5ZM207.6,132.4c-.5,5.9-3.6,10.4-7.6,14.4-6.2,6.1-13.5,10.3-22.1,12-.3,0-.6.1-.9.1-.2,0-.4,0-.7,0,2.1-4.5,3.9-9.1,5.2-13.8.8-2.8,1.5-5.5,1.8-8.4,0-.3.1-.6.3-.8,1.9-2.3,3.1-5.1,5.1-7.3,3.2-3.6,8.3-6.2,13.8-4.5,3.5,1.1,5.5,4.5,5.2,8.4Z"/>
        <path class="cls-1" d="M208.1,181.4c-1.1,2.7-3.2,4.7-5.5,6.4-6.1,4.5-12.9,7.2-20.1,9.3-1,.3-1.9.7-2.7,1.3-2.8,2.1-6.2,2.9-9.5,3.7-7.5,2-15.1,3.1-22.9,3.5-2.8.2-5.6.5-8.5.4-.3-.3-.6-.2-1-.2-4.1,0-8.1,0-12.2,0-.3,0-.7,0-1,.2-3.2.1-6.4-.3-9.6-.5-5-.4-9.9-1-14.8-2.1-4.5-1-9.2-1.7-13.2-4.1-5.7-3.3-12.1-4.5-17.9-7.5-3.4-1.8-6.8-3.6-9.6-6.3-1.8-1.8-3.4-3.9-3.7-6.7-.1-1,0-2,.5-2.9h0s0,0,0,0h0c.1.9-.4,1.8-.2,2.8.3,1.3.9,2.4,1.7,3.3,0,.1.2.2.3.3.6.6,1.2,1.1,1.9,1.6,3.7,2.7,7.9,4.5,12.2,5.9,12.3,4.2,25.1,6.2,38,7.4,5.5.5,11,.7,16.5.9,6.9.2,13.9.2,20.8-.3,3.3-.3,6.6-.2,9.8-.6,6-.7,12-1.4,17.9-2.7,9.3-1.9,18.6-3.8,26.9-9.1,1.7-1.1,3.5-2,4.8-3.6,0,0,.1-.1.2-.2.1-.1.2-.3.3-.4,0,0,0,0,0,0,0-.1.2-.3.3-.4s.2-.3.2-.4c0-.1.1-.3.2-.5,0-.2.1-.3.1-.5.2-.7.2-1.5,0-2.4,0-.2-.1-.4-.2-.6,0-.1,0-.2-.1-.3,0,0,0,0,0-.1,0-.1,0-.2-.1-.3,0,0,0,0,0-.1,0,0,0-.2,0-.3,0-.2,0-.4,0-.6h0s0,0,0,0c1.5,2.2,1.3,4.5.3,6.8Z"/>
        <polygon class="cls-1" points="56.5 176 56.5 176 56.5 176 56.5 176 56.5 176"/>
        <path class="cls-1" d="M207.8,174.7s0,0,0,0h0s0,0,0,0Z"/>
        <path class="cls-1" d="M56.5,176c0,0,0,0,.1,0,0,0,0,0-.1,0h0Z"/>
        <path class="cls-1" d="M56.7,175.8c0,0,0-.1,0-.2,0,0,0,.1,0,.2Z"/>
        <path class="cls-1" d="M56.8,175.4c0-.2.2-.4.3-.5,0,.2-.2.4-.3.6h0s0,0,0,0Z"/>
        <path class="cls-1" d="M207.2,173.8s0,0,0,0h0s0,0,0,0Z"/>
        <path class="cls-1" d="M124.8,206.1c.3-.3.6-.2,1-.2,4.1,0,8.1,0,12.2,0,.3,0,.7,0,1,.2-4.7,0-9.4,0-14.2,0Z"/>
        <path class="cls-1" d="M207.2,173.8h0s0,0,0,0c0,0,0,0,0,0,0,0,0-.2-.1-.2,0,0,0-.2-.1-.2h0s0,0,0,0c.2.1.3.3.3.5Z"/>
        <path class="cls-1" d="M207.8,174.6h0s0,0,0,0c-.1,0-.2-.2-.2-.3,0,0,0,0,0-.1h0s0,0,0,0h0s0,0,0,0c.2.1.3.3.3.5Z"/>
        <path class="cls-1" d="M57.1,174.9c0,.2-.2.4-.3.6h0s0,0,0,0h0c0-.3,0-.5.3-.6Z"/>
        <path class="cls-1" d="M56.8,175.4h0s0,0,0,0h0c0,0,0,0,0,.1,0,0,0,.1,0,.2,0,0,0,0,0,0,0,0,0,0,0,0,0,0,0,0-.1,0,0,0,0,0,0,0h0s0,0,0,0c0-.2,0-.5.3-.5t0,0Z"/>
        <path class="cls-1" d="M206.9,173.3c0,0-.2-.2-.3-.3,0,0,.2.2.3.3Z"/>
        <path class="cls-1" d="M207.5,174.1s0,0,0,0h0c0,0-.2-.2-.2-.2h0s0,0,0,0,0,0,0,0h0c.2,0,.2.1.3.3,0,0,0,0,0,0Z"/>
        <path class="cls-1" d="M61.7,74.7s0,0,0,0c0,0,0,0,0,0,0,0,0,0,0,0Z"/>
        <path class="cls-1" d="M116.2,178.7h0c-.2,0-.4-.1-.6-.2l.6.2Z"/>
        <path class="cls-1" d="M116.3,178.6c0,0,0,.1-.1.2h0c0,0,0-.1.1-.2Z"/>
        <path class="cls-1" d="M168.8,170.9h0s0,0,0,0h0Z"/>
        <path class="cls-1" d="M116.3,178.6c0,0,0,.1-.1.2h0c0,0,0-.1.1-.2Z"/>
        <path class="cls-1" d="M104,117.8s0,0,0,0h0s0,0,0,0Z"/>
        <path class="cls-1" d="M104.6,117.6c-.1.2-.3.3-.5.2,0-.3.3-.3.5-.3h0Z"/>
        <path class="cls-1" d="M104,117.9c0,0-.2.2-.3.2,0-.3.1-.2.3-.2Z"/>
        <path class="cls-1" d="M104,117.9s0,0,0,0c0,0,0,0,0,0h0Z"/>
        <path class="cls-1" d="M168.9,170.8s0,0,0,.1h0s0,0,0-.1Z"/>
      </g>
      <g>
        <path class="cls-1" d="M411.1,56.9c0-10.9-4.1-19.8-11.8-26.6-8-6.8-18.6-10-32.2-10s-13.9,1.2-21.3,3.5c-7.4,2.1-14.2,5.3-20.4,9.5-7.4,5-13.3,10.6-17.4,16.8-4.1,6.2-6.2,12.4-6.2,18.6s1.5,10.6,4.7,13.6c3,3,8.3,4.4,15.1,4.4v-.6c-.3,0-.3-.3-.6-.9-.6-1.5-1.2-3.2-1.5-5-.6-1.8-.6,8-.6-6.2s4.1-25.1,12.7-33.1c8.6-8,20.4-12.1,35.4-12.1s12.7,2.4,16.8,6.8c3.8,4.4,5.9,7.7,5.9,18.6s-3.2,21-9.7,30.4c-6.5,9.5-14.2,14.5-22.7,15.4l13.3-62-27.5,3.8-25.1,118.1h26.6l.9-.6,11.2-52.9h.9c7.1,0,13.9-1.2,20.1-3.5,6.2-2.4,11.8-5.6,16.8-10.3,5-4.7,9.2-10.3,12.1-16.5,3-6.2,4.4-8.3,4.4-19.2Z"/>
        <path class="cls-1" d="M554.4,93.6c1.2.9.9,1.5,5,1.5s7.4-1.2,9.7-3.8c2.7-2.7,3.8-5.6,3.8-9.7s-1.2-7.4-3.5-10c-2.4-2.7-5.9-4.1-9.2-4.1s-6.2.9-9.5,2.4-7.7,4.7-13,9.2l2.4-11.5h-26.6l-12.7,59.4h-.3c-1.5,5.3-3.5,9.2-6.2,12.1-2.7,2.7-6.2,4.1-8.9,4.1s-4.7-.3-5.9-1.5-1.8-3-1.8-5.3v-3c.3-.9.3-1.8.6-3l13.3-63.2h-26.6l-12.7,59.7c-1.5,5.3-3.5,9.5-6.2,12.1-2.3,2.6-5.2,4.1-8.4,4.1-1.7,0-3.1-.9-4-2.1-.9-1.2-1.5-3.2-1.5-5.6v-2.4c.3-.9.3-1.8.6-2.7l13.3-63.2h-26.6l-12.7,59.7c-.6,2.4-.9,4.4-1.2,6.5-.3,2.1-.3-1.5-.3,5.6s1.8,12.7,5.3,16.5c3.5,3.8,8.9,5.9,14.5,5.9s10.9-1.5,15.4-4.4c4.4-3,8.6-7.4,12.1-13.3.6,5.6,2.4,10,5.6,13,3.2,3,4.4,4.4,12.7,4.4s15.7-3,21.9-8.6c1.1-1,2.2-2.1,3.2-3.3l-2.4,11h26.6l14.8-70.6c3.2-3,5.9-4.7,7.7-5.6,1.8-.9,3.8-1.2,5.9-1.2s1.8.3,2.1.9c.3.6.9,1.8,1.2,3.8.3,3.2,1.2,5.3,2.4,6.2Z"/>
        <path class="cls-1" d="M630,66.1c-4.4,0-8.3.6-11.8,2.1s-7.1,3.2-10,5.9l3-13.9h-26.6l-31,146.2,28.1-6.8-.3-.3,9.7-45.2c1.2,2.4,3.2,3.8,5.9,5,2.7,1.2-4.1,1.8,10,1.8s25.4-6.2,33.4-18.6c8-12.4,12.1-28.1,12.1-47s-1.8-16.8-5.6-21.9c-3.8-5-9.5-7.4-16.8-7.4ZM620.2,129.9c-4.7,10-11.2,15.1-18.9,15.1s-3.2-.3-4.4-1.2c-1.2-.9-2.1-1.8-2.7-3.2l10.9-52c1.5-2.7,3.5-5,5.9-6.5s3.5-2.4,6.8-2.4,5.6,1.2,7.1,3.8c1.5,2.7,2.4-1.8,2.4,11.5s-2.4,24.8-7.1,34.8Z"/>
        <path class="cls-1" d="M775,126.6c-6.5,7.1-11.8,12.1-16.8,14.8-4.7,3-10.9,4.1-15.9,4.1s-8.6-1.2-10.3-3.5c-2.1-2.4-3-6.5-3-12.1v-2.7c.3-1.2.3-2.7.3-4.7,11.8-.6,21.6-4.7,30.1-12.4,8.6-7.7,12.7-16.5,12.7-26.9l-.3.3c0-6.2-1.5-10.6-5-13.6-3.5-3-7.4-4.4-15.4-4.4s-15.1,1.8-21.6,5.6c-6.5,3.8-12.1,9.5-16.5,16.8-3.5,6.2-6.5,13.3-8.9,21.3-2.1,8-3.2,12.7-3.2,22.4s.1,3.7.3,5.5c-.4.5-.8.9-1.2,1.3-3,3-7.1,4.4-9.7,4.4s-4.7-.3-5.9-1.5c-1.2-1.2-1.8-3-1.8-5.3v-3c.3-.9.3-1.8.6-3l21.3-100.4-27.5,3.8-19.8,93c-.6,2.4-.9,4.4-1.2,6.5-.3,2.1-.3,4.1-.3,5.6,0,7.1,1.8,12.7,5.3,16.5,3.5,3.8,5.9,5.9,14.5,5.9s16.2-3,23-8.9c1.9-1.6,3.6-3.4,5.2-5.4,1.2,2.7,2.7,5,4.5,6.9,4.7,5,11.5,7.4,21.6,7.4s19.5-3,27.8-8.6c8.3-5.6,16.2-14.5,23.3-26h-6.2ZM740.4,86.5c4.1-7.4,8.6-11.2,12.7-11.2s2.7.6,3.5,1.8c.9,1.2,1.2-2.1,1.2,5.6s-2.7,14.5-8,20.7c-5.3,6.2-11.8,9.5-18.9,10,2.1-10.3,5.3-19.5,9.5-26.9Z"/>
      </g>
      <g>
        <path class="cls-1" d="M896.3,82.7c5.4-3.2,10-7.2,13.2-12.3s4.9-8,4.9-16.3-3.4-15.2-10.3-20.6-16.3-8-28.1-8-14.9.9-22.1,3.2c-7.2,2.3-13.8,5.2-19.8,9.2-7.5,4.6-13.2,10-17.2,16.3-4.3,6.3-6.3,13.8-6.3,19.2s1.7,9.5,4.9,12.3c3.4,2.6,8,4,14.6,4v-.6c-.3,0-.3-.3-.6-.9-.6-1.4-1.1-3.2-1.4-4.9-.6-1.7-.6,7.2-.6-6s4.6-23.8,13.2-31.8c8.9-8,19.5-12,32.1-12s13.5,1.7,17.5,5.2c4.3,3.7,6.3,7.2,6.3,14.3s-2.6,14.1-8,20.1c-5.4,6-11.5,9.2-18.1,9.2h-1.1l8.6-39.9-26.7,3.7-24.4,114.7h25.8l-.3-.6h-.6l14.9-69.1c1.4,0,2.9-.3,4.6-.3h3.7c5.7,0,10,1.7,12.9,5.7,2.9,4,4.3,8.3,4.3,17.2s-1.7,16.6-4.9,22.9c-3.2,6.3-7.5,9.5-12.9,9.5s-4-.3-5.7-1.4c-2-.9-4-2.6-6.3-4.9-.9,2-1.4,4-1.7,5.7-.6,1.7-.6.3-.6,4.9s1.4,7.7,4.6,10c3.2,2.3,6.9,3.4,13.2,3.4s11.8-1.4,16.9-4.3c4.9-3.2,9.2-7.5,12.9-13.2,3.2-4.9,5.4-10.3,7.2-16.6,1.7-6.3,2.6-9.8,2.6-17.8s-1.7-14.3-5.4-19.5c-3.7-5.2-8.9-8.3-15.8-9.8Z"/>
        <polygon class="cls-1" points="1021.6 70.4 1021.8 70.4 1021.9 69.8 1021.6 70.4"/>
        <polygon class="cls-1" points="1069.8 70.4 1070 70.4 1070.1 69.8 1069.8 70.4"/>
        <path class="cls-1" d="M1220.9,86.7c1.7-.9,3.7-1.1,5.7-1.1s1.7.3,2,.9c.3.6.9,1.7,1.1,3.7.3,3.2,1.1,5.2,2.3,6,1.1.9.9,1.4,4.9,1.4s7.2-1.1,9.5-3.7c2.6-2.6,3.7-5.4,3.7-9.5s-1.1-7.2-3.4-9.8c-2.3-2.6-5.7-4-8.9-4s-6,.9-9.2,2.3c-3.2,1.4-7.5,4.6-12.6,8.9l2.3-11.2h-25.8l-12.3,57.6h-.6c-6.3,6.9-11.5,11.8-16.3,14.3-4.6,2.9-10.6,4-15.5,4s-8.3-1.1-10-3.4c-2-2.3-2.9-6.3-2.9-11.8v-2.6c.3-1.1.3-2.6.3-4.6,11.5-.6,21.2-4.6,29.3-12,8.3-7.5,12.3-16.1,12.3-26.1l-.3.3c0-6-1.4-10.3-4.9-13.2-3.4-2.9-7.2-4.3-14.9-4.3s-14.6,1.7-20.9,5.4c-6.3,3.7-11.8,9.2-16.1,16.3-3.4,6-6.6,12.9-8.6,20.6-2,7.7-3.2,12.3-3.2,21.8s0,1.9,0,2.8c-.8,1.2-1.7,2.3-2.7,3.2-2.9,2.9-6.9,4.3-9.5,4.3s-4.6-.3-5.7-1.4c-1.1-1.1-1.7-2.9-1.7-5.2v-2.9c.3-.9.3-1.7.6-2.9l11.5-53.9h10.9l1.4-7.2h-10.9l6-28.4-26.7,3.7-5.4,25h-5.9l-1.3,6.6h6l-10.9,50.8h0c-1.4,4.6-3.7,8.6-6.6,11.5-2.9,2.9-6.9,4.3-9.5,4.3s-4.6-.3-5.7-1.4c-1.1-1.1-1.7-2.9-1.7-5.2v-2.9c.3-.9.3-1.7.6-2.9l11.5-53.9h10.9l1.4-7.2h-10.9l6-28.4-26.7,3.7-5.4,25h-5.9l-1.3,6.6h6l-10.9,50.8c0,.3-.1.6-.2.9h0c-1.4,5.2-3.4,8.9-6,11.8-2.6,2.6-6,4-8.6,4s-4.6-.3-5.7-1.4c-1.1-1.1-1.7-2.9-1.7-5.2v-2.9c.3-.9.3-1.7.6-2.9l12.9-61.4h-25.8l-12.3,57.9c-1.4,5.2-3.7,9.2-6,11.8-2.3,2.5-5.1,4-8.2,4-1.7,0-3-.9-3.9-2-.9-1.1-1.4-3.2-1.4-5.4v-2.3c.3-.9.3-1.7.6-2.6l12.9-61.4h-25.8l-12.3,57.9c-.6,2.3-.9,4.3-1.1,6.3-.3,2-.3-1.4-.3,5.4s1.7,12.3,5.2,16.1c3.4,3.7,8.6,5.7,14.1,5.7s10.6-1.4,14.9-4.3c4.3-2.9,8.3-7.2,11.8-12.9.6,5.4,2.3,9.8,5.4,12.6,3.2,2.9,4.3,4.3,12.3,4.3s15.2-2.9,21.2-8.3c2.4-2.2,4.7-4.9,6.8-8,.7,4.1,2.3,7.5,4.6,10,3.4,3.7,5.7,5.7,14.1,5.7s15.8-2.9,22.4-8.6c2.6-2.2,4.9-4.8,7-7.8.7,4.4,2.3,8,4.8,10.7,3.4,3.7,5.7,5.7,14.1,5.7s15.8-2.9,22.4-8.6c2.2-1.9,4.2-4.1,6.1-6.5,1.2,3.4,2.9,6.2,5.1,8.5,4.6,4.9,11.2,7.2,20.9,7.2s18.9-2.9,27-8.3c5.1-3.5,10.1-8.2,14.9-14.1l-4.5,21.3h25.8s14.3-68.5,14.3-68.5c3.2-2.9,5.7-4.6,7.5-5.4ZM1146.1,89.3c4-7.2,8.3-10.9,12.3-10.9h0c1.7,0,2.6.6,3.4,1.7.9,1.1,1.1-2,1.1,5.4s-2.6,14.1-7.7,20.1c-5.2,6-11.5,9.2-18.4,9.8,2-10,5.2-18.9,9.2-26.1Z"/>
        <path class="cls-1" d="M1431.7,128.9c-2.3,7.2-5.2,12.6-8.6,16.6-3.4,4-8,6.9-14.1,9.2l17.8-83.7h-25.8l-12.6,58.8c-1.7,4.6-3.7,8.3-6,10.9-2.3,2.6-5.2,3.7-8,3.7l.3.3c-1.7,0-3.2-.6-4-2-.9-1.1-1.4-3.2-1.4-5.7v-2.3c0-.9.3-1.4.3-2.3l12.9-61.4h-25.8l-12.2,57.4h-.1c-1.4,4.6-3.7,8.6-6.6,11.5-2.9,2.9-6.9,4.3-9.5,4.3s-4.6-.3-5.7-1.4c-1.1-1.1-1.7-2.9-1.7-5.2v-2.9c.3-.9.3-1.7.6-2.9l20.6-97.5-26.1,3.6c-1.1-2.5-2.7-4.8-4.9-6.8-4-3.7-8.9-5.4-14.9-5.4h-.3c-8.6,0-15.8,2.6-21.2,7.7s-9.2,12.9-11.5,22.9l-21.8,103c-12.3,4-20.4,8-24.7,11.8-4.3,3.7-6.3,9.8-6.3,15.2s2.3,10,6.3,13.8c4,3.7,6.3,5.4,14.9,5.4s15.5-2.6,20.9-7.7c5.4-5.2,9.2-12.6,11.5-22.9l20.6-97.5h13.2l1.1-7.2h-13.2l3.2-14.3c1.1-4.6,2.6-8.3,4.9-10.9,2-2.6,5.7-3.7,7.7-3.7s3.4.6,4.9,1.7c1.4,1.1,2,2.6,2,4.6v1.4c0,.3,0,1.4-.3,3.4h4.1l-16.2,76c-.6,2.3-.9,4.3-1.1,6.3-.3,2-.3,4-.3,5.4,0,6.9,1.7,12.3,5.2,16.1,3.4,3.7,5.7,5.7,14.1,5.7s15.8-2.9,22.4-8.6c2.5-2.2,4.8-4.8,6.9-7.7.6,4.6,2.3,8.4,4.8,11.1,3.4,3.7,9.8,5.7,14.1,5.7s8.3-.9,11.8-2.6c3.4-1.4,6.9-4,9.8-7.5l-2.3,9.8c-9.8,2.9-17.2,6.9-22.1,11.2-4.9,4.3-7.2,10-7.2,15.5s1.7,9.8,5.4,12.9c3.7,3.2,5.7,4.6,14.6,4.6s15.8-2.6,21.2-7.7c5.4-5.2,9.2-12.9,11.5-22.9l2.6-12.9c8.3-2.3,14.9-6.3,20.1-11.8,5.2-5.7,8.9-12.9,11.8-22.1h-7.5ZM1239.8,165.6l-2.3,10.3c-.9,4.3-2.3,7.7-4,10.3-1.7,2.6-4.3,3.7-6,3.7s-3.4-.9-4.9-2-2.3,0-2.3-4,1.4-7.7,4.6-10.6c3.2-3.2,8.3-5.7,15.2-8l-.3.3ZM1378.9,175.6c-1.1,4.9-2.6,8.9-4.6,11.8-2,2.9-4.3,4.3-6,4.3s-3.2-.6-4.3-1.7-1.7-.9-1.7-4,1.4-5.7,4.3-8.3,7.2-4.9,13.2-7.2h.3l-1.1,5.2Z"/>
      </g>
    </g>
  </g>
</svg>