<?xml version="1.0" encoding="UTF-8"?>
<svg xmlns="http://www.w3.org/2000/svg" version="1.1" xmlns:xlink="http://www.w3.org/1999/xlink" viewBox="0 0 512 512">
  <defs>
    <style>
      .cls-1 {
        fill: #fff;
      }

      .cls-2 {
        fill: url(#radial-gradient);
      }
    </style>
    <radialGradient id="radial-gradient" cx="256" cy="256" fx="256" fy="256" r="256" gradientUnits="userSpaceOnUse">
      <stop offset="0" stop-color="#c79fff"/>
      <stop offset=".9" stop-color="#7650a1"/>
      <stop offset="1" stop-color="#b58dea"/>
    </radialGradient>
  </defs>
  <!-- Generator: Adobe Illustrator 28.7.1, SVG Export Plug-In . SVG Version: 1.2.0 Build 142)  -->
  <g>
    <g id="Layer_1">
      <circle class="cls-2" cx="256" cy="256" r="256"/>
      <g>
        <g id="Layer_1-2" data-name="Layer_1">
          <g>
            <path class="cls-1" d="M402.7,369.6c-13.7-5.9-28.3-8.2-42.9-10.1-13.8-1.8-27.6-3.1-41.7-4.7,1.5-3.7,3.5-2.9,5.9-2.4,4.1.9,8.6,2.1,12.6,1.5,27.5-3.9,46.8-18.9,56.7-44.9,7.2-19.1-2.6-33.5-23-34.8-6.1-.4-12.3,0-18.8,0,.1-2.3.3-3.9.4-5.5,1-15-.1-16.6-14.3-21.1-2.7-.8-5.5-1.6-8.2-2.1-32.4-7.3-65.3-7.8-98.2-6.3-18.5.8-36.9,2.7-54.9,7.9.3-.7.7-1.3,1-1.9.7-1.5,1.3-3,3.2-3.1.7,0,1.3-.7,1.5-1.4.6-1.8,2.1-2.7,3.5-3.7,9.2-6.4,18.6-12,29.2-15.8,4.1-1.4,8.2-2.6,12.6-2.4,3,.1,3.4.9,2,3.5-1.8,3.5-4.7,5.4-8.6,5.2-1.4,0-2.8,0-4.1.5-1,.4-1.8,1.1-1.7,2.4.1,1.2,1,1.6,2,1.8,3.5.8,6.7,0,9.5-2.3,3.3-2.7,5.3-6.3,6.9-10.2.4-1,0-1.5-.7-2-2.3-2-5-2.3-7.9-2-5.4.6-10.3,2.7-15.1,5.1-8.9,4.4-17.2,10-25.3,15.8-.7.5-1.4,1.5-2.5,1-.2-.3-.1-.6,0-.8,7.7-11.8,16.1-23,27.2-31.9,2.7-2.1,5.5-4.1,8.9-5.1,2.4-.7,2.7-.3,2.5,2.2-.4,4.4-2.7,7.3-6.7,8.8-1.5.5-2.9,1.2-3.8,2.4-.5.7-.8,1.5-.4,2.4.4,1,1.3,1,2.1,1,2.4-.1,4.4-1.2,6-2.7,4.4-4.2,5.4-9.7,5.6-15.4,0-1-.8-1.3-1.6-1.5-2.4-.7-4.6-.2-6.7.7-4.2,1.9-7.6,4.9-10.9,8.3-8.3,8.5-15.2,18.2-21.6,28.2-1.5,2.4-3.1,4.4-5.7,5.6-1.6.7-3.1,1.8-4.6,3.2-.4-1.2.4-1.8.9-2.4,8.9-13.4,16.1-27.5,20.8-42.8,4.5-14.8,6.3-29.8,3.3-45.1-2.1-11.2-6.7-21.3-13.7-30.4-1.6-2.1-2.8-2.1-4.6-.1-2.2,2.4-3.5,5.4-4.8,8.3-4.8,11-8.5,22.4-12.5,33.7-2.4,6.9-4.9,13.7-8.4,20.2-1.8,3.2-3.8,6.4-7.2,8.8-.7-2.7-1.3-5.2-1.9-7.6-6.6-23.7-19.2-43.6-37.9-59.7-2-1.7-4.1-3.2-6.4-4.6-3-1.8-5.6-1.1-7.5,1.9-1,1.6-1.4,3.5-1.6,5.4-.7,6,.8,11.5,2.9,17.1,1.7,4.6,3.4,9.2,5,13.9.8,2.4,1.4,4.9,1.6,7.4.3,4.8-1,9-4.9,12.3-4.2,3.5-8.4,6.9-12.6,10.5-2.9,2.4-5.4,5.1-7.3,8.4-3.9,6.9-3.8,13.7.6,20.2,4.9,7.5,12,12.6,19.4,17.1,2.7,1.7,5.5,3.2,8.6,4.9-2.3.4-4.4.3-6.3.9-5.7,1.7-9.5,5.6-12.6,10.3-2.4,3.7-4.2,7.8-5.9,11.8-3.5,8.4-9.2,14.8-18.1,18-3.7,1.3-7.5,1.8-11.9,1.2,2.4,2.7,4.9,4.4,7.5,5.8,3,1.8,6.3,3.1,9.7,3.8,1.8.4,9.5,1.3,10.3,1.3,5.9,0,11.5-1.4,17.1-3.1,0,0,.2,0,.8.1-6.5,5.7-13.9,8.9-22.5,10.2,1.4,4.6,4.6,7.2,8.4,9.2,3.9,2,8.2,2.3,12.6,2.1,4.7,0,13.1-3.2,15.2-4,10.3-3.5,19.7-8.4,27.1-16.7,2.1-2.4,4.1-5,5.3-8,2.9-7.5,7.8-13.4,13.7-18.7,1.1-1,2-2.3,3.5-2.9,0,1.1-.7,1.6-1.2,2.3-6.9,9.4-13.5,19-18.1,29.8-1.9,4.5-3.4,9.1-3.4,14s.5,5.3,2.1,7.5c1.7,2.3,2.2,2.4,4.1.3,2.6-2.7,3.8-6.1,3.7-9.8-.1-4.5.5-8.8,1.7-13.1,2.7-9.7,6.3-19.1,11.4-27.8.4-.7.7-1.3,1.2-1.8,0,2.1.4,4.6.7,7.5,4,30.6,14,58.8,34.2,84.3-11.4,1-21.2,1.8-31,3-18.5,2.2-37.2,4.2-54.8,11.2-4.4,1.7-10.3,3.2-10,8.9.2,5.5,6.1,7.2,10.5,8.7,12.8,4.5,25.8,7.5,39.6,9.2,50.6,6.2,101.2,7.1,152.1,5.4,13.4-.4,26.1-4.5,39.4-4.4,21.4.2,42.1-3.9,62.3-11.1,3.9-1.4,8.7-3.2,8.9-8.1.1-5.1-4.9-6.6-8.6-8.2h.1ZM345.7,299.1c1.3-5.5,4.4-8.1,9.7-8.6,8.1-.7,17.8-3.1,22.9,4.5,5.2,7.9-.7,15.8-5.9,22.2-8.3,10.3-18.7,18.1-32,21-3.3.7-6.6,1.3-10.5-1,6.9-12.4,12.6-24.8,15.7-38.1ZM94.2,226.2c-5.4-5.8-6.6-12.3-3.8-19.6,1.3-3.2,3.1-6,5.4-8.5,3.2-3.4,5.8-7.2,7.5-11.7,3.8-9.8,3.4-19.8,1-29.8-.6-2.4-1.3-4.9-1.9-7.4,13.1,13,23.1,27.9,29,45.7-2.5.4-4.7,1.5-6.8,2.2-.5-.4-.5-1-.6-1.5-1.2-5.2-2.2-10.6-3.9-15.7-1.3-4-2.6-8-5.2-11.4-1.1-1.3-2.5-2.1-4.3-1.4s-2.4,2.3-2.3,4.1c.1,3.1,1.4,5.8,3.8,7.7,5.8,4.5,8.9,10.7,10.8,17.6.3,1,.2,1.6-.7,2.4-6,4.7-8,11.2-7.1,18.5,1,8.3,5.3,14.9,11,20.8.9.9,1.8,1.8,2.7,2.7-8.8-1.5-17.1-3.8-24.9-7.8-3.5-1.8-6.9-4.1-9.7-7h0ZM87.2,283.6c-4.3.1-8.5,0-12.7-1,8-1,14.3-4.9,19.8-10.6,2.4-2.5,4.7-5.2,6.8-8,2.4-3,4.5-6.1,7.4-8.6,1.6-1.5,3.4-2.6,6.4-2.2-2.7,2.4-4.6,4.8-6.1,7.5-1.5,2.8-2.7,5.8-3.7,8.7-1,3.1-2.1,6.2-3.1,9.4-.5,1.7-1.5,2.4-3.2,2.9-3.8,1.1-7.7,1.7-11.6,1.9h0ZM142.4,268.3c-2,4.8-4.6,9.3-8,13.3-7.5,8.9-16.5,15.1-28.6,15.9-3,.2-6.1.4-9.6-.7,1-.3,1.5-.4,1.9-.5,7.3-1.7,12.6-6.1,16.5-12.5,2.9-4.8,4.5-10.1,5.5-15.6.4-2.2,1-4.4,2.1-6.4,3.5-6.2,11.5-7.9,17.3-3.7,3.5,2.6,4.6,6.1,2.8,10.2h0ZM158.1,261.4c.1-.4.2-1,.8-.7,0,.4-.1.7-.8.7ZM150.9,242.3c-2,2.7-3.2,3-6.1,1.4-.9-.4-1.8-1-2.4-1.7-3.9-4.1-7.5-8.3-9.7-13.6-3.1-7.3-1.8-14.1,3.8-19.7,4.2-4.3,9.4-7.2,15-9.1,4.7-1.6,7.8-4.7,10-8.8,5.8-10.9,9.7-22.4,11.8-34.5.2-1.1.3-2.2,1.6-3,.2.2.4.4.4.6.1.5.3,1.1.4,1.6,2.7,9.9,2.8,20,1.1,30.1-3.6,21.2-13.2,39.7-25.9,56.7h0ZM175.2,269c-.9-6.2,4-7.7,8.2-9.1,15.7-5.4,32.2-6.1,48.5-7.2,7.9-.5,15.9,0,23.8,0,24.6-.9,48.7,2.4,72.7,7.8,6.9,1.6,9.4,5,8.2,12-4.2,23.6-11,45.6-26.4,65.1-25.3,32.1-67.7,37.2-98.5,9.8-23.3-20.8-32.2-48.5-36.6-78.2h0ZM373,381.9c-19.9,6.6-40.6,8-61.2,9.5-51.6,3.4-103.2,3-154.6-4.6-8.4-1.3-16.8-3-24.6-6.4-2.5-1-5.8-2.2-5.7-5.6,0-3.3,3.2-4.4,5.8-5.5,17.9-6.9,37-7.8,55.8-10.3,8.4-1.1,13.1,2.1,18,8.3-10.6,2.6-21.4,1.6-31.3,6.8,3,5.2,8.4,5,12.6,5.5,44.7,5.5,89.4,5.4,134.1,0,4.2-.5,9-.8,12.8-5-8.9-6.3-19.4-3.9-28.9-7.4,4.1-5.8,8.5-9.1,16.5-8.1,16.9,2.1,33.9,3.3,50.2,8.6,4.1,1.3,10.2,2,10,7.4-.1,4.7-5.8,5.5-9.7,6.8h0Z"/>
            <path class="cls-1" d="M151.8,400.7c6.4,5.8,14.3,5.4,21.6,6.6,47.3,7.6,94.9,7.3,142.5,2.7,14.2-1.3,29.3-.6,44.2-10.6-71,8-139.6,7.9-208.3,1.3h0Z"/>
            <path class="cls-1" d="M282.4,230.2l-.4.2h.2c0,.1.2-.2.2-.2h0Z"/>
            <path class="cls-1" d="M198.1,274.2c13.4,2.9,27,3.7,40.5,4.4,25,1.2,49.8.4,74.4-4.3,5.1-1,11.4-.9,14.3-7-19.3-14.3-124.5-14.4-142.8.1,3.5,5.5,8.8,5.8,13.6,6.8h0Z"/>
            <path class="cls-1" d="M279,308c11,9.3,12.7,22,5.8,32.6-2.7,4.2-7.3,6.4-9.9,10.4,29.2-12.4,38.7-39.3,48.6-67.8-23.8,4.7-46.7,4.9-69.8,5.5,10.9,3.5,17.3,12.5,25.3,19.3Z"/>
            <path class="cls-1" d="M215.7,344c1.6-1.3-.1-2.6-1.3-3.5-8.9-17.4-16.7-35.2-15.7-55.2-4.7-1.3-8.9-2.5-14.1-4,7.4,22.2,13.7,43.4,28.5,60.7.7,1,1.4,3,2.7,1.9h0Z"/>
            <path class="cls-1" d="M113,221.4c.4.4,1.2,1,1.8.4.5-.4.6-1.2.3-1.8-3-6-4.2-12.6-7.2-18.6-.5-1.1-1-2.7-2.5-2.4-1.5.3-1.4,1.9-1.6,3.1-.2,1.6,0,3.2.1,4.9,1.5,5.6,4.9,10.2,9,14.3h0Z"/>
            <path class="cls-1" d="M114.2,226.2c-.7-1.4-1.8-1.9-2.8-2.3-4.2-1.6-7.5-4.2-10.1-7.9-.8-1.1-1.8-3-3.5-2-1.8,1-.8,3-.3,4.4,1.3,3.5,3.8,5.7,7.2,6.9,3,1.1,6.1,1.6,9.5.9h0Z"/>
            <path class="cls-1" d="M174.7,171.7c-1.1-.5-1.8.4-2.5,1-2.8,2.9-4.1,6.5-3.9,10.3.9,13.9-3.1,26.6-8.3,39.1-.4,1-.8,2.1-1.3,3.1.1,0,.3.2.4.3,5-8.5,8.7-17.6,11.7-27,2.3-7.5,3.8-15.1,4.6-22.8,0-.6.1-1.1.1-1.7,0-.9.1-2-.8-2.4Z"/>
            <path class="cls-1" d="M149,211.9c-.1-1.5-.4-3-1-4.3-.3-.7-.6-1.3-1.4-1.5-1,0-1.3.7-1.7,1.3-1.5,3-1.8,6.2-1.2,9.5.8,4.5,2.7,8.6,5,12.4.4.6.7,1.4,1.8,1.3,0-.3.1-.5,0-.8-1.6-5.9-1-12-1.7-18h0Z"/>
            <path class="cls-1" d="M139.3,221.4c-.7-1.3-1.6-3.2-3.3-2.6-1.9.7-1.3,2.7-1.1,4.3.8,5.8,7.8,11.8,14,11.5-4.8-3.6-6.9-8.6-9.6-13.1h0Z"/>
            <path class="cls-1" d="M163.8,221.4c.1-.4.3-.7.4-1-.1-.1-.3-.2-.4-.4-.4.4-.4.7,0,1.3h0Z"/>
          </g>
        </g>
        <g>
          <g>
            <path class="cls-1" d="M221.7,174.3h-9l8.5-40,9.3-1.3-4.5,21c2.9-.3,5.5-2,7.7-5.2,2.2-3.2,3.3-6.6,3.3-10.3s-.7-4.8-2-6.3c-1.4-1.5-3.3-2.3-5.7-2.3-5.1,0-9.1,1.4-12,4.1-2.9,2.7-4.3,6.4-4.3,11.2s0,1.5.2,2.1c.1.6.3,1.2.5,1.7.1.2.1.3.2.3v.2c-2.3,0-4.1-.5-5.1-1.5-1.1-1-1.6-2.5-1.6-4.6s.7-4.2,2.1-6.3c1.4-2.1,3.4-4,5.9-5.7,2.1-1.4,4.4-2.5,6.9-3.2,2.5-.8,4.8-1.2,7.2-1.2,4.6,0,8.2,1.1,10.9,3.4,2.6,2.3,4,5.3,4,9s-.5,4.4-1.5,6.5c-1,2.1-2.4,4-4.1,5.6-1.7,1.6-3.6,2.7-5.7,3.5-2.1.8-4.4,1.2-6.8,1.2h-.3l-3.8,17.9h0Z"/>
            <path class="cls-1" d="M253.2,168.5c1.1,0,2.1-.5,2.9-1.4.9-.9,1.6-2.3,2.1-4.1l4.3-20.2h9l-4.5,21.4c-.1.4-.1.7-.2,1,0,.3,0,.6,0,1,0,.8.2,1.4.6,1.8.4.4,1.1.5,2,.5s2.1-.5,3-1.4c.9-1,1.6-2.3,2.1-4.1h2.6c-1.3,3.9-3.1,6.8-5.2,8.7s-4.6,2.9-7.4,2.9-3.2-.5-4.3-1.5-1.7-2.5-1.9-4.4c-1.2,2-2.6,3.5-4.1,4.5-1.5,1-3.3,1.5-5.2,1.5s-3.7-.7-4.9-2c-1.2-1.3-1.8-3.2-1.8-5.6s0-1.2.1-1.9.2-1.4.4-2.2l4.3-20.2h9l-4.5,21.4c-.1.3-.1.6-.2.9v.8c0,.8.2,1.5.5,1.9s.8.7,1.4.7h0Z"/>
            <path class="cls-1" d="M281.2,174.3h-9l6.7-31.4h9l-.8,3.9c1.8-1.5,3.3-2.6,4.4-3.1,1.1-.5,2.1-.8,3.2-.8s2.3.5,3.1,1.4,1.2,2,1.2,3.4-.4,2.4-1.3,3.3c-.8.9-1.9,1.3-3.3,1.3s-1.3-.2-1.7-.5-.7-1-.8-2.1c-.1-.7-.3-1.1-.4-1.3s-.4-.3-.7-.3c-.7,0-1.4.1-2,.4s-1.5.9-2.6,1.9l-5,23.9h0Z"/>
            <path class="cls-1" d="M301.9,187.7l-9.5,2.3,10.5-49.5h9l-1,4.7c1-.9,2.2-1.5,3.4-2,1.2-.5,2.5-.7,4-.7,2.5,0,4.4.8,5.7,2.5s1.9,4.1,1.9,7.4c0,6.4-1.4,11.7-4.1,15.9s-6.5,6.3-11.3,6.3-2.5-.2-3.4-.6c-.9-.4-1.6-.9-2-1.7l-3.3,15.3h0ZM306.2,167.7c.2.5.5.8.9,1.1.4.3.9.4,1.5.4,2.6,0,4.8-1.7,6.4-5.1s2.4-7.3,2.4-11.8-.3-3-.8-3.9c-.5-.9-1.3-1.3-2.4-1.3s-1.5.3-2.3.8-1.5,1.3-2,2.2l-3.7,17.6h0Z"/>
            <path class="cls-1" d="M327.1,167.1c0-.5,0-1.2.1-1.9.1-.7.2-1.4.4-2.2l6.7-31.5,9.3-1.3-7.2,34c-.1.4-.1.7-.2,1,0,.3,0,.6,0,1,0,.8.2,1.4.6,1.8.4.4,1.1.5,2,.5s2.3-.5,3.3-1.5c1-1,1.8-2.4,2.3-4h2.6c-1.3,3.8-3.1,6.7-5.4,8.7-2.3,2-4.9,3-7.8,3s-3.7-.7-4.9-2c-1.2-1.3-1.8-3.2-1.8-5.6h0Z"/>
            <path class="cls-1" d="M366.4,148.3c0,3.5-1.4,6.5-4.3,9.1s-6.2,4-10.2,4.2c0,.7,0,1.2-.1,1.6v.9c0,1.9.3,3.3,1,4.1.6.8,1.8,1.2,3.5,1.2s3.8-.4,5.4-1.4c1.7-.9,3.5-2.6,5.7-5h2.1c-2.4,3.9-5.1,6.9-7.9,8.8-2.8,1.9-6,2.9-9.4,2.9s-5.7-.8-7.3-2.5-2.5-4.2-2.5-7.5.4-4.9,1.1-7.6c.8-2.7,1.8-5.1,3-7.2,1.5-2.5,3.4-4.4,5.6-5.7,2.2-1.3,4.6-1.9,7.3-1.9s4,.5,5.2,1.5c1.2,1,1.7,2.5,1.7,4.6h0ZM360,145.6c-1.4,0-2.9,1.3-4.3,3.8-1.4,2.5-2.5,5.6-3.2,9.1,2.4-.2,4.6-1.3,6.4-3.4,1.8-2.1,2.7-4.4,2.7-7s-.1-1.5-.4-1.9c-.3-.4-.6-.6-1.2-.6h0Z"/>
          </g>
          <g>
            <path class="cls-1" d="M262.1,224.5h-9l8.5-40,9.3-1.3-3,13.9h.4c2.3,0,4.4-1.1,6.3-3.2s2.8-4.5,2.8-7-.7-3.7-2.2-5c-1.4-1.2-3.5-1.8-6.1-1.8-4.4,0-8.1,1.4-11.2,4.2-3,2.8-4.6,6.5-4.6,11.1s0,1.5.2,2.1c.1.6.3,1.2.5,1.7.1.2.1.3.2.3v.2c-2.3,0-3.9-.5-5.1-1.4-1.1-1-1.7-2.4-1.7-4.3s.7-4.5,2.2-6.7c1.4-2.2,3.4-4.1,6-5.7,2.1-1.4,4.4-2.4,6.9-3.2s5.1-1.1,7.7-1.1c4.1,0,7.4.9,9.8,2.8s3.6,4.3,3.6,7.2-.6,3.9-1.7,5.7c-1.1,1.8-2.7,3.2-4.6,4.3,2.4.5,4.2,1.6,5.5,3.4,1.3,1.8,1.9,4,1.9,6.8s-.3,4-.9,6.2c-.6,2.2-1.4,4.1-2.5,5.8-1.3,2-2.8,3.5-4.5,4.6-1.8,1-3.7,1.5-5.9,1.5s-3.5-.4-4.6-1.2c-1.1-.8-1.6-1.9-1.6-3.5s0-1.1.2-1.7c.1-.6.3-1.3.6-2,.8.8,1.5,1.4,2.2,1.7.6.4,1.3.5,2,.5,1.9,0,3.4-1.1,4.5-3.3,1.1-2.2,1.7-4.9,1.7-8s-.5-4.6-1.5-6-2.5-2-4.5-2-.7,0-1.3,0c-.6,0-1.1.1-1.6.1l-5.2,24.1h.2Z"/>
            <path class="cls-1" d="M297.5,218.8c1.1,0,2.1-.5,2.9-1.4s1.6-2.3,2.1-4.1l4.3-20.2h9l-4.5,21.4c-.1.4-.1.7-.2,1,0,.3,0,.6,0,1,0,.8.2,1.4.6,1.8.4.4,1.1.5,2,.5s2.1-.5,3-1.4c.9-1,1.6-2.3,2.1-4.1h2.6c-1.3,3.9-3.1,6.8-5.2,8.7s-4.6,2.9-7.4,2.9-3.2-.5-4.3-1.5-1.7-2.5-1.9-4.4c-1.2,2-2.6,3.5-4.1,4.5-1.5,1-3.3,1.5-5.2,1.5s-3.7-.7-4.9-2c-1.2-1.3-1.8-3.2-1.8-5.6s0-1.2.1-1.9c.1-.7.2-1.4.4-2.2l4.3-20.2h9l-4.5,21.4c-.1.3-.1.6-.2.9v.8c0,.8.2,1.5.5,1.9s.8.7,1.4.7h0Z"/>
            <path class="cls-1" d="M321,193h2.1l1.9-8.7,9.3-1.3-2.1,9.9h3.8l-.5,2.5h-3.8l-4,18.8c-.1.4-.1.7-.2,1,0,.3,0,.6,0,1,0,.8.2,1.4.6,1.8.4.4,1.1.5,2,.5s2.3-.5,3.3-1.5c1-1,1.8-2.4,2.3-4h2.6c-1.3,3.8-3.1,6.7-5.4,8.7-2.3,2-4.9,3-7.8,3s-3.7-.7-4.9-2c-1.2-1.3-1.8-3.2-1.8-5.6s0-1.2.1-1.9.2-1.4.4-2.2l3.8-17.7h-2.1l.5-2.5h0Z"/>
            <path class="cls-1" d="M337.8,193h2.1l1.9-8.7,9.3-1.3-2.1,9.9h3.8l-.5,2.5h-3.8l-4,18.8c-.1.4-.1.7-.2,1,0,.3,0,.6,0,1,0,.8.2,1.4.6,1.8.4.4,1.1.5,2,.5s2.3-.5,3.3-1.5c1-1,1.8-2.4,2.3-4h2.6c-1.3,3.8-3.1,6.7-5.4,8.7-2.3,2-4.9,3-7.8,3s-3.7-.7-4.9-2c-1.2-1.3-1.8-3.2-1.8-5.6s0-1.2.1-1.9.2-1.4.4-2.2l3.8-17.7h-2.1l.5-2.5h0Z"/>
            <path class="cls-1" d="M375.1,198.5c0,3.5-1.4,6.5-4.3,9.1-2.8,2.6-6.2,4-10.2,4.2,0,.7,0,1.2-.1,1.6v.9c0,1.9.3,3.3,1,4.1.6.8,1.8,1.2,3.5,1.2s3.8-.4,5.4-1.4c1.7-.9,3.5-2.6,5.7-5h2.1c-2.4,3.9-5.1,6.9-7.9,8.8-2.8,1.9-6,2.9-9.4,2.9s-5.7-.8-7.3-2.5-2.5-4.2-2.5-7.5.4-4.9,1.1-7.6,1.8-5.1,3-7.2c1.5-2.5,3.4-4.4,5.6-5.7,2.2-1.3,4.6-1.9,7.3-1.9s4,.5,5.2,1.5c1.2,1,1.7,2.5,1.7,4.6h0ZM368.7,195.8c-1.4,0-2.9,1.3-4.3,3.8-1.4,2.5-2.5,5.6-3.2,9.1,2.4-.2,4.6-1.3,6.4-3.4,1.8-2.1,2.7-4.4,2.7-7s-.1-1.5-.4-1.9c-.3-.4-.6-.6-1.2-.6h0Z"/>
            <path class="cls-1" d="M382.9,224.5h-9l6.7-31.4h9l-.8,3.9c1.8-1.5,3.3-2.6,4.4-3.1,1.1-.5,2.1-.8,3.2-.8s2.3.5,3.1,1.4,1.2,2,1.2,3.4-.4,2.4-1.3,3.3c-.8.9-1.9,1.3-3.3,1.3s-1.3-.2-1.7-.5-.7-1-.8-2.1c-.1-.7-.3-1.1-.4-1.3s-.4-.3-.7-.3c-.7,0-1.4.1-2,.4s-1.5.9-2.6,1.9l-5,23.9h0Z"/>
            <path class="cls-1" d="M416.7,177.4c2.1,0,3.8.6,5.2,1.9,1.4,1.3,2.2,2.9,2.2,4.8s0,1,0,1.4,0,.8-.2,1.2h-3c.1-.7.1-1.1.1-1.2v-.5c0-.7-.2-1.2-.7-1.6s-1-.6-1.7-.6-2,.4-2.7,1.3c-.8.9-1.3,2.2-1.7,3.8l-1.1,5h4.6l-.4,2.5h-4.6l-7.2,34c-.8,3.6-2.1,6.2-4,8-1.9,1.8-4.3,2.7-7.3,2.7s-3.8-.6-5.2-1.9c-1.4-1.3-2.2-2.9-2.2-4.8s.7-4,2.2-5.3,4.3-2.7,8.6-4.1l7.6-35.9c.8-3.5,2.1-6.2,4-8,1.9-1.8,4.4-2.7,7.4-2.7h0ZM397.2,226.1c-2.4.8-4.2,1.7-5.3,2.8-1.1,1-1.6,2.3-1.6,3.7s.3,1,.8,1.4,1.1.7,1.7.7,1.5-.4,2.1-1.3,1.1-2.1,1.4-3.6l.8-3.6h0Z"/>
            <path class="cls-1" d="M416.2,217.3c0-.5,0-1.2.1-1.9s.2-1.4.4-2.2l6.7-31.5,9.3-1.3-7.2,34c-.1.4-.1.7-.2,1,0,.3,0,.6,0,1,0,.8.2,1.4.6,1.8.4.4,1.1.5,2,.5s2.3-.5,3.3-1.5c1-1,1.8-2.4,2.3-4h2.6c-1.3,3.8-3.1,6.7-5.4,8.7-2.3,2-4.9,3-7.8,3s-3.7-.7-4.9-2c-1.2-1.3-1.8-3.2-1.8-5.6h0Z"/>
            <path class="cls-1" d="M444,218.8c1,0,2-.4,2.8-1.3.8-.9,1.5-2.2,2.1-3.8l4.4-20.5h9l-6.2,29.2c2.1-.8,3.7-1.8,4.9-3.2,1.2-1.4,2.2-3.3,3-5.8h2.6c-1,3.2-2.3,5.7-4.1,7.7-1.8,1.9-4.1,3.3-7,4.1l-.9,4.5c-.8,3.5-2.1,6.2-4,8-1.9,1.8-4.3,2.7-7.4,2.7s-3.8-.5-5.1-1.6c-1.3-1.1-1.9-2.6-1.9-4.5s.8-3.9,2.5-5.4,4.3-2.9,7.7-3.9l.8-3.4c-1,1.2-2.2,2.1-3.4,2.6-1.2.6-2.6.9-4.1.9s-3.7-.7-4.9-2c-1.2-1.3-1.8-3.2-1.8-5.6s0-1.2.1-1.9.2-1.4.4-2.2l4.3-20.2h9l-4.5,21.4c0,.3-.1.5-.1.8,0,.3,0,.5,0,.8,0,.9.2,1.6.5,2,.3.5.8.7,1.4.7h0ZM445.9,227.9c-2.1.8-3.6,1.6-4.6,2.5-1,.9-1.5,1.8-1.5,2.9s.2,1,.6,1.4c.4.4.9.6,1.5.6s1.4-.5,2.1-1.5,1.2-2.4,1.6-4.1l.4-1.8h0Z"/>
          </g>
        </g>
      </g>
    </g>
  </g>
</svg>